M48
; DRILL file {KiCad (7.0.0)} date Mon May 29 01:19:46 2023
; FORMAT={-:-/ absolute / metric / decimal}
; #@! TF.CreationDate,2023-05-29T01:19:46+09:00
; #@! TF.GenerationSoftware,Kicad,Pcbnew,(7.0.0)
; #@! TF.FileFunction,MixedPlating,1,2
FMAT,2
METRIC
; #@! TA.AperFunction,Plated,PTH,ViaDrill
T1C0.300
; #@! TA.AperFunction,Plated,PTH,ComponentDrill
T2C0.700
; #@! TA.AperFunction,Plated,PTH,ComponentDrill
T3C0.762
; #@! TA.AperFunction,Plated,PTH,ComponentDrill
T4C0.800
; #@! TA.AperFunction,Plated,PTH,ViaDrill
T5C0.900
; #@! TA.AperFunction,Plated,PTH,ComponentDrill
T6C0.900
; #@! TA.AperFunction,Plated,PTH,ComponentDrill
T7C1.000
; #@! TA.AperFunction,Plated,PTH,ComponentDrill
T8C1.100
; #@! TA.AperFunction,NonPlated,NPTH,ComponentDrill
T9C3.500
%
G90
G05
T1
X5.744Y40.232
X7.79Y40.018
X8.298Y66.688
X13.078Y10.051
X13.387Y11.623
X13.886Y47.511
X13.906Y9.069
X14.614Y42.685
X14.648Y40.78
X14.708Y8.949
X15.41Y54.75
X20.986Y53.398
X21.852Y55.004
X22.019Y27.293
X22.333Y51.279
X22.649Y58.052
X22.903Y40.78
X23.411Y57.544
X24.046Y43.32
X27.348Y7.506
X30.904Y54.496
X37.203Y60.659
X38.905Y56.02
X40.382Y16.794
X41.064Y52.845
X41.737Y14.275
X43.35Y75.07
X45.441Y30.307
X45.557Y19.952
X48.59Y38.033
X49.7Y21.229
X49.755Y20.088
X50.081Y41.823
X50.446Y10.157
X50.604Y40.045
X54.618Y37.527
X55.01Y20.956
X55.415Y50.813
X55.588Y22.441
X55.805Y39.738
X57.574Y42.558
X62.273Y46.114
X63.67Y44.59
X64.94Y74.562
X67.725Y73.538
X71.024Y70.232
X72.388Y47.128
X73.281Y42.657
X73.467Y47.584
X73.479Y53.339
X75.14Y63.132
X77.186Y1.762
X79.775Y56.816
X79.877Y61.283
X79.926Y63.132
X80.313Y48.634
X91.906Y50.369
X92.543Y50.88
X93.972Y40.527
T2
X5.25Y31.89
X5.25Y24.27
X5.504Y62.624
X5.504Y60.084
X13.124Y62.624
X13.124Y60.084
X15.41Y62.624
X23.03Y62.624
X27.094Y69.99
X27.094Y62.37
X29.634Y69.99
X29.634Y62.37
X32.047Y69.99
X32.047Y62.37
X34.46Y69.99
X34.46Y62.37
X37.0Y69.99
X37.0Y62.37
X39.54Y69.99
X39.54Y62.37
X41.953Y69.99
X41.953Y62.37
T3
X38.27Y82.69
X40.81Y82.69
X43.35Y82.69
T4
X7.79Y31.87
X7.79Y29.37
X7.79Y26.81
X7.79Y19.19
X10.16Y57.29
X10.16Y54.75
X10.16Y52.21
X10.16Y49.67
X10.16Y47.13
X10.16Y44.59
X10.16Y42.05
X10.16Y39.51
X10.16Y36.97
X10.16Y34.43
X10.16Y31.89
X10.16Y29.35
X10.16Y26.81
X10.16Y24.27
X10.16Y21.73
X10.16Y19.19
X10.16Y16.65
X10.16Y14.11
X10.16Y11.57
X10.16Y9.03
X25.4Y57.29
X25.4Y54.75
X25.4Y52.21
X25.4Y49.67
X25.4Y47.13
X25.4Y44.59
X25.4Y42.05
X25.4Y39.51
X25.4Y36.97
X25.4Y34.43
X25.4Y31.89
X25.4Y29.35
X25.4Y26.81
X25.4Y24.27
X25.4Y21.73
X25.4Y19.19
X25.4Y16.65
X25.4Y14.11
X25.4Y11.57
X25.4Y9.03
X28.11Y36.93
X28.11Y34.43
X38.1Y47.13
X38.1Y44.59
X38.1Y42.05
X38.1Y39.51
X38.1Y36.97
X38.1Y34.43
X38.1Y31.89
X38.1Y29.35
X38.1Y26.81
X38.1Y24.27
X38.1Y21.73
X38.1Y19.19
X38.1Y16.65
X38.1Y14.11
X38.1Y11.57
X38.1Y9.03
X38.27Y77.57
X38.27Y75.07
X47.16Y5.855
X47.16Y3.355
X53.34Y47.13
X53.34Y44.59
X53.34Y42.05
X53.34Y39.51
X53.34Y36.97
X53.34Y34.43
X53.34Y31.89
X53.34Y29.35
X53.34Y26.81
X53.34Y24.27
X53.34Y21.73
X53.34Y19.19
X53.34Y16.65
X53.34Y14.11
X53.34Y11.57
X53.34Y9.03
X68.75Y67.45
X68.75Y64.91
X68.75Y62.37
X68.75Y59.83
X68.75Y57.29
X68.75Y54.75
X68.75Y52.21
X68.75Y49.67
X68.75Y47.13
X68.75Y44.59
X68.75Y42.05
X68.75Y39.51
X68.75Y36.97
X68.75Y34.43
X68.75Y31.89
X68.75Y29.35
X68.75Y26.81
X68.75Y24.27
X68.75Y21.73
X68.75Y19.19
X68.75Y16.65
X68.75Y14.11
X68.75Y11.57
X68.75Y9.03
X75.14Y44.59
X75.14Y24.27
X77.64Y44.59
X77.64Y24.27
X83.99Y67.45
X83.99Y64.91
X83.99Y62.37
X83.99Y59.83
X83.99Y57.29
X83.99Y54.75
X83.99Y52.21
X83.99Y49.67
X83.99Y47.13
X83.99Y44.59
X83.99Y42.05
X83.99Y39.51
X83.99Y36.97
X83.99Y34.43
X83.99Y31.89
X83.99Y29.35
X83.99Y26.81
X83.99Y24.27
X83.99Y21.73
X83.99Y19.19
X83.99Y16.65
X83.99Y14.11
X83.99Y11.57
X83.99Y9.03
X95.42Y57.29
X95.42Y54.75
X95.42Y52.21
X95.42Y49.67
X95.42Y47.13
X95.42Y44.59
X95.42Y42.05
X95.42Y39.51
X95.42Y36.97
T5
X5.25Y64.91
X16.68Y50.94
X16.68Y34.43
X16.68Y29.35
X16.68Y2.68
X19.22Y64.91
X19.22Y36.97
X19.22Y31.89
X19.22Y6.49
X28.11Y80.404
X44.48Y3.315
X59.86Y5.855
X75.1Y3.315
X77.64Y5.855
X81.45Y80.15
T6
X12.87Y69.99
X12.87Y67.45
X17.95Y69.99
X17.95Y67.45
X23.03Y69.99
X23.03Y67.45
X45.89Y69.99
X45.89Y67.45
T7
X2.71Y57.29
X2.71Y54.75
X2.71Y52.21
X2.71Y49.67
X2.71Y47.13
X2.71Y44.59
X12.87Y73.8
X15.41Y73.8
X17.95Y73.8
X20.49Y73.8
X23.03Y73.8
X25.57Y73.8
X28.11Y73.8
X30.65Y73.8
X66.21Y57.29
X66.21Y54.75
X66.21Y52.21
X66.21Y49.67
X66.21Y47.13
X66.21Y44.59
X66.21Y42.05
X66.21Y39.51
X66.21Y36.97
X66.21Y34.43
X66.21Y31.89
X66.21Y29.35
X66.21Y26.81
X66.21Y24.27
X66.21Y21.73
X66.21Y19.19
X66.21Y16.65
X66.21Y14.11
X66.21Y11.57
X66.21Y9.03
X73.83Y73.8
X76.37Y73.8
X78.91Y73.8
X81.45Y73.8
X83.99Y73.8
X86.53Y73.8
X86.53Y64.91
X86.53Y57.29
X86.53Y54.75
X86.53Y52.21
X86.53Y49.67
X86.53Y47.13
X86.53Y44.59
X86.53Y42.05
X86.53Y39.51
X86.53Y36.97
X86.53Y34.43
X86.53Y31.89
X86.53Y29.35
X86.53Y26.81
X86.53Y24.27
X86.53Y21.73
X86.53Y19.19
X86.53Y16.65
X86.53Y14.11
X86.53Y11.57
X86.53Y9.03
T8
X62.4Y82.69
X62.4Y78.19
X68.9Y82.69
X68.9Y78.19
T9
X5.08Y69.85
X5.08Y3.835
X93.98Y69.85
X93.98Y3.81
T7
G00X48.61Y74.292
M15
G01X48.61Y72.292
M16
G05
G00X54.51Y76.292
M15
G01X52.51Y76.292
M16
G05
G00X54.76Y70.292
M15
G01X52.26Y70.292
M16
G05
T0
M30
