G04 #@! TF.GenerationSoftware,KiCad,Pcbnew,(7.0.0)*
G04 #@! TF.CreationDate,2023-05-29T01:19:42+09:00*
G04 #@! TF.ProjectId,EMUPU_RAM40,454d5550-555f-4524-914d-34302e6b6963,003 (DIRECT)*
G04 #@! TF.SameCoordinates,PX55d4a80PY9043270*
G04 #@! TF.FileFunction,Legend,Top*
G04 #@! TF.FilePolarity,Positive*
%FSLAX46Y46*%
G04 Gerber Fmt 4.6, Leading zero omitted, Abs format (unit mm)*
G04 Created by KiCad (PCBNEW (7.0.0)) date 2023-05-29 01:19:42*
%MOMM*%
%LPD*%
G01*
G04 APERTURE LIST*
%ADD10C,0.200000*%
%ADD11C,0.300000*%
%ADD12C,0.150000*%
%ADD13C,0.250000*%
%ADD14C,0.120000*%
G04 APERTURE END LIST*
D10*
G36*
X33825000Y73165000D02*
G01*
X32555000Y73800000D01*
X33825000Y74435000D01*
X33825000Y73165000D01*
G37*
X33825000Y73165000D02*
X32555000Y73800000D01*
X33825000Y74435000D01*
X33825000Y73165000D01*
D11*
X61098571Y25866429D02*
X61098571Y27366429D01*
X61098571Y27366429D02*
X61455714Y27366429D01*
X61455714Y27366429D02*
X61670000Y27295000D01*
X61670000Y27295000D02*
X61812857Y27152143D01*
X61812857Y27152143D02*
X61884286Y27009286D01*
X61884286Y27009286D02*
X61955714Y26723572D01*
X61955714Y26723572D02*
X61955714Y26509286D01*
X61955714Y26509286D02*
X61884286Y26223572D01*
X61884286Y26223572D02*
X61812857Y26080715D01*
X61812857Y26080715D02*
X61670000Y25937858D01*
X61670000Y25937858D02*
X61455714Y25866429D01*
X61455714Y25866429D02*
X61098571Y25866429D01*
X62455714Y27366429D02*
X63455714Y27366429D01*
X63455714Y27366429D02*
X62812857Y25866429D01*
X89927142Y19032143D02*
X90141428Y18960715D01*
X90141428Y18960715D02*
X90212857Y18889286D01*
X90212857Y18889286D02*
X90284285Y18746429D01*
X90284285Y18746429D02*
X90284285Y18532143D01*
X90284285Y18532143D02*
X90212857Y18389286D01*
X90212857Y18389286D02*
X90141428Y18317858D01*
X90141428Y18317858D02*
X89998571Y18246429D01*
X89998571Y18246429D02*
X89427142Y18246429D01*
X89427142Y18246429D02*
X89427142Y19746429D01*
X89427142Y19746429D02*
X89927142Y19746429D01*
X89927142Y19746429D02*
X90070000Y19675000D01*
X90070000Y19675000D02*
X90141428Y19603572D01*
X90141428Y19603572D02*
X90212857Y19460715D01*
X90212857Y19460715D02*
X90212857Y19317858D01*
X90212857Y19317858D02*
X90141428Y19175000D01*
X90141428Y19175000D02*
X90070000Y19103572D01*
X90070000Y19103572D02*
X89927142Y19032143D01*
X89927142Y19032143D02*
X89427142Y19032143D01*
X90927142Y19746429D02*
X90927142Y18532143D01*
X90927142Y18532143D02*
X90998571Y18389286D01*
X90998571Y18389286D02*
X91070000Y18317858D01*
X91070000Y18317858D02*
X91212857Y18246429D01*
X91212857Y18246429D02*
X91498571Y18246429D01*
X91498571Y18246429D02*
X91641428Y18317858D01*
X91641428Y18317858D02*
X91712857Y18389286D01*
X91712857Y18389286D02*
X91784285Y18532143D01*
X91784285Y18532143D02*
X91784285Y19746429D01*
X92427143Y18317858D02*
X92641429Y18246429D01*
X92641429Y18246429D02*
X92998571Y18246429D01*
X92998571Y18246429D02*
X93141429Y18317858D01*
X93141429Y18317858D02*
X93212857Y18389286D01*
X93212857Y18389286D02*
X93284286Y18532143D01*
X93284286Y18532143D02*
X93284286Y18675000D01*
X93284286Y18675000D02*
X93212857Y18817858D01*
X93212857Y18817858D02*
X93141429Y18889286D01*
X93141429Y18889286D02*
X92998571Y18960715D01*
X92998571Y18960715D02*
X92712857Y19032143D01*
X92712857Y19032143D02*
X92570000Y19103572D01*
X92570000Y19103572D02*
X92498571Y19175000D01*
X92498571Y19175000D02*
X92427143Y19317858D01*
X92427143Y19317858D02*
X92427143Y19460715D01*
X92427143Y19460715D02*
X92498571Y19603572D01*
X92498571Y19603572D02*
X92570000Y19675000D01*
X92570000Y19675000D02*
X92712857Y19746429D01*
X92712857Y19746429D02*
X93070000Y19746429D01*
X93070000Y19746429D02*
X93284286Y19675000D01*
X94784285Y18246429D02*
X94284285Y18960715D01*
X93927142Y18246429D02*
X93927142Y19746429D01*
X93927142Y19746429D02*
X94498571Y19746429D01*
X94498571Y19746429D02*
X94641428Y19675000D01*
X94641428Y19675000D02*
X94712857Y19603572D01*
X94712857Y19603572D02*
X94784285Y19460715D01*
X94784285Y19460715D02*
X94784285Y19246429D01*
X94784285Y19246429D02*
X94712857Y19103572D01*
X94712857Y19103572D02*
X94641428Y19032143D01*
X94641428Y19032143D02*
X94498571Y18960715D01*
X94498571Y18960715D02*
X93927142Y18960715D01*
X96427142Y18103572D02*
X96284285Y18175000D01*
X96284285Y18175000D02*
X96141428Y18317858D01*
X96141428Y18317858D02*
X95927142Y18532143D01*
X95927142Y18532143D02*
X95784285Y18603572D01*
X95784285Y18603572D02*
X95641428Y18603572D01*
X95712857Y18246429D02*
X95570000Y18317858D01*
X95570000Y18317858D02*
X95427142Y18460715D01*
X95427142Y18460715D02*
X95355714Y18746429D01*
X95355714Y18746429D02*
X95355714Y19246429D01*
X95355714Y19246429D02*
X95427142Y19532143D01*
X95427142Y19532143D02*
X95570000Y19675000D01*
X95570000Y19675000D02*
X95712857Y19746429D01*
X95712857Y19746429D02*
X95998571Y19746429D01*
X95998571Y19746429D02*
X96141428Y19675000D01*
X96141428Y19675000D02*
X96284285Y19532143D01*
X96284285Y19532143D02*
X96355714Y19246429D01*
X96355714Y19246429D02*
X96355714Y18746429D01*
X96355714Y18746429D02*
X96284285Y18460715D01*
X96284285Y18460715D02*
X96141428Y18317858D01*
X96141428Y18317858D02*
X95998571Y18246429D01*
X95998571Y18246429D02*
X95712857Y18246429D01*
X89220000Y20275000D02*
X96491429Y20275000D01*
X59812858Y51695000D02*
X60527144Y51695000D01*
X59670001Y51266429D02*
X60170001Y52766429D01*
X60170001Y52766429D02*
X60670001Y51266429D01*
X61955715Y51266429D02*
X61098572Y51266429D01*
X61527143Y51266429D02*
X61527143Y52766429D01*
X61527143Y52766429D02*
X61384286Y52552143D01*
X61384286Y52552143D02*
X61241429Y52409286D01*
X61241429Y52409286D02*
X61098572Y52337858D01*
X62455714Y52766429D02*
X63384286Y52766429D01*
X63384286Y52766429D02*
X62884286Y52195000D01*
X62884286Y52195000D02*
X63098571Y52195000D01*
X63098571Y52195000D02*
X63241429Y52123572D01*
X63241429Y52123572D02*
X63312857Y52052143D01*
X63312857Y52052143D02*
X63384286Y51909286D01*
X63384286Y51909286D02*
X63384286Y51552143D01*
X63384286Y51552143D02*
X63312857Y51409286D01*
X63312857Y51409286D02*
X63241429Y51337858D01*
X63241429Y51337858D02*
X63098571Y51266429D01*
X63098571Y51266429D02*
X62670000Y51266429D01*
X62670000Y51266429D02*
X62527143Y51337858D01*
X62527143Y51337858D02*
X62455714Y51409286D01*
X12739999Y4764643D02*
X13239999Y4764643D01*
X13454285Y3978929D02*
X12739999Y3978929D01*
X12739999Y3978929D02*
X12739999Y5478929D01*
X12739999Y5478929D02*
X13454285Y5478929D01*
X14097142Y3978929D02*
X14097142Y5478929D01*
X14097142Y5478929D02*
X14597142Y4407500D01*
X14597142Y4407500D02*
X15097142Y5478929D01*
X15097142Y5478929D02*
X15097142Y3978929D01*
X15811428Y5478929D02*
X15811428Y4264643D01*
X15811428Y4264643D02*
X15882857Y4121786D01*
X15882857Y4121786D02*
X15954286Y4050358D01*
X15954286Y4050358D02*
X16097143Y3978929D01*
X16097143Y3978929D02*
X16382857Y3978929D01*
X16382857Y3978929D02*
X16525714Y4050358D01*
X16525714Y4050358D02*
X16597143Y4121786D01*
X16597143Y4121786D02*
X16668571Y4264643D01*
X16668571Y4264643D02*
X16668571Y5478929D01*
X17382857Y3978929D02*
X17382857Y5478929D01*
X17382857Y5478929D02*
X17954286Y5478929D01*
X17954286Y5478929D02*
X18097143Y5407500D01*
X18097143Y5407500D02*
X18168572Y5336072D01*
X18168572Y5336072D02*
X18240000Y5193215D01*
X18240000Y5193215D02*
X18240000Y4978929D01*
X18240000Y4978929D02*
X18168572Y4836072D01*
X18168572Y4836072D02*
X18097143Y4764643D01*
X18097143Y4764643D02*
X17954286Y4693215D01*
X17954286Y4693215D02*
X17382857Y4693215D01*
X18882857Y5478929D02*
X18882857Y4264643D01*
X18882857Y4264643D02*
X18954286Y4121786D01*
X18954286Y4121786D02*
X19025715Y4050358D01*
X19025715Y4050358D02*
X19168572Y3978929D01*
X19168572Y3978929D02*
X19454286Y3978929D01*
X19454286Y3978929D02*
X19597143Y4050358D01*
X19597143Y4050358D02*
X19668572Y4121786D01*
X19668572Y4121786D02*
X19740000Y4264643D01*
X19740000Y4264643D02*
X19740000Y5478929D01*
X20097144Y3836072D02*
X21240001Y3836072D01*
X22454286Y3978929D02*
X21954286Y4693215D01*
X21597143Y3978929D02*
X21597143Y5478929D01*
X21597143Y5478929D02*
X22168572Y5478929D01*
X22168572Y5478929D02*
X22311429Y5407500D01*
X22311429Y5407500D02*
X22382858Y5336072D01*
X22382858Y5336072D02*
X22454286Y5193215D01*
X22454286Y5193215D02*
X22454286Y4978929D01*
X22454286Y4978929D02*
X22382858Y4836072D01*
X22382858Y4836072D02*
X22311429Y4764643D01*
X22311429Y4764643D02*
X22168572Y4693215D01*
X22168572Y4693215D02*
X21597143Y4693215D01*
X23025715Y4407500D02*
X23740001Y4407500D01*
X22882858Y3978929D02*
X23382858Y5478929D01*
X23382858Y5478929D02*
X23882858Y3978929D01*
X24382857Y3978929D02*
X24382857Y5478929D01*
X24382857Y5478929D02*
X24882857Y4407500D01*
X24882857Y4407500D02*
X25382857Y5478929D01*
X25382857Y5478929D02*
X25382857Y3978929D01*
X26740001Y4978929D02*
X26740001Y3978929D01*
X26382858Y5550358D02*
X26025715Y4478929D01*
X26025715Y4478929D02*
X26954286Y4478929D01*
X27811429Y5478929D02*
X27954286Y5478929D01*
X27954286Y5478929D02*
X28097143Y5407500D01*
X28097143Y5407500D02*
X28168572Y5336072D01*
X28168572Y5336072D02*
X28240000Y5193215D01*
X28240000Y5193215D02*
X28311429Y4907500D01*
X28311429Y4907500D02*
X28311429Y4550358D01*
X28311429Y4550358D02*
X28240000Y4264643D01*
X28240000Y4264643D02*
X28168572Y4121786D01*
X28168572Y4121786D02*
X28097143Y4050358D01*
X28097143Y4050358D02*
X27954286Y3978929D01*
X27954286Y3978929D02*
X27811429Y3978929D01*
X27811429Y3978929D02*
X27668572Y4050358D01*
X27668572Y4050358D02*
X27597143Y4121786D01*
X27597143Y4121786D02*
X27525714Y4264643D01*
X27525714Y4264643D02*
X27454286Y4550358D01*
X27454286Y4550358D02*
X27454286Y4907500D01*
X27454286Y4907500D02*
X27525714Y5193215D01*
X27525714Y5193215D02*
X27597143Y5336072D01*
X27597143Y5336072D02*
X27668572Y5407500D01*
X27668572Y5407500D02*
X27811429Y5478929D01*
X8997143Y977500D02*
X8925714Y1048929D01*
X8925714Y1048929D02*
X8782857Y1263215D01*
X8782857Y1263215D02*
X8711429Y1406072D01*
X8711429Y1406072D02*
X8640000Y1620358D01*
X8640000Y1620358D02*
X8568571Y1977500D01*
X8568571Y1977500D02*
X8568571Y2263215D01*
X8568571Y2263215D02*
X8640000Y2620358D01*
X8640000Y2620358D02*
X8711429Y2834643D01*
X8711429Y2834643D02*
X8782857Y2977500D01*
X8782857Y2977500D02*
X8925714Y3191786D01*
X8925714Y3191786D02*
X8997143Y3263215D01*
X10425714Y1691786D02*
X10354286Y1620358D01*
X10354286Y1620358D02*
X10140000Y1548929D01*
X10140000Y1548929D02*
X9997143Y1548929D01*
X9997143Y1548929D02*
X9782857Y1620358D01*
X9782857Y1620358D02*
X9640000Y1763215D01*
X9640000Y1763215D02*
X9568571Y1906072D01*
X9568571Y1906072D02*
X9497143Y2191786D01*
X9497143Y2191786D02*
X9497143Y2406072D01*
X9497143Y2406072D02*
X9568571Y2691786D01*
X9568571Y2691786D02*
X9640000Y2834643D01*
X9640000Y2834643D02*
X9782857Y2977500D01*
X9782857Y2977500D02*
X9997143Y3048929D01*
X9997143Y3048929D02*
X10140000Y3048929D01*
X10140000Y3048929D02*
X10354286Y2977500D01*
X10354286Y2977500D02*
X10425714Y2906072D01*
X10925714Y977500D02*
X10997143Y1048929D01*
X10997143Y1048929D02*
X11140000Y1263215D01*
X11140000Y1263215D02*
X11211429Y1406072D01*
X11211429Y1406072D02*
X11282857Y1620358D01*
X11282857Y1620358D02*
X11354286Y1977500D01*
X11354286Y1977500D02*
X11354286Y2263215D01*
X11354286Y2263215D02*
X11282857Y2620358D01*
X11282857Y2620358D02*
X11211429Y2834643D01*
X11211429Y2834643D02*
X11140000Y2977500D01*
X11140000Y2977500D02*
X10997143Y3191786D01*
X10997143Y3191786D02*
X10925714Y3263215D01*
X12897143Y2906072D02*
X12968571Y2977500D01*
X12968571Y2977500D02*
X13111429Y3048929D01*
X13111429Y3048929D02*
X13468571Y3048929D01*
X13468571Y3048929D02*
X13611429Y2977500D01*
X13611429Y2977500D02*
X13682857Y2906072D01*
X13682857Y2906072D02*
X13754286Y2763215D01*
X13754286Y2763215D02*
X13754286Y2620358D01*
X13754286Y2620358D02*
X13682857Y2406072D01*
X13682857Y2406072D02*
X12825714Y1548929D01*
X12825714Y1548929D02*
X13754286Y1548929D01*
X14682857Y3048929D02*
X14825714Y3048929D01*
X14825714Y3048929D02*
X14968571Y2977500D01*
X14968571Y2977500D02*
X15040000Y2906072D01*
X15040000Y2906072D02*
X15111428Y2763215D01*
X15111428Y2763215D02*
X15182857Y2477500D01*
X15182857Y2477500D02*
X15182857Y2120358D01*
X15182857Y2120358D02*
X15111428Y1834643D01*
X15111428Y1834643D02*
X15040000Y1691786D01*
X15040000Y1691786D02*
X14968571Y1620358D01*
X14968571Y1620358D02*
X14825714Y1548929D01*
X14825714Y1548929D02*
X14682857Y1548929D01*
X14682857Y1548929D02*
X14540000Y1620358D01*
X14540000Y1620358D02*
X14468571Y1691786D01*
X14468571Y1691786D02*
X14397142Y1834643D01*
X14397142Y1834643D02*
X14325714Y2120358D01*
X14325714Y2120358D02*
X14325714Y2477500D01*
X14325714Y2477500D02*
X14397142Y2763215D01*
X14397142Y2763215D02*
X14468571Y2906072D01*
X14468571Y2906072D02*
X14540000Y2977500D01*
X14540000Y2977500D02*
X14682857Y3048929D01*
X15754285Y2906072D02*
X15825713Y2977500D01*
X15825713Y2977500D02*
X15968571Y3048929D01*
X15968571Y3048929D02*
X16325713Y3048929D01*
X16325713Y3048929D02*
X16468571Y2977500D01*
X16468571Y2977500D02*
X16539999Y2906072D01*
X16539999Y2906072D02*
X16611428Y2763215D01*
X16611428Y2763215D02*
X16611428Y2620358D01*
X16611428Y2620358D02*
X16539999Y2406072D01*
X16539999Y2406072D02*
X15682856Y1548929D01*
X15682856Y1548929D02*
X16611428Y1548929D01*
X17111427Y3048929D02*
X18039999Y3048929D01*
X18039999Y3048929D02*
X17539999Y2477500D01*
X17539999Y2477500D02*
X17754284Y2477500D01*
X17754284Y2477500D02*
X17897142Y2406072D01*
X17897142Y2406072D02*
X17968570Y2334643D01*
X17968570Y2334643D02*
X18039999Y2191786D01*
X18039999Y2191786D02*
X18039999Y1834643D01*
X18039999Y1834643D02*
X17968570Y1691786D01*
X17968570Y1691786D02*
X17897142Y1620358D01*
X17897142Y1620358D02*
X17754284Y1548929D01*
X17754284Y1548929D02*
X17325713Y1548929D01*
X17325713Y1548929D02*
X17182856Y1620358D01*
X17182856Y1620358D02*
X17111427Y1691786D01*
X18754284Y1620358D02*
X18754284Y1548929D01*
X18754284Y1548929D02*
X18682855Y1406072D01*
X18682855Y1406072D02*
X18611427Y1334643D01*
X20297141Y1548929D02*
X20297141Y3048929D01*
X20297141Y3048929D02*
X21154284Y1548929D01*
X21154284Y1548929D02*
X21154284Y3048929D01*
X21868570Y1691786D02*
X21939999Y1620358D01*
X21939999Y1620358D02*
X21868570Y1548929D01*
X21868570Y1548929D02*
X21797142Y1620358D01*
X21797142Y1620358D02*
X21868570Y1691786D01*
X21868570Y1691786D02*
X21868570Y1548929D01*
X23482856Y1548929D02*
X23482856Y3048929D01*
X24339999Y1548929D02*
X23697142Y2406072D01*
X24339999Y3048929D02*
X23482856Y2191786D01*
X25625714Y2548929D02*
X25625714Y1548929D01*
X24982856Y2548929D02*
X24982856Y1763215D01*
X24982856Y1763215D02*
X25054285Y1620358D01*
X25054285Y1620358D02*
X25197142Y1548929D01*
X25197142Y1548929D02*
X25411428Y1548929D01*
X25411428Y1548929D02*
X25554285Y1620358D01*
X25554285Y1620358D02*
X25625714Y1691786D01*
X26339999Y1548929D02*
X26339999Y2548929D01*
X26339999Y2406072D02*
X26411428Y2477500D01*
X26411428Y2477500D02*
X26554285Y2548929D01*
X26554285Y2548929D02*
X26768571Y2548929D01*
X26768571Y2548929D02*
X26911428Y2477500D01*
X26911428Y2477500D02*
X26982857Y2334643D01*
X26982857Y2334643D02*
X26982857Y1548929D01*
X26982857Y2334643D02*
X27054285Y2477500D01*
X27054285Y2477500D02*
X27197142Y2548929D01*
X27197142Y2548929D02*
X27411428Y2548929D01*
X27411428Y2548929D02*
X27554285Y2477500D01*
X27554285Y2477500D02*
X27625714Y2334643D01*
X27625714Y2334643D02*
X27625714Y1548929D01*
X28982857Y1548929D02*
X28982857Y2334643D01*
X28982857Y2334643D02*
X28911428Y2477500D01*
X28911428Y2477500D02*
X28768571Y2548929D01*
X28768571Y2548929D02*
X28482857Y2548929D01*
X28482857Y2548929D02*
X28339999Y2477500D01*
X28982857Y1620358D02*
X28839999Y1548929D01*
X28839999Y1548929D02*
X28482857Y1548929D01*
X28482857Y1548929D02*
X28339999Y1620358D01*
X28339999Y1620358D02*
X28268571Y1763215D01*
X28268571Y1763215D02*
X28268571Y1906072D01*
X28268571Y1906072D02*
X28339999Y2048929D01*
X28339999Y2048929D02*
X28482857Y2120358D01*
X28482857Y2120358D02*
X28839999Y2120358D01*
X28839999Y2120358D02*
X28982857Y2191786D01*
X30340000Y2548929D02*
X30340000Y1334643D01*
X30340000Y1334643D02*
X30268571Y1191786D01*
X30268571Y1191786D02*
X30197142Y1120358D01*
X30197142Y1120358D02*
X30054285Y1048929D01*
X30054285Y1048929D02*
X29840000Y1048929D01*
X29840000Y1048929D02*
X29697142Y1120358D01*
X30340000Y1620358D02*
X30197142Y1548929D01*
X30197142Y1548929D02*
X29911428Y1548929D01*
X29911428Y1548929D02*
X29768571Y1620358D01*
X29768571Y1620358D02*
X29697142Y1691786D01*
X29697142Y1691786D02*
X29625714Y1834643D01*
X29625714Y1834643D02*
X29625714Y2263215D01*
X29625714Y2263215D02*
X29697142Y2406072D01*
X29697142Y2406072D02*
X29768571Y2477500D01*
X29768571Y2477500D02*
X29911428Y2548929D01*
X29911428Y2548929D02*
X30197142Y2548929D01*
X30197142Y2548929D02*
X30340000Y2477500D01*
X31697143Y1548929D02*
X31697143Y2334643D01*
X31697143Y2334643D02*
X31625714Y2477500D01*
X31625714Y2477500D02*
X31482857Y2548929D01*
X31482857Y2548929D02*
X31197143Y2548929D01*
X31197143Y2548929D02*
X31054285Y2477500D01*
X31697143Y1620358D02*
X31554285Y1548929D01*
X31554285Y1548929D02*
X31197143Y1548929D01*
X31197143Y1548929D02*
X31054285Y1620358D01*
X31054285Y1620358D02*
X30982857Y1763215D01*
X30982857Y1763215D02*
X30982857Y1906072D01*
X30982857Y1906072D02*
X31054285Y2048929D01*
X31054285Y2048929D02*
X31197143Y2120358D01*
X31197143Y2120358D02*
X31554285Y2120358D01*
X31554285Y2120358D02*
X31697143Y2191786D01*
X32411428Y1548929D02*
X32411428Y2548929D01*
X32411428Y3048929D02*
X32340000Y2977500D01*
X32340000Y2977500D02*
X32411428Y2906072D01*
X32411428Y2906072D02*
X32482857Y2977500D01*
X32482857Y2977500D02*
X32411428Y3048929D01*
X32411428Y3048929D02*
X32411428Y2906072D01*
X58812856Y13166429D02*
X58812856Y14666429D01*
X58812856Y13952143D02*
X59669999Y13952143D01*
X59669999Y13166429D02*
X59669999Y14666429D01*
X60312857Y13595000D02*
X61027143Y13595000D01*
X60170000Y13166429D02*
X60670000Y14666429D01*
X60670000Y14666429D02*
X61170000Y13166429D01*
X62384285Y13166429D02*
X61669999Y13166429D01*
X61669999Y13166429D02*
X61669999Y14666429D01*
X62670000Y14666429D02*
X63527143Y14666429D01*
X63098571Y13166429D02*
X63098571Y14666429D01*
X58605714Y15195000D02*
X63520000Y15195000D01*
X4462571Y44273286D02*
X4634000Y44216143D01*
X4634000Y44216143D02*
X4919714Y44216143D01*
X4919714Y44216143D02*
X5034000Y44273286D01*
X5034000Y44273286D02*
X5091142Y44330429D01*
X5091142Y44330429D02*
X5148285Y44444715D01*
X5148285Y44444715D02*
X5148285Y44559000D01*
X5148285Y44559000D02*
X5091142Y44673286D01*
X5091142Y44673286D02*
X5034000Y44730429D01*
X5034000Y44730429D02*
X4919714Y44787572D01*
X4919714Y44787572D02*
X4691142Y44844715D01*
X4691142Y44844715D02*
X4576857Y44901858D01*
X4576857Y44901858D02*
X4519714Y44959000D01*
X4519714Y44959000D02*
X4462571Y45073286D01*
X4462571Y45073286D02*
X4462571Y45187572D01*
X4462571Y45187572D02*
X4519714Y45301858D01*
X4519714Y45301858D02*
X4576857Y45359000D01*
X4576857Y45359000D02*
X4691142Y45416143D01*
X4691142Y45416143D02*
X4976857Y45416143D01*
X4976857Y45416143D02*
X5148285Y45359000D01*
X6348285Y44330429D02*
X6291142Y44273286D01*
X6291142Y44273286D02*
X6119714Y44216143D01*
X6119714Y44216143D02*
X6005428Y44216143D01*
X6005428Y44216143D02*
X5833999Y44273286D01*
X5833999Y44273286D02*
X5719714Y44387572D01*
X5719714Y44387572D02*
X5662571Y44501858D01*
X5662571Y44501858D02*
X5605428Y44730429D01*
X5605428Y44730429D02*
X5605428Y44901858D01*
X5605428Y44901858D02*
X5662571Y45130429D01*
X5662571Y45130429D02*
X5719714Y45244715D01*
X5719714Y45244715D02*
X5833999Y45359000D01*
X5833999Y45359000D02*
X6005428Y45416143D01*
X6005428Y45416143D02*
X6119714Y45416143D01*
X6119714Y45416143D02*
X6291142Y45359000D01*
X6291142Y45359000D02*
X6348285Y45301858D01*
X7433999Y44216143D02*
X6862571Y44216143D01*
X6862571Y44216143D02*
X6862571Y45416143D01*
X7834000Y44216143D02*
X7834000Y45416143D01*
X8519714Y44216143D02*
X8005428Y44901858D01*
X8519714Y45416143D02*
X7834000Y44730429D01*
D12*
X18367380Y79340953D02*
X17367380Y79340953D01*
X17367380Y79340953D02*
X17367380Y79579048D01*
X17367380Y79579048D02*
X17415000Y79721905D01*
X17415000Y79721905D02*
X17510238Y79817143D01*
X17510238Y79817143D02*
X17605476Y79864762D01*
X17605476Y79864762D02*
X17795952Y79912381D01*
X17795952Y79912381D02*
X17938809Y79912381D01*
X17938809Y79912381D02*
X18129285Y79864762D01*
X18129285Y79864762D02*
X18224523Y79817143D01*
X18224523Y79817143D02*
X18319761Y79721905D01*
X18319761Y79721905D02*
X18367380Y79579048D01*
X18367380Y79579048D02*
X18367380Y79340953D01*
X17367380Y80531429D02*
X17367380Y80721905D01*
X17367380Y80721905D02*
X17415000Y80817143D01*
X17415000Y80817143D02*
X17510238Y80912381D01*
X17510238Y80912381D02*
X17700714Y80960000D01*
X17700714Y80960000D02*
X18034047Y80960000D01*
X18034047Y80960000D02*
X18224523Y80912381D01*
X18224523Y80912381D02*
X18319761Y80817143D01*
X18319761Y80817143D02*
X18367380Y80721905D01*
X18367380Y80721905D02*
X18367380Y80531429D01*
X18367380Y80531429D02*
X18319761Y80436191D01*
X18319761Y80436191D02*
X18224523Y80340953D01*
X18224523Y80340953D02*
X18034047Y80293334D01*
X18034047Y80293334D02*
X17700714Y80293334D01*
X17700714Y80293334D02*
X17510238Y80340953D01*
X17510238Y80340953D02*
X17415000Y80436191D01*
X17415000Y80436191D02*
X17367380Y80531429D01*
X18367380Y81388572D02*
X17367380Y81388572D01*
X17367380Y81388572D02*
X18367380Y81960000D01*
X18367380Y81960000D02*
X17367380Y81960000D01*
X17367380Y82293334D02*
X17367380Y82864762D01*
X18367380Y82579048D02*
X17367380Y82579048D01*
X18272142Y83769524D02*
X18319761Y83721905D01*
X18319761Y83721905D02*
X18367380Y83579048D01*
X18367380Y83579048D02*
X18367380Y83483810D01*
X18367380Y83483810D02*
X18319761Y83340953D01*
X18319761Y83340953D02*
X18224523Y83245715D01*
X18224523Y83245715D02*
X18129285Y83198096D01*
X18129285Y83198096D02*
X17938809Y83150477D01*
X17938809Y83150477D02*
X17795952Y83150477D01*
X17795952Y83150477D02*
X17605476Y83198096D01*
X17605476Y83198096D02*
X17510238Y83245715D01*
X17510238Y83245715D02*
X17415000Y83340953D01*
X17415000Y83340953D02*
X17367380Y83483810D01*
X17367380Y83483810D02*
X17367380Y83579048D01*
X17367380Y83579048D02*
X17415000Y83721905D01*
X17415000Y83721905D02*
X17462619Y83769524D01*
X84407380Y81023096D02*
X83407380Y81023096D01*
X83407380Y81023096D02*
X84407380Y81594524D01*
X84407380Y81594524D02*
X83407380Y81594524D01*
X84312142Y82642143D02*
X84359761Y82594524D01*
X84359761Y82594524D02*
X84407380Y82451667D01*
X84407380Y82451667D02*
X84407380Y82356429D01*
X84407380Y82356429D02*
X84359761Y82213572D01*
X84359761Y82213572D02*
X84264523Y82118334D01*
X84264523Y82118334D02*
X84169285Y82070715D01*
X84169285Y82070715D02*
X83978809Y82023096D01*
X83978809Y82023096D02*
X83835952Y82023096D01*
X83835952Y82023096D02*
X83645476Y82070715D01*
X83645476Y82070715D02*
X83550238Y82118334D01*
X83550238Y82118334D02*
X83455000Y82213572D01*
X83455000Y82213572D02*
X83407380Y82356429D01*
X83407380Y82356429D02*
X83407380Y82451667D01*
X83407380Y82451667D02*
X83455000Y82594524D01*
X83455000Y82594524D02*
X83502619Y82642143D01*
D11*
X59812858Y56775000D02*
X60527144Y56775000D01*
X59670001Y56346429D02*
X60170001Y57846429D01*
X60170001Y57846429D02*
X60670001Y56346429D01*
X61955715Y56346429D02*
X61098572Y56346429D01*
X61527143Y56346429D02*
X61527143Y57846429D01*
X61527143Y57846429D02*
X61384286Y57632143D01*
X61384286Y57632143D02*
X61241429Y57489286D01*
X61241429Y57489286D02*
X61098572Y57417858D01*
X63384286Y56346429D02*
X62527143Y56346429D01*
X62955714Y56346429D02*
X62955714Y57846429D01*
X62955714Y57846429D02*
X62812857Y57632143D01*
X62812857Y57632143D02*
X62670000Y57489286D01*
X62670000Y57489286D02*
X62527143Y57417858D01*
X89355714Y41535000D02*
X90070000Y41535000D01*
X89212857Y41106429D02*
X89712857Y42606429D01*
X89712857Y42606429D02*
X90212857Y41106429D01*
X91355714Y42106429D02*
X91355714Y41106429D01*
X90998571Y42677858D02*
X90641428Y41606429D01*
X90641428Y41606429D02*
X91569999Y41606429D01*
X89427142Y23326429D02*
X89427142Y24826429D01*
X89427142Y24826429D02*
X89927142Y23755000D01*
X89927142Y23755000D02*
X90427142Y24826429D01*
X90427142Y24826429D02*
X90427142Y23326429D01*
X91927143Y23326429D02*
X91070000Y23326429D01*
X91498571Y23326429D02*
X91498571Y24826429D01*
X91498571Y24826429D02*
X91355714Y24612143D01*
X91355714Y24612143D02*
X91212857Y24469286D01*
X91212857Y24469286D02*
X91070000Y24397858D01*
X89220000Y25355000D02*
X92062857Y25355000D01*
X60598570Y18246429D02*
X60598570Y19746429D01*
X61312856Y18246429D02*
X61312856Y19746429D01*
X61312856Y19746429D02*
X62169999Y18246429D01*
X62169999Y18246429D02*
X62169999Y19746429D01*
X62670000Y19746429D02*
X63527143Y19746429D01*
X63098571Y18246429D02*
X63098571Y19746429D01*
X60391428Y20275000D02*
X63520000Y20275000D01*
D12*
X15827380Y82150477D02*
X14827380Y82150477D01*
X14827380Y82150477D02*
X15827380Y82721905D01*
X15827380Y82721905D02*
X14827380Y82721905D01*
X15732142Y83769524D02*
X15779761Y83721905D01*
X15779761Y83721905D02*
X15827380Y83579048D01*
X15827380Y83579048D02*
X15827380Y83483810D01*
X15827380Y83483810D02*
X15779761Y83340953D01*
X15779761Y83340953D02*
X15684523Y83245715D01*
X15684523Y83245715D02*
X15589285Y83198096D01*
X15589285Y83198096D02*
X15398809Y83150477D01*
X15398809Y83150477D02*
X15255952Y83150477D01*
X15255952Y83150477D02*
X15065476Y83198096D01*
X15065476Y83198096D02*
X14970238Y83245715D01*
X14970238Y83245715D02*
X14875000Y83340953D01*
X14875000Y83340953D02*
X14827380Y83483810D01*
X14827380Y83483810D02*
X14827380Y83579048D01*
X14827380Y83579048D02*
X14875000Y83721905D01*
X14875000Y83721905D02*
X14922619Y83769524D01*
D11*
X60027141Y15706429D02*
X60027141Y17206429D01*
X60027141Y17206429D02*
X60884284Y15706429D01*
X60884284Y15706429D02*
X60884284Y17206429D01*
X61598570Y15706429D02*
X61598570Y17206429D01*
X61598570Y17206429D02*
X62098570Y16135000D01*
X62098570Y16135000D02*
X62598570Y17206429D01*
X62598570Y17206429D02*
X62598570Y15706429D01*
X63312856Y15706429D02*
X63312856Y17206429D01*
X59819999Y17735000D02*
X63520000Y17735000D01*
X89355714Y49155000D02*
X90070000Y49155000D01*
X89212857Y48726429D02*
X89712857Y50226429D01*
X89712857Y50226429D02*
X90212857Y48726429D01*
X90569999Y50226429D02*
X91569999Y50226429D01*
X91569999Y50226429D02*
X90927142Y48726429D01*
D12*
X23447380Y81198096D02*
X22447380Y81198096D01*
X22447380Y81198096D02*
X22447380Y81579048D01*
X22447380Y81579048D02*
X22495000Y81674286D01*
X22495000Y81674286D02*
X22542619Y81721905D01*
X22542619Y81721905D02*
X22637857Y81769524D01*
X22637857Y81769524D02*
X22780714Y81769524D01*
X22780714Y81769524D02*
X22875952Y81721905D01*
X22875952Y81721905D02*
X22923571Y81674286D01*
X22923571Y81674286D02*
X22971190Y81579048D01*
X22971190Y81579048D02*
X22971190Y81198096D01*
X22495000Y82721905D02*
X22447380Y82626667D01*
X22447380Y82626667D02*
X22447380Y82483810D01*
X22447380Y82483810D02*
X22495000Y82340953D01*
X22495000Y82340953D02*
X22590238Y82245715D01*
X22590238Y82245715D02*
X22685476Y82198096D01*
X22685476Y82198096D02*
X22875952Y82150477D01*
X22875952Y82150477D02*
X23018809Y82150477D01*
X23018809Y82150477D02*
X23209285Y82198096D01*
X23209285Y82198096D02*
X23304523Y82245715D01*
X23304523Y82245715D02*
X23399761Y82340953D01*
X23399761Y82340953D02*
X23447380Y82483810D01*
X23447380Y82483810D02*
X23447380Y82579048D01*
X23447380Y82579048D02*
X23399761Y82721905D01*
X23399761Y82721905D02*
X23352142Y82769524D01*
X23352142Y82769524D02*
X23018809Y82769524D01*
X23018809Y82769524D02*
X23018809Y82579048D01*
X23447380Y83198096D02*
X22447380Y83198096D01*
X22447380Y83198096D02*
X22447380Y83436191D01*
X22447380Y83436191D02*
X22495000Y83579048D01*
X22495000Y83579048D02*
X22590238Y83674286D01*
X22590238Y83674286D02*
X22685476Y83721905D01*
X22685476Y83721905D02*
X22875952Y83769524D01*
X22875952Y83769524D02*
X23018809Y83769524D01*
X23018809Y83769524D02*
X23209285Y83721905D01*
X23209285Y83721905D02*
X23304523Y83674286D01*
X23304523Y83674286D02*
X23399761Y83579048D01*
X23399761Y83579048D02*
X23447380Y83436191D01*
X23447380Y83436191D02*
X23447380Y83198096D01*
D13*
X90275714Y77838572D02*
X90332857Y78010000D01*
X90332857Y78010000D02*
X90332857Y78295715D01*
X90332857Y78295715D02*
X90275714Y78410000D01*
X90275714Y78410000D02*
X90218571Y78467143D01*
X90218571Y78467143D02*
X90104285Y78524286D01*
X90104285Y78524286D02*
X89990000Y78524286D01*
X89990000Y78524286D02*
X89875714Y78467143D01*
X89875714Y78467143D02*
X89818571Y78410000D01*
X89818571Y78410000D02*
X89761428Y78295715D01*
X89761428Y78295715D02*
X89704285Y78067143D01*
X89704285Y78067143D02*
X89647142Y77952858D01*
X89647142Y77952858D02*
X89590000Y77895715D01*
X89590000Y77895715D02*
X89475714Y77838572D01*
X89475714Y77838572D02*
X89361428Y77838572D01*
X89361428Y77838572D02*
X89247142Y77895715D01*
X89247142Y77895715D02*
X89190000Y77952858D01*
X89190000Y77952858D02*
X89132857Y78067143D01*
X89132857Y78067143D02*
X89132857Y78352858D01*
X89132857Y78352858D02*
X89190000Y78524286D01*
X90275714Y79495715D02*
X90332857Y79381429D01*
X90332857Y79381429D02*
X90332857Y79152857D01*
X90332857Y79152857D02*
X90275714Y79038572D01*
X90275714Y79038572D02*
X90161428Y78981429D01*
X90161428Y78981429D02*
X89704285Y78981429D01*
X89704285Y78981429D02*
X89590000Y79038572D01*
X89590000Y79038572D02*
X89532857Y79152857D01*
X89532857Y79152857D02*
X89532857Y79381429D01*
X89532857Y79381429D02*
X89590000Y79495715D01*
X89590000Y79495715D02*
X89704285Y79552857D01*
X89704285Y79552857D02*
X89818571Y79552857D01*
X89818571Y79552857D02*
X89932857Y78981429D01*
X90332857Y80067143D02*
X89532857Y80067143D01*
X89761428Y80067143D02*
X89647142Y80124286D01*
X89647142Y80124286D02*
X89590000Y80181428D01*
X89590000Y80181428D02*
X89532857Y80295714D01*
X89532857Y80295714D02*
X89532857Y80410000D01*
X90332857Y80810000D02*
X89532857Y80810000D01*
X89132857Y80810000D02*
X89190000Y80752857D01*
X89190000Y80752857D02*
X89247142Y80810000D01*
X89247142Y80810000D02*
X89190000Y80867143D01*
X89190000Y80867143D02*
X89132857Y80810000D01*
X89132857Y80810000D02*
X89247142Y80810000D01*
X90332857Y81895714D02*
X89704285Y81895714D01*
X89704285Y81895714D02*
X89590000Y81838572D01*
X89590000Y81838572D02*
X89532857Y81724286D01*
X89532857Y81724286D02*
X89532857Y81495714D01*
X89532857Y81495714D02*
X89590000Y81381429D01*
X90275714Y81895714D02*
X90332857Y81781429D01*
X90332857Y81781429D02*
X90332857Y81495714D01*
X90332857Y81495714D02*
X90275714Y81381429D01*
X90275714Y81381429D02*
X90161428Y81324286D01*
X90161428Y81324286D02*
X90047142Y81324286D01*
X90047142Y81324286D02*
X89932857Y81381429D01*
X89932857Y81381429D02*
X89875714Y81495714D01*
X89875714Y81495714D02*
X89875714Y81781429D01*
X89875714Y81781429D02*
X89818571Y81895714D01*
X90332857Y82638571D02*
X90275714Y82524286D01*
X90275714Y82524286D02*
X90161428Y82467143D01*
X90161428Y82467143D02*
X89132857Y82467143D01*
D11*
X89927142Y13952143D02*
X90141428Y13880715D01*
X90141428Y13880715D02*
X90212857Y13809286D01*
X90212857Y13809286D02*
X90284285Y13666429D01*
X90284285Y13666429D02*
X90284285Y13452143D01*
X90284285Y13452143D02*
X90212857Y13309286D01*
X90212857Y13309286D02*
X90141428Y13237858D01*
X90141428Y13237858D02*
X89998571Y13166429D01*
X89998571Y13166429D02*
X89427142Y13166429D01*
X89427142Y13166429D02*
X89427142Y14666429D01*
X89427142Y14666429D02*
X89927142Y14666429D01*
X89927142Y14666429D02*
X90070000Y14595000D01*
X90070000Y14595000D02*
X90141428Y14523572D01*
X90141428Y14523572D02*
X90212857Y14380715D01*
X90212857Y14380715D02*
X90212857Y14237858D01*
X90212857Y14237858D02*
X90141428Y14095000D01*
X90141428Y14095000D02*
X90070000Y14023572D01*
X90070000Y14023572D02*
X89927142Y13952143D01*
X89927142Y13952143D02*
X89427142Y13952143D01*
X90927142Y14666429D02*
X90927142Y13452143D01*
X90927142Y13452143D02*
X90998571Y13309286D01*
X90998571Y13309286D02*
X91070000Y13237858D01*
X91070000Y13237858D02*
X91212857Y13166429D01*
X91212857Y13166429D02*
X91498571Y13166429D01*
X91498571Y13166429D02*
X91641428Y13237858D01*
X91641428Y13237858D02*
X91712857Y13309286D01*
X91712857Y13309286D02*
X91784285Y13452143D01*
X91784285Y13452143D02*
X91784285Y14666429D01*
X92427143Y13237858D02*
X92641429Y13166429D01*
X92641429Y13166429D02*
X92998571Y13166429D01*
X92998571Y13166429D02*
X93141429Y13237858D01*
X93141429Y13237858D02*
X93212857Y13309286D01*
X93212857Y13309286D02*
X93284286Y13452143D01*
X93284286Y13452143D02*
X93284286Y13595000D01*
X93284286Y13595000D02*
X93212857Y13737858D01*
X93212857Y13737858D02*
X93141429Y13809286D01*
X93141429Y13809286D02*
X92998571Y13880715D01*
X92998571Y13880715D02*
X92712857Y13952143D01*
X92712857Y13952143D02*
X92570000Y14023572D01*
X92570000Y14023572D02*
X92498571Y14095000D01*
X92498571Y14095000D02*
X92427143Y14237858D01*
X92427143Y14237858D02*
X92427143Y14380715D01*
X92427143Y14380715D02*
X92498571Y14523572D01*
X92498571Y14523572D02*
X92570000Y14595000D01*
X92570000Y14595000D02*
X92712857Y14666429D01*
X92712857Y14666429D02*
X93070000Y14666429D01*
X93070000Y14666429D02*
X93284286Y14595000D01*
X93855714Y13595000D02*
X94570000Y13595000D01*
X93712857Y13166429D02*
X94212857Y14666429D01*
X94212857Y14666429D02*
X94712857Y13166429D01*
X95212856Y13166429D02*
X95212856Y14666429D01*
X96069999Y13166429D02*
X95427142Y14023572D01*
X96069999Y14666429D02*
X95212856Y13809286D01*
X89220000Y15195000D02*
X96205714Y15195000D01*
X59527143Y32446429D02*
X60027143Y30946429D01*
X60027143Y30946429D02*
X60527143Y32446429D01*
X61884285Y31089286D02*
X61812857Y31017858D01*
X61812857Y31017858D02*
X61598571Y30946429D01*
X61598571Y30946429D02*
X61455714Y30946429D01*
X61455714Y30946429D02*
X61241428Y31017858D01*
X61241428Y31017858D02*
X61098571Y31160715D01*
X61098571Y31160715D02*
X61027142Y31303572D01*
X61027142Y31303572D02*
X60955714Y31589286D01*
X60955714Y31589286D02*
X60955714Y31803572D01*
X60955714Y31803572D02*
X61027142Y32089286D01*
X61027142Y32089286D02*
X61098571Y32232143D01*
X61098571Y32232143D02*
X61241428Y32375000D01*
X61241428Y32375000D02*
X61455714Y32446429D01*
X61455714Y32446429D02*
X61598571Y32446429D01*
X61598571Y32446429D02*
X61812857Y32375000D01*
X61812857Y32375000D02*
X61884285Y32303572D01*
X63384285Y31089286D02*
X63312857Y31017858D01*
X63312857Y31017858D02*
X63098571Y30946429D01*
X63098571Y30946429D02*
X62955714Y30946429D01*
X62955714Y30946429D02*
X62741428Y31017858D01*
X62741428Y31017858D02*
X62598571Y31160715D01*
X62598571Y31160715D02*
X62527142Y31303572D01*
X62527142Y31303572D02*
X62455714Y31589286D01*
X62455714Y31589286D02*
X62455714Y31803572D01*
X62455714Y31803572D02*
X62527142Y32089286D01*
X62527142Y32089286D02*
X62598571Y32232143D01*
X62598571Y32232143D02*
X62741428Y32375000D01*
X62741428Y32375000D02*
X62955714Y32446429D01*
X62955714Y32446429D02*
X63098571Y32446429D01*
X63098571Y32446429D02*
X63312857Y32375000D01*
X63312857Y32375000D02*
X63384285Y32303572D01*
D12*
X85995000Y81546905D02*
X85947380Y81451667D01*
X85947380Y81451667D02*
X85947380Y81308810D01*
X85947380Y81308810D02*
X85995000Y81165953D01*
X85995000Y81165953D02*
X86090238Y81070715D01*
X86090238Y81070715D02*
X86185476Y81023096D01*
X86185476Y81023096D02*
X86375952Y80975477D01*
X86375952Y80975477D02*
X86518809Y80975477D01*
X86518809Y80975477D02*
X86709285Y81023096D01*
X86709285Y81023096D02*
X86804523Y81070715D01*
X86804523Y81070715D02*
X86899761Y81165953D01*
X86899761Y81165953D02*
X86947380Y81308810D01*
X86947380Y81308810D02*
X86947380Y81404048D01*
X86947380Y81404048D02*
X86899761Y81546905D01*
X86899761Y81546905D02*
X86852142Y81594524D01*
X86852142Y81594524D02*
X86518809Y81594524D01*
X86518809Y81594524D02*
X86518809Y81404048D01*
X86947380Y82023096D02*
X85947380Y82023096D01*
X85947380Y82023096D02*
X86947380Y82594524D01*
X86947380Y82594524D02*
X85947380Y82594524D01*
X86947380Y83070715D02*
X85947380Y83070715D01*
X85947380Y83070715D02*
X85947380Y83308810D01*
X85947380Y83308810D02*
X85995000Y83451667D01*
X85995000Y83451667D02*
X86090238Y83546905D01*
X86090238Y83546905D02*
X86185476Y83594524D01*
X86185476Y83594524D02*
X86375952Y83642143D01*
X86375952Y83642143D02*
X86518809Y83642143D01*
X86518809Y83642143D02*
X86709285Y83594524D01*
X86709285Y83594524D02*
X86804523Y83546905D01*
X86804523Y83546905D02*
X86899761Y83451667D01*
X86899761Y83451667D02*
X86947380Y83308810D01*
X86947380Y83308810D02*
X86947380Y83070715D01*
D11*
X61098571Y23326429D02*
X61098571Y24826429D01*
X61098571Y24826429D02*
X61455714Y24826429D01*
X61455714Y24826429D02*
X61670000Y24755000D01*
X61670000Y24755000D02*
X61812857Y24612143D01*
X61812857Y24612143D02*
X61884286Y24469286D01*
X61884286Y24469286D02*
X61955714Y24183572D01*
X61955714Y24183572D02*
X61955714Y23969286D01*
X61955714Y23969286D02*
X61884286Y23683572D01*
X61884286Y23683572D02*
X61812857Y23540715D01*
X61812857Y23540715D02*
X61670000Y23397858D01*
X61670000Y23397858D02*
X61455714Y23326429D01*
X61455714Y23326429D02*
X61098571Y23326429D01*
X62884286Y24826429D02*
X63027143Y24826429D01*
X63027143Y24826429D02*
X63170000Y24755000D01*
X63170000Y24755000D02*
X63241429Y24683572D01*
X63241429Y24683572D02*
X63312857Y24540715D01*
X63312857Y24540715D02*
X63384286Y24255000D01*
X63384286Y24255000D02*
X63384286Y23897858D01*
X63384286Y23897858D02*
X63312857Y23612143D01*
X63312857Y23612143D02*
X63241429Y23469286D01*
X63241429Y23469286D02*
X63170000Y23397858D01*
X63170000Y23397858D02*
X63027143Y23326429D01*
X63027143Y23326429D02*
X62884286Y23326429D01*
X62884286Y23326429D02*
X62741429Y23397858D01*
X62741429Y23397858D02*
X62670000Y23469286D01*
X62670000Y23469286D02*
X62598571Y23612143D01*
X62598571Y23612143D02*
X62527143Y23897858D01*
X62527143Y23897858D02*
X62527143Y24255000D01*
X62527143Y24255000D02*
X62598571Y24540715D01*
X62598571Y24540715D02*
X62670000Y24683572D01*
X62670000Y24683572D02*
X62741429Y24755000D01*
X62741429Y24755000D02*
X62884286Y24826429D01*
X89284285Y17206429D02*
X89641428Y15706429D01*
X89641428Y15706429D02*
X89927142Y16777858D01*
X89927142Y16777858D02*
X90212857Y15706429D01*
X90212857Y15706429D02*
X90570000Y17206429D01*
X91070000Y16135000D02*
X91784286Y16135000D01*
X90927143Y15706429D02*
X91427143Y17206429D01*
X91427143Y17206429D02*
X91927143Y15706429D01*
X92427142Y15706429D02*
X92427142Y17206429D01*
X92927143Y17206429D02*
X93784286Y17206429D01*
X93355714Y15706429D02*
X93355714Y17206429D01*
X89220000Y17735000D02*
X93777143Y17735000D01*
X89355714Y31375000D02*
X90070000Y31375000D01*
X89212857Y30946429D02*
X89712857Y32446429D01*
X89712857Y32446429D02*
X90212857Y30946429D01*
X90998571Y32446429D02*
X91141428Y32446429D01*
X91141428Y32446429D02*
X91284285Y32375000D01*
X91284285Y32375000D02*
X91355714Y32303572D01*
X91355714Y32303572D02*
X91427142Y32160715D01*
X91427142Y32160715D02*
X91498571Y31875000D01*
X91498571Y31875000D02*
X91498571Y31517858D01*
X91498571Y31517858D02*
X91427142Y31232143D01*
X91427142Y31232143D02*
X91355714Y31089286D01*
X91355714Y31089286D02*
X91284285Y31017858D01*
X91284285Y31017858D02*
X91141428Y30946429D01*
X91141428Y30946429D02*
X90998571Y30946429D01*
X90998571Y30946429D02*
X90855714Y31017858D01*
X90855714Y31017858D02*
X90784285Y31089286D01*
X90784285Y31089286D02*
X90712856Y31232143D01*
X90712856Y31232143D02*
X90641428Y31517858D01*
X90641428Y31517858D02*
X90641428Y31875000D01*
X90641428Y31875000D02*
X90712856Y32160715D01*
X90712856Y32160715D02*
X90784285Y32303572D01*
X90784285Y32303572D02*
X90855714Y32375000D01*
X90855714Y32375000D02*
X90998571Y32446429D01*
X35674285Y3978929D02*
X35174285Y4693215D01*
X34817142Y3978929D02*
X34817142Y5478929D01*
X34817142Y5478929D02*
X35388571Y5478929D01*
X35388571Y5478929D02*
X35531428Y5407500D01*
X35531428Y5407500D02*
X35602857Y5336072D01*
X35602857Y5336072D02*
X35674285Y5193215D01*
X35674285Y5193215D02*
X35674285Y4978929D01*
X35674285Y4978929D02*
X35602857Y4836072D01*
X35602857Y4836072D02*
X35531428Y4764643D01*
X35531428Y4764643D02*
X35388571Y4693215D01*
X35388571Y4693215D02*
X34817142Y4693215D01*
X36888571Y4050358D02*
X36745714Y3978929D01*
X36745714Y3978929D02*
X36460000Y3978929D01*
X36460000Y3978929D02*
X36317142Y4050358D01*
X36317142Y4050358D02*
X36245714Y4193215D01*
X36245714Y4193215D02*
X36245714Y4764643D01*
X36245714Y4764643D02*
X36317142Y4907500D01*
X36317142Y4907500D02*
X36460000Y4978929D01*
X36460000Y4978929D02*
X36745714Y4978929D01*
X36745714Y4978929D02*
X36888571Y4907500D01*
X36888571Y4907500D02*
X36960000Y4764643D01*
X36960000Y4764643D02*
X36960000Y4621786D01*
X36960000Y4621786D02*
X36245714Y4478929D01*
X37459999Y4978929D02*
X37817142Y3978929D01*
X37817142Y3978929D02*
X38174285Y4978929D01*
X38745713Y4121786D02*
X38817142Y4050358D01*
X38817142Y4050358D02*
X38745713Y3978929D01*
X38745713Y3978929D02*
X38674285Y4050358D01*
X38674285Y4050358D02*
X38745713Y4121786D01*
X38745713Y4121786D02*
X38745713Y3978929D01*
X40645714Y5478929D02*
X40788571Y5478929D01*
X40788571Y5478929D02*
X40931428Y5407500D01*
X40931428Y5407500D02*
X41002857Y5336072D01*
X41002857Y5336072D02*
X41074285Y5193215D01*
X41074285Y5193215D02*
X41145714Y4907500D01*
X41145714Y4907500D02*
X41145714Y4550358D01*
X41145714Y4550358D02*
X41074285Y4264643D01*
X41074285Y4264643D02*
X41002857Y4121786D01*
X41002857Y4121786D02*
X40931428Y4050358D01*
X40931428Y4050358D02*
X40788571Y3978929D01*
X40788571Y3978929D02*
X40645714Y3978929D01*
X40645714Y3978929D02*
X40502857Y4050358D01*
X40502857Y4050358D02*
X40431428Y4121786D01*
X40431428Y4121786D02*
X40359999Y4264643D01*
X40359999Y4264643D02*
X40288571Y4550358D01*
X40288571Y4550358D02*
X40288571Y4907500D01*
X40288571Y4907500D02*
X40359999Y5193215D01*
X40359999Y5193215D02*
X40431428Y5336072D01*
X40431428Y5336072D02*
X40502857Y5407500D01*
X40502857Y5407500D02*
X40645714Y5478929D01*
X42074285Y5478929D02*
X42217142Y5478929D01*
X42217142Y5478929D02*
X42359999Y5407500D01*
X42359999Y5407500D02*
X42431428Y5336072D01*
X42431428Y5336072D02*
X42502856Y5193215D01*
X42502856Y5193215D02*
X42574285Y4907500D01*
X42574285Y4907500D02*
X42574285Y4550358D01*
X42574285Y4550358D02*
X42502856Y4264643D01*
X42502856Y4264643D02*
X42431428Y4121786D01*
X42431428Y4121786D02*
X42359999Y4050358D01*
X42359999Y4050358D02*
X42217142Y3978929D01*
X42217142Y3978929D02*
X42074285Y3978929D01*
X42074285Y3978929D02*
X41931428Y4050358D01*
X41931428Y4050358D02*
X41859999Y4121786D01*
X41859999Y4121786D02*
X41788570Y4264643D01*
X41788570Y4264643D02*
X41717142Y4550358D01*
X41717142Y4550358D02*
X41717142Y4907500D01*
X41717142Y4907500D02*
X41788570Y5193215D01*
X41788570Y5193215D02*
X41859999Y5336072D01*
X41859999Y5336072D02*
X41931428Y5407500D01*
X41931428Y5407500D02*
X42074285Y5478929D01*
X43859999Y4978929D02*
X43859999Y3978929D01*
X43502856Y5550358D02*
X43145713Y4478929D01*
X43145713Y4478929D02*
X44074284Y4478929D01*
X35245714Y977500D02*
X35174285Y1048929D01*
X35174285Y1048929D02*
X35031428Y1263215D01*
X35031428Y1263215D02*
X34960000Y1406072D01*
X34960000Y1406072D02*
X34888571Y1620358D01*
X34888571Y1620358D02*
X34817142Y1977500D01*
X34817142Y1977500D02*
X34817142Y2263215D01*
X34817142Y2263215D02*
X34888571Y2620358D01*
X34888571Y2620358D02*
X34960000Y2834643D01*
X34960000Y2834643D02*
X35031428Y2977500D01*
X35031428Y2977500D02*
X35174285Y3191786D01*
X35174285Y3191786D02*
X35245714Y3263215D01*
X35817142Y1548929D02*
X35817142Y3048929D01*
X35817142Y3048929D02*
X36174285Y3048929D01*
X36174285Y3048929D02*
X36388571Y2977500D01*
X36388571Y2977500D02*
X36531428Y2834643D01*
X36531428Y2834643D02*
X36602857Y2691786D01*
X36602857Y2691786D02*
X36674285Y2406072D01*
X36674285Y2406072D02*
X36674285Y2191786D01*
X36674285Y2191786D02*
X36602857Y1906072D01*
X36602857Y1906072D02*
X36531428Y1763215D01*
X36531428Y1763215D02*
X36388571Y1620358D01*
X36388571Y1620358D02*
X36174285Y1548929D01*
X36174285Y1548929D02*
X35817142Y1548929D01*
X37317142Y1548929D02*
X37317142Y3048929D01*
X38888571Y1548929D02*
X38388571Y2263215D01*
X38031428Y1548929D02*
X38031428Y3048929D01*
X38031428Y3048929D02*
X38602857Y3048929D01*
X38602857Y3048929D02*
X38745714Y2977500D01*
X38745714Y2977500D02*
X38817143Y2906072D01*
X38817143Y2906072D02*
X38888571Y2763215D01*
X38888571Y2763215D02*
X38888571Y2548929D01*
X38888571Y2548929D02*
X38817143Y2406072D01*
X38817143Y2406072D02*
X38745714Y2334643D01*
X38745714Y2334643D02*
X38602857Y2263215D01*
X38602857Y2263215D02*
X38031428Y2263215D01*
X39531428Y2334643D02*
X40031428Y2334643D01*
X40245714Y1548929D02*
X39531428Y1548929D01*
X39531428Y1548929D02*
X39531428Y3048929D01*
X39531428Y3048929D02*
X40245714Y3048929D01*
X41745714Y1691786D02*
X41674286Y1620358D01*
X41674286Y1620358D02*
X41460000Y1548929D01*
X41460000Y1548929D02*
X41317143Y1548929D01*
X41317143Y1548929D02*
X41102857Y1620358D01*
X41102857Y1620358D02*
X40960000Y1763215D01*
X40960000Y1763215D02*
X40888571Y1906072D01*
X40888571Y1906072D02*
X40817143Y2191786D01*
X40817143Y2191786D02*
X40817143Y2406072D01*
X40817143Y2406072D02*
X40888571Y2691786D01*
X40888571Y2691786D02*
X40960000Y2834643D01*
X40960000Y2834643D02*
X41102857Y2977500D01*
X41102857Y2977500D02*
X41317143Y3048929D01*
X41317143Y3048929D02*
X41460000Y3048929D01*
X41460000Y3048929D02*
X41674286Y2977500D01*
X41674286Y2977500D02*
X41745714Y2906072D01*
X42174286Y3048929D02*
X43031429Y3048929D01*
X42602857Y1548929D02*
X42602857Y3048929D01*
X43388571Y977500D02*
X43460000Y1048929D01*
X43460000Y1048929D02*
X43602857Y1263215D01*
X43602857Y1263215D02*
X43674286Y1406072D01*
X43674286Y1406072D02*
X43745714Y1620358D01*
X43745714Y1620358D02*
X43817143Y1977500D01*
X43817143Y1977500D02*
X43817143Y2263215D01*
X43817143Y2263215D02*
X43745714Y2620358D01*
X43745714Y2620358D02*
X43674286Y2834643D01*
X43674286Y2834643D02*
X43602857Y2977500D01*
X43602857Y2977500D02*
X43460000Y3191786D01*
X43460000Y3191786D02*
X43388571Y3263215D01*
X4348285Y55449143D02*
X4748285Y54249143D01*
X4748285Y54249143D02*
X5148285Y55449143D01*
X6233999Y54363429D02*
X6176856Y54306286D01*
X6176856Y54306286D02*
X6005428Y54249143D01*
X6005428Y54249143D02*
X5891142Y54249143D01*
X5891142Y54249143D02*
X5719713Y54306286D01*
X5719713Y54306286D02*
X5605428Y54420572D01*
X5605428Y54420572D02*
X5548285Y54534858D01*
X5548285Y54534858D02*
X5491142Y54763429D01*
X5491142Y54763429D02*
X5491142Y54934858D01*
X5491142Y54934858D02*
X5548285Y55163429D01*
X5548285Y55163429D02*
X5605428Y55277715D01*
X5605428Y55277715D02*
X5719713Y55392000D01*
X5719713Y55392000D02*
X5891142Y55449143D01*
X5891142Y55449143D02*
X6005428Y55449143D01*
X6005428Y55449143D02*
X6176856Y55392000D01*
X6176856Y55392000D02*
X6233999Y55334858D01*
X7433999Y54363429D02*
X7376856Y54306286D01*
X7376856Y54306286D02*
X7205428Y54249143D01*
X7205428Y54249143D02*
X7091142Y54249143D01*
X7091142Y54249143D02*
X6919713Y54306286D01*
X6919713Y54306286D02*
X6805428Y54420572D01*
X6805428Y54420572D02*
X6748285Y54534858D01*
X6748285Y54534858D02*
X6691142Y54763429D01*
X6691142Y54763429D02*
X6691142Y54934858D01*
X6691142Y54934858D02*
X6748285Y55163429D01*
X6748285Y55163429D02*
X6805428Y55277715D01*
X6805428Y55277715D02*
X6919713Y55392000D01*
X6919713Y55392000D02*
X7091142Y55449143D01*
X7091142Y55449143D02*
X7205428Y55449143D01*
X7205428Y55449143D02*
X7376856Y55392000D01*
X7376856Y55392000D02*
X7433999Y55334858D01*
X5148285Y52979000D02*
X5034000Y53036143D01*
X5034000Y53036143D02*
X4862571Y53036143D01*
X4862571Y53036143D02*
X4691142Y52979000D01*
X4691142Y52979000D02*
X4576857Y52864715D01*
X4576857Y52864715D02*
X4519714Y52750429D01*
X4519714Y52750429D02*
X4462571Y52521858D01*
X4462571Y52521858D02*
X4462571Y52350429D01*
X4462571Y52350429D02*
X4519714Y52121858D01*
X4519714Y52121858D02*
X4576857Y52007572D01*
X4576857Y52007572D02*
X4691142Y51893286D01*
X4691142Y51893286D02*
X4862571Y51836143D01*
X4862571Y51836143D02*
X4976857Y51836143D01*
X4976857Y51836143D02*
X5148285Y51893286D01*
X5148285Y51893286D02*
X5205428Y51950429D01*
X5205428Y51950429D02*
X5205428Y52350429D01*
X5205428Y52350429D02*
X4976857Y52350429D01*
X5719714Y51836143D02*
X5719714Y53036143D01*
X5719714Y53036143D02*
X6405428Y51836143D01*
X6405428Y51836143D02*
X6405428Y53036143D01*
X6976857Y51836143D02*
X6976857Y53036143D01*
X6976857Y53036143D02*
X7262571Y53036143D01*
X7262571Y53036143D02*
X7434000Y52979000D01*
X7434000Y52979000D02*
X7548285Y52864715D01*
X7548285Y52864715D02*
X7605428Y52750429D01*
X7605428Y52750429D02*
X7662571Y52521858D01*
X7662571Y52521858D02*
X7662571Y52350429D01*
X7662571Y52350429D02*
X7605428Y52121858D01*
X7605428Y52121858D02*
X7548285Y52007572D01*
X7548285Y52007572D02*
X7434000Y51893286D01*
X7434000Y51893286D02*
X7262571Y51836143D01*
X7262571Y51836143D02*
X6976857Y51836143D01*
X90284285Y25866429D02*
X89784285Y26580715D01*
X89427142Y25866429D02*
X89427142Y27366429D01*
X89427142Y27366429D02*
X89998571Y27366429D01*
X89998571Y27366429D02*
X90141428Y27295000D01*
X90141428Y27295000D02*
X90212857Y27223572D01*
X90212857Y27223572D02*
X90284285Y27080715D01*
X90284285Y27080715D02*
X90284285Y26866429D01*
X90284285Y26866429D02*
X90212857Y26723572D01*
X90212857Y26723572D02*
X90141428Y26652143D01*
X90141428Y26652143D02*
X89998571Y26580715D01*
X89998571Y26580715D02*
X89427142Y26580715D01*
X91427142Y26652143D02*
X90927142Y26652143D01*
X90927142Y25866429D02*
X90927142Y27366429D01*
X90927142Y27366429D02*
X91641428Y27366429D01*
X92141428Y25937858D02*
X92355714Y25866429D01*
X92355714Y25866429D02*
X92712856Y25866429D01*
X92712856Y25866429D02*
X92855714Y25937858D01*
X92855714Y25937858D02*
X92927142Y26009286D01*
X92927142Y26009286D02*
X92998571Y26152143D01*
X92998571Y26152143D02*
X92998571Y26295000D01*
X92998571Y26295000D02*
X92927142Y26437858D01*
X92927142Y26437858D02*
X92855714Y26509286D01*
X92855714Y26509286D02*
X92712856Y26580715D01*
X92712856Y26580715D02*
X92427142Y26652143D01*
X92427142Y26652143D02*
X92284285Y26723572D01*
X92284285Y26723572D02*
X92212856Y26795000D01*
X92212856Y26795000D02*
X92141428Y26937858D01*
X92141428Y26937858D02*
X92141428Y27080715D01*
X92141428Y27080715D02*
X92212856Y27223572D01*
X92212856Y27223572D02*
X92284285Y27295000D01*
X92284285Y27295000D02*
X92427142Y27366429D01*
X92427142Y27366429D02*
X92784285Y27366429D01*
X92784285Y27366429D02*
X92998571Y27295000D01*
X93641427Y25866429D02*
X93641427Y27366429D01*
X93641427Y26652143D02*
X94498570Y26652143D01*
X94498570Y25866429D02*
X94498570Y27366429D01*
X89220000Y27895000D02*
X94705714Y27895000D01*
D12*
X80867380Y80880239D02*
X81867380Y81213572D01*
X81867380Y81213572D02*
X80867380Y81546905D01*
X81772142Y82451667D02*
X81819761Y82404048D01*
X81819761Y82404048D02*
X81867380Y82261191D01*
X81867380Y82261191D02*
X81867380Y82165953D01*
X81867380Y82165953D02*
X81819761Y82023096D01*
X81819761Y82023096D02*
X81724523Y81927858D01*
X81724523Y81927858D02*
X81629285Y81880239D01*
X81629285Y81880239D02*
X81438809Y81832620D01*
X81438809Y81832620D02*
X81295952Y81832620D01*
X81295952Y81832620D02*
X81105476Y81880239D01*
X81105476Y81880239D02*
X81010238Y81927858D01*
X81010238Y81927858D02*
X80915000Y82023096D01*
X80915000Y82023096D02*
X80867380Y82165953D01*
X80867380Y82165953D02*
X80867380Y82261191D01*
X80867380Y82261191D02*
X80915000Y82404048D01*
X80915000Y82404048D02*
X80962619Y82451667D01*
X81772142Y83451667D02*
X81819761Y83404048D01*
X81819761Y83404048D02*
X81867380Y83261191D01*
X81867380Y83261191D02*
X81867380Y83165953D01*
X81867380Y83165953D02*
X81819761Y83023096D01*
X81819761Y83023096D02*
X81724523Y82927858D01*
X81724523Y82927858D02*
X81629285Y82880239D01*
X81629285Y82880239D02*
X81438809Y82832620D01*
X81438809Y82832620D02*
X81295952Y82832620D01*
X81295952Y82832620D02*
X81105476Y82880239D01*
X81105476Y82880239D02*
X81010238Y82927858D01*
X81010238Y82927858D02*
X80915000Y83023096D01*
X80915000Y83023096D02*
X80867380Y83165953D01*
X80867380Y83165953D02*
X80867380Y83261191D01*
X80867380Y83261191D02*
X80915000Y83404048D01*
X80915000Y83404048D02*
X80962619Y83451667D01*
D11*
X61098571Y36026429D02*
X61098571Y37526429D01*
X61098571Y37526429D02*
X61455714Y37526429D01*
X61455714Y37526429D02*
X61670000Y37455000D01*
X61670000Y37455000D02*
X61812857Y37312143D01*
X61812857Y37312143D02*
X61884286Y37169286D01*
X61884286Y37169286D02*
X61955714Y36883572D01*
X61955714Y36883572D02*
X61955714Y36669286D01*
X61955714Y36669286D02*
X61884286Y36383572D01*
X61884286Y36383572D02*
X61812857Y36240715D01*
X61812857Y36240715D02*
X61670000Y36097858D01*
X61670000Y36097858D02*
X61455714Y36026429D01*
X61455714Y36026429D02*
X61098571Y36026429D01*
X63312857Y37526429D02*
X62598571Y37526429D01*
X62598571Y37526429D02*
X62527143Y36812143D01*
X62527143Y36812143D02*
X62598571Y36883572D01*
X62598571Y36883572D02*
X62741429Y36955000D01*
X62741429Y36955000D02*
X63098571Y36955000D01*
X63098571Y36955000D02*
X63241429Y36883572D01*
X63241429Y36883572D02*
X63312857Y36812143D01*
X63312857Y36812143D02*
X63384286Y36669286D01*
X63384286Y36669286D02*
X63384286Y36312143D01*
X63384286Y36312143D02*
X63312857Y36169286D01*
X63312857Y36169286D02*
X63241429Y36097858D01*
X63241429Y36097858D02*
X63098571Y36026429D01*
X63098571Y36026429D02*
X62741429Y36026429D01*
X62741429Y36026429D02*
X62598571Y36097858D01*
X62598571Y36097858D02*
X62527143Y36169286D01*
X4519714Y46756143D02*
X4519714Y47956143D01*
X4519714Y47956143D02*
X4919714Y47099000D01*
X4919714Y47099000D02*
X5319714Y47956143D01*
X5319714Y47956143D02*
X5319714Y46756143D01*
X5891143Y46756143D02*
X5891143Y47956143D01*
X6405429Y46813286D02*
X6576858Y46756143D01*
X6576858Y46756143D02*
X6862572Y46756143D01*
X6862572Y46756143D02*
X6976858Y46813286D01*
X6976858Y46813286D02*
X7034000Y46870429D01*
X7034000Y46870429D02*
X7091143Y46984715D01*
X7091143Y46984715D02*
X7091143Y47099000D01*
X7091143Y47099000D02*
X7034000Y47213286D01*
X7034000Y47213286D02*
X6976858Y47270429D01*
X6976858Y47270429D02*
X6862572Y47327572D01*
X6862572Y47327572D02*
X6634000Y47384715D01*
X6634000Y47384715D02*
X6519715Y47441858D01*
X6519715Y47441858D02*
X6462572Y47499000D01*
X6462572Y47499000D02*
X6405429Y47613286D01*
X6405429Y47613286D02*
X6405429Y47727572D01*
X6405429Y47727572D02*
X6462572Y47841858D01*
X6462572Y47841858D02*
X6519715Y47899000D01*
X6519715Y47899000D02*
X6634000Y47956143D01*
X6634000Y47956143D02*
X6919715Y47956143D01*
X6919715Y47956143D02*
X7091143Y47899000D01*
X7834000Y47956143D02*
X8062572Y47956143D01*
X8062572Y47956143D02*
X8176857Y47899000D01*
X8176857Y47899000D02*
X8291143Y47784715D01*
X8291143Y47784715D02*
X8348286Y47556143D01*
X8348286Y47556143D02*
X8348286Y47156143D01*
X8348286Y47156143D02*
X8291143Y46927572D01*
X8291143Y46927572D02*
X8176857Y46813286D01*
X8176857Y46813286D02*
X8062572Y46756143D01*
X8062572Y46756143D02*
X7834000Y46756143D01*
X7834000Y46756143D02*
X7719715Y46813286D01*
X7719715Y46813286D02*
X7605429Y46927572D01*
X7605429Y46927572D02*
X7548286Y47156143D01*
X7548286Y47156143D02*
X7548286Y47556143D01*
X7548286Y47556143D02*
X7605429Y47784715D01*
X7605429Y47784715D02*
X7719715Y47899000D01*
X7719715Y47899000D02*
X7834000Y47956143D01*
X59812858Y54235000D02*
X60527144Y54235000D01*
X59670001Y53806429D02*
X60170001Y55306429D01*
X60170001Y55306429D02*
X60670001Y53806429D01*
X61955715Y53806429D02*
X61098572Y53806429D01*
X61527143Y53806429D02*
X61527143Y55306429D01*
X61527143Y55306429D02*
X61384286Y55092143D01*
X61384286Y55092143D02*
X61241429Y54949286D01*
X61241429Y54949286D02*
X61098572Y54877858D01*
X62527143Y55163572D02*
X62598571Y55235000D01*
X62598571Y55235000D02*
X62741429Y55306429D01*
X62741429Y55306429D02*
X63098571Y55306429D01*
X63098571Y55306429D02*
X63241429Y55235000D01*
X63241429Y55235000D02*
X63312857Y55163572D01*
X63312857Y55163572D02*
X63384286Y55020715D01*
X63384286Y55020715D02*
X63384286Y54877858D01*
X63384286Y54877858D02*
X63312857Y54663572D01*
X63312857Y54663572D02*
X62455714Y53806429D01*
X62455714Y53806429D02*
X63384286Y53806429D01*
X89355714Y51695000D02*
X90070000Y51695000D01*
X89212857Y51266429D02*
X89712857Y52766429D01*
X89712857Y52766429D02*
X90212857Y51266429D01*
X90927142Y52123572D02*
X90784285Y52195000D01*
X90784285Y52195000D02*
X90712856Y52266429D01*
X90712856Y52266429D02*
X90641428Y52409286D01*
X90641428Y52409286D02*
X90641428Y52480715D01*
X90641428Y52480715D02*
X90712856Y52623572D01*
X90712856Y52623572D02*
X90784285Y52695000D01*
X90784285Y52695000D02*
X90927142Y52766429D01*
X90927142Y52766429D02*
X91212856Y52766429D01*
X91212856Y52766429D02*
X91355714Y52695000D01*
X91355714Y52695000D02*
X91427142Y52623572D01*
X91427142Y52623572D02*
X91498571Y52480715D01*
X91498571Y52480715D02*
X91498571Y52409286D01*
X91498571Y52409286D02*
X91427142Y52266429D01*
X91427142Y52266429D02*
X91355714Y52195000D01*
X91355714Y52195000D02*
X91212856Y52123572D01*
X91212856Y52123572D02*
X90927142Y52123572D01*
X90927142Y52123572D02*
X90784285Y52052143D01*
X90784285Y52052143D02*
X90712856Y51980715D01*
X90712856Y51980715D02*
X90641428Y51837858D01*
X90641428Y51837858D02*
X90641428Y51552143D01*
X90641428Y51552143D02*
X90712856Y51409286D01*
X90712856Y51409286D02*
X90784285Y51337858D01*
X90784285Y51337858D02*
X90927142Y51266429D01*
X90927142Y51266429D02*
X91212856Y51266429D01*
X91212856Y51266429D02*
X91355714Y51337858D01*
X91355714Y51337858D02*
X91427142Y51409286D01*
X91427142Y51409286D02*
X91498571Y51552143D01*
X91498571Y51552143D02*
X91498571Y51837858D01*
X91498571Y51837858D02*
X91427142Y51980715D01*
X91427142Y51980715D02*
X91355714Y52052143D01*
X91355714Y52052143D02*
X91212856Y52123572D01*
X89284285Y12126429D02*
X89641428Y10626429D01*
X89641428Y10626429D02*
X89927142Y11697858D01*
X89927142Y11697858D02*
X90212857Y10626429D01*
X90212857Y10626429D02*
X90570000Y12126429D01*
X91998571Y10626429D02*
X91498571Y11340715D01*
X91141428Y10626429D02*
X91141428Y12126429D01*
X91141428Y12126429D02*
X91712857Y12126429D01*
X91712857Y12126429D02*
X91855714Y12055000D01*
X91855714Y12055000D02*
X91927143Y11983572D01*
X91927143Y11983572D02*
X91998571Y11840715D01*
X91998571Y11840715D02*
X91998571Y11626429D01*
X91998571Y11626429D02*
X91927143Y11483572D01*
X91927143Y11483572D02*
X91855714Y11412143D01*
X91855714Y11412143D02*
X91712857Y11340715D01*
X91712857Y11340715D02*
X91141428Y11340715D01*
X89220000Y12655000D02*
X92134286Y12655000D01*
X61098571Y28406429D02*
X61098571Y29906429D01*
X61098571Y29906429D02*
X61455714Y29906429D01*
X61455714Y29906429D02*
X61670000Y29835000D01*
X61670000Y29835000D02*
X61812857Y29692143D01*
X61812857Y29692143D02*
X61884286Y29549286D01*
X61884286Y29549286D02*
X61955714Y29263572D01*
X61955714Y29263572D02*
X61955714Y29049286D01*
X61955714Y29049286D02*
X61884286Y28763572D01*
X61884286Y28763572D02*
X61812857Y28620715D01*
X61812857Y28620715D02*
X61670000Y28477858D01*
X61670000Y28477858D02*
X61455714Y28406429D01*
X61455714Y28406429D02*
X61098571Y28406429D01*
X62527143Y29763572D02*
X62598571Y29835000D01*
X62598571Y29835000D02*
X62741429Y29906429D01*
X62741429Y29906429D02*
X63098571Y29906429D01*
X63098571Y29906429D02*
X63241429Y29835000D01*
X63241429Y29835000D02*
X63312857Y29763572D01*
X63312857Y29763572D02*
X63384286Y29620715D01*
X63384286Y29620715D02*
X63384286Y29477858D01*
X63384286Y29477858D02*
X63312857Y29263572D01*
X63312857Y29263572D02*
X62455714Y28406429D01*
X62455714Y28406429D02*
X63384286Y28406429D01*
X59812858Y49155000D02*
X60527144Y49155000D01*
X59670001Y48726429D02*
X60170001Y50226429D01*
X60170001Y50226429D02*
X60670001Y48726429D01*
X61955715Y48726429D02*
X61098572Y48726429D01*
X61527143Y48726429D02*
X61527143Y50226429D01*
X61527143Y50226429D02*
X61384286Y50012143D01*
X61384286Y50012143D02*
X61241429Y49869286D01*
X61241429Y49869286D02*
X61098572Y49797858D01*
X63241429Y49726429D02*
X63241429Y48726429D01*
X62884286Y50297858D02*
X62527143Y49226429D01*
X62527143Y49226429D02*
X63455714Y49226429D01*
X89355714Y46615000D02*
X90070000Y46615000D01*
X89212857Y46186429D02*
X89712857Y47686429D01*
X89712857Y47686429D02*
X90212857Y46186429D01*
X91355714Y47686429D02*
X91069999Y47686429D01*
X91069999Y47686429D02*
X90927142Y47615000D01*
X90927142Y47615000D02*
X90855714Y47543572D01*
X90855714Y47543572D02*
X90712856Y47329286D01*
X90712856Y47329286D02*
X90641428Y47043572D01*
X90641428Y47043572D02*
X90641428Y46472143D01*
X90641428Y46472143D02*
X90712856Y46329286D01*
X90712856Y46329286D02*
X90784285Y46257858D01*
X90784285Y46257858D02*
X90927142Y46186429D01*
X90927142Y46186429D02*
X91212856Y46186429D01*
X91212856Y46186429D02*
X91355714Y46257858D01*
X91355714Y46257858D02*
X91427142Y46329286D01*
X91427142Y46329286D02*
X91498571Y46472143D01*
X91498571Y46472143D02*
X91498571Y46829286D01*
X91498571Y46829286D02*
X91427142Y46972143D01*
X91427142Y46972143D02*
X91355714Y47043572D01*
X91355714Y47043572D02*
X91212856Y47115000D01*
X91212856Y47115000D02*
X90927142Y47115000D01*
X90927142Y47115000D02*
X90784285Y47043572D01*
X90784285Y47043572D02*
X90712856Y46972143D01*
X90712856Y46972143D02*
X90641428Y46829286D01*
D12*
X25035000Y81674286D02*
X24987380Y81579048D01*
X24987380Y81579048D02*
X24987380Y81436191D01*
X24987380Y81436191D02*
X25035000Y81293334D01*
X25035000Y81293334D02*
X25130238Y81198096D01*
X25130238Y81198096D02*
X25225476Y81150477D01*
X25225476Y81150477D02*
X25415952Y81102858D01*
X25415952Y81102858D02*
X25558809Y81102858D01*
X25558809Y81102858D02*
X25749285Y81150477D01*
X25749285Y81150477D02*
X25844523Y81198096D01*
X25844523Y81198096D02*
X25939761Y81293334D01*
X25939761Y81293334D02*
X25987380Y81436191D01*
X25987380Y81436191D02*
X25987380Y81531429D01*
X25987380Y81531429D02*
X25939761Y81674286D01*
X25939761Y81674286D02*
X25892142Y81721905D01*
X25892142Y81721905D02*
X25558809Y81721905D01*
X25558809Y81721905D02*
X25558809Y81531429D01*
X25987380Y82150477D02*
X24987380Y82150477D01*
X24987380Y82150477D02*
X25987380Y82721905D01*
X25987380Y82721905D02*
X24987380Y82721905D01*
X25987380Y83198096D02*
X24987380Y83198096D01*
X24987380Y83198096D02*
X24987380Y83436191D01*
X24987380Y83436191D02*
X25035000Y83579048D01*
X25035000Y83579048D02*
X25130238Y83674286D01*
X25130238Y83674286D02*
X25225476Y83721905D01*
X25225476Y83721905D02*
X25415952Y83769524D01*
X25415952Y83769524D02*
X25558809Y83769524D01*
X25558809Y83769524D02*
X25749285Y83721905D01*
X25749285Y83721905D02*
X25844523Y83674286D01*
X25844523Y83674286D02*
X25939761Y83579048D01*
X25939761Y83579048D02*
X25987380Y83436191D01*
X25987380Y83436191D02*
X25987380Y83198096D01*
D11*
X89355714Y36455000D02*
X90070000Y36455000D01*
X89212857Y36026429D02*
X89712857Y37526429D01*
X89712857Y37526429D02*
X90212857Y36026429D01*
X90641428Y37383572D02*
X90712856Y37455000D01*
X90712856Y37455000D02*
X90855714Y37526429D01*
X90855714Y37526429D02*
X91212856Y37526429D01*
X91212856Y37526429D02*
X91355714Y37455000D01*
X91355714Y37455000D02*
X91427142Y37383572D01*
X91427142Y37383572D02*
X91498571Y37240715D01*
X91498571Y37240715D02*
X91498571Y37097858D01*
X91498571Y37097858D02*
X91427142Y36883572D01*
X91427142Y36883572D02*
X90569999Y36026429D01*
X90569999Y36026429D02*
X91498571Y36026429D01*
X89355714Y54235000D02*
X90070000Y54235000D01*
X89212857Y53806429D02*
X89712857Y55306429D01*
X89712857Y55306429D02*
X90212857Y53806429D01*
X90784285Y53806429D02*
X91069999Y53806429D01*
X91069999Y53806429D02*
X91212856Y53877858D01*
X91212856Y53877858D02*
X91284285Y53949286D01*
X91284285Y53949286D02*
X91427142Y54163572D01*
X91427142Y54163572D02*
X91498571Y54449286D01*
X91498571Y54449286D02*
X91498571Y55020715D01*
X91498571Y55020715D02*
X91427142Y55163572D01*
X91427142Y55163572D02*
X91355714Y55235000D01*
X91355714Y55235000D02*
X91212856Y55306429D01*
X91212856Y55306429D02*
X90927142Y55306429D01*
X90927142Y55306429D02*
X90784285Y55235000D01*
X90784285Y55235000D02*
X90712856Y55163572D01*
X90712856Y55163572D02*
X90641428Y55020715D01*
X90641428Y55020715D02*
X90641428Y54663572D01*
X90641428Y54663572D02*
X90712856Y54520715D01*
X90712856Y54520715D02*
X90784285Y54449286D01*
X90784285Y54449286D02*
X90927142Y54377858D01*
X90927142Y54377858D02*
X91212856Y54377858D01*
X91212856Y54377858D02*
X91355714Y54449286D01*
X91355714Y54449286D02*
X91427142Y54520715D01*
X91427142Y54520715D02*
X91498571Y54663572D01*
X57884284Y10626429D02*
X57884284Y12126429D01*
X57884284Y12126429D02*
X58384284Y11055000D01*
X58384284Y11055000D02*
X58884284Y12126429D01*
X58884284Y12126429D02*
X58884284Y10626429D01*
X60455713Y10626429D02*
X59955713Y11340715D01*
X59598570Y10626429D02*
X59598570Y12126429D01*
X59598570Y12126429D02*
X60169999Y12126429D01*
X60169999Y12126429D02*
X60312856Y12055000D01*
X60312856Y12055000D02*
X60384285Y11983572D01*
X60384285Y11983572D02*
X60455713Y11840715D01*
X60455713Y11840715D02*
X60455713Y11626429D01*
X60455713Y11626429D02*
X60384285Y11483572D01*
X60384285Y11483572D02*
X60312856Y11412143D01*
X60312856Y11412143D02*
X60169999Y11340715D01*
X60169999Y11340715D02*
X59598570Y11340715D01*
X61098570Y11412143D02*
X61598570Y11412143D01*
X61812856Y10626429D02*
X61098570Y10626429D01*
X61098570Y10626429D02*
X61098570Y12126429D01*
X61098570Y12126429D02*
X61812856Y12126429D01*
X63455713Y10483572D02*
X63312856Y10555000D01*
X63312856Y10555000D02*
X63169999Y10697858D01*
X63169999Y10697858D02*
X62955713Y10912143D01*
X62955713Y10912143D02*
X62812856Y10983572D01*
X62812856Y10983572D02*
X62669999Y10983572D01*
X62741428Y10626429D02*
X62598571Y10697858D01*
X62598571Y10697858D02*
X62455713Y10840715D01*
X62455713Y10840715D02*
X62384285Y11126429D01*
X62384285Y11126429D02*
X62384285Y11626429D01*
X62384285Y11626429D02*
X62455713Y11912143D01*
X62455713Y11912143D02*
X62598571Y12055000D01*
X62598571Y12055000D02*
X62741428Y12126429D01*
X62741428Y12126429D02*
X63027142Y12126429D01*
X63027142Y12126429D02*
X63169999Y12055000D01*
X63169999Y12055000D02*
X63312856Y11912143D01*
X63312856Y11912143D02*
X63384285Y11626429D01*
X63384285Y11626429D02*
X63384285Y11126429D01*
X63384285Y11126429D02*
X63312856Y10840715D01*
X63312856Y10840715D02*
X63169999Y10697858D01*
X63169999Y10697858D02*
X63027142Y10626429D01*
X63027142Y10626429D02*
X62741428Y10626429D01*
X57677142Y12655000D02*
X63520000Y12655000D01*
X43261000Y51131143D02*
X43032428Y51131143D01*
X43032428Y51131143D02*
X42918142Y51074000D01*
X42918142Y51074000D02*
X42861000Y51016858D01*
X42861000Y51016858D02*
X42746714Y50845429D01*
X42746714Y50845429D02*
X42689571Y50616858D01*
X42689571Y50616858D02*
X42689571Y50159715D01*
X42689571Y50159715D02*
X42746714Y50045429D01*
X42746714Y50045429D02*
X42803857Y49988286D01*
X42803857Y49988286D02*
X42918142Y49931143D01*
X42918142Y49931143D02*
X43146714Y49931143D01*
X43146714Y49931143D02*
X43261000Y49988286D01*
X43261000Y49988286D02*
X43318142Y50045429D01*
X43318142Y50045429D02*
X43375285Y50159715D01*
X43375285Y50159715D02*
X43375285Y50445429D01*
X43375285Y50445429D02*
X43318142Y50559715D01*
X43318142Y50559715D02*
X43261000Y50616858D01*
X43261000Y50616858D02*
X43146714Y50674000D01*
X43146714Y50674000D02*
X42918142Y50674000D01*
X42918142Y50674000D02*
X42803857Y50616858D01*
X42803857Y50616858D02*
X42746714Y50559715D01*
X42746714Y50559715D02*
X42689571Y50445429D01*
X43832428Y51016858D02*
X43889571Y51074000D01*
X43889571Y51074000D02*
X44003857Y51131143D01*
X44003857Y51131143D02*
X44289571Y51131143D01*
X44289571Y51131143D02*
X44403857Y51074000D01*
X44403857Y51074000D02*
X44460999Y51016858D01*
X44460999Y51016858D02*
X44518142Y50902572D01*
X44518142Y50902572D02*
X44518142Y50788286D01*
X44518142Y50788286D02*
X44460999Y50616858D01*
X44460999Y50616858D02*
X43775285Y49931143D01*
X43775285Y49931143D02*
X44518142Y49931143D01*
X45203856Y50616858D02*
X45089571Y50674000D01*
X45089571Y50674000D02*
X45032428Y50731143D01*
X45032428Y50731143D02*
X44975285Y50845429D01*
X44975285Y50845429D02*
X44975285Y50902572D01*
X44975285Y50902572D02*
X45032428Y51016858D01*
X45032428Y51016858D02*
X45089571Y51074000D01*
X45089571Y51074000D02*
X45203856Y51131143D01*
X45203856Y51131143D02*
X45432428Y51131143D01*
X45432428Y51131143D02*
X45546714Y51074000D01*
X45546714Y51074000D02*
X45603856Y51016858D01*
X45603856Y51016858D02*
X45660999Y50902572D01*
X45660999Y50902572D02*
X45660999Y50845429D01*
X45660999Y50845429D02*
X45603856Y50731143D01*
X45603856Y50731143D02*
X45546714Y50674000D01*
X45546714Y50674000D02*
X45432428Y50616858D01*
X45432428Y50616858D02*
X45203856Y50616858D01*
X45203856Y50616858D02*
X45089571Y50559715D01*
X45089571Y50559715D02*
X45032428Y50502572D01*
X45032428Y50502572D02*
X44975285Y50388286D01*
X44975285Y50388286D02*
X44975285Y50159715D01*
X44975285Y50159715D02*
X45032428Y50045429D01*
X45032428Y50045429D02*
X45089571Y49988286D01*
X45089571Y49988286D02*
X45203856Y49931143D01*
X45203856Y49931143D02*
X45432428Y49931143D01*
X45432428Y49931143D02*
X45546714Y49988286D01*
X45546714Y49988286D02*
X45603856Y50045429D01*
X45603856Y50045429D02*
X45660999Y50159715D01*
X45660999Y50159715D02*
X45660999Y50388286D01*
X45660999Y50388286D02*
X45603856Y50502572D01*
X45603856Y50502572D02*
X45546714Y50559715D01*
X45546714Y50559715D02*
X45432428Y50616858D01*
X46803856Y49931143D02*
X46118142Y49931143D01*
X46460999Y49931143D02*
X46460999Y51131143D01*
X46460999Y51131143D02*
X46346713Y50959715D01*
X46346713Y50959715D02*
X46232428Y50845429D01*
X46232428Y50845429D02*
X46118142Y50788286D01*
X47260999Y51016858D02*
X47318142Y51074000D01*
X47318142Y51074000D02*
X47432428Y51131143D01*
X47432428Y51131143D02*
X47718142Y51131143D01*
X47718142Y51131143D02*
X47832428Y51074000D01*
X47832428Y51074000D02*
X47889570Y51016858D01*
X47889570Y51016858D02*
X47946713Y50902572D01*
X47946713Y50902572D02*
X47946713Y50788286D01*
X47946713Y50788286D02*
X47889570Y50616858D01*
X47889570Y50616858D02*
X47203856Y49931143D01*
X47203856Y49931143D02*
X47946713Y49931143D01*
X48632427Y50616858D02*
X48518142Y50674000D01*
X48518142Y50674000D02*
X48460999Y50731143D01*
X48460999Y50731143D02*
X48403856Y50845429D01*
X48403856Y50845429D02*
X48403856Y50902572D01*
X48403856Y50902572D02*
X48460999Y51016858D01*
X48460999Y51016858D02*
X48518142Y51074000D01*
X48518142Y51074000D02*
X48632427Y51131143D01*
X48632427Y51131143D02*
X48860999Y51131143D01*
X48860999Y51131143D02*
X48975285Y51074000D01*
X48975285Y51074000D02*
X49032427Y51016858D01*
X49032427Y51016858D02*
X49089570Y50902572D01*
X49089570Y50902572D02*
X49089570Y50845429D01*
X49089570Y50845429D02*
X49032427Y50731143D01*
X49032427Y50731143D02*
X48975285Y50674000D01*
X48975285Y50674000D02*
X48860999Y50616858D01*
X48860999Y50616858D02*
X48632427Y50616858D01*
X48632427Y50616858D02*
X48518142Y50559715D01*
X48518142Y50559715D02*
X48460999Y50502572D01*
X48460999Y50502572D02*
X48403856Y50388286D01*
X48403856Y50388286D02*
X48403856Y50159715D01*
X48403856Y50159715D02*
X48460999Y50045429D01*
X48460999Y50045429D02*
X48518142Y49988286D01*
X48518142Y49988286D02*
X48632427Y49931143D01*
X48632427Y49931143D02*
X48860999Y49931143D01*
X48860999Y49931143D02*
X48975285Y49988286D01*
X48975285Y49988286D02*
X49032427Y50045429D01*
X49032427Y50045429D02*
X49089570Y50159715D01*
X49089570Y50159715D02*
X49089570Y50388286D01*
X49089570Y50388286D02*
X49032427Y50502572D01*
X49032427Y50502572D02*
X48975285Y50559715D01*
X48975285Y50559715D02*
X48860999Y50616858D01*
X50266713Y49988286D02*
X50438142Y49931143D01*
X50438142Y49931143D02*
X50723856Y49931143D01*
X50723856Y49931143D02*
X50838142Y49988286D01*
X50838142Y49988286D02*
X50895284Y50045429D01*
X50895284Y50045429D02*
X50952427Y50159715D01*
X50952427Y50159715D02*
X50952427Y50274000D01*
X50952427Y50274000D02*
X50895284Y50388286D01*
X50895284Y50388286D02*
X50838142Y50445429D01*
X50838142Y50445429D02*
X50723856Y50502572D01*
X50723856Y50502572D02*
X50495284Y50559715D01*
X50495284Y50559715D02*
X50380999Y50616858D01*
X50380999Y50616858D02*
X50323856Y50674000D01*
X50323856Y50674000D02*
X50266713Y50788286D01*
X50266713Y50788286D02*
X50266713Y50902572D01*
X50266713Y50902572D02*
X50323856Y51016858D01*
X50323856Y51016858D02*
X50380999Y51074000D01*
X50380999Y51074000D02*
X50495284Y51131143D01*
X50495284Y51131143D02*
X50780999Y51131143D01*
X50780999Y51131143D02*
X50952427Y51074000D01*
X52152427Y49931143D02*
X51752427Y50502572D01*
X51466713Y49931143D02*
X51466713Y51131143D01*
X51466713Y51131143D02*
X51923856Y51131143D01*
X51923856Y51131143D02*
X52038141Y51074000D01*
X52038141Y51074000D02*
X52095284Y51016858D01*
X52095284Y51016858D02*
X52152427Y50902572D01*
X52152427Y50902572D02*
X52152427Y50731143D01*
X52152427Y50731143D02*
X52095284Y50616858D01*
X52095284Y50616858D02*
X52038141Y50559715D01*
X52038141Y50559715D02*
X51923856Y50502572D01*
X51923856Y50502572D02*
X51466713Y50502572D01*
X52609570Y50274000D02*
X53180999Y50274000D01*
X52495284Y49931143D02*
X52895284Y51131143D01*
X52895284Y51131143D02*
X53295284Y49931143D01*
X53695284Y49931143D02*
X53695284Y51131143D01*
X53695284Y51131143D02*
X54095284Y50274000D01*
X54095284Y50274000D02*
X54495284Y51131143D01*
X54495284Y51131143D02*
X54495284Y49931143D01*
X89355714Y56775000D02*
X90070000Y56775000D01*
X89212857Y56346429D02*
X89712857Y57846429D01*
X89712857Y57846429D02*
X90212857Y56346429D01*
X91498571Y56346429D02*
X90641428Y56346429D01*
X91069999Y56346429D02*
X91069999Y57846429D01*
X91069999Y57846429D02*
X90927142Y57632143D01*
X90927142Y57632143D02*
X90784285Y57489286D01*
X90784285Y57489286D02*
X90641428Y57417858D01*
X92427142Y57846429D02*
X92569999Y57846429D01*
X92569999Y57846429D02*
X92712856Y57775000D01*
X92712856Y57775000D02*
X92784285Y57703572D01*
X92784285Y57703572D02*
X92855713Y57560715D01*
X92855713Y57560715D02*
X92927142Y57275000D01*
X92927142Y57275000D02*
X92927142Y56917858D01*
X92927142Y56917858D02*
X92855713Y56632143D01*
X92855713Y56632143D02*
X92784285Y56489286D01*
X92784285Y56489286D02*
X92712856Y56417858D01*
X92712856Y56417858D02*
X92569999Y56346429D01*
X92569999Y56346429D02*
X92427142Y56346429D01*
X92427142Y56346429D02*
X92284285Y56417858D01*
X92284285Y56417858D02*
X92212856Y56489286D01*
X92212856Y56489286D02*
X92141427Y56632143D01*
X92141427Y56632143D02*
X92069999Y56917858D01*
X92069999Y56917858D02*
X92069999Y57275000D01*
X92069999Y57275000D02*
X92141427Y57560715D01*
X92141427Y57560715D02*
X92212856Y57703572D01*
X92212856Y57703572D02*
X92284285Y57775000D01*
X92284285Y57775000D02*
X92427142Y57846429D01*
X90212857Y29835000D02*
X90070000Y29906429D01*
X90070000Y29906429D02*
X89855714Y29906429D01*
X89855714Y29906429D02*
X89641428Y29835000D01*
X89641428Y29835000D02*
X89498571Y29692143D01*
X89498571Y29692143D02*
X89427142Y29549286D01*
X89427142Y29549286D02*
X89355714Y29263572D01*
X89355714Y29263572D02*
X89355714Y29049286D01*
X89355714Y29049286D02*
X89427142Y28763572D01*
X89427142Y28763572D02*
X89498571Y28620715D01*
X89498571Y28620715D02*
X89641428Y28477858D01*
X89641428Y28477858D02*
X89855714Y28406429D01*
X89855714Y28406429D02*
X89998571Y28406429D01*
X89998571Y28406429D02*
X90212857Y28477858D01*
X90212857Y28477858D02*
X90284285Y28549286D01*
X90284285Y28549286D02*
X90284285Y29049286D01*
X90284285Y29049286D02*
X89998571Y29049286D01*
X90927142Y28406429D02*
X90927142Y29906429D01*
X90927142Y29906429D02*
X91784285Y28406429D01*
X91784285Y28406429D02*
X91784285Y29906429D01*
X92498571Y28406429D02*
X92498571Y29906429D01*
X92498571Y29906429D02*
X92855714Y29906429D01*
X92855714Y29906429D02*
X93070000Y29835000D01*
X93070000Y29835000D02*
X93212857Y29692143D01*
X93212857Y29692143D02*
X93284286Y29549286D01*
X93284286Y29549286D02*
X93355714Y29263572D01*
X93355714Y29263572D02*
X93355714Y29049286D01*
X93355714Y29049286D02*
X93284286Y28763572D01*
X93284286Y28763572D02*
X93212857Y28620715D01*
X93212857Y28620715D02*
X93070000Y28477858D01*
X93070000Y28477858D02*
X92855714Y28406429D01*
X92855714Y28406429D02*
X92498571Y28406429D01*
X4519714Y49296143D02*
X4519714Y50496143D01*
X4519714Y50496143D02*
X4919714Y49639000D01*
X4919714Y49639000D02*
X5319714Y50496143D01*
X5319714Y50496143D02*
X5319714Y49296143D01*
X6119714Y50496143D02*
X6348286Y50496143D01*
X6348286Y50496143D02*
X6462571Y50439000D01*
X6462571Y50439000D02*
X6576857Y50324715D01*
X6576857Y50324715D02*
X6634000Y50096143D01*
X6634000Y50096143D02*
X6634000Y49696143D01*
X6634000Y49696143D02*
X6576857Y49467572D01*
X6576857Y49467572D02*
X6462571Y49353286D01*
X6462571Y49353286D02*
X6348286Y49296143D01*
X6348286Y49296143D02*
X6119714Y49296143D01*
X6119714Y49296143D02*
X6005429Y49353286D01*
X6005429Y49353286D02*
X5891143Y49467572D01*
X5891143Y49467572D02*
X5834000Y49696143D01*
X5834000Y49696143D02*
X5834000Y50096143D01*
X5834000Y50096143D02*
X5891143Y50324715D01*
X5891143Y50324715D02*
X6005429Y50439000D01*
X6005429Y50439000D02*
X6119714Y50496143D01*
X7091143Y49353286D02*
X7262572Y49296143D01*
X7262572Y49296143D02*
X7548286Y49296143D01*
X7548286Y49296143D02*
X7662572Y49353286D01*
X7662572Y49353286D02*
X7719714Y49410429D01*
X7719714Y49410429D02*
X7776857Y49524715D01*
X7776857Y49524715D02*
X7776857Y49639000D01*
X7776857Y49639000D02*
X7719714Y49753286D01*
X7719714Y49753286D02*
X7662572Y49810429D01*
X7662572Y49810429D02*
X7548286Y49867572D01*
X7548286Y49867572D02*
X7319714Y49924715D01*
X7319714Y49924715D02*
X7205429Y49981858D01*
X7205429Y49981858D02*
X7148286Y50039000D01*
X7148286Y50039000D02*
X7091143Y50153286D01*
X7091143Y50153286D02*
X7091143Y50267572D01*
X7091143Y50267572D02*
X7148286Y50381858D01*
X7148286Y50381858D02*
X7205429Y50439000D01*
X7205429Y50439000D02*
X7319714Y50496143D01*
X7319714Y50496143D02*
X7605429Y50496143D01*
X7605429Y50496143D02*
X7776857Y50439000D01*
X8291143Y49296143D02*
X8291143Y50496143D01*
X61098571Y20786429D02*
X61098571Y22286429D01*
X61098571Y22286429D02*
X61455714Y22286429D01*
X61455714Y22286429D02*
X61670000Y22215000D01*
X61670000Y22215000D02*
X61812857Y22072143D01*
X61812857Y22072143D02*
X61884286Y21929286D01*
X61884286Y21929286D02*
X61955714Y21643572D01*
X61955714Y21643572D02*
X61955714Y21429286D01*
X61955714Y21429286D02*
X61884286Y21143572D01*
X61884286Y21143572D02*
X61812857Y21000715D01*
X61812857Y21000715D02*
X61670000Y20857858D01*
X61670000Y20857858D02*
X61455714Y20786429D01*
X61455714Y20786429D02*
X61098571Y20786429D01*
X63384286Y20786429D02*
X62527143Y20786429D01*
X62955714Y20786429D02*
X62955714Y22286429D01*
X62955714Y22286429D02*
X62812857Y22072143D01*
X62812857Y22072143D02*
X62670000Y21929286D01*
X62670000Y21929286D02*
X62527143Y21857858D01*
X90284285Y8086429D02*
X89784285Y8800715D01*
X89427142Y8086429D02*
X89427142Y9586429D01*
X89427142Y9586429D02*
X89998571Y9586429D01*
X89998571Y9586429D02*
X90141428Y9515000D01*
X90141428Y9515000D02*
X90212857Y9443572D01*
X90212857Y9443572D02*
X90284285Y9300715D01*
X90284285Y9300715D02*
X90284285Y9086429D01*
X90284285Y9086429D02*
X90212857Y8943572D01*
X90212857Y8943572D02*
X90141428Y8872143D01*
X90141428Y8872143D02*
X89998571Y8800715D01*
X89998571Y8800715D02*
X89427142Y8800715D01*
X90927142Y8086429D02*
X90927142Y9586429D01*
X90927142Y9586429D02*
X91284285Y9586429D01*
X91284285Y9586429D02*
X91498571Y9515000D01*
X91498571Y9515000D02*
X91641428Y9372143D01*
X91641428Y9372143D02*
X91712857Y9229286D01*
X91712857Y9229286D02*
X91784285Y8943572D01*
X91784285Y8943572D02*
X91784285Y8729286D01*
X91784285Y8729286D02*
X91712857Y8443572D01*
X91712857Y8443572D02*
X91641428Y8300715D01*
X91641428Y8300715D02*
X91498571Y8157858D01*
X91498571Y8157858D02*
X91284285Y8086429D01*
X91284285Y8086429D02*
X90927142Y8086429D01*
X89220000Y10115000D02*
X91920000Y10115000D01*
D12*
X10747380Y75478096D02*
X9747380Y75478096D01*
X9747380Y75478096D02*
X10461666Y75811429D01*
X10461666Y75811429D02*
X9747380Y76144762D01*
X9747380Y76144762D02*
X10747380Y76144762D01*
X10747380Y76620953D02*
X9747380Y76620953D01*
X9747380Y76620953D02*
X9747380Y77001905D01*
X9747380Y77001905D02*
X9795000Y77097143D01*
X9795000Y77097143D02*
X9842619Y77144762D01*
X9842619Y77144762D02*
X9937857Y77192381D01*
X9937857Y77192381D02*
X10080714Y77192381D01*
X10080714Y77192381D02*
X10175952Y77144762D01*
X10175952Y77144762D02*
X10223571Y77097143D01*
X10223571Y77097143D02*
X10271190Y77001905D01*
X10271190Y77001905D02*
X10271190Y76620953D01*
X10747380Y78097143D02*
X10747380Y77620953D01*
X10747380Y77620953D02*
X9747380Y77620953D01*
X10461666Y78382858D02*
X10461666Y78859048D01*
X10747380Y78287620D02*
X9747380Y78620953D01*
X9747380Y78620953D02*
X10747380Y78954286D01*
X10223571Y79620953D02*
X10271190Y79763810D01*
X10271190Y79763810D02*
X10318809Y79811429D01*
X10318809Y79811429D02*
X10414047Y79859048D01*
X10414047Y79859048D02*
X10556904Y79859048D01*
X10556904Y79859048D02*
X10652142Y79811429D01*
X10652142Y79811429D02*
X10699761Y79763810D01*
X10699761Y79763810D02*
X10747380Y79668572D01*
X10747380Y79668572D02*
X10747380Y79287620D01*
X10747380Y79287620D02*
X9747380Y79287620D01*
X9747380Y79287620D02*
X9747380Y79620953D01*
X9747380Y79620953D02*
X9795000Y79716191D01*
X9795000Y79716191D02*
X9842619Y79763810D01*
X9842619Y79763810D02*
X9937857Y79811429D01*
X9937857Y79811429D02*
X10033095Y79811429D01*
X10033095Y79811429D02*
X10128333Y79763810D01*
X10128333Y79763810D02*
X10175952Y79716191D01*
X10175952Y79716191D02*
X10223571Y79620953D01*
X10223571Y79620953D02*
X10223571Y79287620D01*
X10699761Y80840001D02*
X10747380Y80982858D01*
X10747380Y80982858D02*
X10747380Y81220953D01*
X10747380Y81220953D02*
X10699761Y81316191D01*
X10699761Y81316191D02*
X10652142Y81363810D01*
X10652142Y81363810D02*
X10556904Y81411429D01*
X10556904Y81411429D02*
X10461666Y81411429D01*
X10461666Y81411429D02*
X10366428Y81363810D01*
X10366428Y81363810D02*
X10318809Y81316191D01*
X10318809Y81316191D02*
X10271190Y81220953D01*
X10271190Y81220953D02*
X10223571Y81030477D01*
X10223571Y81030477D02*
X10175952Y80935239D01*
X10175952Y80935239D02*
X10128333Y80887620D01*
X10128333Y80887620D02*
X10033095Y80840001D01*
X10033095Y80840001D02*
X9937857Y80840001D01*
X9937857Y80840001D02*
X9842619Y80887620D01*
X9842619Y80887620D02*
X9795000Y80935239D01*
X9795000Y80935239D02*
X9747380Y81030477D01*
X9747380Y81030477D02*
X9747380Y81268572D01*
X9747380Y81268572D02*
X9795000Y81411429D01*
X10747380Y81840001D02*
X9747380Y81840001D01*
X9747380Y81840001D02*
X10747380Y82411429D01*
X10747380Y82411429D02*
X9747380Y82411429D01*
X10461666Y82840001D02*
X10461666Y83316191D01*
X10747380Y82744763D02*
X9747380Y83078096D01*
X9747380Y83078096D02*
X10747380Y83411429D01*
X10747380Y83744763D02*
X9747380Y83744763D01*
X9747380Y83744763D02*
X9747380Y84125715D01*
X9747380Y84125715D02*
X9795000Y84220953D01*
X9795000Y84220953D02*
X9842619Y84268572D01*
X9842619Y84268572D02*
X9937857Y84316191D01*
X9937857Y84316191D02*
X10080714Y84316191D01*
X10080714Y84316191D02*
X10175952Y84268572D01*
X10175952Y84268572D02*
X10223571Y84220953D01*
X10223571Y84220953D02*
X10271190Y84125715D01*
X10271190Y84125715D02*
X10271190Y83744763D01*
D11*
X61098571Y33486429D02*
X61098571Y34986429D01*
X61098571Y34986429D02*
X61455714Y34986429D01*
X61455714Y34986429D02*
X61670000Y34915000D01*
X61670000Y34915000D02*
X61812857Y34772143D01*
X61812857Y34772143D02*
X61884286Y34629286D01*
X61884286Y34629286D02*
X61955714Y34343572D01*
X61955714Y34343572D02*
X61955714Y34129286D01*
X61955714Y34129286D02*
X61884286Y33843572D01*
X61884286Y33843572D02*
X61812857Y33700715D01*
X61812857Y33700715D02*
X61670000Y33557858D01*
X61670000Y33557858D02*
X61455714Y33486429D01*
X61455714Y33486429D02*
X61098571Y33486429D01*
X63241429Y34986429D02*
X62955714Y34986429D01*
X62955714Y34986429D02*
X62812857Y34915000D01*
X62812857Y34915000D02*
X62741429Y34843572D01*
X62741429Y34843572D02*
X62598571Y34629286D01*
X62598571Y34629286D02*
X62527143Y34343572D01*
X62527143Y34343572D02*
X62527143Y33772143D01*
X62527143Y33772143D02*
X62598571Y33629286D01*
X62598571Y33629286D02*
X62670000Y33557858D01*
X62670000Y33557858D02*
X62812857Y33486429D01*
X62812857Y33486429D02*
X63098571Y33486429D01*
X63098571Y33486429D02*
X63241429Y33557858D01*
X63241429Y33557858D02*
X63312857Y33629286D01*
X63312857Y33629286D02*
X63384286Y33772143D01*
X63384286Y33772143D02*
X63384286Y34129286D01*
X63384286Y34129286D02*
X63312857Y34272143D01*
X63312857Y34272143D02*
X63241429Y34343572D01*
X63241429Y34343572D02*
X63098571Y34415000D01*
X63098571Y34415000D02*
X62812857Y34415000D01*
X62812857Y34415000D02*
X62670000Y34343572D01*
X62670000Y34343572D02*
X62598571Y34272143D01*
X62598571Y34272143D02*
X62527143Y34129286D01*
D12*
X31067380Y80245715D02*
X30067380Y80245715D01*
X30067380Y80245715D02*
X30781666Y80579048D01*
X30781666Y80579048D02*
X30067380Y80912381D01*
X30067380Y80912381D02*
X31067380Y80912381D01*
X30972142Y81960000D02*
X31019761Y81912381D01*
X31019761Y81912381D02*
X31067380Y81769524D01*
X31067380Y81769524D02*
X31067380Y81674286D01*
X31067380Y81674286D02*
X31019761Y81531429D01*
X31019761Y81531429D02*
X30924523Y81436191D01*
X30924523Y81436191D02*
X30829285Y81388572D01*
X30829285Y81388572D02*
X30638809Y81340953D01*
X30638809Y81340953D02*
X30495952Y81340953D01*
X30495952Y81340953D02*
X30305476Y81388572D01*
X30305476Y81388572D02*
X30210238Y81436191D01*
X30210238Y81436191D02*
X30115000Y81531429D01*
X30115000Y81531429D02*
X30067380Y81674286D01*
X30067380Y81674286D02*
X30067380Y81769524D01*
X30067380Y81769524D02*
X30115000Y81912381D01*
X30115000Y81912381D02*
X30162619Y81960000D01*
X31067380Y82864762D02*
X31067380Y82388572D01*
X31067380Y82388572D02*
X30067380Y82388572D01*
X31067380Y83769524D02*
X30591190Y83436191D01*
X31067380Y83198096D02*
X30067380Y83198096D01*
X30067380Y83198096D02*
X30067380Y83579048D01*
X30067380Y83579048D02*
X30115000Y83674286D01*
X30115000Y83674286D02*
X30162619Y83721905D01*
X30162619Y83721905D02*
X30257857Y83769524D01*
X30257857Y83769524D02*
X30400714Y83769524D01*
X30400714Y83769524D02*
X30495952Y83721905D01*
X30495952Y83721905D02*
X30543571Y83674286D01*
X30543571Y83674286D02*
X30591190Y83579048D01*
X30591190Y83579048D02*
X30591190Y83198096D01*
X29715000Y80107619D02*
X29715000Y83860000D01*
X75787380Y80880239D02*
X75787380Y81451667D01*
X76787380Y81165953D02*
X75787380Y81165953D01*
X75787380Y81689763D02*
X76787380Y82356429D01*
X75787380Y82356429D02*
X76787380Y81689763D01*
X76787380Y82737382D02*
X75787380Y82737382D01*
X75787380Y82737382D02*
X75787380Y82975477D01*
X75787380Y82975477D02*
X75835000Y83118334D01*
X75835000Y83118334D02*
X75930238Y83213572D01*
X75930238Y83213572D02*
X76025476Y83261191D01*
X76025476Y83261191D02*
X76215952Y83308810D01*
X76215952Y83308810D02*
X76358809Y83308810D01*
X76358809Y83308810D02*
X76549285Y83261191D01*
X76549285Y83261191D02*
X76644523Y83213572D01*
X76644523Y83213572D02*
X76739761Y83118334D01*
X76739761Y83118334D02*
X76787380Y82975477D01*
X76787380Y82975477D02*
X76787380Y82737382D01*
D11*
X90284285Y20786429D02*
X89784285Y21500715D01*
X89427142Y20786429D02*
X89427142Y22286429D01*
X89427142Y22286429D02*
X89998571Y22286429D01*
X89998571Y22286429D02*
X90141428Y22215000D01*
X90141428Y22215000D02*
X90212857Y22143572D01*
X90212857Y22143572D02*
X90284285Y22000715D01*
X90284285Y22000715D02*
X90284285Y21786429D01*
X90284285Y21786429D02*
X90212857Y21643572D01*
X90212857Y21643572D02*
X90141428Y21572143D01*
X90141428Y21572143D02*
X89998571Y21500715D01*
X89998571Y21500715D02*
X89427142Y21500715D01*
X90927142Y21572143D02*
X91427142Y21572143D01*
X91641428Y20786429D02*
X90927142Y20786429D01*
X90927142Y20786429D02*
X90927142Y22286429D01*
X90927142Y22286429D02*
X91641428Y22286429D01*
X92212857Y20857858D02*
X92427143Y20786429D01*
X92427143Y20786429D02*
X92784285Y20786429D01*
X92784285Y20786429D02*
X92927143Y20857858D01*
X92927143Y20857858D02*
X92998571Y20929286D01*
X92998571Y20929286D02*
X93070000Y21072143D01*
X93070000Y21072143D02*
X93070000Y21215000D01*
X93070000Y21215000D02*
X92998571Y21357858D01*
X92998571Y21357858D02*
X92927143Y21429286D01*
X92927143Y21429286D02*
X92784285Y21500715D01*
X92784285Y21500715D02*
X92498571Y21572143D01*
X92498571Y21572143D02*
X92355714Y21643572D01*
X92355714Y21643572D02*
X92284285Y21715000D01*
X92284285Y21715000D02*
X92212857Y21857858D01*
X92212857Y21857858D02*
X92212857Y22000715D01*
X92212857Y22000715D02*
X92284285Y22143572D01*
X92284285Y22143572D02*
X92355714Y22215000D01*
X92355714Y22215000D02*
X92498571Y22286429D01*
X92498571Y22286429D02*
X92855714Y22286429D01*
X92855714Y22286429D02*
X93070000Y22215000D01*
X93712856Y21572143D02*
X94212856Y21572143D01*
X94427142Y20786429D02*
X93712856Y20786429D01*
X93712856Y20786429D02*
X93712856Y22286429D01*
X93712856Y22286429D02*
X94427142Y22286429D01*
X94855714Y22286429D02*
X95712857Y22286429D01*
X95284285Y20786429D02*
X95284285Y22286429D01*
X89220000Y22815000D02*
X95705714Y22815000D01*
X14425714Y59075143D02*
X14425714Y60275143D01*
X14425714Y60275143D02*
X14882857Y60275143D01*
X14882857Y60275143D02*
X14997142Y60218000D01*
X14997142Y60218000D02*
X15054285Y60160858D01*
X15054285Y60160858D02*
X15111428Y60046572D01*
X15111428Y60046572D02*
X15111428Y59875143D01*
X15111428Y59875143D02*
X15054285Y59760858D01*
X15054285Y59760858D02*
X14997142Y59703715D01*
X14997142Y59703715D02*
X14882857Y59646572D01*
X14882857Y59646572D02*
X14425714Y59646572D01*
X15625714Y59075143D02*
X15625714Y60275143D01*
X16882857Y59189429D02*
X16825714Y59132286D01*
X16825714Y59132286D02*
X16654286Y59075143D01*
X16654286Y59075143D02*
X16540000Y59075143D01*
X16540000Y59075143D02*
X16368571Y59132286D01*
X16368571Y59132286D02*
X16254286Y59246572D01*
X16254286Y59246572D02*
X16197143Y59360858D01*
X16197143Y59360858D02*
X16140000Y59589429D01*
X16140000Y59589429D02*
X16140000Y59760858D01*
X16140000Y59760858D02*
X16197143Y59989429D01*
X16197143Y59989429D02*
X16254286Y60103715D01*
X16254286Y60103715D02*
X16368571Y60218000D01*
X16368571Y60218000D02*
X16540000Y60275143D01*
X16540000Y60275143D02*
X16654286Y60275143D01*
X16654286Y60275143D02*
X16825714Y60218000D01*
X16825714Y60218000D02*
X16882857Y60160858D01*
X18025714Y59075143D02*
X17340000Y59075143D01*
X17682857Y59075143D02*
X17682857Y60275143D01*
X17682857Y60275143D02*
X17568571Y60103715D01*
X17568571Y60103715D02*
X17454286Y59989429D01*
X17454286Y59989429D02*
X17340000Y59932286D01*
X18711428Y59760858D02*
X18597143Y59818000D01*
X18597143Y59818000D02*
X18540000Y59875143D01*
X18540000Y59875143D02*
X18482857Y59989429D01*
X18482857Y59989429D02*
X18482857Y60046572D01*
X18482857Y60046572D02*
X18540000Y60160858D01*
X18540000Y60160858D02*
X18597143Y60218000D01*
X18597143Y60218000D02*
X18711428Y60275143D01*
X18711428Y60275143D02*
X18940000Y60275143D01*
X18940000Y60275143D02*
X19054286Y60218000D01*
X19054286Y60218000D02*
X19111428Y60160858D01*
X19111428Y60160858D02*
X19168571Y60046572D01*
X19168571Y60046572D02*
X19168571Y59989429D01*
X19168571Y59989429D02*
X19111428Y59875143D01*
X19111428Y59875143D02*
X19054286Y59818000D01*
X19054286Y59818000D02*
X18940000Y59760858D01*
X18940000Y59760858D02*
X18711428Y59760858D01*
X18711428Y59760858D02*
X18597143Y59703715D01*
X18597143Y59703715D02*
X18540000Y59646572D01*
X18540000Y59646572D02*
X18482857Y59532286D01*
X18482857Y59532286D02*
X18482857Y59303715D01*
X18482857Y59303715D02*
X18540000Y59189429D01*
X18540000Y59189429D02*
X18597143Y59132286D01*
X18597143Y59132286D02*
X18711428Y59075143D01*
X18711428Y59075143D02*
X18940000Y59075143D01*
X18940000Y59075143D02*
X19054286Y59132286D01*
X19054286Y59132286D02*
X19111428Y59189429D01*
X19111428Y59189429D02*
X19168571Y59303715D01*
X19168571Y59303715D02*
X19168571Y59532286D01*
X19168571Y59532286D02*
X19111428Y59646572D01*
X19111428Y59646572D02*
X19054286Y59703715D01*
X19054286Y59703715D02*
X18940000Y59760858D01*
X20082857Y59703715D02*
X19682857Y59703715D01*
X19682857Y59075143D02*
X19682857Y60275143D01*
X19682857Y60275143D02*
X20254285Y60275143D01*
X21225714Y59875143D02*
X21225714Y59075143D01*
X20939999Y60332286D02*
X20654285Y59475143D01*
X20654285Y59475143D02*
X21397142Y59475143D01*
X21739999Y60275143D02*
X22539999Y60275143D01*
X22539999Y60275143D02*
X22025713Y59075143D01*
X23797142Y58960858D02*
X23682856Y59018000D01*
X23682856Y59018000D02*
X23568570Y59132286D01*
X23568570Y59132286D02*
X23397142Y59303715D01*
X23397142Y59303715D02*
X23282856Y59360858D01*
X23282856Y59360858D02*
X23168570Y59360858D01*
X23225713Y59075143D02*
X23111428Y59132286D01*
X23111428Y59132286D02*
X22997142Y59246572D01*
X22997142Y59246572D02*
X22939999Y59475143D01*
X22939999Y59475143D02*
X22939999Y59875143D01*
X22939999Y59875143D02*
X22997142Y60103715D01*
X22997142Y60103715D02*
X23111428Y60218000D01*
X23111428Y60218000D02*
X23225713Y60275143D01*
X23225713Y60275143D02*
X23454285Y60275143D01*
X23454285Y60275143D02*
X23568570Y60218000D01*
X23568570Y60218000D02*
X23682856Y60103715D01*
X23682856Y60103715D02*
X23739999Y59875143D01*
X23739999Y59875143D02*
X23739999Y59475143D01*
X23739999Y59475143D02*
X23682856Y59246572D01*
X23682856Y59246572D02*
X23568570Y59132286D01*
X23568570Y59132286D02*
X23454285Y59075143D01*
X23454285Y59075143D02*
X23225713Y59075143D01*
X24768571Y59875143D02*
X24768571Y59075143D01*
X24482856Y60332286D02*
X24197142Y59475143D01*
X24197142Y59475143D02*
X24939999Y59475143D01*
X25282856Y60275143D02*
X26025713Y60275143D01*
X26025713Y60275143D02*
X25625713Y59818000D01*
X25625713Y59818000D02*
X25797142Y59818000D01*
X25797142Y59818000D02*
X25911428Y59760858D01*
X25911428Y59760858D02*
X25968570Y59703715D01*
X25968570Y59703715D02*
X26025713Y59589429D01*
X26025713Y59589429D02*
X26025713Y59303715D01*
X26025713Y59303715D02*
X25968570Y59189429D01*
X25968570Y59189429D02*
X25911428Y59132286D01*
X25911428Y59132286D02*
X25797142Y59075143D01*
X25797142Y59075143D02*
X25454285Y59075143D01*
X25454285Y59075143D02*
X25339999Y59132286D01*
X25339999Y59132286D02*
X25282856Y59189429D01*
D12*
X20907380Y81198096D02*
X19907380Y81198096D01*
X19907380Y81198096D02*
X19907380Y81579048D01*
X19907380Y81579048D02*
X19955000Y81674286D01*
X19955000Y81674286D02*
X20002619Y81721905D01*
X20002619Y81721905D02*
X20097857Y81769524D01*
X20097857Y81769524D02*
X20240714Y81769524D01*
X20240714Y81769524D02*
X20335952Y81721905D01*
X20335952Y81721905D02*
X20383571Y81674286D01*
X20383571Y81674286D02*
X20431190Y81579048D01*
X20431190Y81579048D02*
X20431190Y81198096D01*
X19955000Y82721905D02*
X19907380Y82626667D01*
X19907380Y82626667D02*
X19907380Y82483810D01*
X19907380Y82483810D02*
X19955000Y82340953D01*
X19955000Y82340953D02*
X20050238Y82245715D01*
X20050238Y82245715D02*
X20145476Y82198096D01*
X20145476Y82198096D02*
X20335952Y82150477D01*
X20335952Y82150477D02*
X20478809Y82150477D01*
X20478809Y82150477D02*
X20669285Y82198096D01*
X20669285Y82198096D02*
X20764523Y82245715D01*
X20764523Y82245715D02*
X20859761Y82340953D01*
X20859761Y82340953D02*
X20907380Y82483810D01*
X20907380Y82483810D02*
X20907380Y82579048D01*
X20907380Y82579048D02*
X20859761Y82721905D01*
X20859761Y82721905D02*
X20812142Y82769524D01*
X20812142Y82769524D02*
X20478809Y82769524D01*
X20478809Y82769524D02*
X20478809Y82579048D01*
X20812142Y83769524D02*
X20859761Y83721905D01*
X20859761Y83721905D02*
X20907380Y83579048D01*
X20907380Y83579048D02*
X20907380Y83483810D01*
X20907380Y83483810D02*
X20859761Y83340953D01*
X20859761Y83340953D02*
X20764523Y83245715D01*
X20764523Y83245715D02*
X20669285Y83198096D01*
X20669285Y83198096D02*
X20478809Y83150477D01*
X20478809Y83150477D02*
X20335952Y83150477D01*
X20335952Y83150477D02*
X20145476Y83198096D01*
X20145476Y83198096D02*
X20050238Y83245715D01*
X20050238Y83245715D02*
X19955000Y83340953D01*
X19955000Y83340953D02*
X19907380Y83483810D01*
X19907380Y83483810D02*
X19907380Y83579048D01*
X19907380Y83579048D02*
X19955000Y83721905D01*
X19955000Y83721905D02*
X20002619Y83769524D01*
D11*
X89355714Y44075000D02*
X90070000Y44075000D01*
X89212857Y43646429D02*
X89712857Y45146429D01*
X89712857Y45146429D02*
X90212857Y43646429D01*
X91427142Y45146429D02*
X90712856Y45146429D01*
X90712856Y45146429D02*
X90641428Y44432143D01*
X90641428Y44432143D02*
X90712856Y44503572D01*
X90712856Y44503572D02*
X90855714Y44575000D01*
X90855714Y44575000D02*
X91212856Y44575000D01*
X91212856Y44575000D02*
X91355714Y44503572D01*
X91355714Y44503572D02*
X91427142Y44432143D01*
X91427142Y44432143D02*
X91498571Y44289286D01*
X91498571Y44289286D02*
X91498571Y43932143D01*
X91498571Y43932143D02*
X91427142Y43789286D01*
X91427142Y43789286D02*
X91355714Y43717858D01*
X91355714Y43717858D02*
X91212856Y43646429D01*
X91212856Y43646429D02*
X90855714Y43646429D01*
X90855714Y43646429D02*
X90712856Y43717858D01*
X90712856Y43717858D02*
X90641428Y43789286D01*
D12*
X13287380Y82150477D02*
X12287380Y82150477D01*
X12287380Y82150477D02*
X13287380Y82721905D01*
X13287380Y82721905D02*
X12287380Y82721905D01*
X13192142Y83769524D02*
X13239761Y83721905D01*
X13239761Y83721905D02*
X13287380Y83579048D01*
X13287380Y83579048D02*
X13287380Y83483810D01*
X13287380Y83483810D02*
X13239761Y83340953D01*
X13239761Y83340953D02*
X13144523Y83245715D01*
X13144523Y83245715D02*
X13049285Y83198096D01*
X13049285Y83198096D02*
X12858809Y83150477D01*
X12858809Y83150477D02*
X12715952Y83150477D01*
X12715952Y83150477D02*
X12525476Y83198096D01*
X12525476Y83198096D02*
X12430238Y83245715D01*
X12430238Y83245715D02*
X12335000Y83340953D01*
X12335000Y83340953D02*
X12287380Y83483810D01*
X12287380Y83483810D02*
X12287380Y83579048D01*
X12287380Y83579048D02*
X12335000Y83721905D01*
X12335000Y83721905D02*
X12382619Y83769524D01*
X74247380Y81023096D02*
X73247380Y81023096D01*
X73247380Y81023096D02*
X74247380Y81594524D01*
X74247380Y81594524D02*
X73247380Y81594524D01*
X74152142Y82642143D02*
X74199761Y82594524D01*
X74199761Y82594524D02*
X74247380Y82451667D01*
X74247380Y82451667D02*
X74247380Y82356429D01*
X74247380Y82356429D02*
X74199761Y82213572D01*
X74199761Y82213572D02*
X74104523Y82118334D01*
X74104523Y82118334D02*
X74009285Y82070715D01*
X74009285Y82070715D02*
X73818809Y82023096D01*
X73818809Y82023096D02*
X73675952Y82023096D01*
X73675952Y82023096D02*
X73485476Y82070715D01*
X73485476Y82070715D02*
X73390238Y82118334D01*
X73390238Y82118334D02*
X73295000Y82213572D01*
X73295000Y82213572D02*
X73247380Y82356429D01*
X73247380Y82356429D02*
X73247380Y82451667D01*
X73247380Y82451667D02*
X73295000Y82594524D01*
X73295000Y82594524D02*
X73342619Y82642143D01*
D11*
X60669999Y43789286D02*
X60598571Y43717858D01*
X60598571Y43717858D02*
X60384285Y43646429D01*
X60384285Y43646429D02*
X60241428Y43646429D01*
X60241428Y43646429D02*
X60027142Y43717858D01*
X60027142Y43717858D02*
X59884285Y43860715D01*
X59884285Y43860715D02*
X59812856Y44003572D01*
X59812856Y44003572D02*
X59741428Y44289286D01*
X59741428Y44289286D02*
X59741428Y44503572D01*
X59741428Y44503572D02*
X59812856Y44789286D01*
X59812856Y44789286D02*
X59884285Y44932143D01*
X59884285Y44932143D02*
X60027142Y45075000D01*
X60027142Y45075000D02*
X60241428Y45146429D01*
X60241428Y45146429D02*
X60384285Y45146429D01*
X60384285Y45146429D02*
X60598571Y45075000D01*
X60598571Y45075000D02*
X60669999Y45003572D01*
X62027142Y43646429D02*
X61312856Y43646429D01*
X61312856Y43646429D02*
X61312856Y45146429D01*
X62527142Y43646429D02*
X62527142Y45146429D01*
X63384285Y43646429D02*
X62741428Y44503572D01*
X63384285Y45146429D02*
X62527142Y44289286D01*
X58669998Y8086429D02*
X58669998Y9586429D01*
X59669999Y9586429D02*
X59955713Y9586429D01*
X59955713Y9586429D02*
X60098570Y9515000D01*
X60098570Y9515000D02*
X60241427Y9372143D01*
X60241427Y9372143D02*
X60312856Y9086429D01*
X60312856Y9086429D02*
X60312856Y8586429D01*
X60312856Y8586429D02*
X60241427Y8300715D01*
X60241427Y8300715D02*
X60098570Y8157858D01*
X60098570Y8157858D02*
X59955713Y8086429D01*
X59955713Y8086429D02*
X59669999Y8086429D01*
X59669999Y8086429D02*
X59527142Y8157858D01*
X59527142Y8157858D02*
X59384284Y8300715D01*
X59384284Y8300715D02*
X59312856Y8586429D01*
X59312856Y8586429D02*
X59312856Y9086429D01*
X59312856Y9086429D02*
X59384284Y9372143D01*
X59384284Y9372143D02*
X59527142Y9515000D01*
X59527142Y9515000D02*
X59669999Y9586429D01*
X61812856Y8086429D02*
X61312856Y8800715D01*
X60955713Y8086429D02*
X60955713Y9586429D01*
X60955713Y9586429D02*
X61527142Y9586429D01*
X61527142Y9586429D02*
X61669999Y9515000D01*
X61669999Y9515000D02*
X61741428Y9443572D01*
X61741428Y9443572D02*
X61812856Y9300715D01*
X61812856Y9300715D02*
X61812856Y9086429D01*
X61812856Y9086429D02*
X61741428Y8943572D01*
X61741428Y8943572D02*
X61669999Y8872143D01*
X61669999Y8872143D02*
X61527142Y8800715D01*
X61527142Y8800715D02*
X60955713Y8800715D01*
X63455713Y7943572D02*
X63312856Y8015000D01*
X63312856Y8015000D02*
X63169999Y8157858D01*
X63169999Y8157858D02*
X62955713Y8372143D01*
X62955713Y8372143D02*
X62812856Y8443572D01*
X62812856Y8443572D02*
X62669999Y8443572D01*
X62741428Y8086429D02*
X62598571Y8157858D01*
X62598571Y8157858D02*
X62455713Y8300715D01*
X62455713Y8300715D02*
X62384285Y8586429D01*
X62384285Y8586429D02*
X62384285Y9086429D01*
X62384285Y9086429D02*
X62455713Y9372143D01*
X62455713Y9372143D02*
X62598571Y9515000D01*
X62598571Y9515000D02*
X62741428Y9586429D01*
X62741428Y9586429D02*
X63027142Y9586429D01*
X63027142Y9586429D02*
X63169999Y9515000D01*
X63169999Y9515000D02*
X63312856Y9372143D01*
X63312856Y9372143D02*
X63384285Y9086429D01*
X63384285Y9086429D02*
X63384285Y8586429D01*
X63384285Y8586429D02*
X63312856Y8300715D01*
X63312856Y8300715D02*
X63169999Y8157858D01*
X63169999Y8157858D02*
X63027142Y8086429D01*
X63027142Y8086429D02*
X62741428Y8086429D01*
X58462856Y10115000D02*
X63520000Y10115000D01*
X89355714Y33915000D02*
X90070000Y33915000D01*
X89212857Y33486429D02*
X89712857Y34986429D01*
X89712857Y34986429D02*
X90212857Y33486429D01*
X91498571Y33486429D02*
X90641428Y33486429D01*
X91069999Y33486429D02*
X91069999Y34986429D01*
X91069999Y34986429D02*
X90927142Y34772143D01*
X90927142Y34772143D02*
X90784285Y34629286D01*
X90784285Y34629286D02*
X90641428Y34557858D01*
X89355714Y38995000D02*
X90070000Y38995000D01*
X89212857Y38566429D02*
X89712857Y40066429D01*
X89712857Y40066429D02*
X90212857Y38566429D01*
X90569999Y40066429D02*
X91498571Y40066429D01*
X91498571Y40066429D02*
X90998571Y39495000D01*
X90998571Y39495000D02*
X91212856Y39495000D01*
X91212856Y39495000D02*
X91355714Y39423572D01*
X91355714Y39423572D02*
X91427142Y39352143D01*
X91427142Y39352143D02*
X91498571Y39209286D01*
X91498571Y39209286D02*
X91498571Y38852143D01*
X91498571Y38852143D02*
X91427142Y38709286D01*
X91427142Y38709286D02*
X91355714Y38637858D01*
X91355714Y38637858D02*
X91212856Y38566429D01*
X91212856Y38566429D02*
X90784285Y38566429D01*
X90784285Y38566429D02*
X90641428Y38637858D01*
X90641428Y38637858D02*
X90569999Y38709286D01*
X61098571Y38566429D02*
X61098571Y40066429D01*
X61098571Y40066429D02*
X61455714Y40066429D01*
X61455714Y40066429D02*
X61670000Y39995000D01*
X61670000Y39995000D02*
X61812857Y39852143D01*
X61812857Y39852143D02*
X61884286Y39709286D01*
X61884286Y39709286D02*
X61955714Y39423572D01*
X61955714Y39423572D02*
X61955714Y39209286D01*
X61955714Y39209286D02*
X61884286Y38923572D01*
X61884286Y38923572D02*
X61812857Y38780715D01*
X61812857Y38780715D02*
X61670000Y38637858D01*
X61670000Y38637858D02*
X61455714Y38566429D01*
X61455714Y38566429D02*
X61098571Y38566429D01*
X62455714Y40066429D02*
X63384286Y40066429D01*
X63384286Y40066429D02*
X62884286Y39495000D01*
X62884286Y39495000D02*
X63098571Y39495000D01*
X63098571Y39495000D02*
X63241429Y39423572D01*
X63241429Y39423572D02*
X63312857Y39352143D01*
X63312857Y39352143D02*
X63384286Y39209286D01*
X63384286Y39209286D02*
X63384286Y38852143D01*
X63384286Y38852143D02*
X63312857Y38709286D01*
X63312857Y38709286D02*
X63241429Y38637858D01*
X63241429Y38637858D02*
X63098571Y38566429D01*
X63098571Y38566429D02*
X62670000Y38566429D01*
X62670000Y38566429D02*
X62527143Y38637858D01*
X62527143Y38637858D02*
X62455714Y38709286D01*
D12*
X27527380Y81198096D02*
X28527380Y81531429D01*
X28527380Y81531429D02*
X27527380Y81864762D01*
X28527380Y82198096D02*
X27527380Y82198096D01*
X27527380Y82198096D02*
X27527380Y82436191D01*
X27527380Y82436191D02*
X27575000Y82579048D01*
X27575000Y82579048D02*
X27670238Y82674286D01*
X27670238Y82674286D02*
X27765476Y82721905D01*
X27765476Y82721905D02*
X27955952Y82769524D01*
X27955952Y82769524D02*
X28098809Y82769524D01*
X28098809Y82769524D02*
X28289285Y82721905D01*
X28289285Y82721905D02*
X28384523Y82674286D01*
X28384523Y82674286D02*
X28479761Y82579048D01*
X28479761Y82579048D02*
X28527380Y82436191D01*
X28527380Y82436191D02*
X28527380Y82198096D01*
X28527380Y83198096D02*
X27527380Y83198096D01*
X27527380Y83198096D02*
X27527380Y83436191D01*
X27527380Y83436191D02*
X27575000Y83579048D01*
X27575000Y83579048D02*
X27670238Y83674286D01*
X27670238Y83674286D02*
X27765476Y83721905D01*
X27765476Y83721905D02*
X27955952Y83769524D01*
X27955952Y83769524D02*
X28098809Y83769524D01*
X28098809Y83769524D02*
X28289285Y83721905D01*
X28289285Y83721905D02*
X28384523Y83674286D01*
X28384523Y83674286D02*
X28479761Y83579048D01*
X28479761Y83579048D02*
X28527380Y83436191D01*
X28527380Y83436191D02*
X28527380Y83198096D01*
D11*
X59812858Y46615000D02*
X60527144Y46615000D01*
X59670001Y46186429D02*
X60170001Y47686429D01*
X60170001Y47686429D02*
X60670001Y46186429D01*
X61955715Y46186429D02*
X61098572Y46186429D01*
X61527143Y46186429D02*
X61527143Y47686429D01*
X61527143Y47686429D02*
X61384286Y47472143D01*
X61384286Y47472143D02*
X61241429Y47329286D01*
X61241429Y47329286D02*
X61098572Y47257858D01*
X63312857Y47686429D02*
X62598571Y47686429D01*
X62598571Y47686429D02*
X62527143Y46972143D01*
X62527143Y46972143D02*
X62598571Y47043572D01*
X62598571Y47043572D02*
X62741429Y47115000D01*
X62741429Y47115000D02*
X63098571Y47115000D01*
X63098571Y47115000D02*
X63241429Y47043572D01*
X63241429Y47043572D02*
X63312857Y46972143D01*
X63312857Y46972143D02*
X63384286Y46829286D01*
X63384286Y46829286D02*
X63384286Y46472143D01*
X63384286Y46472143D02*
X63312857Y46329286D01*
X63312857Y46329286D02*
X63241429Y46257858D01*
X63241429Y46257858D02*
X63098571Y46186429D01*
X63098571Y46186429D02*
X62741429Y46186429D01*
X62741429Y46186429D02*
X62598571Y46257858D01*
X62598571Y46257858D02*
X62527143Y46329286D01*
D13*
X1668571Y41031286D02*
X1840000Y40974143D01*
X1840000Y40974143D02*
X2125714Y40974143D01*
X2125714Y40974143D02*
X2240000Y41031286D01*
X2240000Y41031286D02*
X2297142Y41088429D01*
X2297142Y41088429D02*
X2354285Y41202715D01*
X2354285Y41202715D02*
X2354285Y41317000D01*
X2354285Y41317000D02*
X2297142Y41431286D01*
X2297142Y41431286D02*
X2240000Y41488429D01*
X2240000Y41488429D02*
X2125714Y41545572D01*
X2125714Y41545572D02*
X1897142Y41602715D01*
X1897142Y41602715D02*
X1782857Y41659858D01*
X1782857Y41659858D02*
X1725714Y41717000D01*
X1725714Y41717000D02*
X1668571Y41831286D01*
X1668571Y41831286D02*
X1668571Y41945572D01*
X1668571Y41945572D02*
X1725714Y42059858D01*
X1725714Y42059858D02*
X1782857Y42117000D01*
X1782857Y42117000D02*
X1897142Y42174143D01*
X1897142Y42174143D02*
X2182857Y42174143D01*
X2182857Y42174143D02*
X2354285Y42117000D01*
X2868571Y40974143D02*
X2868571Y42174143D01*
X2868571Y42174143D02*
X3154285Y42174143D01*
X3154285Y42174143D02*
X3325714Y42117000D01*
X3325714Y42117000D02*
X3439999Y42002715D01*
X3439999Y42002715D02*
X3497142Y41888429D01*
X3497142Y41888429D02*
X3554285Y41659858D01*
X3554285Y41659858D02*
X3554285Y41488429D01*
X3554285Y41488429D02*
X3497142Y41259858D01*
X3497142Y41259858D02*
X3439999Y41145572D01*
X3439999Y41145572D02*
X3325714Y41031286D01*
X3325714Y41031286D02*
X3154285Y40974143D01*
X3154285Y40974143D02*
X2868571Y40974143D01*
X4582857Y41031286D02*
X4468571Y40974143D01*
X4468571Y40974143D02*
X4239999Y40974143D01*
X4239999Y40974143D02*
X4125714Y41031286D01*
X4125714Y41031286D02*
X4068571Y41088429D01*
X4068571Y41088429D02*
X4011428Y41202715D01*
X4011428Y41202715D02*
X4011428Y41545572D01*
X4011428Y41545572D02*
X4068571Y41659858D01*
X4068571Y41659858D02*
X4125714Y41717000D01*
X4125714Y41717000D02*
X4239999Y41774143D01*
X4239999Y41774143D02*
X4468571Y41774143D01*
X4468571Y41774143D02*
X4582857Y41717000D01*
X5611428Y40974143D02*
X5611428Y41602715D01*
X5611428Y41602715D02*
X5554285Y41717000D01*
X5554285Y41717000D02*
X5439999Y41774143D01*
X5439999Y41774143D02*
X5211428Y41774143D01*
X5211428Y41774143D02*
X5097142Y41717000D01*
X5611428Y41031286D02*
X5497142Y40974143D01*
X5497142Y40974143D02*
X5211428Y40974143D01*
X5211428Y40974143D02*
X5097142Y41031286D01*
X5097142Y41031286D02*
X5039999Y41145572D01*
X5039999Y41145572D02*
X5039999Y41259858D01*
X5039999Y41259858D02*
X5097142Y41374143D01*
X5097142Y41374143D02*
X5211428Y41431286D01*
X5211428Y41431286D02*
X5497142Y41431286D01*
X5497142Y41431286D02*
X5611428Y41488429D01*
X6182856Y40974143D02*
X6182856Y41774143D01*
X6182856Y41545572D02*
X6239999Y41659858D01*
X6239999Y41659858D02*
X6297142Y41717000D01*
X6297142Y41717000D02*
X6411427Y41774143D01*
X6411427Y41774143D02*
X6525713Y41774143D01*
X7439999Y40974143D02*
X7439999Y42174143D01*
X7439999Y41031286D02*
X7325713Y40974143D01*
X7325713Y40974143D02*
X7097141Y40974143D01*
X7097141Y40974143D02*
X6982856Y41031286D01*
X6982856Y41031286D02*
X6925713Y41088429D01*
X6925713Y41088429D02*
X6868570Y41202715D01*
X6868570Y41202715D02*
X6868570Y41545572D01*
X6868570Y41545572D02*
X6925713Y41659858D01*
X6925713Y41659858D02*
X6982856Y41717000D01*
X6982856Y41717000D02*
X7097141Y41774143D01*
X7097141Y41774143D02*
X7325713Y41774143D01*
X7325713Y41774143D02*
X7439999Y41717000D01*
D12*
X79327380Y81594524D02*
X78851190Y81261191D01*
X79327380Y81023096D02*
X78327380Y81023096D01*
X78327380Y81023096D02*
X78327380Y81404048D01*
X78327380Y81404048D02*
X78375000Y81499286D01*
X78375000Y81499286D02*
X78422619Y81546905D01*
X78422619Y81546905D02*
X78517857Y81594524D01*
X78517857Y81594524D02*
X78660714Y81594524D01*
X78660714Y81594524D02*
X78755952Y81546905D01*
X78755952Y81546905D02*
X78803571Y81499286D01*
X78803571Y81499286D02*
X78851190Y81404048D01*
X78851190Y81404048D02*
X78851190Y81023096D01*
X78327380Y81927858D02*
X79327380Y82594524D01*
X78327380Y82594524D02*
X79327380Y81927858D01*
X79327380Y82975477D02*
X78327380Y82975477D01*
X78327380Y82975477D02*
X78327380Y83213572D01*
X78327380Y83213572D02*
X78375000Y83356429D01*
X78375000Y83356429D02*
X78470238Y83451667D01*
X78470238Y83451667D02*
X78565476Y83499286D01*
X78565476Y83499286D02*
X78755952Y83546905D01*
X78755952Y83546905D02*
X78898809Y83546905D01*
X78898809Y83546905D02*
X79089285Y83499286D01*
X79089285Y83499286D02*
X79184523Y83451667D01*
X79184523Y83451667D02*
X79279761Y83356429D01*
X79279761Y83356429D02*
X79327380Y83213572D01*
X79327380Y83213572D02*
X79327380Y82975477D01*
D11*
X4462571Y56846286D02*
X4634000Y56789143D01*
X4634000Y56789143D02*
X4919714Y56789143D01*
X4919714Y56789143D02*
X5034000Y56846286D01*
X5034000Y56846286D02*
X5091142Y56903429D01*
X5091142Y56903429D02*
X5148285Y57017715D01*
X5148285Y57017715D02*
X5148285Y57132000D01*
X5148285Y57132000D02*
X5091142Y57246286D01*
X5091142Y57246286D02*
X5034000Y57303429D01*
X5034000Y57303429D02*
X4919714Y57360572D01*
X4919714Y57360572D02*
X4691142Y57417715D01*
X4691142Y57417715D02*
X4576857Y57474858D01*
X4576857Y57474858D02*
X4519714Y57532000D01*
X4519714Y57532000D02*
X4462571Y57646286D01*
X4462571Y57646286D02*
X4462571Y57760572D01*
X4462571Y57760572D02*
X4519714Y57874858D01*
X4519714Y57874858D02*
X4576857Y57932000D01*
X4576857Y57932000D02*
X4691142Y57989143D01*
X4691142Y57989143D02*
X4976857Y57989143D01*
X4976857Y57989143D02*
X5148285Y57932000D01*
X5605428Y56846286D02*
X5776857Y56789143D01*
X5776857Y56789143D02*
X6062571Y56789143D01*
X6062571Y56789143D02*
X6176857Y56846286D01*
X6176857Y56846286D02*
X6233999Y56903429D01*
X6233999Y56903429D02*
X6291142Y57017715D01*
X6291142Y57017715D02*
X6291142Y57132000D01*
X6291142Y57132000D02*
X6233999Y57246286D01*
X6233999Y57246286D02*
X6176857Y57303429D01*
X6176857Y57303429D02*
X6062571Y57360572D01*
X6062571Y57360572D02*
X5833999Y57417715D01*
X5833999Y57417715D02*
X5719714Y57474858D01*
X5719714Y57474858D02*
X5662571Y57532000D01*
X5662571Y57532000D02*
X5605428Y57646286D01*
X5605428Y57646286D02*
X5605428Y57760572D01*
X5605428Y57760572D02*
X5662571Y57874858D01*
X5662571Y57874858D02*
X5719714Y57932000D01*
X5719714Y57932000D02*
X5833999Y57989143D01*
X5833999Y57989143D02*
X6119714Y57989143D01*
X6119714Y57989143D02*
X6291142Y57932000D01*
X61098571Y41106429D02*
X61098571Y42606429D01*
X61098571Y42606429D02*
X61455714Y42606429D01*
X61455714Y42606429D02*
X61670000Y42535000D01*
X61670000Y42535000D02*
X61812857Y42392143D01*
X61812857Y42392143D02*
X61884286Y42249286D01*
X61884286Y42249286D02*
X61955714Y41963572D01*
X61955714Y41963572D02*
X61955714Y41749286D01*
X61955714Y41749286D02*
X61884286Y41463572D01*
X61884286Y41463572D02*
X61812857Y41320715D01*
X61812857Y41320715D02*
X61670000Y41177858D01*
X61670000Y41177858D02*
X61455714Y41106429D01*
X61455714Y41106429D02*
X61098571Y41106429D01*
X63241429Y42106429D02*
X63241429Y41106429D01*
X62884286Y42677858D02*
X62527143Y41606429D01*
X62527143Y41606429D02*
X63455714Y41606429D01*
D12*
X35081380Y66013334D02*
X34605190Y65680001D01*
X35081380Y65441906D02*
X34081380Y65441906D01*
X34081380Y65441906D02*
X34081380Y65822858D01*
X34081380Y65822858D02*
X34129000Y65918096D01*
X34129000Y65918096D02*
X34176619Y65965715D01*
X34176619Y65965715D02*
X34271857Y66013334D01*
X34271857Y66013334D02*
X34414714Y66013334D01*
X34414714Y66013334D02*
X34509952Y65965715D01*
X34509952Y65965715D02*
X34557571Y65918096D01*
X34557571Y65918096D02*
X34605190Y65822858D01*
X34605190Y65822858D02*
X34605190Y65441906D01*
X34081380Y66346668D02*
X34081380Y67013334D01*
X34081380Y67013334D02*
X35081380Y66584763D01*
X32541380Y66267334D02*
X32065190Y65934001D01*
X32541380Y65695906D02*
X31541380Y65695906D01*
X31541380Y65695906D02*
X31541380Y66076858D01*
X31541380Y66076858D02*
X31589000Y66172096D01*
X31589000Y66172096D02*
X31636619Y66219715D01*
X31636619Y66219715D02*
X31731857Y66267334D01*
X31731857Y66267334D02*
X31874714Y66267334D01*
X31874714Y66267334D02*
X31969952Y66219715D01*
X31969952Y66219715D02*
X32017571Y66172096D01*
X32017571Y66172096D02*
X32065190Y66076858D01*
X32065190Y66076858D02*
X32065190Y65695906D01*
X31541380Y67172096D02*
X31541380Y66695906D01*
X31541380Y66695906D02*
X32017571Y66648287D01*
X32017571Y66648287D02*
X31969952Y66695906D01*
X31969952Y66695906D02*
X31922333Y66791144D01*
X31922333Y66791144D02*
X31922333Y67029239D01*
X31922333Y67029239D02*
X31969952Y67124477D01*
X31969952Y67124477D02*
X32017571Y67172096D01*
X32017571Y67172096D02*
X32112809Y67219715D01*
X32112809Y67219715D02*
X32350904Y67219715D01*
X32350904Y67219715D02*
X32446142Y67172096D01*
X32446142Y67172096D02*
X32493761Y67124477D01*
X32493761Y67124477D02*
X32541380Y67029239D01*
X32541380Y67029239D02*
X32541380Y66791144D01*
X32541380Y66791144D02*
X32493761Y66695906D01*
X32493761Y66695906D02*
X32446142Y66648287D01*
X5686666Y36840620D02*
X5686666Y36126334D01*
X5686666Y36126334D02*
X5639047Y35983477D01*
X5639047Y35983477D02*
X5543809Y35888239D01*
X5543809Y35888239D02*
X5400952Y35840620D01*
X5400952Y35840620D02*
X5305714Y35840620D01*
X6162857Y35840620D02*
X6162857Y36840620D01*
X6162857Y36840620D02*
X6543809Y36840620D01*
X6543809Y36840620D02*
X6639047Y36793000D01*
X6639047Y36793000D02*
X6686666Y36745381D01*
X6686666Y36745381D02*
X6734285Y36650143D01*
X6734285Y36650143D02*
X6734285Y36507286D01*
X6734285Y36507286D02*
X6686666Y36412048D01*
X6686666Y36412048D02*
X6639047Y36364429D01*
X6639047Y36364429D02*
X6543809Y36316810D01*
X6543809Y36316810D02*
X6162857Y36316810D01*
X7686666Y35840620D02*
X7115238Y35840620D01*
X7400952Y35840620D02*
X7400952Y36840620D01*
X7400952Y36840620D02*
X7305714Y36697762D01*
X7305714Y36697762D02*
X7210476Y36602524D01*
X7210476Y36602524D02*
X7115238Y36554905D01*
D11*
X15257714Y62113143D02*
X15257714Y61141715D01*
X15257714Y61141715D02*
X15314857Y61027429D01*
X15314857Y61027429D02*
X15372000Y60970286D01*
X15372000Y60970286D02*
X15486285Y60913143D01*
X15486285Y60913143D02*
X15714857Y60913143D01*
X15714857Y60913143D02*
X15829142Y60970286D01*
X15829142Y60970286D02*
X15886285Y61027429D01*
X15886285Y61027429D02*
X15943428Y61141715D01*
X15943428Y61141715D02*
X15943428Y62113143D01*
X17143428Y60913143D02*
X16457714Y60913143D01*
X16800571Y60913143D02*
X16800571Y62113143D01*
X16800571Y62113143D02*
X16686285Y61941715D01*
X16686285Y61941715D02*
X16572000Y61827429D01*
X16572000Y61827429D02*
X16457714Y61770286D01*
D12*
X31086666Y59192620D02*
X31086666Y58478334D01*
X31086666Y58478334D02*
X31039047Y58335477D01*
X31039047Y58335477D02*
X30943809Y58240239D01*
X30943809Y58240239D02*
X30800952Y58192620D01*
X30800952Y58192620D02*
X30705714Y58192620D01*
X31562857Y58192620D02*
X31562857Y59192620D01*
X31562857Y59192620D02*
X31943809Y59192620D01*
X31943809Y59192620D02*
X32039047Y59145000D01*
X32039047Y59145000D02*
X32086666Y59097381D01*
X32086666Y59097381D02*
X32134285Y59002143D01*
X32134285Y59002143D02*
X32134285Y58859286D01*
X32134285Y58859286D02*
X32086666Y58764048D01*
X32086666Y58764048D02*
X32039047Y58716429D01*
X32039047Y58716429D02*
X31943809Y58668810D01*
X31943809Y58668810D02*
X31562857Y58668810D01*
X32515238Y59097381D02*
X32562857Y59145000D01*
X32562857Y59145000D02*
X32658095Y59192620D01*
X32658095Y59192620D02*
X32896190Y59192620D01*
X32896190Y59192620D02*
X32991428Y59145000D01*
X32991428Y59145000D02*
X33039047Y59097381D01*
X33039047Y59097381D02*
X33086666Y59002143D01*
X33086666Y59002143D02*
X33086666Y58906905D01*
X33086666Y58906905D02*
X33039047Y58764048D01*
X33039047Y58764048D02*
X32467619Y58192620D01*
X32467619Y58192620D02*
X33086666Y58192620D01*
D13*
X1675000Y60589143D02*
X1675000Y59732000D01*
X1675000Y59732000D02*
X1617857Y59560572D01*
X1617857Y59560572D02*
X1503571Y59446286D01*
X1503571Y59446286D02*
X1332143Y59389143D01*
X1332143Y59389143D02*
X1217857Y59389143D01*
X2760715Y60589143D02*
X2532143Y60589143D01*
X2532143Y60589143D02*
X2417857Y60532000D01*
X2417857Y60532000D02*
X2360715Y60474858D01*
X2360715Y60474858D02*
X2246429Y60303429D01*
X2246429Y60303429D02*
X2189286Y60074858D01*
X2189286Y60074858D02*
X2189286Y59617715D01*
X2189286Y59617715D02*
X2246429Y59503429D01*
X2246429Y59503429D02*
X2303572Y59446286D01*
X2303572Y59446286D02*
X2417857Y59389143D01*
X2417857Y59389143D02*
X2646429Y59389143D01*
X2646429Y59389143D02*
X2760715Y59446286D01*
X2760715Y59446286D02*
X2817857Y59503429D01*
X2817857Y59503429D02*
X2875000Y59617715D01*
X2875000Y59617715D02*
X2875000Y59903429D01*
X2875000Y59903429D02*
X2817857Y60017715D01*
X2817857Y60017715D02*
X2760715Y60074858D01*
X2760715Y60074858D02*
X2646429Y60132000D01*
X2646429Y60132000D02*
X2417857Y60132000D01*
X2417857Y60132000D02*
X2303572Y60074858D01*
X2303572Y60074858D02*
X2246429Y60017715D01*
X2246429Y60017715D02*
X2189286Y59903429D01*
D12*
X9147333Y59716620D02*
X8814000Y60192810D01*
X8575905Y59716620D02*
X8575905Y60716620D01*
X8575905Y60716620D02*
X8956857Y60716620D01*
X8956857Y60716620D02*
X9052095Y60669000D01*
X9052095Y60669000D02*
X9099714Y60621381D01*
X9099714Y60621381D02*
X9147333Y60526143D01*
X9147333Y60526143D02*
X9147333Y60383286D01*
X9147333Y60383286D02*
X9099714Y60288048D01*
X9099714Y60288048D02*
X9052095Y60240429D01*
X9052095Y60240429D02*
X8956857Y60192810D01*
X8956857Y60192810D02*
X8575905Y60192810D01*
X10004476Y60383286D02*
X10004476Y59716620D01*
X9766381Y60764239D02*
X9528286Y60049953D01*
X9528286Y60049953D02*
X10147333Y60049953D01*
X47377380Y82858667D02*
X48091666Y82858667D01*
X48091666Y82858667D02*
X48234523Y82811048D01*
X48234523Y82811048D02*
X48329761Y82715810D01*
X48329761Y82715810D02*
X48377380Y82572953D01*
X48377380Y82572953D02*
X48377380Y82477715D01*
X47377380Y83239620D02*
X47377380Y83858667D01*
X47377380Y83858667D02*
X47758333Y83525334D01*
X47758333Y83525334D02*
X47758333Y83668191D01*
X47758333Y83668191D02*
X47805952Y83763429D01*
X47805952Y83763429D02*
X47853571Y83811048D01*
X47853571Y83811048D02*
X47948809Y83858667D01*
X47948809Y83858667D02*
X48186904Y83858667D01*
X48186904Y83858667D02*
X48282142Y83811048D01*
X48282142Y83811048D02*
X48329761Y83763429D01*
X48329761Y83763429D02*
X48377380Y83668191D01*
X48377380Y83668191D02*
X48377380Y83382477D01*
X48377380Y83382477D02*
X48329761Y83287239D01*
X48329761Y83287239D02*
X48282142Y83239620D01*
X86196666Y60692620D02*
X86196666Y59978334D01*
X86196666Y59978334D02*
X86149047Y59835477D01*
X86149047Y59835477D02*
X86053809Y59740239D01*
X86053809Y59740239D02*
X85910952Y59692620D01*
X85910952Y59692620D02*
X85815714Y59692620D01*
X87196666Y59692620D02*
X86625238Y59692620D01*
X86910952Y59692620D02*
X86910952Y60692620D01*
X86910952Y60692620D02*
X86815714Y60549762D01*
X86815714Y60549762D02*
X86720476Y60454524D01*
X86720476Y60454524D02*
X86625238Y60406905D01*
X27588380Y65664143D02*
X27112190Y65330810D01*
X27588380Y65092715D02*
X26588380Y65092715D01*
X26588380Y65092715D02*
X26588380Y65473667D01*
X26588380Y65473667D02*
X26636000Y65568905D01*
X26636000Y65568905D02*
X26683619Y65616524D01*
X26683619Y65616524D02*
X26778857Y65664143D01*
X26778857Y65664143D02*
X26921714Y65664143D01*
X26921714Y65664143D02*
X27016952Y65616524D01*
X27016952Y65616524D02*
X27064571Y65568905D01*
X27064571Y65568905D02*
X27112190Y65473667D01*
X27112190Y65473667D02*
X27112190Y65092715D01*
X27588380Y66616524D02*
X27588380Y66045096D01*
X27588380Y66330810D02*
X26588380Y66330810D01*
X26588380Y66330810D02*
X26731238Y66235572D01*
X26731238Y66235572D02*
X26826476Y66140334D01*
X26826476Y66140334D02*
X26874095Y66045096D01*
X26588380Y67235572D02*
X26588380Y67330810D01*
X26588380Y67330810D02*
X26636000Y67426048D01*
X26636000Y67426048D02*
X26683619Y67473667D01*
X26683619Y67473667D02*
X26778857Y67521286D01*
X26778857Y67521286D02*
X26969333Y67568905D01*
X26969333Y67568905D02*
X27207428Y67568905D01*
X27207428Y67568905D02*
X27397904Y67521286D01*
X27397904Y67521286D02*
X27493142Y67473667D01*
X27493142Y67473667D02*
X27540761Y67426048D01*
X27540761Y67426048D02*
X27588380Y67330810D01*
X27588380Y67330810D02*
X27588380Y67235572D01*
X27588380Y67235572D02*
X27540761Y67140334D01*
X27540761Y67140334D02*
X27493142Y67092715D01*
X27493142Y67092715D02*
X27397904Y67045096D01*
X27397904Y67045096D02*
X27207428Y66997477D01*
X27207428Y66997477D02*
X26969333Y66997477D01*
X26969333Y66997477D02*
X26778857Y67045096D01*
X26778857Y67045096D02*
X26683619Y67092715D01*
X26683619Y67092715D02*
X26636000Y67140334D01*
X26636000Y67140334D02*
X26588380Y67235572D01*
X37494380Y65886334D02*
X37018190Y65553001D01*
X37494380Y65314906D02*
X36494380Y65314906D01*
X36494380Y65314906D02*
X36494380Y65695858D01*
X36494380Y65695858D02*
X36542000Y65791096D01*
X36542000Y65791096D02*
X36589619Y65838715D01*
X36589619Y65838715D02*
X36684857Y65886334D01*
X36684857Y65886334D02*
X36827714Y65886334D01*
X36827714Y65886334D02*
X36922952Y65838715D01*
X36922952Y65838715D02*
X36970571Y65791096D01*
X36970571Y65791096D02*
X37018190Y65695858D01*
X37018190Y65695858D02*
X37018190Y65314906D01*
X36922952Y66457763D02*
X36875333Y66362525D01*
X36875333Y66362525D02*
X36827714Y66314906D01*
X36827714Y66314906D02*
X36732476Y66267287D01*
X36732476Y66267287D02*
X36684857Y66267287D01*
X36684857Y66267287D02*
X36589619Y66314906D01*
X36589619Y66314906D02*
X36542000Y66362525D01*
X36542000Y66362525D02*
X36494380Y66457763D01*
X36494380Y66457763D02*
X36494380Y66648239D01*
X36494380Y66648239D02*
X36542000Y66743477D01*
X36542000Y66743477D02*
X36589619Y66791096D01*
X36589619Y66791096D02*
X36684857Y66838715D01*
X36684857Y66838715D02*
X36732476Y66838715D01*
X36732476Y66838715D02*
X36827714Y66791096D01*
X36827714Y66791096D02*
X36875333Y66743477D01*
X36875333Y66743477D02*
X36922952Y66648239D01*
X36922952Y66648239D02*
X36922952Y66457763D01*
X36922952Y66457763D02*
X36970571Y66362525D01*
X36970571Y66362525D02*
X37018190Y66314906D01*
X37018190Y66314906D02*
X37113428Y66267287D01*
X37113428Y66267287D02*
X37303904Y66267287D01*
X37303904Y66267287D02*
X37399142Y66314906D01*
X37399142Y66314906D02*
X37446761Y66362525D01*
X37446761Y66362525D02*
X37494380Y66457763D01*
X37494380Y66457763D02*
X37494380Y66648239D01*
X37494380Y66648239D02*
X37446761Y66743477D01*
X37446761Y66743477D02*
X37399142Y66791096D01*
X37399142Y66791096D02*
X37303904Y66838715D01*
X37303904Y66838715D02*
X37113428Y66838715D01*
X37113428Y66838715D02*
X37018190Y66791096D01*
X37018190Y66791096D02*
X36970571Y66743477D01*
X36970571Y66743477D02*
X36922952Y66648239D01*
X42076667Y79570239D02*
X42219524Y79522620D01*
X42219524Y79522620D02*
X42457619Y79522620D01*
X42457619Y79522620D02*
X42552857Y79570239D01*
X42552857Y79570239D02*
X42600476Y79617858D01*
X42600476Y79617858D02*
X42648095Y79713096D01*
X42648095Y79713096D02*
X42648095Y79808334D01*
X42648095Y79808334D02*
X42600476Y79903572D01*
X42600476Y79903572D02*
X42552857Y79951191D01*
X42552857Y79951191D02*
X42457619Y79998810D01*
X42457619Y79998810D02*
X42267143Y80046429D01*
X42267143Y80046429D02*
X42171905Y80094048D01*
X42171905Y80094048D02*
X42124286Y80141667D01*
X42124286Y80141667D02*
X42076667Y80236905D01*
X42076667Y80236905D02*
X42076667Y80332143D01*
X42076667Y80332143D02*
X42124286Y80427381D01*
X42124286Y80427381D02*
X42171905Y80475000D01*
X42171905Y80475000D02*
X42267143Y80522620D01*
X42267143Y80522620D02*
X42505238Y80522620D01*
X42505238Y80522620D02*
X42648095Y80475000D01*
X42981429Y80522620D02*
X43219524Y79522620D01*
X43219524Y79522620D02*
X43410000Y80236905D01*
X43410000Y80236905D02*
X43600476Y79522620D01*
X43600476Y79522620D02*
X43838572Y80522620D01*
X44743333Y79522620D02*
X44171905Y79522620D01*
X44457619Y79522620D02*
X44457619Y80522620D01*
X44457619Y80522620D02*
X44362381Y80379762D01*
X44362381Y80379762D02*
X44267143Y80284524D01*
X44267143Y80284524D02*
X44171905Y80236905D01*
X42447380Y66013334D02*
X41971190Y65680001D01*
X42447380Y65441906D02*
X41447380Y65441906D01*
X41447380Y65441906D02*
X41447380Y65822858D01*
X41447380Y65822858D02*
X41495000Y65918096D01*
X41495000Y65918096D02*
X41542619Y65965715D01*
X41542619Y65965715D02*
X41637857Y66013334D01*
X41637857Y66013334D02*
X41780714Y66013334D01*
X41780714Y66013334D02*
X41875952Y65965715D01*
X41875952Y65965715D02*
X41923571Y65918096D01*
X41923571Y65918096D02*
X41971190Y65822858D01*
X41971190Y65822858D02*
X41971190Y65441906D01*
X41447380Y66346668D02*
X41447380Y66965715D01*
X41447380Y66965715D02*
X41828333Y66632382D01*
X41828333Y66632382D02*
X41828333Y66775239D01*
X41828333Y66775239D02*
X41875952Y66870477D01*
X41875952Y66870477D02*
X41923571Y66918096D01*
X41923571Y66918096D02*
X42018809Y66965715D01*
X42018809Y66965715D02*
X42256904Y66965715D01*
X42256904Y66965715D02*
X42352142Y66918096D01*
X42352142Y66918096D02*
X42399761Y66870477D01*
X42399761Y66870477D02*
X42447380Y66775239D01*
X42447380Y66775239D02*
X42447380Y66489525D01*
X42447380Y66489525D02*
X42399761Y66394287D01*
X42399761Y66394287D02*
X42352142Y66346668D01*
X85776095Y67872620D02*
X86347523Y67872620D01*
X86061809Y66872620D02*
X86061809Y67872620D01*
X86680857Y66872620D02*
X86680857Y67872620D01*
X86680857Y67872620D02*
X87061809Y67872620D01*
X87061809Y67872620D02*
X87157047Y67825000D01*
X87157047Y67825000D02*
X87204666Y67777381D01*
X87204666Y67777381D02*
X87252285Y67682143D01*
X87252285Y67682143D02*
X87252285Y67539286D01*
X87252285Y67539286D02*
X87204666Y67444048D01*
X87204666Y67444048D02*
X87157047Y67396429D01*
X87157047Y67396429D02*
X87061809Y67348810D01*
X87061809Y67348810D02*
X86680857Y67348810D01*
X88204666Y66872620D02*
X87633238Y66872620D01*
X87918952Y66872620D02*
X87918952Y67872620D01*
X87918952Y67872620D02*
X87823714Y67729762D01*
X87823714Y67729762D02*
X87728476Y67634524D01*
X87728476Y67634524D02*
X87633238Y67586905D01*
X20857380Y66076906D02*
X19857380Y66076906D01*
X19857380Y66076906D02*
X19857380Y66315001D01*
X19857380Y66315001D02*
X19905000Y66457858D01*
X19905000Y66457858D02*
X20000238Y66553096D01*
X20000238Y66553096D02*
X20095476Y66600715D01*
X20095476Y66600715D02*
X20285952Y66648334D01*
X20285952Y66648334D02*
X20428809Y66648334D01*
X20428809Y66648334D02*
X20619285Y66600715D01*
X20619285Y66600715D02*
X20714523Y66553096D01*
X20714523Y66553096D02*
X20809761Y66457858D01*
X20809761Y66457858D02*
X20857380Y66315001D01*
X20857380Y66315001D02*
X20857380Y66076906D01*
X19857380Y67553096D02*
X19857380Y67076906D01*
X19857380Y67076906D02*
X20333571Y67029287D01*
X20333571Y67029287D02*
X20285952Y67076906D01*
X20285952Y67076906D02*
X20238333Y67172144D01*
X20238333Y67172144D02*
X20238333Y67410239D01*
X20238333Y67410239D02*
X20285952Y67505477D01*
X20285952Y67505477D02*
X20333571Y67553096D01*
X20333571Y67553096D02*
X20428809Y67600715D01*
X20428809Y67600715D02*
X20666904Y67600715D01*
X20666904Y67600715D02*
X20762142Y67553096D01*
X20762142Y67553096D02*
X20809761Y67505477D01*
X20809761Y67505477D02*
X20857380Y67410239D01*
X20857380Y67410239D02*
X20857380Y67172144D01*
X20857380Y67172144D02*
X20809761Y67076906D01*
X20809761Y67076906D02*
X20762142Y67029287D01*
X40034380Y66013334D02*
X39558190Y65680001D01*
X40034380Y65441906D02*
X39034380Y65441906D01*
X39034380Y65441906D02*
X39034380Y65822858D01*
X39034380Y65822858D02*
X39082000Y65918096D01*
X39082000Y65918096D02*
X39129619Y65965715D01*
X39129619Y65965715D02*
X39224857Y66013334D01*
X39224857Y66013334D02*
X39367714Y66013334D01*
X39367714Y66013334D02*
X39462952Y65965715D01*
X39462952Y65965715D02*
X39510571Y65918096D01*
X39510571Y65918096D02*
X39558190Y65822858D01*
X39558190Y65822858D02*
X39558190Y65441906D01*
X40034380Y66489525D02*
X40034380Y66680001D01*
X40034380Y66680001D02*
X39986761Y66775239D01*
X39986761Y66775239D02*
X39939142Y66822858D01*
X39939142Y66822858D02*
X39796285Y66918096D01*
X39796285Y66918096D02*
X39605809Y66965715D01*
X39605809Y66965715D02*
X39224857Y66965715D01*
X39224857Y66965715D02*
X39129619Y66918096D01*
X39129619Y66918096D02*
X39082000Y66870477D01*
X39082000Y66870477D02*
X39034380Y66775239D01*
X39034380Y66775239D02*
X39034380Y66584763D01*
X39034380Y66584763D02*
X39082000Y66489525D01*
X39082000Y66489525D02*
X39129619Y66441906D01*
X39129619Y66441906D02*
X39224857Y66394287D01*
X39224857Y66394287D02*
X39462952Y66394287D01*
X39462952Y66394287D02*
X39558190Y66441906D01*
X39558190Y66441906D02*
X39605809Y66489525D01*
X39605809Y66489525D02*
X39653428Y66584763D01*
X39653428Y66584763D02*
X39653428Y66775239D01*
X39653428Y66775239D02*
X39605809Y66870477D01*
X39605809Y66870477D02*
X39558190Y66918096D01*
X39558190Y66918096D02*
X39462952Y66965715D01*
X30128380Y66140334D02*
X29652190Y65807001D01*
X30128380Y65568906D02*
X29128380Y65568906D01*
X29128380Y65568906D02*
X29128380Y65949858D01*
X29128380Y65949858D02*
X29176000Y66045096D01*
X29176000Y66045096D02*
X29223619Y66092715D01*
X29223619Y66092715D02*
X29318857Y66140334D01*
X29318857Y66140334D02*
X29461714Y66140334D01*
X29461714Y66140334D02*
X29556952Y66092715D01*
X29556952Y66092715D02*
X29604571Y66045096D01*
X29604571Y66045096D02*
X29652190Y65949858D01*
X29652190Y65949858D02*
X29652190Y65568906D01*
X29128380Y66997477D02*
X29128380Y66807001D01*
X29128380Y66807001D02*
X29176000Y66711763D01*
X29176000Y66711763D02*
X29223619Y66664144D01*
X29223619Y66664144D02*
X29366476Y66568906D01*
X29366476Y66568906D02*
X29556952Y66521287D01*
X29556952Y66521287D02*
X29937904Y66521287D01*
X29937904Y66521287D02*
X30033142Y66568906D01*
X30033142Y66568906D02*
X30080761Y66616525D01*
X30080761Y66616525D02*
X30128380Y66711763D01*
X30128380Y66711763D02*
X30128380Y66902239D01*
X30128380Y66902239D02*
X30080761Y66997477D01*
X30080761Y66997477D02*
X30033142Y67045096D01*
X30033142Y67045096D02*
X29937904Y67092715D01*
X29937904Y67092715D02*
X29699809Y67092715D01*
X29699809Y67092715D02*
X29604571Y67045096D01*
X29604571Y67045096D02*
X29556952Y66997477D01*
X29556952Y66997477D02*
X29509333Y66902239D01*
X29509333Y66902239D02*
X29509333Y66711763D01*
X29509333Y66711763D02*
X29556952Y66616525D01*
X29556952Y66616525D02*
X29604571Y66568906D01*
X29604571Y66568906D02*
X29699809Y66521287D01*
X65876666Y60692620D02*
X65876666Y59978334D01*
X65876666Y59978334D02*
X65829047Y59835477D01*
X65829047Y59835477D02*
X65733809Y59740239D01*
X65733809Y59740239D02*
X65590952Y59692620D01*
X65590952Y59692620D02*
X65495714Y59692620D01*
X66305238Y60597381D02*
X66352857Y60645000D01*
X66352857Y60645000D02*
X66448095Y60692620D01*
X66448095Y60692620D02*
X66686190Y60692620D01*
X66686190Y60692620D02*
X66781428Y60645000D01*
X66781428Y60645000D02*
X66829047Y60597381D01*
X66829047Y60597381D02*
X66876666Y60502143D01*
X66876666Y60502143D02*
X66876666Y60406905D01*
X66876666Y60406905D02*
X66829047Y60264048D01*
X66829047Y60264048D02*
X66257619Y59692620D01*
X66257619Y59692620D02*
X66876666Y59692620D01*
X8157380Y16546906D02*
X7157380Y16546906D01*
X7157380Y16546906D02*
X7157380Y16785001D01*
X7157380Y16785001D02*
X7205000Y16927858D01*
X7205000Y16927858D02*
X7300238Y17023096D01*
X7300238Y17023096D02*
X7395476Y17070715D01*
X7395476Y17070715D02*
X7585952Y17118334D01*
X7585952Y17118334D02*
X7728809Y17118334D01*
X7728809Y17118334D02*
X7919285Y17070715D01*
X7919285Y17070715D02*
X8014523Y17023096D01*
X8014523Y17023096D02*
X8109761Y16927858D01*
X8109761Y16927858D02*
X8157380Y16785001D01*
X8157380Y16785001D02*
X8157380Y16546906D01*
X8157380Y18070715D02*
X8157380Y17499287D01*
X8157380Y17785001D02*
X7157380Y17785001D01*
X7157380Y17785001D02*
X7300238Y17689763D01*
X7300238Y17689763D02*
X7395476Y17594525D01*
X7395476Y17594525D02*
X7443095Y17499287D01*
X6357380Y17047143D02*
X6357380Y16475715D01*
X6357380Y16761429D02*
X5357380Y16761429D01*
X5357380Y16761429D02*
X5500238Y16666191D01*
X5500238Y16666191D02*
X5595476Y16570953D01*
X5595476Y16570953D02*
X5643095Y16475715D01*
X6357380Y17475715D02*
X5357380Y17475715D01*
X5357380Y17475715D02*
X6357380Y18047143D01*
X6357380Y18047143D02*
X5357380Y18047143D01*
X5690714Y18951905D02*
X6357380Y18951905D01*
X5309761Y18713810D02*
X6024047Y18475715D01*
X6024047Y18475715D02*
X6024047Y19094762D01*
X5357380Y19951905D02*
X5357380Y19475715D01*
X5357380Y19475715D02*
X5833571Y19428096D01*
X5833571Y19428096D02*
X5785952Y19475715D01*
X5785952Y19475715D02*
X5738333Y19570953D01*
X5738333Y19570953D02*
X5738333Y19809048D01*
X5738333Y19809048D02*
X5785952Y19904286D01*
X5785952Y19904286D02*
X5833571Y19951905D01*
X5833571Y19951905D02*
X5928809Y19999524D01*
X5928809Y19999524D02*
X6166904Y19999524D01*
X6166904Y19999524D02*
X6262142Y19951905D01*
X6262142Y19951905D02*
X6309761Y19904286D01*
X6309761Y19904286D02*
X6357380Y19809048D01*
X6357380Y19809048D02*
X6357380Y19570953D01*
X6357380Y19570953D02*
X6309761Y19475715D01*
X6309761Y19475715D02*
X6262142Y19428096D01*
X5690714Y20856667D02*
X6357380Y20856667D01*
X5309761Y20618572D02*
X6024047Y20380477D01*
X6024047Y20380477D02*
X6024047Y20999524D01*
X5785952Y21523334D02*
X5738333Y21428096D01*
X5738333Y21428096D02*
X5690714Y21380477D01*
X5690714Y21380477D02*
X5595476Y21332858D01*
X5595476Y21332858D02*
X5547857Y21332858D01*
X5547857Y21332858D02*
X5452619Y21380477D01*
X5452619Y21380477D02*
X5405000Y21428096D01*
X5405000Y21428096D02*
X5357380Y21523334D01*
X5357380Y21523334D02*
X5357380Y21713810D01*
X5357380Y21713810D02*
X5405000Y21809048D01*
X5405000Y21809048D02*
X5452619Y21856667D01*
X5452619Y21856667D02*
X5547857Y21904286D01*
X5547857Y21904286D02*
X5595476Y21904286D01*
X5595476Y21904286D02*
X5690714Y21856667D01*
X5690714Y21856667D02*
X5738333Y21809048D01*
X5738333Y21809048D02*
X5785952Y21713810D01*
X5785952Y21713810D02*
X5785952Y21523334D01*
X5785952Y21523334D02*
X5833571Y21428096D01*
X5833571Y21428096D02*
X5881190Y21380477D01*
X5881190Y21380477D02*
X5976428Y21332858D01*
X5976428Y21332858D02*
X6166904Y21332858D01*
X6166904Y21332858D02*
X6262142Y21380477D01*
X6262142Y21380477D02*
X6309761Y21428096D01*
X6309761Y21428096D02*
X6357380Y21523334D01*
X6357380Y21523334D02*
X6357380Y21713810D01*
X6357380Y21713810D02*
X6309761Y21809048D01*
X6309761Y21809048D02*
X6262142Y21856667D01*
X6262142Y21856667D02*
X6166904Y21904286D01*
X6166904Y21904286D02*
X5976428Y21904286D01*
X5976428Y21904286D02*
X5881190Y21856667D01*
X5881190Y21856667D02*
X5833571Y21809048D01*
X5833571Y21809048D02*
X5785952Y21713810D01*
X30959666Y54112620D02*
X30959666Y53398334D01*
X30959666Y53398334D02*
X30912047Y53255477D01*
X30912047Y53255477D02*
X30816809Y53160239D01*
X30816809Y53160239D02*
X30673952Y53112620D01*
X30673952Y53112620D02*
X30578714Y53112620D01*
X31435857Y53112620D02*
X31435857Y54112620D01*
X31435857Y54112620D02*
X31816809Y54112620D01*
X31816809Y54112620D02*
X31912047Y54065000D01*
X31912047Y54065000D02*
X31959666Y54017381D01*
X31959666Y54017381D02*
X32007285Y53922143D01*
X32007285Y53922143D02*
X32007285Y53779286D01*
X32007285Y53779286D02*
X31959666Y53684048D01*
X31959666Y53684048D02*
X31912047Y53636429D01*
X31912047Y53636429D02*
X31816809Y53588810D01*
X31816809Y53588810D02*
X31435857Y53588810D01*
X32864428Y53779286D02*
X32864428Y53112620D01*
X32626333Y54160239D02*
X32388238Y53445953D01*
X32388238Y53445953D02*
X33007285Y53445953D01*
X64368667Y75512239D02*
X64511524Y75464620D01*
X64511524Y75464620D02*
X64749619Y75464620D01*
X64749619Y75464620D02*
X64844857Y75512239D01*
X64844857Y75512239D02*
X64892476Y75559858D01*
X64892476Y75559858D02*
X64940095Y75655096D01*
X64940095Y75655096D02*
X64940095Y75750334D01*
X64940095Y75750334D02*
X64892476Y75845572D01*
X64892476Y75845572D02*
X64844857Y75893191D01*
X64844857Y75893191D02*
X64749619Y75940810D01*
X64749619Y75940810D02*
X64559143Y75988429D01*
X64559143Y75988429D02*
X64463905Y76036048D01*
X64463905Y76036048D02*
X64416286Y76083667D01*
X64416286Y76083667D02*
X64368667Y76178905D01*
X64368667Y76178905D02*
X64368667Y76274143D01*
X64368667Y76274143D02*
X64416286Y76369381D01*
X64416286Y76369381D02*
X64463905Y76417000D01*
X64463905Y76417000D02*
X64559143Y76464620D01*
X64559143Y76464620D02*
X64797238Y76464620D01*
X64797238Y76464620D02*
X64940095Y76417000D01*
X65273429Y76464620D02*
X65511524Y75464620D01*
X65511524Y75464620D02*
X65702000Y76178905D01*
X65702000Y76178905D02*
X65892476Y75464620D01*
X65892476Y75464620D02*
X66130572Y76464620D01*
X66463905Y76369381D02*
X66511524Y76417000D01*
X66511524Y76417000D02*
X66606762Y76464620D01*
X66606762Y76464620D02*
X66844857Y76464620D01*
X66844857Y76464620D02*
X66940095Y76417000D01*
X66940095Y76417000D02*
X66987714Y76369381D01*
X66987714Y76369381D02*
X67035333Y76274143D01*
X67035333Y76274143D02*
X67035333Y76178905D01*
X67035333Y76178905D02*
X66987714Y76036048D01*
X66987714Y76036048D02*
X66416286Y75464620D01*
X66416286Y75464620D02*
X67035333Y75464620D01*
X75131905Y70412620D02*
X75131905Y69603096D01*
X75131905Y69603096D02*
X75179524Y69507858D01*
X75179524Y69507858D02*
X75227143Y69460239D01*
X75227143Y69460239D02*
X75322381Y69412620D01*
X75322381Y69412620D02*
X75512857Y69412620D01*
X75512857Y69412620D02*
X75608095Y69460239D01*
X75608095Y69460239D02*
X75655714Y69507858D01*
X75655714Y69507858D02*
X75703333Y69603096D01*
X75703333Y69603096D02*
X75703333Y70412620D01*
X76703333Y69412620D02*
X76131905Y69412620D01*
X76417619Y69412620D02*
X76417619Y70412620D01*
X76417619Y70412620D02*
X76322381Y70269762D01*
X76322381Y70269762D02*
X76227143Y70174524D01*
X76227143Y70174524D02*
X76131905Y70126905D01*
X77322381Y70412620D02*
X77417619Y70412620D01*
X77417619Y70412620D02*
X77512857Y70365000D01*
X77512857Y70365000D02*
X77560476Y70317381D01*
X77560476Y70317381D02*
X77608095Y70222143D01*
X77608095Y70222143D02*
X77655714Y70031667D01*
X77655714Y70031667D02*
X77655714Y69793572D01*
X77655714Y69793572D02*
X77608095Y69603096D01*
X77608095Y69603096D02*
X77560476Y69507858D01*
X77560476Y69507858D02*
X77512857Y69460239D01*
X77512857Y69460239D02*
X77417619Y69412620D01*
X77417619Y69412620D02*
X77322381Y69412620D01*
X77322381Y69412620D02*
X77227143Y69460239D01*
X77227143Y69460239D02*
X77179524Y69507858D01*
X77179524Y69507858D02*
X77131905Y69603096D01*
X77131905Y69603096D02*
X77084286Y69793572D01*
X77084286Y69793572D02*
X77084286Y70031667D01*
X77084286Y70031667D02*
X77131905Y70222143D01*
X77131905Y70222143D02*
X77179524Y70317381D01*
X77179524Y70317381D02*
X77227143Y70365000D01*
X77227143Y70365000D02*
X77322381Y70412620D01*
D13*
X89072857Y74162001D02*
X89930000Y74162001D01*
X89930000Y74162001D02*
X90101428Y74104858D01*
X90101428Y74104858D02*
X90215714Y73990572D01*
X90215714Y73990572D02*
X90272857Y73819144D01*
X90272857Y73819144D02*
X90272857Y73704858D01*
X89472857Y75247715D02*
X90272857Y75247715D01*
X89015714Y74962001D02*
X89872857Y74676287D01*
X89872857Y74676287D02*
X89872857Y75419144D01*
D12*
X9697380Y72196667D02*
X10411666Y72196667D01*
X10411666Y72196667D02*
X10554523Y72149048D01*
X10554523Y72149048D02*
X10649761Y72053810D01*
X10649761Y72053810D02*
X10697380Y71910953D01*
X10697380Y71910953D02*
X10697380Y71815715D01*
X9697380Y73149048D02*
X9697380Y72672858D01*
X9697380Y72672858D02*
X10173571Y72625239D01*
X10173571Y72625239D02*
X10125952Y72672858D01*
X10125952Y72672858D02*
X10078333Y72768096D01*
X10078333Y72768096D02*
X10078333Y73006191D01*
X10078333Y73006191D02*
X10125952Y73101429D01*
X10125952Y73101429D02*
X10173571Y73149048D01*
X10173571Y73149048D02*
X10268809Y73196667D01*
X10268809Y73196667D02*
X10506904Y73196667D01*
X10506904Y73196667D02*
X10602142Y73149048D01*
X10602142Y73149048D02*
X10649761Y73101429D01*
X10649761Y73101429D02*
X10697380Y73006191D01*
X10697380Y73006191D02*
X10697380Y72768096D01*
X10697380Y72768096D02*
X10649761Y72672858D01*
X10649761Y72672858D02*
X10602142Y72625239D01*
X76223333Y21747858D02*
X76175714Y21700239D01*
X76175714Y21700239D02*
X76032857Y21652620D01*
X76032857Y21652620D02*
X75937619Y21652620D01*
X75937619Y21652620D02*
X75794762Y21700239D01*
X75794762Y21700239D02*
X75699524Y21795477D01*
X75699524Y21795477D02*
X75651905Y21890715D01*
X75651905Y21890715D02*
X75604286Y22081191D01*
X75604286Y22081191D02*
X75604286Y22224048D01*
X75604286Y22224048D02*
X75651905Y22414524D01*
X75651905Y22414524D02*
X75699524Y22509762D01*
X75699524Y22509762D02*
X75794762Y22605000D01*
X75794762Y22605000D02*
X75937619Y22652620D01*
X75937619Y22652620D02*
X76032857Y22652620D01*
X76032857Y22652620D02*
X76175714Y22605000D01*
X76175714Y22605000D02*
X76223333Y22557381D01*
X77080476Y22319286D02*
X77080476Y21652620D01*
X76842381Y22700239D02*
X76604286Y21985953D01*
X76604286Y21985953D02*
X77223333Y21985953D01*
D11*
X37101714Y51191143D02*
X37101714Y50219715D01*
X37101714Y50219715D02*
X37158857Y50105429D01*
X37158857Y50105429D02*
X37216000Y50048286D01*
X37216000Y50048286D02*
X37330285Y49991143D01*
X37330285Y49991143D02*
X37558857Y49991143D01*
X37558857Y49991143D02*
X37673142Y50048286D01*
X37673142Y50048286D02*
X37730285Y50105429D01*
X37730285Y50105429D02*
X37787428Y50219715D01*
X37787428Y50219715D02*
X37787428Y51191143D01*
X38301714Y51076858D02*
X38358857Y51134000D01*
X38358857Y51134000D02*
X38473143Y51191143D01*
X38473143Y51191143D02*
X38758857Y51191143D01*
X38758857Y51191143D02*
X38873143Y51134000D01*
X38873143Y51134000D02*
X38930285Y51076858D01*
X38930285Y51076858D02*
X38987428Y50962572D01*
X38987428Y50962572D02*
X38987428Y50848286D01*
X38987428Y50848286D02*
X38930285Y50676858D01*
X38930285Y50676858D02*
X38244571Y49991143D01*
X38244571Y49991143D02*
X38987428Y49991143D01*
D12*
X10312142Y30453334D02*
X10359761Y30405715D01*
X10359761Y30405715D02*
X10407380Y30262858D01*
X10407380Y30262858D02*
X10407380Y30167620D01*
X10407380Y30167620D02*
X10359761Y30024763D01*
X10359761Y30024763D02*
X10264523Y29929525D01*
X10264523Y29929525D02*
X10169285Y29881906D01*
X10169285Y29881906D02*
X9978809Y29834287D01*
X9978809Y29834287D02*
X9835952Y29834287D01*
X9835952Y29834287D02*
X9645476Y29881906D01*
X9645476Y29881906D02*
X9550238Y29929525D01*
X9550238Y29929525D02*
X9455000Y30024763D01*
X9455000Y30024763D02*
X9407380Y30167620D01*
X9407380Y30167620D02*
X9407380Y30262858D01*
X9407380Y30262858D02*
X9455000Y30405715D01*
X9455000Y30405715D02*
X9502619Y30453334D01*
X9502619Y30834287D02*
X9455000Y30881906D01*
X9455000Y30881906D02*
X9407380Y30977144D01*
X9407380Y30977144D02*
X9407380Y31215239D01*
X9407380Y31215239D02*
X9455000Y31310477D01*
X9455000Y31310477D02*
X9502619Y31358096D01*
X9502619Y31358096D02*
X9597857Y31405715D01*
X9597857Y31405715D02*
X9693095Y31405715D01*
X9693095Y31405715D02*
X9835952Y31358096D01*
X9835952Y31358096D02*
X10407380Y30786668D01*
X10407380Y30786668D02*
X10407380Y31405715D01*
X30632142Y35513334D02*
X30679761Y35465715D01*
X30679761Y35465715D02*
X30727380Y35322858D01*
X30727380Y35322858D02*
X30727380Y35227620D01*
X30727380Y35227620D02*
X30679761Y35084763D01*
X30679761Y35084763D02*
X30584523Y34989525D01*
X30584523Y34989525D02*
X30489285Y34941906D01*
X30489285Y34941906D02*
X30298809Y34894287D01*
X30298809Y34894287D02*
X30155952Y34894287D01*
X30155952Y34894287D02*
X29965476Y34941906D01*
X29965476Y34941906D02*
X29870238Y34989525D01*
X29870238Y34989525D02*
X29775000Y35084763D01*
X29775000Y35084763D02*
X29727380Y35227620D01*
X29727380Y35227620D02*
X29727380Y35322858D01*
X29727380Y35322858D02*
X29775000Y35465715D01*
X29775000Y35465715D02*
X29822619Y35513334D01*
X29727380Y36370477D02*
X29727380Y36180001D01*
X29727380Y36180001D02*
X29775000Y36084763D01*
X29775000Y36084763D02*
X29822619Y36037144D01*
X29822619Y36037144D02*
X29965476Y35941906D01*
X29965476Y35941906D02*
X30155952Y35894287D01*
X30155952Y35894287D02*
X30536904Y35894287D01*
X30536904Y35894287D02*
X30632142Y35941906D01*
X30632142Y35941906D02*
X30679761Y35989525D01*
X30679761Y35989525D02*
X30727380Y36084763D01*
X30727380Y36084763D02*
X30727380Y36275239D01*
X30727380Y36275239D02*
X30679761Y36370477D01*
X30679761Y36370477D02*
X30632142Y36418096D01*
X30632142Y36418096D02*
X30536904Y36465715D01*
X30536904Y36465715D02*
X30298809Y36465715D01*
X30298809Y36465715D02*
X30203571Y36418096D01*
X30203571Y36418096D02*
X30155952Y36370477D01*
X30155952Y36370477D02*
X30108333Y36275239D01*
X30108333Y36275239D02*
X30108333Y36084763D01*
X30108333Y36084763D02*
X30155952Y35989525D01*
X30155952Y35989525D02*
X30203571Y35941906D01*
X30203571Y35941906D02*
X30298809Y35894287D01*
X40643333Y72257858D02*
X40595714Y72210239D01*
X40595714Y72210239D02*
X40452857Y72162620D01*
X40452857Y72162620D02*
X40357619Y72162620D01*
X40357619Y72162620D02*
X40214762Y72210239D01*
X40214762Y72210239D02*
X40119524Y72305477D01*
X40119524Y72305477D02*
X40071905Y72400715D01*
X40071905Y72400715D02*
X40024286Y72591191D01*
X40024286Y72591191D02*
X40024286Y72734048D01*
X40024286Y72734048D02*
X40071905Y72924524D01*
X40071905Y72924524D02*
X40119524Y73019762D01*
X40119524Y73019762D02*
X40214762Y73115000D01*
X40214762Y73115000D02*
X40357619Y73162620D01*
X40357619Y73162620D02*
X40452857Y73162620D01*
X40452857Y73162620D02*
X40595714Y73115000D01*
X40595714Y73115000D02*
X40643333Y73067381D01*
X40976667Y73162620D02*
X41595714Y73162620D01*
X41595714Y73162620D02*
X41262381Y72781667D01*
X41262381Y72781667D02*
X41405238Y72781667D01*
X41405238Y72781667D02*
X41500476Y72734048D01*
X41500476Y72734048D02*
X41548095Y72686429D01*
X41548095Y72686429D02*
X41595714Y72591191D01*
X41595714Y72591191D02*
X41595714Y72353096D01*
X41595714Y72353096D02*
X41548095Y72257858D01*
X41548095Y72257858D02*
X41500476Y72210239D01*
X41500476Y72210239D02*
X41405238Y72162620D01*
X41405238Y72162620D02*
X41119524Y72162620D01*
X41119524Y72162620D02*
X41024286Y72210239D01*
X41024286Y72210239D02*
X40976667Y72257858D01*
X15777380Y66076906D02*
X14777380Y66076906D01*
X14777380Y66076906D02*
X14777380Y66315001D01*
X14777380Y66315001D02*
X14825000Y66457858D01*
X14825000Y66457858D02*
X14920238Y66553096D01*
X14920238Y66553096D02*
X15015476Y66600715D01*
X15015476Y66600715D02*
X15205952Y66648334D01*
X15205952Y66648334D02*
X15348809Y66648334D01*
X15348809Y66648334D02*
X15539285Y66600715D01*
X15539285Y66600715D02*
X15634523Y66553096D01*
X15634523Y66553096D02*
X15729761Y66457858D01*
X15729761Y66457858D02*
X15777380Y66315001D01*
X15777380Y66315001D02*
X15777380Y66076906D01*
X15110714Y67505477D02*
X15777380Y67505477D01*
X14729761Y67267382D02*
X15444047Y67029287D01*
X15444047Y67029287D02*
X15444047Y67648334D01*
X45151905Y65050620D02*
X45151905Y66050620D01*
X45151905Y66050620D02*
X45390000Y66050620D01*
X45390000Y66050620D02*
X45532857Y66003000D01*
X45532857Y66003000D02*
X45628095Y65907762D01*
X45628095Y65907762D02*
X45675714Y65812524D01*
X45675714Y65812524D02*
X45723333Y65622048D01*
X45723333Y65622048D02*
X45723333Y65479191D01*
X45723333Y65479191D02*
X45675714Y65288715D01*
X45675714Y65288715D02*
X45628095Y65193477D01*
X45628095Y65193477D02*
X45532857Y65098239D01*
X45532857Y65098239D02*
X45390000Y65050620D01*
X45390000Y65050620D02*
X45151905Y65050620D01*
X46104286Y65955381D02*
X46151905Y66003000D01*
X46151905Y66003000D02*
X46247143Y66050620D01*
X46247143Y66050620D02*
X46485238Y66050620D01*
X46485238Y66050620D02*
X46580476Y66003000D01*
X46580476Y66003000D02*
X46628095Y65955381D01*
X46628095Y65955381D02*
X46675714Y65860143D01*
X46675714Y65860143D02*
X46675714Y65764905D01*
X46675714Y65764905D02*
X46628095Y65622048D01*
X46628095Y65622048D02*
X46056667Y65050620D01*
X46056667Y65050620D02*
X46675714Y65050620D01*
X18577142Y62256620D02*
X18243809Y62732810D01*
X18005714Y62256620D02*
X18005714Y63256620D01*
X18005714Y63256620D02*
X18386666Y63256620D01*
X18386666Y63256620D02*
X18481904Y63209000D01*
X18481904Y63209000D02*
X18529523Y63161381D01*
X18529523Y63161381D02*
X18577142Y63066143D01*
X18577142Y63066143D02*
X18577142Y62923286D01*
X18577142Y62923286D02*
X18529523Y62828048D01*
X18529523Y62828048D02*
X18481904Y62780429D01*
X18481904Y62780429D02*
X18386666Y62732810D01*
X18386666Y62732810D02*
X18005714Y62732810D01*
X19529523Y62256620D02*
X18958095Y62256620D01*
X19243809Y62256620D02*
X19243809Y63256620D01*
X19243809Y63256620D02*
X19148571Y63113762D01*
X19148571Y63113762D02*
X19053333Y63018524D01*
X19053333Y63018524D02*
X18958095Y62970905D01*
X20481904Y62256620D02*
X19910476Y62256620D01*
X20196190Y62256620D02*
X20196190Y63256620D01*
X20196190Y63256620D02*
X20100952Y63113762D01*
X20100952Y63113762D02*
X20005714Y63018524D01*
X20005714Y63018524D02*
X19910476Y62970905D01*
X9147333Y62256620D02*
X8814000Y62732810D01*
X8575905Y62256620D02*
X8575905Y63256620D01*
X8575905Y63256620D02*
X8956857Y63256620D01*
X8956857Y63256620D02*
X9052095Y63209000D01*
X9052095Y63209000D02*
X9099714Y63161381D01*
X9099714Y63161381D02*
X9147333Y63066143D01*
X9147333Y63066143D02*
X9147333Y62923286D01*
X9147333Y62923286D02*
X9099714Y62828048D01*
X9099714Y62828048D02*
X9052095Y62780429D01*
X9052095Y62780429D02*
X8956857Y62732810D01*
X8956857Y62732810D02*
X8575905Y62732810D01*
X9528286Y63161381D02*
X9575905Y63209000D01*
X9575905Y63209000D02*
X9671143Y63256620D01*
X9671143Y63256620D02*
X9909238Y63256620D01*
X9909238Y63256620D02*
X10004476Y63209000D01*
X10004476Y63209000D02*
X10052095Y63161381D01*
X10052095Y63161381D02*
X10099714Y63066143D01*
X10099714Y63066143D02*
X10099714Y62970905D01*
X10099714Y62970905D02*
X10052095Y62828048D01*
X10052095Y62828048D02*
X9480667Y62256620D01*
X9480667Y62256620D02*
X10099714Y62256620D01*
X3712380Y24103334D02*
X3236190Y23770001D01*
X3712380Y23531906D02*
X2712380Y23531906D01*
X2712380Y23531906D02*
X2712380Y23912858D01*
X2712380Y23912858D02*
X2760000Y24008096D01*
X2760000Y24008096D02*
X2807619Y24055715D01*
X2807619Y24055715D02*
X2902857Y24103334D01*
X2902857Y24103334D02*
X3045714Y24103334D01*
X3045714Y24103334D02*
X3140952Y24055715D01*
X3140952Y24055715D02*
X3188571Y24008096D01*
X3188571Y24008096D02*
X3236190Y23912858D01*
X3236190Y23912858D02*
X3236190Y23531906D01*
X3712380Y25055715D02*
X3712380Y24484287D01*
X3712380Y24770001D02*
X2712380Y24770001D01*
X2712380Y24770001D02*
X2855238Y24674763D01*
X2855238Y24674763D02*
X2950476Y24579525D01*
X2950476Y24579525D02*
X2998095Y24484287D01*
X10697380Y66076906D02*
X9697380Y66076906D01*
X9697380Y66076906D02*
X9697380Y66315001D01*
X9697380Y66315001D02*
X9745000Y66457858D01*
X9745000Y66457858D02*
X9840238Y66553096D01*
X9840238Y66553096D02*
X9935476Y66600715D01*
X9935476Y66600715D02*
X10125952Y66648334D01*
X10125952Y66648334D02*
X10268809Y66648334D01*
X10268809Y66648334D02*
X10459285Y66600715D01*
X10459285Y66600715D02*
X10554523Y66553096D01*
X10554523Y66553096D02*
X10649761Y66457858D01*
X10649761Y66457858D02*
X10697380Y66315001D01*
X10697380Y66315001D02*
X10697380Y66076906D01*
X9697380Y66981668D02*
X9697380Y67600715D01*
X9697380Y67600715D02*
X10078333Y67267382D01*
X10078333Y67267382D02*
X10078333Y67410239D01*
X10078333Y67410239D02*
X10125952Y67505477D01*
X10125952Y67505477D02*
X10173571Y67553096D01*
X10173571Y67553096D02*
X10268809Y67600715D01*
X10268809Y67600715D02*
X10506904Y67600715D01*
X10506904Y67600715D02*
X10602142Y67553096D01*
X10602142Y67553096D02*
X10649761Y67505477D01*
X10649761Y67505477D02*
X10697380Y67410239D01*
X10697380Y67410239D02*
X10697380Y67124525D01*
X10697380Y67124525D02*
X10649761Y67029287D01*
X10649761Y67029287D02*
X10602142Y66981668D01*
X76223333Y42067858D02*
X76175714Y42020239D01*
X76175714Y42020239D02*
X76032857Y41972620D01*
X76032857Y41972620D02*
X75937619Y41972620D01*
X75937619Y41972620D02*
X75794762Y42020239D01*
X75794762Y42020239D02*
X75699524Y42115477D01*
X75699524Y42115477D02*
X75651905Y42210715D01*
X75651905Y42210715D02*
X75604286Y42401191D01*
X75604286Y42401191D02*
X75604286Y42544048D01*
X75604286Y42544048D02*
X75651905Y42734524D01*
X75651905Y42734524D02*
X75699524Y42829762D01*
X75699524Y42829762D02*
X75794762Y42925000D01*
X75794762Y42925000D02*
X75937619Y42972620D01*
X75937619Y42972620D02*
X76032857Y42972620D01*
X76032857Y42972620D02*
X76175714Y42925000D01*
X76175714Y42925000D02*
X76223333Y42877381D01*
X77128095Y42972620D02*
X76651905Y42972620D01*
X76651905Y42972620D02*
X76604286Y42496429D01*
X76604286Y42496429D02*
X76651905Y42544048D01*
X76651905Y42544048D02*
X76747143Y42591667D01*
X76747143Y42591667D02*
X76985238Y42591667D01*
X76985238Y42591667D02*
X77080476Y42544048D01*
X77080476Y42544048D02*
X77128095Y42496429D01*
X77128095Y42496429D02*
X77175714Y42401191D01*
X77175714Y42401191D02*
X77175714Y42163096D01*
X77175714Y42163096D02*
X77128095Y42067858D01*
X77128095Y42067858D02*
X77080476Y42020239D01*
X77080476Y42020239D02*
X76985238Y41972620D01*
X76985238Y41972620D02*
X76747143Y41972620D01*
X76747143Y41972620D02*
X76651905Y42020239D01*
X76651905Y42020239D02*
X76604286Y42067858D01*
X31086666Y56652620D02*
X31086666Y55938334D01*
X31086666Y55938334D02*
X31039047Y55795477D01*
X31039047Y55795477D02*
X30943809Y55700239D01*
X30943809Y55700239D02*
X30800952Y55652620D01*
X30800952Y55652620D02*
X30705714Y55652620D01*
X31562857Y55652620D02*
X31562857Y56652620D01*
X31562857Y56652620D02*
X31943809Y56652620D01*
X31943809Y56652620D02*
X32039047Y56605000D01*
X32039047Y56605000D02*
X32086666Y56557381D01*
X32086666Y56557381D02*
X32134285Y56462143D01*
X32134285Y56462143D02*
X32134285Y56319286D01*
X32134285Y56319286D02*
X32086666Y56224048D01*
X32086666Y56224048D02*
X32039047Y56176429D01*
X32039047Y56176429D02*
X31943809Y56128810D01*
X31943809Y56128810D02*
X31562857Y56128810D01*
X32467619Y56652620D02*
X33086666Y56652620D01*
X33086666Y56652620D02*
X32753333Y56271667D01*
X32753333Y56271667D02*
X32896190Y56271667D01*
X32896190Y56271667D02*
X32991428Y56224048D01*
X32991428Y56224048D02*
X33039047Y56176429D01*
X33039047Y56176429D02*
X33086666Y56081191D01*
X33086666Y56081191D02*
X33086666Y55843096D01*
X33086666Y55843096D02*
X33039047Y55747858D01*
X33039047Y55747858D02*
X32991428Y55700239D01*
X32991428Y55700239D02*
X32896190Y55652620D01*
X32896190Y55652620D02*
X32610476Y55652620D01*
X32610476Y55652620D02*
X32515238Y55700239D01*
X32515238Y55700239D02*
X32467619Y55747858D01*
X49682142Y4438334D02*
X49729761Y4390715D01*
X49729761Y4390715D02*
X49777380Y4247858D01*
X49777380Y4247858D02*
X49777380Y4152620D01*
X49777380Y4152620D02*
X49729761Y4009763D01*
X49729761Y4009763D02*
X49634523Y3914525D01*
X49634523Y3914525D02*
X49539285Y3866906D01*
X49539285Y3866906D02*
X49348809Y3819287D01*
X49348809Y3819287D02*
X49205952Y3819287D01*
X49205952Y3819287D02*
X49015476Y3866906D01*
X49015476Y3866906D02*
X48920238Y3914525D01*
X48920238Y3914525D02*
X48825000Y4009763D01*
X48825000Y4009763D02*
X48777380Y4152620D01*
X48777380Y4152620D02*
X48777380Y4247858D01*
X48777380Y4247858D02*
X48825000Y4390715D01*
X48825000Y4390715D02*
X48872619Y4438334D01*
X49777380Y5390715D02*
X49777380Y4819287D01*
X49777380Y5105001D02*
X48777380Y5105001D01*
X48777380Y5105001D02*
X48920238Y5009763D01*
X48920238Y5009763D02*
X49015476Y4914525D01*
X49015476Y4914525D02*
X49063095Y4819287D01*
X98187380Y45169524D02*
X97711190Y44836191D01*
X98187380Y44598096D02*
X97187380Y44598096D01*
X97187380Y44598096D02*
X97187380Y44979048D01*
X97187380Y44979048D02*
X97235000Y45074286D01*
X97235000Y45074286D02*
X97282619Y45121905D01*
X97282619Y45121905D02*
X97377857Y45169524D01*
X97377857Y45169524D02*
X97520714Y45169524D01*
X97520714Y45169524D02*
X97615952Y45121905D01*
X97615952Y45121905D02*
X97663571Y45074286D01*
X97663571Y45074286D02*
X97711190Y44979048D01*
X97711190Y44979048D02*
X97711190Y44598096D01*
X98187380Y45598096D02*
X97187380Y45598096D01*
X97187380Y45598096D02*
X98187380Y46169524D01*
X98187380Y46169524D02*
X97187380Y46169524D01*
X98187380Y47169524D02*
X98187380Y46598096D01*
X98187380Y46883810D02*
X97187380Y46883810D01*
X97187380Y46883810D02*
X97330238Y46788572D01*
X97330238Y46788572D02*
X97425476Y46693334D01*
X97425476Y46693334D02*
X97473095Y46598096D01*
D14*
X34460000Y69050000D02*
X34460000Y68100000D01*
X35380000Y68100000D02*
X33540000Y68100000D01*
X33540000Y68100000D02*
X33540000Y64260000D01*
X35380000Y64260000D02*
X35380000Y68100000D01*
X33540000Y64260000D02*
X35380000Y64260000D01*
X34460000Y63310000D02*
X34460000Y64260000D01*
X32047000Y69050000D02*
X32047000Y68100000D01*
X32967000Y68100000D02*
X31127000Y68100000D01*
X31127000Y68100000D02*
X31127000Y64260000D01*
X32967000Y64260000D02*
X32967000Y68100000D01*
X31127000Y64260000D02*
X32967000Y64260000D01*
X32047000Y63310000D02*
X32047000Y64260000D01*
X8540000Y34730000D02*
X8540000Y34130000D01*
X7840000Y33430000D02*
X6440000Y33430000D01*
X6440000Y35430000D02*
X7840000Y35430000D01*
X5740000Y34130000D02*
X5740000Y34730000D01*
X7840000Y33430000D02*
G75*
G03*
X8540000Y34130000I1J699999D01*
G01*
X8540000Y34730000D02*
G75*
G03*
X7840000Y35430000I-699999J1D01*
G01*
X5740000Y34130000D02*
G75*
G03*
X6440000Y33430000I700000J0D01*
G01*
X6440000Y35430000D02*
G75*
G03*
X5740000Y34730000I0J-700000D01*
G01*
X11320000Y58620000D02*
X11320000Y7700000D01*
X11320000Y7700000D02*
X24240000Y7700000D01*
X16780000Y58620000D02*
X11320000Y58620000D01*
X24240000Y58620000D02*
X18780000Y58620000D01*
X24240000Y7700000D02*
X24240000Y58620000D01*
X16780000Y58620000D02*
G75*
G03*
X18780000Y58620000I1000000J0D01*
G01*
X27330000Y58260000D02*
X27330000Y58860000D01*
X28030000Y59560000D02*
X29430000Y59560000D01*
X29430000Y57560000D02*
X28030000Y57560000D01*
X30130000Y58860000D02*
X30130000Y58260000D01*
X28030000Y59560000D02*
G75*
G03*
X27330000Y58860000I-1J-699999D01*
G01*
X27330000Y58260000D02*
G75*
G03*
X28030000Y57560000I699999J-1D01*
G01*
X30130000Y58860000D02*
G75*
G03*
X29430000Y59560000I-700000J0D01*
G01*
X29430000Y57560000D02*
G75*
G03*
X30130000Y58260000I0J700000D01*
G01*
X1380000Y58620000D02*
X2710000Y58620000D01*
X1380000Y57290000D02*
X1380000Y58620000D01*
X1380000Y56020000D02*
X1380000Y43260000D01*
X1380000Y56020000D02*
X4040000Y56020000D01*
X1380000Y43260000D02*
X4040000Y43260000D01*
X4040000Y56020000D02*
X4040000Y43260000D01*
X6444000Y60084000D02*
X7394000Y60084000D01*
X7394000Y61004000D02*
X7394000Y59164000D01*
X7394000Y59164000D02*
X11234000Y59164000D01*
X11234000Y61004000D02*
X7394000Y61004000D01*
X11234000Y59164000D02*
X11234000Y61004000D01*
X12184000Y60084000D02*
X11234000Y60084000D01*
X58010000Y83992000D02*
X49010000Y83992000D01*
X49010000Y83992000D02*
X49010000Y69492000D01*
X49010000Y80492000D02*
X58010000Y80492000D01*
X52510000Y76792000D02*
X54510000Y76792000D01*
X54510000Y75792000D02*
X52510000Y75792000D01*
X49110000Y74292000D02*
X49110000Y72292000D01*
X48110000Y74292000D02*
X48110000Y72292000D01*
X52210000Y70792000D02*
X54810000Y70792000D01*
X54810000Y69792000D02*
X52210000Y69792000D01*
X58010000Y69492000D02*
X58010000Y83992000D01*
X49010000Y69492000D02*
X58010000Y69492000D01*
X54510000Y75792000D02*
G75*
G03*
X54510000Y76792000I0J500000D01*
G01*
X52510000Y76792000D02*
G75*
G03*
X52510000Y75792000I0J-500000D01*
G01*
X49110000Y74292000D02*
G75*
G03*
X48110000Y74292000I-500000J0D01*
G01*
X48110000Y72292000D02*
G75*
G03*
X49110000Y72292000I500000J0D01*
G01*
X54810000Y69792000D02*
G75*
G03*
X54810000Y70792000I0J500000D01*
G01*
X52210000Y70792000D02*
G75*
G03*
X52210000Y69792000I0J-500000D01*
G01*
X85200000Y56020000D02*
X85200000Y7700000D01*
X85200000Y56020000D02*
X87860000Y56020000D01*
X85200000Y7700000D02*
X87860000Y7700000D01*
X86530000Y58620000D02*
X87860000Y58620000D01*
X87860000Y58620000D02*
X87860000Y57290000D01*
X87860000Y56020000D02*
X87860000Y7700000D01*
X27094000Y69050000D02*
X27094000Y68100000D01*
X28014000Y68100000D02*
X26174000Y68100000D01*
X26174000Y68100000D02*
X26174000Y64260000D01*
X28014000Y64260000D02*
X28014000Y68100000D01*
X26174000Y64260000D02*
X28014000Y64260000D01*
X27094000Y63310000D02*
X27094000Y64260000D01*
X37000000Y69050000D02*
X37000000Y68100000D01*
X37920000Y68100000D02*
X36080000Y68100000D01*
X36080000Y68100000D02*
X36080000Y64260000D01*
X37920000Y64260000D02*
X37920000Y68100000D01*
X36080000Y64260000D02*
X37920000Y64260000D01*
X37000000Y63310000D02*
X37000000Y64260000D01*
X45210000Y80690000D02*
X36410000Y80690000D01*
X45210000Y84690000D02*
X45210000Y80690000D01*
X36410000Y80690000D02*
X36410000Y84690000D01*
X36410000Y84690000D02*
X45210000Y84690000D01*
X41953000Y69050000D02*
X41953000Y68100000D01*
X42873000Y68100000D02*
X41033000Y68100000D01*
X41033000Y68100000D02*
X41033000Y64260000D01*
X42873000Y64260000D02*
X42873000Y68100000D01*
X41033000Y64260000D02*
X42873000Y64260000D01*
X41953000Y63310000D02*
X41953000Y64260000D01*
X85200000Y66240000D02*
X86530000Y66240000D01*
X85200000Y64910000D02*
X85200000Y66240000D01*
X85200000Y63640000D02*
X85200000Y63580000D01*
X85200000Y63640000D02*
X87860000Y63640000D01*
X85200000Y63580000D02*
X87860000Y63580000D01*
X87860000Y63640000D02*
X87860000Y63580000D01*
X21794000Y67160000D02*
X21950000Y67160000D01*
X24110000Y67160000D02*
X24266000Y67160000D01*
X21951392Y70392334D02*
G75*
G03*
X21794485Y67160001I1078608J-1672334D01*
G01*
X21950164Y69761129D02*
G75*
G03*
X21950001Y67679040I1079836J-1041129D01*
G01*
X24109999Y67679040D02*
G75*
G03*
X24109836Y69761129I-1079999J1040960D01*
G01*
X24265515Y67160001D02*
G75*
G03*
X24108608Y70392334I-1235515J1559999D01*
G01*
X39540000Y69050000D02*
X39540000Y68100000D01*
X40460000Y68100000D02*
X38620000Y68100000D01*
X38620000Y68100000D02*
X38620000Y64260000D01*
X40460000Y64260000D02*
X40460000Y68100000D01*
X38620000Y64260000D02*
X40460000Y64260000D01*
X39540000Y63310000D02*
X39540000Y64260000D01*
X29634000Y69050000D02*
X29634000Y68100000D01*
X30554000Y68100000D02*
X28714000Y68100000D01*
X28714000Y68100000D02*
X28714000Y64260000D01*
X30554000Y64260000D02*
X30554000Y68100000D01*
X28714000Y64260000D02*
X30554000Y64260000D01*
X29634000Y63310000D02*
X29634000Y64260000D01*
X64880000Y56020000D02*
X64880000Y7700000D01*
X64880000Y56020000D02*
X67540000Y56020000D01*
X64880000Y7700000D02*
X67540000Y7700000D01*
X66210000Y58620000D02*
X67540000Y58620000D01*
X67540000Y58620000D02*
X67540000Y57290000D01*
X67540000Y56020000D02*
X67540000Y7700000D01*
X7790000Y20230000D02*
X7790000Y20880000D01*
X6670000Y20880000D02*
X8910000Y20880000D01*
X8910000Y20880000D02*
X8910000Y25120000D01*
X6670000Y21480000D02*
X8910000Y21480000D01*
X6670000Y21600000D02*
X8910000Y21600000D01*
X6670000Y21720000D02*
X8910000Y21720000D01*
X6670000Y25120000D02*
X6670000Y20880000D01*
X8910000Y25120000D02*
X6670000Y25120000D01*
X7790000Y25770000D02*
X7790000Y25120000D01*
X30130000Y53780000D02*
X30130000Y53180000D01*
X29430000Y52480000D02*
X28030000Y52480000D01*
X28030000Y54480000D02*
X29430000Y54480000D01*
X27330000Y53180000D02*
X27330000Y53780000D01*
X29430000Y52480000D02*
G75*
G03*
X30130000Y53180000I1J699999D01*
G01*
X30130000Y53780000D02*
G75*
G03*
X29430000Y54480000I-699999J1D01*
G01*
X27330000Y53180000D02*
G75*
G03*
X28030000Y52480000I700000J0D01*
G01*
X28030000Y54480000D02*
G75*
G03*
X27330000Y53780000I0J-700000D01*
G01*
X62150000Y81190000D02*
X62150000Y79690000D01*
X63400000Y77190000D02*
X67900000Y77190000D01*
X67900000Y83690000D02*
X63400000Y83690000D01*
X69150000Y79690000D02*
X69150000Y81190000D01*
X67480000Y68780000D02*
X67480000Y67390000D01*
X68115000Y58560000D02*
X84625000Y58560000D01*
X68115000Y7760000D02*
X84625000Y7760000D01*
X70310000Y68780000D02*
X70310000Y7760000D01*
X70310000Y7870000D02*
X82430000Y7870000D01*
X75370000Y68780000D02*
X70310000Y68780000D01*
X82430000Y68780000D02*
X77370000Y68780000D01*
X82430000Y7870000D02*
X82430000Y68780000D01*
X85260000Y68840000D02*
X67480000Y68840000D01*
X85260000Y68840000D02*
X85260000Y67450000D01*
X75370000Y68780000D02*
G75*
G03*
X77370000Y68780000I1000000J0D01*
G01*
X75370000Y58544000D02*
G75*
G03*
X77370000Y58544000I1000000J0D01*
G01*
X72560000Y72530000D02*
X72560000Y73800000D01*
X73830000Y72530000D02*
X72560000Y72530000D01*
X75990000Y74842929D02*
X75990000Y75240000D01*
X76750000Y74842929D02*
X76750000Y75240000D01*
X78530000Y74842929D02*
X78530000Y75240000D01*
X79290000Y74842929D02*
X79290000Y75240000D01*
X81070000Y74842929D02*
X81070000Y75240000D01*
X81830000Y74842929D02*
X81830000Y75240000D01*
X83610000Y74842929D02*
X83610000Y75240000D01*
X84370000Y74842929D02*
X84370000Y75240000D01*
X86150000Y74842929D02*
X86150000Y75240000D01*
X86910000Y74842929D02*
X86910000Y75240000D01*
X73450000Y74910000D02*
X73450000Y75240000D01*
X74210000Y74910000D02*
X74210000Y75240000D01*
X72500000Y75240000D02*
X87860000Y75240000D01*
X75100000Y75240000D02*
X75100000Y77900000D01*
X77640000Y75240000D02*
X77640000Y77900000D01*
X80180000Y75240000D02*
X80180000Y77900000D01*
X82720000Y75240000D02*
X82720000Y77900000D01*
X85260000Y75240000D02*
X85260000Y77900000D01*
X87860000Y75240000D02*
X87860000Y77900000D01*
X72500000Y77900000D02*
X72500000Y75240000D01*
X73450000Y77900000D02*
X73450000Y78880000D01*
X73510000Y77900000D02*
X73510000Y78880000D01*
X73630000Y77900000D02*
X73630000Y78880000D01*
X73750000Y77900000D02*
X73750000Y78880000D01*
X73880800Y77900000D02*
X73880800Y78880000D01*
X73990000Y77900000D02*
X73990000Y78880000D01*
X74110000Y77900000D02*
X74109400Y78880000D01*
X75990000Y77900000D02*
X75990000Y78905400D01*
X78530000Y77900000D02*
X78530000Y78880000D01*
X81070000Y77900000D02*
X81070000Y78880000D01*
X83610000Y77900000D02*
X83610000Y78880000D01*
X86150000Y77900000D02*
X86150000Y78880000D01*
X87860000Y77900000D02*
X72500000Y77900000D01*
X73830000Y77914800D02*
X73830000Y78880000D01*
X73450000Y78880000D02*
X74210000Y78880000D01*
X74210000Y78880000D02*
X74210000Y77900000D01*
X78530000Y78880000D02*
X79290000Y78880000D01*
X79290000Y78880000D02*
X79290000Y77900000D01*
X81070000Y78880000D02*
X81830000Y78880000D01*
X81830000Y78880000D02*
X81830000Y77900000D01*
X83610000Y78880000D02*
X84370000Y78880000D01*
X84370000Y78880000D02*
X84370000Y77900000D01*
X86150000Y78880000D02*
X86910000Y78880000D01*
X86910000Y78880000D02*
X86910000Y77900000D01*
X75990000Y78905400D02*
X76750000Y78905400D01*
X76750000Y78905400D02*
X76750000Y77900000D01*
X30650000Y72530000D02*
X31920000Y72530000D01*
X31920000Y72530000D02*
X31920000Y73800000D01*
X12490000Y74842929D02*
X12490000Y75240000D01*
X13250000Y74842929D02*
X13250000Y75240000D01*
X15030000Y74842929D02*
X15030000Y75240000D01*
X15790000Y74842929D02*
X15790000Y75240000D01*
X17570000Y74842929D02*
X17570000Y75240000D01*
X18330000Y74842929D02*
X18330000Y75240000D01*
X20110000Y74842929D02*
X20110000Y75240000D01*
X20870000Y74842929D02*
X20870000Y75240000D01*
X22650000Y74842929D02*
X22650000Y75240000D01*
X23410000Y74842929D02*
X23410000Y75240000D01*
X25190000Y74842929D02*
X25190000Y75240000D01*
X25950000Y74842929D02*
X25950000Y75240000D01*
X27730000Y74842929D02*
X27730000Y75240000D01*
X28490000Y74842929D02*
X28490000Y75240000D01*
X30270000Y74910000D02*
X30270000Y75240000D01*
X31030000Y74910000D02*
X31030000Y75240000D01*
X11540000Y75240000D02*
X11540000Y77900000D01*
X14140000Y75240000D02*
X14140000Y77900000D01*
X16680000Y75240000D02*
X16680000Y77900000D01*
X19220000Y75240000D02*
X19220000Y77900000D01*
X21760000Y75240000D02*
X21760000Y77900000D01*
X24300000Y75240000D02*
X24300000Y77900000D01*
X26840000Y75240000D02*
X26840000Y77900000D01*
X29380000Y75240000D02*
X29380000Y77900000D01*
X31980000Y75240000D02*
X11540000Y75240000D01*
X11540000Y77900000D02*
X31980000Y77900000D01*
X13250000Y77900000D02*
X13250000Y78860400D01*
X15806200Y77900000D02*
X15805200Y78860400D01*
X18330000Y77900000D02*
X18330000Y78860400D01*
X20886200Y77900000D02*
X20885200Y78860400D01*
X23426200Y77900000D02*
X23425200Y78860400D01*
X25950000Y77900000D02*
X25950000Y78860400D01*
X28490000Y77900000D02*
X28490000Y78860400D01*
X30850000Y77900000D02*
X30850000Y78860400D01*
X31980000Y77900000D02*
X31980000Y75240000D01*
X30258800Y77946000D02*
X30258800Y78860400D01*
X30360400Y77946000D02*
X30360400Y78860400D01*
X30462000Y77946000D02*
X30462000Y78860400D01*
X30563600Y77946000D02*
X30563600Y78860400D01*
X30665200Y77946000D02*
X30665200Y78860400D01*
X30766800Y77946000D02*
X30766800Y78860400D01*
X30919200Y77946000D02*
X30919200Y78860400D01*
X31020800Y77946000D02*
X31020800Y78860400D01*
X31071600Y77946000D02*
X31071600Y78860400D01*
X12490000Y78860400D02*
X12490000Y77900000D01*
X13250000Y78860400D02*
X12490000Y78860400D01*
X15045200Y78860400D02*
X15044200Y77900000D01*
X15805200Y78860400D02*
X15045200Y78860400D01*
X17570000Y78860400D02*
X17570000Y77900000D01*
X18330000Y78860400D02*
X17570000Y78860400D01*
X20125200Y78860400D02*
X20124200Y77900000D01*
X20885200Y78860400D02*
X20125200Y78860400D01*
X22665200Y78860400D02*
X22664200Y77971400D01*
X23425200Y78860400D02*
X22665200Y78860400D01*
X25190000Y78860400D02*
X25190000Y77900000D01*
X25950000Y78860400D02*
X25190000Y78860400D01*
X27730000Y78860400D02*
X27730000Y77900000D01*
X28490000Y78860400D02*
X27730000Y78860400D01*
X30285200Y78860400D02*
X30258800Y77895200D01*
X31045200Y78860400D02*
X30285200Y78860400D01*
X78010000Y23150000D02*
X78010000Y23215000D01*
X78010000Y23150000D02*
X74770000Y23150000D01*
X78010000Y25325000D02*
X78010000Y25390000D01*
X78010000Y25390000D02*
X74770000Y25390000D01*
X74770000Y23150000D02*
X74770000Y23215000D01*
X74770000Y25325000D02*
X74770000Y25390000D01*
X36770000Y48520000D02*
X36770000Y7640000D01*
X36770000Y7640000D02*
X54670000Y7640000D01*
X39260000Y48460000D02*
X39260000Y7700000D01*
X39260000Y7700000D02*
X52180000Y7700000D01*
X44720000Y48460000D02*
X39260000Y48460000D01*
X52180000Y48460000D02*
X46720000Y48460000D01*
X52180000Y7700000D02*
X52180000Y48460000D01*
X54670000Y48520000D02*
X36770000Y48520000D01*
X54670000Y7640000D02*
X54670000Y48520000D01*
X44720000Y48460000D02*
G75*
G03*
X46720000Y48460000I1000000J0D01*
G01*
X8910000Y32240000D02*
X8845000Y32240000D01*
X8910000Y32240000D02*
X8910000Y29000000D01*
X6735000Y32240000D02*
X6670000Y32240000D01*
X6670000Y32240000D02*
X6670000Y29000000D01*
X8910000Y29000000D02*
X8845000Y29000000D01*
X6735000Y29000000D02*
X6670000Y29000000D01*
X29230000Y37300000D02*
X29165000Y37300000D01*
X29230000Y37300000D02*
X29230000Y34060000D01*
X27055000Y37300000D02*
X26990000Y37300000D01*
X26990000Y37300000D02*
X26990000Y34060000D01*
X29230000Y34060000D02*
X29165000Y34060000D01*
X27055000Y34060000D02*
X26990000Y34060000D01*
X39745000Y79124775D02*
X39745000Y78624775D01*
X39995000Y78874775D02*
X39495000Y78874775D01*
X40850000Y76320000D02*
X35690000Y76320000D01*
X40850000Y76280000D02*
X35690000Y76280000D01*
X40849000Y76240000D02*
X35691000Y76240000D01*
X40848000Y76200000D02*
X35692000Y76200000D01*
X40846000Y76160000D02*
X35694000Y76160000D01*
X40843000Y76120000D02*
X35697000Y76120000D01*
X40839000Y76080000D02*
X39310000Y76080000D01*
X37230000Y76080000D02*
X35701000Y76080000D01*
X40835000Y76040000D02*
X39310000Y76040000D01*
X37230000Y76040000D02*
X35705000Y76040000D01*
X40831000Y76000000D02*
X39310000Y76000000D01*
X37230000Y76000000D02*
X35709000Y76000000D01*
X40826000Y75960000D02*
X39310000Y75960000D01*
X37230000Y75960000D02*
X35714000Y75960000D01*
X40820000Y75920000D02*
X39310000Y75920000D01*
X37230000Y75920000D02*
X35720000Y75920000D01*
X40813000Y75880000D02*
X39310000Y75880000D01*
X37230000Y75880000D02*
X35727000Y75880000D01*
X40806000Y75840000D02*
X39310000Y75840000D01*
X37230000Y75840000D02*
X35734000Y75840000D01*
X40798000Y75800000D02*
X39310000Y75800000D01*
X37230000Y75800000D02*
X35742000Y75800000D01*
X40790000Y75760000D02*
X39310000Y75760000D01*
X37230000Y75760000D02*
X35750000Y75760000D01*
X40781000Y75720000D02*
X39310000Y75720000D01*
X37230000Y75720000D02*
X35759000Y75720000D01*
X40771000Y75680000D02*
X39310000Y75680000D01*
X37230000Y75680000D02*
X35769000Y75680000D01*
X40761000Y75640000D02*
X39310000Y75640000D01*
X37230000Y75640000D02*
X35779000Y75640000D01*
X40750000Y75599000D02*
X39310000Y75599000D01*
X37230000Y75599000D02*
X35790000Y75599000D01*
X40738000Y75559000D02*
X39310000Y75559000D01*
X37230000Y75559000D02*
X35802000Y75559000D01*
X40725000Y75519000D02*
X39310000Y75519000D01*
X37230000Y75519000D02*
X35815000Y75519000D01*
X40712000Y75479000D02*
X39310000Y75479000D01*
X37230000Y75479000D02*
X35828000Y75479000D01*
X40698000Y75439000D02*
X39310000Y75439000D01*
X37230000Y75439000D02*
X35842000Y75439000D01*
X40684000Y75399000D02*
X39310000Y75399000D01*
X37230000Y75399000D02*
X35856000Y75399000D01*
X40668000Y75359000D02*
X39310000Y75359000D01*
X37230000Y75359000D02*
X35872000Y75359000D01*
X40652000Y75319000D02*
X39310000Y75319000D01*
X37230000Y75319000D02*
X35888000Y75319000D01*
X40635000Y75279000D02*
X39310000Y75279000D01*
X37230000Y75279000D02*
X35905000Y75279000D01*
X40618000Y75239000D02*
X39310000Y75239000D01*
X37230000Y75239000D02*
X35922000Y75239000D01*
X40599000Y75199000D02*
X39310000Y75199000D01*
X37230000Y75199000D02*
X35941000Y75199000D01*
X40580000Y75159000D02*
X39310000Y75159000D01*
X37230000Y75159000D02*
X35960000Y75159000D01*
X40560000Y75119000D02*
X39310000Y75119000D01*
X37230000Y75119000D02*
X35980000Y75119000D01*
X40538000Y75079000D02*
X39310000Y75079000D01*
X37230000Y75079000D02*
X36002000Y75079000D01*
X40517000Y75039000D02*
X39310000Y75039000D01*
X37230000Y75039000D02*
X36023000Y75039000D01*
X40494000Y74999000D02*
X39310000Y74999000D01*
X37230000Y74999000D02*
X36046000Y74999000D01*
X40470000Y74959000D02*
X39310000Y74959000D01*
X37230000Y74959000D02*
X36070000Y74959000D01*
X40445000Y74919000D02*
X39310000Y74919000D01*
X37230000Y74919000D02*
X36095000Y74919000D01*
X40419000Y74879000D02*
X39310000Y74879000D01*
X37230000Y74879000D02*
X36121000Y74879000D01*
X40392000Y74839000D02*
X39310000Y74839000D01*
X37230000Y74839000D02*
X36148000Y74839000D01*
X40365000Y74799000D02*
X39310000Y74799000D01*
X37230000Y74799000D02*
X36175000Y74799000D01*
X40335000Y74759000D02*
X39310000Y74759000D01*
X37230000Y74759000D02*
X36205000Y74759000D01*
X40305000Y74719000D02*
X39310000Y74719000D01*
X37230000Y74719000D02*
X36235000Y74719000D01*
X40274000Y74679000D02*
X39310000Y74679000D01*
X37230000Y74679000D02*
X36266000Y74679000D01*
X40241000Y74639000D02*
X39310000Y74639000D01*
X37230000Y74639000D02*
X36299000Y74639000D01*
X40207000Y74599000D02*
X39310000Y74599000D01*
X37230000Y74599000D02*
X36333000Y74599000D01*
X40171000Y74559000D02*
X39310000Y74559000D01*
X37230000Y74559000D02*
X36369000Y74559000D01*
X40134000Y74519000D02*
X39310000Y74519000D01*
X37230000Y74519000D02*
X36406000Y74519000D01*
X40096000Y74479000D02*
X39310000Y74479000D01*
X37230000Y74479000D02*
X36444000Y74479000D01*
X40055000Y74439000D02*
X39310000Y74439000D01*
X37230000Y74439000D02*
X36485000Y74439000D01*
X40013000Y74399000D02*
X39310000Y74399000D01*
X37230000Y74399000D02*
X36527000Y74399000D01*
X39969000Y74359000D02*
X39310000Y74359000D01*
X37230000Y74359000D02*
X36571000Y74359000D01*
X39923000Y74319000D02*
X39310000Y74319000D01*
X37230000Y74319000D02*
X36617000Y74319000D01*
X39875000Y74279000D02*
X39310000Y74279000D01*
X37230000Y74279000D02*
X36665000Y74279000D01*
X39824000Y74239000D02*
X39310000Y74239000D01*
X37230000Y74239000D02*
X36716000Y74239000D01*
X39770000Y74199000D02*
X39310000Y74199000D01*
X37230000Y74199000D02*
X36770000Y74199000D01*
X39713000Y74159000D02*
X39310000Y74159000D01*
X37230000Y74159000D02*
X36827000Y74159000D01*
X39653000Y74119000D02*
X39310000Y74119000D01*
X37230000Y74119000D02*
X36887000Y74119000D01*
X39589000Y74079000D02*
X39310000Y74079000D01*
X37230000Y74079000D02*
X36951000Y74079000D01*
X39521000Y74039000D02*
X39310000Y74039000D01*
X37230000Y74039000D02*
X37019000Y74039000D01*
X39448000Y73999000D02*
X37092000Y73999000D01*
X39368000Y73959000D02*
X37172000Y73959000D01*
X39281000Y73919000D02*
X37259000Y73919000D01*
X39185000Y73879000D02*
X37355000Y73879000D01*
X39075000Y73839000D02*
X37465000Y73839000D01*
X38947000Y73799000D02*
X37593000Y73799000D01*
X38788000Y73759000D02*
X37752000Y73759000D01*
X38554000Y73719000D02*
X37986000Y73719000D01*
X40890000Y76320000D02*
G75*
G03*
X40890000Y76320000I-2620000J0D01*
G01*
X16714000Y67160000D02*
X16870000Y67160000D01*
X19030000Y67160000D02*
X19186000Y67160000D01*
X16871392Y70392334D02*
G75*
G03*
X16714485Y67160001I1078608J-1672334D01*
G01*
X16870164Y69761129D02*
G75*
G03*
X16870001Y67679040I1079836J-1041129D01*
G01*
X19029999Y67679040D02*
G75*
G03*
X19029836Y69761129I-1079999J1040960D01*
G01*
X19185515Y67160001D02*
G75*
G03*
X19028608Y70392334I-1235515J1559999D01*
G01*
X47126000Y70280000D02*
X46970000Y70280000D01*
X44810000Y70280000D02*
X44654000Y70280000D01*
X46968608Y67047666D02*
G75*
G03*
X47125515Y70279999I-1078608J1672334D01*
G01*
X46969836Y67678871D02*
G75*
G03*
X46969999Y69760960I-1079836J1041129D01*
G01*
X44810001Y69760960D02*
G75*
G03*
X44810164Y67678871I1079999J-1040960D01*
G01*
X44654485Y70279999D02*
G75*
G03*
X44811392Y67047666I1235515J-1559999D01*
G01*
X22090000Y62624000D02*
X21140000Y62624000D01*
X21140000Y61704000D02*
X21140000Y63544000D01*
X21140000Y63544000D02*
X17300000Y63544000D01*
X17300000Y61704000D02*
X21140000Y61704000D01*
X17300000Y63544000D02*
X17300000Y61704000D01*
X16350000Y62624000D02*
X17300000Y62624000D01*
X6444000Y62624000D02*
X7394000Y62624000D01*
X7394000Y63544000D02*
X7394000Y61704000D01*
X7394000Y61704000D02*
X11234000Y61704000D01*
X11234000Y63544000D02*
X7394000Y63544000D01*
X11234000Y61704000D02*
X11234000Y63544000D01*
X12184000Y62624000D02*
X11234000Y62624000D01*
X5250000Y30950000D02*
X5250000Y30000000D01*
X6170000Y30000000D02*
X4330000Y30000000D01*
X4330000Y30000000D02*
X4330000Y26160000D01*
X6170000Y26160000D02*
X6170000Y30000000D01*
X4330000Y26160000D02*
X6170000Y26160000D01*
X5250000Y25210000D02*
X5250000Y26160000D01*
X11634000Y67160000D02*
X11790000Y67160000D01*
X13950000Y67160000D02*
X14106000Y67160000D01*
X11791392Y70392334D02*
G75*
G03*
X11634485Y67160001I1078608J-1672334D01*
G01*
X11790164Y69761129D02*
G75*
G03*
X11790001Y67679040I1079836J-1041129D01*
G01*
X13949999Y67679040D02*
G75*
G03*
X13949836Y69761129I-1079999J1040960D01*
G01*
X14105515Y67160001D02*
G75*
G03*
X13948608Y70392334I-1235515J1559999D01*
G01*
X78010000Y43470000D02*
X78010000Y43535000D01*
X78010000Y43470000D02*
X74770000Y43470000D01*
X78010000Y45645000D02*
X78010000Y45710000D01*
X78010000Y45710000D02*
X74770000Y45710000D01*
X74770000Y43470000D02*
X74770000Y43535000D01*
X74770000Y45645000D02*
X74770000Y45710000D01*
X27360000Y55720000D02*
X27360000Y56320000D01*
X28060000Y57020000D02*
X29460000Y57020000D01*
X29460000Y55020000D02*
X28060000Y55020000D01*
X30160000Y56320000D02*
X30160000Y55720000D01*
X28060000Y57020000D02*
G75*
G03*
X27360000Y56320000I-1J-699999D01*
G01*
X27360000Y55720000D02*
G75*
G03*
X28060000Y55020000I699999J-1D01*
G01*
X30160000Y56320000D02*
G75*
G03*
X29460000Y57020000I-700000J0D01*
G01*
X29460000Y55020000D02*
G75*
G03*
X30160000Y55720000I0J700000D01*
G01*
X48280000Y6225000D02*
X48215000Y6225000D01*
X48280000Y6225000D02*
X48280000Y2985000D01*
X46105000Y6225000D02*
X46040000Y6225000D01*
X46040000Y6225000D02*
X46040000Y2985000D01*
X48280000Y2985000D02*
X48215000Y2985000D01*
X46105000Y2985000D02*
X46040000Y2985000D01*
X96820000Y58730000D02*
X94020000Y58730000D01*
X94020000Y58730000D02*
X94020000Y35530000D01*
X96820000Y56020000D02*
X94020000Y56020000D01*
X96820000Y35530000D02*
X96820000Y58730000D01*
X94020000Y35530000D02*
X96820000Y35530000D01*
M02*
