M48
; DRILL file {KiCad (7.0.0)} date Sun Feb 26 16:08:47 2023
; FORMAT={-:-/ absolute / metric / decimal}
; #@! TF.CreationDate,2023-02-26T16:08:47+09:00
; #@! TF.GenerationSoftware,Kicad,Pcbnew,(7.0.0)
; #@! TF.FileFunction,MixedPlating,1,2
FMAT,2
METRIC
; #@! TA.AperFunction,Plated,PTH,ViaDrill
T1C0.300
; #@! TA.AperFunction,Plated,PTH,ViaDrill
T2C0.305
; #@! TA.AperFunction,Plated,PTH,ComponentDrill
T3C0.700
; #@! TA.AperFunction,Plated,PTH,ComponentDrill
T4C0.762
; #@! TA.AperFunction,Plated,PTH,ComponentDrill
T5C0.800
; #@! TA.AperFunction,Plated,PTH,ViaDrill
T6C0.900
; #@! TA.AperFunction,Plated,PTH,ComponentDrill
T7C0.900
; #@! TA.AperFunction,Plated,PTH,ComponentDrill
T8C1.000
; #@! TA.AperFunction,Plated,PTH,ComponentDrill
T9C1.100
; #@! TA.AperFunction,NonPlated,NPTH,ComponentDrill
T10C3.500
%
G90
G05
T1
X2.54Y49.53
X3.81Y50.165
X3.81Y11.43
X5.08Y48.895
X5.715Y12.7
X6.35Y46.99
X6.35Y13.97
X7.62Y47.625
X7.62Y14.605
X8.89Y46.355
X8.89Y13.335
X10.16Y48.26
X10.16Y16.51
X11.43Y45.085
X11.43Y12.065
X12.7Y45.72
X12.7Y17.145
X13.97Y43.815
X13.97Y10.795
X15.24Y44.45
X15.24Y15.24
X16.51Y22.225
X16.51Y15.875
X17.145Y50.8
X17.78Y43.18
X20.32Y67.31
X22.225Y60.96
X22.225Y50.8
X22.86Y63.5
X22.86Y50.165
X22.86Y47.625
X22.86Y42.545
X24.13Y50.165
X25.4Y48.895
X26.67Y48.895
X26.67Y33.655
X26.924Y27.261
X27.94Y63.5
X27.94Y50.8
X30.48Y48.26
X30.48Y33.655
X30.48Y24.13
X31.115Y50.8
X31.115Y34.29
X31.115Y27.305
X31.115Y19.05
X31.75Y49.53
X31.75Y33.655
X32.385Y48.26
X32.385Y46.99
X33.02Y46.355
X33.02Y34.29
X33.655Y43.815
X34.29Y48.895
X34.29Y25.4
X34.925Y43.815
X34.925Y16.51
X35.56Y49.53
X35.56Y27.305
X35.56Y21.59
X36.195Y45.72
X36.83Y48.26
X36.83Y14.605
X37.465Y53.34
X37.465Y41.275
X38.1Y45.72
X38.1Y22.86
X38.735Y53.34
X38.735Y19.685
X39.37Y38.735
X40.005Y41.275
X40.64Y44.45
X40.64Y41.91
X41.275Y42.545
X41.91Y40.005
X45.72Y34.29
X46.355Y38.1
X46.99Y37.465
X46.99Y33.655
X48.26Y24.765
X48.895Y24.13
X49.53Y50.8
X49.53Y39.37
X50.8Y52.07
X50.8Y50.165
X50.8Y40.64
X51.435Y10.795
X52.07Y43.815
X52.07Y41.275
X52.705Y28.575
X52.705Y14.605
X53.34Y60.96
X53.34Y43.18
X54.61Y46.99
X54.61Y35.56
X54.61Y15.24
X55.245Y43.18
X55.245Y41.275
X55.88Y69.215
X55.88Y62.23
X55.88Y40.005
X55.88Y29.21
X56.515Y45.085
X56.515Y41.91
X57.15Y50.165
X57.15Y45.72
X57.15Y37.465
X57.15Y24.765
X57.785Y45.085
X57.785Y43.815
X58.42Y50.8
X58.42Y27.305
X58.42Y21.59
X58.42Y20.32
X58.42Y11.43
X59.055Y24.13
X59.055Y22.86
X59.69Y18.415
X59.69Y8.89
X60.325Y38.735
X60.325Y34.925
X60.325Y26.035
X60.325Y22.86
X60.325Y19.685
X60.325Y15.875
X60.96Y69.215
X60.96Y49.53
X60.96Y43.815
X60.96Y20.955
X61.595Y39.37
X61.595Y37.465
X61.595Y21.59
X61.595Y20.32
X61.595Y16.51
X62.23Y38.1
X62.23Y26.67
X62.23Y9.525
X62.865Y54.61
X62.865Y48.895
X62.865Y44.45
X62.865Y39.37
X62.865Y22.225
X62.865Y16.51
X63.5Y60.96
X63.5Y57.15
X63.5Y48.26
X63.5Y42.545
X63.5Y36.83
X63.5Y33.655
X63.5Y27.305
X63.5Y26.035
X63.5Y24.13
X63.5Y13.97
X63.5Y12.065
X64.135Y34.925
X64.135Y23.495
X64.135Y12.7
X64.77Y50.8
X64.77Y47.625
X64.77Y26.035
X64.77Y20.32
X64.77Y17.78
X64.77Y9.525
X70.485Y34.925
X70.485Y26.035
X70.485Y23.495
X70.485Y20.32
X70.485Y18.415
X70.485Y12.7
X70.485Y11.43
X71.12Y16.51
X71.755Y41.275
X71.755Y26.035
X72.39Y52.07
X72.39Y43.18
X72.39Y41.91
X72.39Y27.94
X73.025Y24.765
X73.025Y15.24
X79.375Y48.895
X79.375Y19.685
X80.01Y20.32
X80.645Y12.7
X81.28Y16.51
X81.915Y19.05
X81.915Y11.43
X85.09Y38.1
X87.63Y50.8
X87.63Y25.4
X88.265Y39.37
X88.265Y35.56
X88.9Y45.72
X88.9Y40.64
X88.9Y34.29
X88.9Y19.05
X88.9Y10.16
X89.535Y62.23
X89.535Y48.26
X89.535Y46.99
X89.535Y25.4
X89.535Y22.86
X89.535Y8.89
X90.805Y17.78
T2
X88.9Y57.15
X90.805Y64.77
T3
X50.8Y67.31
X50.8Y59.69
X53.34Y67.31
X53.34Y59.69
X55.88Y67.31
X55.88Y59.69
X58.42Y67.31
X58.42Y59.69
X60.96Y67.31
X60.96Y59.69
T4
X2.54Y36.83
X2.54Y34.29
X2.54Y31.75
X2.54Y29.21
X2.54Y26.67
X2.54Y24.13
X5.08Y36.83
X5.08Y34.29
X5.08Y31.75
X5.08Y29.21
X5.08Y26.67
X5.08Y24.13
X7.62Y41.91
X7.62Y39.37
X7.62Y21.59
X7.62Y19.05
X10.16Y41.91
X10.16Y39.37
X10.16Y21.59
X10.16Y19.05
X12.7Y41.91
X12.7Y39.37
X12.7Y21.59
X12.7Y19.05
X15.24Y41.91
X15.24Y39.37
X15.24Y21.59
X15.24Y19.05
X17.78Y41.91
X17.78Y39.37
X17.78Y21.59
X17.78Y19.05
X20.32Y41.91
X20.32Y39.37
X20.32Y21.59
X20.32Y19.05
X22.86Y36.83
X22.86Y34.29
X22.86Y31.75
X22.86Y29.21
X22.86Y26.67
X22.86Y24.13
X25.4Y36.83
X25.4Y34.29
X25.4Y31.75
X25.4Y29.21
X25.4Y26.67
X25.4Y24.13
X38.1Y76.2
X38.1Y73.66
X38.1Y71.12
T5
X13.97Y31.71
X13.97Y29.21
X15.28Y66.04
X17.78Y66.04
X41.91Y52.07
X42.585Y29.235
X44.41Y52.07
X45.085Y29.235
X48.26Y67.31
X48.26Y59.69
X68.58Y67.31
X68.58Y64.77
X68.58Y62.23
X68.58Y59.69
X68.58Y57.15
X68.58Y54.61
X68.58Y52.07
X68.58Y49.53
X68.58Y46.99
X68.58Y44.45
X68.58Y41.91
X68.58Y39.37
X68.58Y36.83
X68.58Y34.29
X68.58Y31.75
X68.58Y29.21
X68.58Y26.67
X68.58Y24.13
X68.58Y21.59
X68.58Y19.05
X68.58Y16.51
X68.58Y13.97
X68.58Y11.43
X68.58Y8.89
X74.97Y43.18
X74.97Y22.86
X77.47Y43.18
X77.47Y22.86
X83.82Y67.31
X83.82Y64.77
X83.82Y62.23
X83.82Y59.69
X83.82Y57.15
X83.82Y54.61
X83.82Y52.07
X83.82Y49.53
X83.82Y46.99
X83.82Y44.45
X83.82Y41.91
X83.82Y39.37
X83.82Y36.83
X83.82Y34.29
X83.82Y31.75
X83.82Y29.21
X83.82Y26.67
X83.82Y24.13
X83.82Y21.59
X83.82Y19.05
X83.82Y16.51
X83.82Y13.97
X83.82Y11.43
X83.82Y8.89
T6
X20.32Y31.75
X20.32Y29.21
X28.575Y31.75
X28.575Y29.21
X41.91Y65.405
X45.034Y31.725
X45.059Y5.08
X74.905Y31.75
X77.419Y29.185
X77.47Y5.08
T7
X38.1Y64.77
X38.1Y62.23
T8
X17.78Y71.12
X20.32Y71.12
X22.86Y71.12
X25.4Y71.12
X27.94Y71.12
X30.48Y71.12
X45.72Y71.12
X48.26Y71.12
X50.8Y71.12
X53.34Y71.12
X55.88Y71.12
X58.42Y71.12
X60.96Y71.12
X63.5Y71.12
X66.04Y57.15
X66.04Y54.61
X66.04Y52.07
X66.04Y49.53
X66.04Y46.99
X66.04Y44.45
X66.04Y41.91
X66.04Y39.37
X66.04Y36.83
X66.04Y34.29
X66.04Y31.75
X66.04Y29.21
X66.04Y26.67
X66.04Y24.13
X66.04Y21.59
X66.04Y19.05
X66.04Y16.51
X66.04Y13.97
X66.04Y11.43
X66.04Y8.89
X73.66Y71.12
X76.2Y71.12
X78.74Y71.12
X81.28Y71.12
X83.82Y71.12
X86.36Y71.12
X86.36Y64.77
X86.36Y62.23
X86.36Y57.15
X86.36Y54.61
X86.36Y52.07
X86.36Y49.53
X86.36Y46.99
X86.36Y44.45
X86.36Y41.91
X86.36Y39.37
X86.36Y36.83
X86.36Y34.29
X86.36Y31.75
X86.36Y29.21
X86.36Y26.67
X86.36Y24.13
X86.36Y21.59
X86.36Y19.05
X86.36Y16.51
X86.36Y13.97
X86.36Y11.43
X86.36Y8.89
T9
X24.615Y65.46
X24.615Y60.96
X31.115Y65.46
X31.115Y60.96
T10
X5.08Y69.85
X5.08Y3.81
X93.98Y69.85
X93.98Y3.81
T8
G00X8.24Y58.785
M15
G01X8.24Y56.785
M16
G05
G00X10.24Y52.885
M15
G01X12.24Y52.885
M16
G05
G00X14.24Y59.035
M15
G01X14.24Y56.535
M16
G05
T0
M30
