M48
; DRILL file {KiCad (7.0.0)} date Sun Feb 26 03:04:36 2023
; FORMAT={-:-/ absolute / inch / decimal}
; #@! TF.CreationDate,2023-02-26T03:04:36+09:00
; #@! TF.GenerationSoftware,Kicad,Pcbnew,(7.0.0)
; #@! TF.FileFunction,MixedPlating,1,2
FMAT,2
INCH
; #@! TA.AperFunction,Plated,PTH,ViaDrill
T1C0.0118
; #@! TA.AperFunction,Plated,PTH,ViaDrill
T2C0.0120
; #@! TA.AperFunction,Plated,PTH,ComponentDrill
T3C0.0276
; #@! TA.AperFunction,Plated,PTH,ComponentDrill
T4C0.0300
; #@! TA.AperFunction,Plated,PTH,ComponentDrill
T5C0.0315
; #@! TA.AperFunction,Plated,PTH,ViaDrill
T6C0.0354
; #@! TA.AperFunction,Plated,PTH,ComponentDrill
T7C0.0354
; #@! TA.AperFunction,Plated,PTH,ComponentDrill
T8C0.0394
; #@! TA.AperFunction,Plated,PTH,ComponentDrill
T9C0.0433
; #@! TA.AperFunction,NonPlated,NPTH,ComponentDrill
T10C0.1378
%
G90
G05
T1
X0.1Y1.95
X0.15Y1.975
X0.15Y0.45
X0.2Y1.925
X0.225Y0.5
X0.25Y1.85
X0.25Y0.55
X0.3Y1.875
X0.3Y0.575
X0.35Y1.825
X0.35Y0.525
X0.4Y1.9
X0.4Y0.65
X0.45Y1.775
X0.45Y0.475
X0.5Y1.8
X0.5Y0.675
X0.55Y1.725
X0.55Y0.425
X0.6Y1.75
X0.6Y0.6
X0.65Y0.875
X0.65Y0.625
X0.675Y2.0
X0.7Y1.7
X0.9Y1.875
X0.9Y1.675
X0.975Y2.0
X1.05Y1.325
X1.06Y1.0733
X1.1Y2.0
X1.2Y1.325
X1.2Y0.95
X1.225Y2.0
X1.225Y1.35
X1.225Y1.075
X1.225Y0.75
X1.25Y1.95
X1.25Y1.325
X1.275Y1.85
X1.3Y1.825
X1.3Y1.35
X1.35Y1.925
X1.35Y1.0
X1.375Y0.65
X1.4Y1.95
X1.4Y1.075
X1.4Y0.85
X1.45Y1.9
X1.45Y0.575
X1.5Y1.8
X1.5Y0.9
X1.525Y0.775
X1.55Y1.525
X1.6Y1.75
X1.6Y1.65
X1.625Y1.675
X1.65Y1.575
X1.8Y1.35
X1.825Y1.5
X1.85Y1.475
X1.85Y1.325
X1.9Y0.975
X1.925Y0.95
X1.95Y2.0
X1.95Y1.55
X2.0Y2.05
X2.0Y1.975
X2.0Y1.6
X2.025Y0.425
X2.05Y1.725
X2.05Y1.625
X2.075Y1.125
X2.075Y0.575
X2.1Y2.4
X2.1Y1.7
X2.15Y1.85
X2.15Y1.4
X2.175Y1.7
X2.175Y1.625
X2.175Y1.575
X2.175Y1.15
X2.2Y2.725
X2.2Y2.45
X2.2Y1.975
X2.2Y1.8
X2.2Y0.6
X2.225Y1.775
X2.225Y1.65
X2.25Y1.475
X2.25Y0.975
X2.275Y1.775
X2.275Y1.725
X2.3Y2.0
X2.3Y1.075
X2.3Y0.85
X2.3Y0.8
X2.3Y0.45
X2.325Y0.95
X2.325Y0.9
X2.35Y0.725
X2.35Y0.35
X2.375Y1.525
X2.375Y1.375
X2.375Y1.025
X2.375Y0.9
X2.375Y0.775
X2.375Y0.625
X2.4Y2.725
X2.4Y1.95
X2.4Y1.725
X2.4Y0.825
X2.425Y1.55
X2.425Y1.475
X2.425Y0.85
X2.425Y0.8
X2.425Y0.65
X2.45Y1.5
X2.45Y1.05
X2.45Y0.375
X2.475Y2.15
X2.475Y1.925
X2.475Y1.75
X2.475Y1.55
X2.475Y0.875
X2.475Y0.65
X2.5Y2.4
X2.5Y2.25
X2.5Y1.9
X2.5Y1.675
X2.5Y1.45
X2.5Y1.325
X2.5Y1.075
X2.5Y1.025
X2.5Y0.95
X2.5Y0.55
X2.5Y0.475
X2.525Y1.375
X2.525Y0.925
X2.525Y0.5
X2.55Y2.0
X2.55Y1.875
X2.55Y1.025
X2.55Y0.8
X2.55Y0.7
X2.55Y0.375
X2.775Y1.375
X2.775Y1.025
X2.775Y0.925
X2.775Y0.8
X2.775Y0.725
X2.775Y0.5
X2.775Y0.45
X2.8Y0.65
X2.825Y1.625
X2.825Y1.025
X2.85Y2.05
X2.85Y1.7
X2.85Y1.65
X2.85Y1.1
X2.875Y0.975
X2.875Y0.6
X3.125Y1.925
X3.125Y0.775
X3.15Y0.8
X3.175Y0.5
X3.2Y0.65
X3.225Y0.75
X3.225Y0.45
X3.35Y1.5
X3.45Y2.0
X3.45Y1.0
X3.475Y1.55
X3.475Y1.4
X3.5Y1.8
X3.5Y1.6
X3.5Y1.35
X3.5Y0.75
X3.5Y0.4
X3.525Y2.45
X3.525Y1.9
X3.525Y1.85
X3.525Y1.0
X3.525Y0.9
X3.525Y0.35
X3.575Y0.7
T2
X3.5Y2.25
X3.575Y2.55
T3
X2.0Y2.65
X2.0Y2.35
X2.1Y2.65
X2.1Y2.35
X2.2Y2.65
X2.2Y2.35
X2.3Y2.65
X2.3Y2.35
X2.4Y2.65
X2.4Y2.35
T4
X0.1Y1.45
X0.1Y1.35
X0.1Y1.25
X0.1Y1.15
X0.1Y1.05
X0.1Y0.95
X0.2Y1.45
X0.2Y1.35
X0.2Y1.25
X0.2Y1.15
X0.2Y1.05
X0.2Y0.95
X0.3Y1.65
X0.3Y1.55
X0.3Y0.85
X0.3Y0.75
X0.4Y1.65
X0.4Y1.55
X0.4Y0.85
X0.4Y0.75
X0.5Y1.65
X0.5Y1.55
X0.5Y0.85
X0.5Y0.75
X0.6Y1.65
X0.6Y1.55
X0.6Y0.85
X0.6Y0.75
X0.7Y1.65
X0.7Y1.55
X0.7Y0.85
X0.7Y0.75
X0.8Y1.65
X0.8Y1.55
X0.8Y0.85
X0.8Y0.75
X0.9Y1.45
X0.9Y1.35
X0.9Y1.25
X0.9Y1.15
X0.9Y1.05
X0.9Y0.95
X1.0Y1.45
X1.0Y1.35
X1.0Y1.25
X1.0Y1.15
X1.0Y1.05
X1.0Y0.95
X1.5Y3.0
X1.5Y2.9
X1.5Y2.8
T5
X0.55Y1.2484
X0.55Y1.15
X0.6016Y2.6
X0.7Y2.6
X1.65Y2.05
X1.6766Y1.151
X1.7484Y2.05
X1.775Y1.151
X1.9Y2.65
X1.9Y2.35
X2.7Y2.65
X2.7Y2.55
X2.7Y2.45
X2.7Y2.35
X2.7Y2.25
X2.7Y2.15
X2.7Y2.05
X2.7Y1.95
X2.7Y1.85
X2.7Y1.75
X2.7Y1.65
X2.7Y1.55
X2.7Y1.45
X2.7Y1.35
X2.7Y1.25
X2.7Y1.15
X2.7Y1.05
X2.7Y0.95
X2.7Y0.85
X2.7Y0.75
X2.7Y0.65
X2.7Y0.55
X2.7Y0.45
X2.7Y0.35
X2.9516Y1.7
X2.9516Y0.9
X3.05Y1.7
X3.05Y0.9
X3.3Y2.65
X3.3Y2.55
X3.3Y2.45
X3.3Y2.35
X3.3Y2.25
X3.3Y2.15
X3.3Y2.05
X3.3Y1.95
X3.3Y1.85
X3.3Y1.75
X3.3Y1.65
X3.3Y1.55
X3.3Y1.45
X3.3Y1.35
X3.3Y1.25
X3.3Y1.15
X3.3Y1.05
X3.3Y0.95
X3.3Y0.85
X3.3Y0.75
X3.3Y0.65
X3.3Y0.55
X3.3Y0.45
X3.3Y0.35
T6
X0.8Y1.25
X0.8Y1.15
X1.125Y1.25
X1.125Y1.15
X1.65Y2.575
X1.773Y1.249
X1.774Y0.2
X2.949Y1.25
X3.048Y1.149
X3.05Y0.2
T7
X1.5Y2.55
X1.5Y2.45
T8
X0.7Y2.8
X0.8Y2.8
X0.9Y2.8
X1.0Y2.8
X1.1Y2.8
X1.2Y2.8
X1.8Y2.8
X1.9Y2.8
X2.0Y2.8
X2.1Y2.8
X2.2Y2.8
X2.3Y2.8
X2.4Y2.8
X2.5Y2.8
X2.6Y2.25
X2.6Y2.15
X2.6Y2.05
X2.6Y1.95
X2.6Y1.85
X2.6Y1.75
X2.6Y1.65
X2.6Y1.55
X2.6Y1.45
X2.6Y1.35
X2.6Y1.25
X2.6Y1.15
X2.6Y1.05
X2.6Y0.95
X2.6Y0.85
X2.6Y0.75
X2.6Y0.65
X2.6Y0.55
X2.6Y0.45
X2.6Y0.35
X2.9Y2.8
X3.0Y2.8
X3.1Y2.8
X3.2Y2.8
X3.3Y2.8
X3.4Y2.8
X3.4Y2.55
X3.4Y2.45
X3.4Y2.25
X3.4Y2.15
X3.4Y2.05
X3.4Y1.95
X3.4Y1.85
X3.4Y1.75
X3.4Y1.65
X3.4Y1.55
X3.4Y1.45
X3.4Y1.35
X3.4Y1.25
X3.4Y1.15
X3.4Y1.05
X3.4Y0.95
X3.4Y0.85
X3.4Y0.75
X3.4Y0.65
X3.4Y0.55
X3.4Y0.45
X3.4Y0.35
T9
X0.9691Y2.5772
X0.9691Y2.4
X1.225Y2.5772
X1.225Y2.4
T10
X0.2Y2.75
X0.2Y0.15
X3.7Y2.75
X3.7Y0.15
T8
G00X0.3244Y2.3144
M15
G01X0.3244Y2.2356
M16
G05
G00X0.4031Y2.0821
M15
G01X0.4819Y2.0821
M16
G05
G00X0.5606Y2.3242
M15
G01X0.5606Y2.2258
M16
G05
T0
M30
