G04 #@! TF.GenerationSoftware,KiCad,Pcbnew,(7.0.0)*
G04 #@! TF.CreationDate,2023-02-26T03:03:27+09:00*
G04 #@! TF.ProjectId,EMUPU_RAM,454d5550-555f-4524-914d-2e6b69636164,rev?*
G04 #@! TF.SameCoordinates,PX4fefde0PY8670810*
G04 #@! TF.FileFunction,Legend,Top*
G04 #@! TF.FilePolarity,Positive*
%FSLAX46Y46*%
G04 Gerber Fmt 4.6, Leading zero omitted, Abs format (unit mm)*
G04 Created by KiCad (PCBNEW (7.0.0)) date 2023-02-26 03:03:27*
%MOMM*%
%LPD*%
G01*
G04 APERTURE LIST*
%ADD10C,0.150000*%
%ADD11C,0.120000*%
G04 APERTURE END LIST*
D10*
G36*
X67417461Y70133308D02*
G01*
X65512461Y71149308D01*
X67417461Y72419308D01*
X67417461Y70133308D01*
G37*
X67417461Y70133308D02*
X65512461Y71149308D01*
X67417461Y72419308D01*
X67417461Y70133308D01*
X48097619Y80981905D02*
X49097619Y80981905D01*
X49097619Y80981905D02*
X48097619Y80410477D01*
X48097619Y80410477D02*
X49097619Y80410477D01*
X48192857Y79362858D02*
X48145238Y79410477D01*
X48145238Y79410477D02*
X48097619Y79553334D01*
X48097619Y79553334D02*
X48097619Y79648572D01*
X48097619Y79648572D02*
X48145238Y79791429D01*
X48145238Y79791429D02*
X48240476Y79886667D01*
X48240476Y79886667D02*
X48335714Y79934286D01*
X48335714Y79934286D02*
X48526190Y79981905D01*
X48526190Y79981905D02*
X48669047Y79981905D01*
X48669047Y79981905D02*
X48859523Y79934286D01*
X48859523Y79934286D02*
X48954761Y79886667D01*
X48954761Y79886667D02*
X49050000Y79791429D01*
X49050000Y79791429D02*
X49097619Y79648572D01*
X49097619Y79648572D02*
X49097619Y79553334D01*
X49097619Y79553334D02*
X49050000Y79410477D01*
X49050000Y79410477D02*
X49002380Y79362858D01*
X42127619Y79136905D02*
X43127619Y79136905D01*
X43127619Y79136905D02*
X42413333Y78803572D01*
X42413333Y78803572D02*
X43127619Y78470239D01*
X43127619Y78470239D02*
X42127619Y78470239D01*
X42127619Y77994048D02*
X43127619Y77994048D01*
X43127619Y77994048D02*
X43127619Y77613096D01*
X43127619Y77613096D02*
X43080000Y77517858D01*
X43080000Y77517858D02*
X43032380Y77470239D01*
X43032380Y77470239D02*
X42937142Y77422620D01*
X42937142Y77422620D02*
X42794285Y77422620D01*
X42794285Y77422620D02*
X42699047Y77470239D01*
X42699047Y77470239D02*
X42651428Y77517858D01*
X42651428Y77517858D02*
X42603809Y77613096D01*
X42603809Y77613096D02*
X42603809Y77994048D01*
X42127619Y76517858D02*
X42127619Y76994048D01*
X42127619Y76994048D02*
X43127619Y76994048D01*
X42413333Y76232143D02*
X42413333Y75755953D01*
X42127619Y76327381D02*
X43127619Y75994048D01*
X43127619Y75994048D02*
X42127619Y75660715D01*
X42651428Y74994048D02*
X42603809Y74851191D01*
X42603809Y74851191D02*
X42556190Y74803572D01*
X42556190Y74803572D02*
X42460952Y74755953D01*
X42460952Y74755953D02*
X42318095Y74755953D01*
X42318095Y74755953D02*
X42222857Y74803572D01*
X42222857Y74803572D02*
X42175238Y74851191D01*
X42175238Y74851191D02*
X42127619Y74946429D01*
X42127619Y74946429D02*
X42127619Y75327381D01*
X42127619Y75327381D02*
X43127619Y75327381D01*
X43127619Y75327381D02*
X43127619Y74994048D01*
X43127619Y74994048D02*
X43080000Y74898810D01*
X43080000Y74898810D02*
X43032380Y74851191D01*
X43032380Y74851191D02*
X42937142Y74803572D01*
X42937142Y74803572D02*
X42841904Y74803572D01*
X42841904Y74803572D02*
X42746666Y74851191D01*
X42746666Y74851191D02*
X42699047Y74898810D01*
X42699047Y74898810D02*
X42651428Y74994048D01*
X42651428Y74994048D02*
X42651428Y75327381D01*
X42175238Y73775000D02*
X42127619Y73632143D01*
X42127619Y73632143D02*
X42127619Y73394048D01*
X42127619Y73394048D02*
X42175238Y73298810D01*
X42175238Y73298810D02*
X42222857Y73251191D01*
X42222857Y73251191D02*
X42318095Y73203572D01*
X42318095Y73203572D02*
X42413333Y73203572D01*
X42413333Y73203572D02*
X42508571Y73251191D01*
X42508571Y73251191D02*
X42556190Y73298810D01*
X42556190Y73298810D02*
X42603809Y73394048D01*
X42603809Y73394048D02*
X42651428Y73584524D01*
X42651428Y73584524D02*
X42699047Y73679762D01*
X42699047Y73679762D02*
X42746666Y73727381D01*
X42746666Y73727381D02*
X42841904Y73775000D01*
X42841904Y73775000D02*
X42937142Y73775000D01*
X42937142Y73775000D02*
X43032380Y73727381D01*
X43032380Y73727381D02*
X43080000Y73679762D01*
X43080000Y73679762D02*
X43127619Y73584524D01*
X43127619Y73584524D02*
X43127619Y73346429D01*
X43127619Y73346429D02*
X43080000Y73203572D01*
X42127619Y72775000D02*
X43127619Y72775000D01*
X43127619Y72775000D02*
X42127619Y72203572D01*
X42127619Y72203572D02*
X43127619Y72203572D01*
X42413333Y71775000D02*
X42413333Y71298810D01*
X42127619Y71870238D02*
X43127619Y71536905D01*
X43127619Y71536905D02*
X42127619Y71203572D01*
X42127619Y70870238D02*
X43127619Y70870238D01*
X43127619Y70870238D02*
X43127619Y70489286D01*
X43127619Y70489286D02*
X43080000Y70394048D01*
X43080000Y70394048D02*
X43032380Y70346429D01*
X43032380Y70346429D02*
X42937142Y70298810D01*
X42937142Y70298810D02*
X42794285Y70298810D01*
X42794285Y70298810D02*
X42699047Y70346429D01*
X42699047Y70346429D02*
X42651428Y70394048D01*
X42651428Y70394048D02*
X42603809Y70489286D01*
X42603809Y70489286D02*
X42603809Y70870238D01*
X45557619Y80981905D02*
X46557619Y80981905D01*
X46557619Y80981905D02*
X45557619Y80410477D01*
X45557619Y80410477D02*
X46557619Y80410477D01*
X45652857Y79362858D02*
X45605238Y79410477D01*
X45605238Y79410477D02*
X45557619Y79553334D01*
X45557619Y79553334D02*
X45557619Y79648572D01*
X45557619Y79648572D02*
X45605238Y79791429D01*
X45605238Y79791429D02*
X45700476Y79886667D01*
X45700476Y79886667D02*
X45795714Y79934286D01*
X45795714Y79934286D02*
X45986190Y79981905D01*
X45986190Y79981905D02*
X46129047Y79981905D01*
X46129047Y79981905D02*
X46319523Y79934286D01*
X46319523Y79934286D02*
X46414761Y79886667D01*
X46414761Y79886667D02*
X46510000Y79791429D01*
X46510000Y79791429D02*
X46557619Y79648572D01*
X46557619Y79648572D02*
X46557619Y79553334D01*
X46557619Y79553334D02*
X46510000Y79410477D01*
X46510000Y79410477D02*
X46462380Y79362858D01*
X70115238Y79184524D02*
X70067619Y79041667D01*
X70067619Y79041667D02*
X70067619Y78803572D01*
X70067619Y78803572D02*
X70115238Y78708334D01*
X70115238Y78708334D02*
X70162857Y78660715D01*
X70162857Y78660715D02*
X70258095Y78613096D01*
X70258095Y78613096D02*
X70353333Y78613096D01*
X70353333Y78613096D02*
X70448571Y78660715D01*
X70448571Y78660715D02*
X70496190Y78708334D01*
X70496190Y78708334D02*
X70543809Y78803572D01*
X70543809Y78803572D02*
X70591428Y78994048D01*
X70591428Y78994048D02*
X70639047Y79089286D01*
X70639047Y79089286D02*
X70686666Y79136905D01*
X70686666Y79136905D02*
X70781904Y79184524D01*
X70781904Y79184524D02*
X70877142Y79184524D01*
X70877142Y79184524D02*
X70972380Y79136905D01*
X70972380Y79136905D02*
X71020000Y79089286D01*
X71020000Y79089286D02*
X71067619Y78994048D01*
X71067619Y78994048D02*
X71067619Y78755953D01*
X71067619Y78755953D02*
X71020000Y78613096D01*
X70067619Y78184524D02*
X71067619Y78184524D01*
X71067619Y78184524D02*
X71067619Y77946429D01*
X71067619Y77946429D02*
X71020000Y77803572D01*
X71020000Y77803572D02*
X70924761Y77708334D01*
X70924761Y77708334D02*
X70829523Y77660715D01*
X70829523Y77660715D02*
X70639047Y77613096D01*
X70639047Y77613096D02*
X70496190Y77613096D01*
X70496190Y77613096D02*
X70305714Y77660715D01*
X70305714Y77660715D02*
X70210476Y77708334D01*
X70210476Y77708334D02*
X70115238Y77803572D01*
X70115238Y77803572D02*
X70067619Y77946429D01*
X70067619Y77946429D02*
X70067619Y78184524D01*
X70162857Y76613096D02*
X70115238Y76660715D01*
X70115238Y76660715D02*
X70067619Y76803572D01*
X70067619Y76803572D02*
X70067619Y76898810D01*
X70067619Y76898810D02*
X70115238Y77041667D01*
X70115238Y77041667D02*
X70210476Y77136905D01*
X70210476Y77136905D02*
X70305714Y77184524D01*
X70305714Y77184524D02*
X70496190Y77232143D01*
X70496190Y77232143D02*
X70639047Y77232143D01*
X70639047Y77232143D02*
X70829523Y77184524D01*
X70829523Y77184524D02*
X70924761Y77136905D01*
X70924761Y77136905D02*
X71020000Y77041667D01*
X71020000Y77041667D02*
X71067619Y76898810D01*
X71067619Y76898810D02*
X71067619Y76803572D01*
X71067619Y76803572D02*
X71020000Y76660715D01*
X71020000Y76660715D02*
X70972380Y76613096D01*
X70067619Y75755953D02*
X70591428Y75755953D01*
X70591428Y75755953D02*
X70686666Y75803572D01*
X70686666Y75803572D02*
X70734285Y75898810D01*
X70734285Y75898810D02*
X70734285Y76089286D01*
X70734285Y76089286D02*
X70686666Y76184524D01*
X70115238Y75755953D02*
X70067619Y75851191D01*
X70067619Y75851191D02*
X70067619Y76089286D01*
X70067619Y76089286D02*
X70115238Y76184524D01*
X70115238Y76184524D02*
X70210476Y76232143D01*
X70210476Y76232143D02*
X70305714Y76232143D01*
X70305714Y76232143D02*
X70400952Y76184524D01*
X70400952Y76184524D02*
X70448571Y76089286D01*
X70448571Y76089286D02*
X70448571Y75851191D01*
X70448571Y75851191D02*
X70496190Y75755953D01*
X70067619Y75279762D02*
X70734285Y75279762D01*
X70543809Y75279762D02*
X70639047Y75232143D01*
X70639047Y75232143D02*
X70686666Y75184524D01*
X70686666Y75184524D02*
X70734285Y75089286D01*
X70734285Y75089286D02*
X70734285Y74994048D01*
X70067619Y74232143D02*
X71067619Y74232143D01*
X70115238Y74232143D02*
X70067619Y74327381D01*
X70067619Y74327381D02*
X70067619Y74517857D01*
X70067619Y74517857D02*
X70115238Y74613095D01*
X70115238Y74613095D02*
X70162857Y74660714D01*
X70162857Y74660714D02*
X70258095Y74708333D01*
X70258095Y74708333D02*
X70543809Y74708333D01*
X70543809Y74708333D02*
X70639047Y74660714D01*
X70639047Y74660714D02*
X70686666Y74613095D01*
X70686666Y74613095D02*
X70734285Y74517857D01*
X70734285Y74517857D02*
X70734285Y74327381D01*
X70734285Y74327381D02*
X70686666Y74232143D01*
X50637619Y80981905D02*
X51637619Y80981905D01*
X51637619Y80981905D02*
X51637619Y80743810D01*
X51637619Y80743810D02*
X51590000Y80600953D01*
X51590000Y80600953D02*
X51494761Y80505715D01*
X51494761Y80505715D02*
X51399523Y80458096D01*
X51399523Y80458096D02*
X51209047Y80410477D01*
X51209047Y80410477D02*
X51066190Y80410477D01*
X51066190Y80410477D02*
X50875714Y80458096D01*
X50875714Y80458096D02*
X50780476Y80505715D01*
X50780476Y80505715D02*
X50685238Y80600953D01*
X50685238Y80600953D02*
X50637619Y80743810D01*
X50637619Y80743810D02*
X50637619Y80981905D01*
X51637619Y79791429D02*
X51637619Y79600953D01*
X51637619Y79600953D02*
X51590000Y79505715D01*
X51590000Y79505715D02*
X51494761Y79410477D01*
X51494761Y79410477D02*
X51304285Y79362858D01*
X51304285Y79362858D02*
X50970952Y79362858D01*
X50970952Y79362858D02*
X50780476Y79410477D01*
X50780476Y79410477D02*
X50685238Y79505715D01*
X50685238Y79505715D02*
X50637619Y79600953D01*
X50637619Y79600953D02*
X50637619Y79791429D01*
X50637619Y79791429D02*
X50685238Y79886667D01*
X50685238Y79886667D02*
X50780476Y79981905D01*
X50780476Y79981905D02*
X50970952Y80029524D01*
X50970952Y80029524D02*
X51304285Y80029524D01*
X51304285Y80029524D02*
X51494761Y79981905D01*
X51494761Y79981905D02*
X51590000Y79886667D01*
X51590000Y79886667D02*
X51637619Y79791429D01*
X50637619Y78934286D02*
X51637619Y78934286D01*
X51637619Y78934286D02*
X50637619Y78362858D01*
X50637619Y78362858D02*
X51637619Y78362858D01*
X51637619Y78029524D02*
X51637619Y77458096D01*
X50637619Y77743810D02*
X51637619Y77743810D01*
X50732857Y76553334D02*
X50685238Y76600953D01*
X50685238Y76600953D02*
X50637619Y76743810D01*
X50637619Y76743810D02*
X50637619Y76839048D01*
X50637619Y76839048D02*
X50685238Y76981905D01*
X50685238Y76981905D02*
X50780476Y77077143D01*
X50780476Y77077143D02*
X50875714Y77124762D01*
X50875714Y77124762D02*
X51066190Y77172381D01*
X51066190Y77172381D02*
X51209047Y77172381D01*
X51209047Y77172381D02*
X51399523Y77124762D01*
X51399523Y77124762D02*
X51494761Y77077143D01*
X51494761Y77077143D02*
X51590000Y76981905D01*
X51590000Y76981905D02*
X51637619Y76839048D01*
X51637619Y76839048D02*
X51637619Y76743810D01*
X51637619Y76743810D02*
X51590000Y76600953D01*
X51590000Y76600953D02*
X51542380Y76553334D01*
X76147619Y81184762D02*
X75147619Y80851429D01*
X75147619Y80851429D02*
X76147619Y80518096D01*
X75242857Y79613334D02*
X75195238Y79660953D01*
X75195238Y79660953D02*
X75147619Y79803810D01*
X75147619Y79803810D02*
X75147619Y79899048D01*
X75147619Y79899048D02*
X75195238Y80041905D01*
X75195238Y80041905D02*
X75290476Y80137143D01*
X75290476Y80137143D02*
X75385714Y80184762D01*
X75385714Y80184762D02*
X75576190Y80232381D01*
X75576190Y80232381D02*
X75719047Y80232381D01*
X75719047Y80232381D02*
X75909523Y80184762D01*
X75909523Y80184762D02*
X76004761Y80137143D01*
X76004761Y80137143D02*
X76100000Y80041905D01*
X76100000Y80041905D02*
X76147619Y79899048D01*
X76147619Y79899048D02*
X76147619Y79803810D01*
X76147619Y79803810D02*
X76100000Y79660953D01*
X76100000Y79660953D02*
X76052380Y79613334D01*
X75242857Y78613334D02*
X75195238Y78660953D01*
X75195238Y78660953D02*
X75147619Y78803810D01*
X75147619Y78803810D02*
X75147619Y78899048D01*
X75147619Y78899048D02*
X75195238Y79041905D01*
X75195238Y79041905D02*
X75290476Y79137143D01*
X75290476Y79137143D02*
X75385714Y79184762D01*
X75385714Y79184762D02*
X75576190Y79232381D01*
X75576190Y79232381D02*
X75719047Y79232381D01*
X75719047Y79232381D02*
X75909523Y79184762D01*
X75909523Y79184762D02*
X76004761Y79137143D01*
X76004761Y79137143D02*
X76100000Y79041905D01*
X76100000Y79041905D02*
X76147619Y78899048D01*
X76147619Y78899048D02*
X76147619Y78803810D01*
X76147619Y78803810D02*
X76100000Y78660953D01*
X76100000Y78660953D02*
X76052380Y78613334D01*
X12613333Y3506429D02*
X12946666Y3506429D01*
X13089523Y2982620D02*
X12613333Y2982620D01*
X12613333Y2982620D02*
X12613333Y3982620D01*
X12613333Y3982620D02*
X13089523Y3982620D01*
X13518095Y2982620D02*
X13518095Y3982620D01*
X13518095Y3982620D02*
X13851428Y3268334D01*
X13851428Y3268334D02*
X14184761Y3982620D01*
X14184761Y3982620D02*
X14184761Y2982620D01*
X14660952Y3982620D02*
X14660952Y3173096D01*
X14660952Y3173096D02*
X14708571Y3077858D01*
X14708571Y3077858D02*
X14756190Y3030239D01*
X14756190Y3030239D02*
X14851428Y2982620D01*
X14851428Y2982620D02*
X15041904Y2982620D01*
X15041904Y2982620D02*
X15137142Y3030239D01*
X15137142Y3030239D02*
X15184761Y3077858D01*
X15184761Y3077858D02*
X15232380Y3173096D01*
X15232380Y3173096D02*
X15232380Y3982620D01*
X15708571Y2982620D02*
X15708571Y3982620D01*
X15708571Y3982620D02*
X16089523Y3982620D01*
X16089523Y3982620D02*
X16184761Y3935000D01*
X16184761Y3935000D02*
X16232380Y3887381D01*
X16232380Y3887381D02*
X16279999Y3792143D01*
X16279999Y3792143D02*
X16279999Y3649286D01*
X16279999Y3649286D02*
X16232380Y3554048D01*
X16232380Y3554048D02*
X16184761Y3506429D01*
X16184761Y3506429D02*
X16089523Y3458810D01*
X16089523Y3458810D02*
X15708571Y3458810D01*
X16708571Y3982620D02*
X16708571Y3173096D01*
X16708571Y3173096D02*
X16756190Y3077858D01*
X16756190Y3077858D02*
X16803809Y3030239D01*
X16803809Y3030239D02*
X16899047Y2982620D01*
X16899047Y2982620D02*
X17089523Y2982620D01*
X17089523Y2982620D02*
X17184761Y3030239D01*
X17184761Y3030239D02*
X17232380Y3077858D01*
X17232380Y3077858D02*
X17279999Y3173096D01*
X17279999Y3173096D02*
X17279999Y3982620D01*
X17518095Y2887381D02*
X18279999Y2887381D01*
X19089523Y2982620D02*
X18756190Y3458810D01*
X18518095Y2982620D02*
X18518095Y3982620D01*
X18518095Y3982620D02*
X18899047Y3982620D01*
X18899047Y3982620D02*
X18994285Y3935000D01*
X18994285Y3935000D02*
X19041904Y3887381D01*
X19041904Y3887381D02*
X19089523Y3792143D01*
X19089523Y3792143D02*
X19089523Y3649286D01*
X19089523Y3649286D02*
X19041904Y3554048D01*
X19041904Y3554048D02*
X18994285Y3506429D01*
X18994285Y3506429D02*
X18899047Y3458810D01*
X18899047Y3458810D02*
X18518095Y3458810D01*
X19470476Y3268334D02*
X19946666Y3268334D01*
X19375238Y2982620D02*
X19708571Y3982620D01*
X19708571Y3982620D02*
X20041904Y2982620D01*
X20375238Y2982620D02*
X20375238Y3982620D01*
X20375238Y3982620D02*
X20708571Y3268334D01*
X20708571Y3268334D02*
X21041904Y3982620D01*
X21041904Y3982620D02*
X21041904Y2982620D01*
X21946666Y3649286D02*
X21946666Y2982620D01*
X21708571Y4030239D02*
X21470476Y3315953D01*
X21470476Y3315953D02*
X22089523Y3315953D01*
X22613333Y3554048D02*
X22518095Y3601667D01*
X22518095Y3601667D02*
X22470476Y3649286D01*
X22470476Y3649286D02*
X22422857Y3744524D01*
X22422857Y3744524D02*
X22422857Y3792143D01*
X22422857Y3792143D02*
X22470476Y3887381D01*
X22470476Y3887381D02*
X22518095Y3935000D01*
X22518095Y3935000D02*
X22613333Y3982620D01*
X22613333Y3982620D02*
X22803809Y3982620D01*
X22803809Y3982620D02*
X22899047Y3935000D01*
X22899047Y3935000D02*
X22946666Y3887381D01*
X22946666Y3887381D02*
X22994285Y3792143D01*
X22994285Y3792143D02*
X22994285Y3744524D01*
X22994285Y3744524D02*
X22946666Y3649286D01*
X22946666Y3649286D02*
X22899047Y3601667D01*
X22899047Y3601667D02*
X22803809Y3554048D01*
X22803809Y3554048D02*
X22613333Y3554048D01*
X22613333Y3554048D02*
X22518095Y3506429D01*
X22518095Y3506429D02*
X22470476Y3458810D01*
X22470476Y3458810D02*
X22422857Y3363572D01*
X22422857Y3363572D02*
X22422857Y3173096D01*
X22422857Y3173096D02*
X22470476Y3077858D01*
X22470476Y3077858D02*
X22518095Y3030239D01*
X22518095Y3030239D02*
X22613333Y2982620D01*
X22613333Y2982620D02*
X22803809Y2982620D01*
X22803809Y2982620D02*
X22899047Y3030239D01*
X22899047Y3030239D02*
X22946666Y3077858D01*
X22946666Y3077858D02*
X22994285Y3173096D01*
X22994285Y3173096D02*
X22994285Y3363572D01*
X22994285Y3363572D02*
X22946666Y3458810D01*
X22946666Y3458810D02*
X22899047Y3506429D01*
X22899047Y3506429D02*
X22803809Y3554048D01*
X10118095Y981667D02*
X10070476Y1029286D01*
X10070476Y1029286D02*
X9975238Y1172143D01*
X9975238Y1172143D02*
X9927619Y1267381D01*
X9927619Y1267381D02*
X9880000Y1410239D01*
X9880000Y1410239D02*
X9832381Y1648334D01*
X9832381Y1648334D02*
X9832381Y1838810D01*
X9832381Y1838810D02*
X9880000Y2076905D01*
X9880000Y2076905D02*
X9927619Y2219762D01*
X9927619Y2219762D02*
X9975238Y2315000D01*
X9975238Y2315000D02*
X10070476Y2457858D01*
X10070476Y2457858D02*
X10118095Y2505477D01*
X11070476Y1457858D02*
X11022857Y1410239D01*
X11022857Y1410239D02*
X10880000Y1362620D01*
X10880000Y1362620D02*
X10784762Y1362620D01*
X10784762Y1362620D02*
X10641905Y1410239D01*
X10641905Y1410239D02*
X10546667Y1505477D01*
X10546667Y1505477D02*
X10499048Y1600715D01*
X10499048Y1600715D02*
X10451429Y1791191D01*
X10451429Y1791191D02*
X10451429Y1934048D01*
X10451429Y1934048D02*
X10499048Y2124524D01*
X10499048Y2124524D02*
X10546667Y2219762D01*
X10546667Y2219762D02*
X10641905Y2315000D01*
X10641905Y2315000D02*
X10784762Y2362620D01*
X10784762Y2362620D02*
X10880000Y2362620D01*
X10880000Y2362620D02*
X11022857Y2315000D01*
X11022857Y2315000D02*
X11070476Y2267381D01*
X11403810Y981667D02*
X11451429Y1029286D01*
X11451429Y1029286D02*
X11546667Y1172143D01*
X11546667Y1172143D02*
X11594286Y1267381D01*
X11594286Y1267381D02*
X11641905Y1410239D01*
X11641905Y1410239D02*
X11689524Y1648334D01*
X11689524Y1648334D02*
X11689524Y1838810D01*
X11689524Y1838810D02*
X11641905Y2076905D01*
X11641905Y2076905D02*
X11594286Y2219762D01*
X11594286Y2219762D02*
X11546667Y2315000D01*
X11546667Y2315000D02*
X11451429Y2457858D01*
X11451429Y2457858D02*
X11403810Y2505477D01*
X12718096Y2267381D02*
X12765715Y2315000D01*
X12765715Y2315000D02*
X12860953Y2362620D01*
X12860953Y2362620D02*
X13099048Y2362620D01*
X13099048Y2362620D02*
X13194286Y2315000D01*
X13194286Y2315000D02*
X13241905Y2267381D01*
X13241905Y2267381D02*
X13289524Y2172143D01*
X13289524Y2172143D02*
X13289524Y2076905D01*
X13289524Y2076905D02*
X13241905Y1934048D01*
X13241905Y1934048D02*
X12670477Y1362620D01*
X12670477Y1362620D02*
X13289524Y1362620D01*
X13908572Y2362620D02*
X14003810Y2362620D01*
X14003810Y2362620D02*
X14099048Y2315000D01*
X14099048Y2315000D02*
X14146667Y2267381D01*
X14146667Y2267381D02*
X14194286Y2172143D01*
X14194286Y2172143D02*
X14241905Y1981667D01*
X14241905Y1981667D02*
X14241905Y1743572D01*
X14241905Y1743572D02*
X14194286Y1553096D01*
X14194286Y1553096D02*
X14146667Y1457858D01*
X14146667Y1457858D02*
X14099048Y1410239D01*
X14099048Y1410239D02*
X14003810Y1362620D01*
X14003810Y1362620D02*
X13908572Y1362620D01*
X13908572Y1362620D02*
X13813334Y1410239D01*
X13813334Y1410239D02*
X13765715Y1457858D01*
X13765715Y1457858D02*
X13718096Y1553096D01*
X13718096Y1553096D02*
X13670477Y1743572D01*
X13670477Y1743572D02*
X13670477Y1981667D01*
X13670477Y1981667D02*
X13718096Y2172143D01*
X13718096Y2172143D02*
X13765715Y2267381D01*
X13765715Y2267381D02*
X13813334Y2315000D01*
X13813334Y2315000D02*
X13908572Y2362620D01*
X14622858Y2267381D02*
X14670477Y2315000D01*
X14670477Y2315000D02*
X14765715Y2362620D01*
X14765715Y2362620D02*
X15003810Y2362620D01*
X15003810Y2362620D02*
X15099048Y2315000D01*
X15099048Y2315000D02*
X15146667Y2267381D01*
X15146667Y2267381D02*
X15194286Y2172143D01*
X15194286Y2172143D02*
X15194286Y2076905D01*
X15194286Y2076905D02*
X15146667Y1934048D01*
X15146667Y1934048D02*
X14575239Y1362620D01*
X14575239Y1362620D02*
X15194286Y1362620D01*
X15527620Y2362620D02*
X16146667Y2362620D01*
X16146667Y2362620D02*
X15813334Y1981667D01*
X15813334Y1981667D02*
X15956191Y1981667D01*
X15956191Y1981667D02*
X16051429Y1934048D01*
X16051429Y1934048D02*
X16099048Y1886429D01*
X16099048Y1886429D02*
X16146667Y1791191D01*
X16146667Y1791191D02*
X16146667Y1553096D01*
X16146667Y1553096D02*
X16099048Y1457858D01*
X16099048Y1457858D02*
X16051429Y1410239D01*
X16051429Y1410239D02*
X15956191Y1362620D01*
X15956191Y1362620D02*
X15670477Y1362620D01*
X15670477Y1362620D02*
X15575239Y1410239D01*
X15575239Y1410239D02*
X15527620Y1457858D01*
X16622858Y1410239D02*
X16622858Y1362620D01*
X16622858Y1362620D02*
X16575239Y1267381D01*
X16575239Y1267381D02*
X16527620Y1219762D01*
X17651429Y1362620D02*
X17651429Y2362620D01*
X17651429Y2362620D02*
X18222857Y1362620D01*
X18222857Y1362620D02*
X18222857Y2362620D01*
X18699048Y1457858D02*
X18746667Y1410239D01*
X18746667Y1410239D02*
X18699048Y1362620D01*
X18699048Y1362620D02*
X18651429Y1410239D01*
X18651429Y1410239D02*
X18699048Y1457858D01*
X18699048Y1457858D02*
X18699048Y1362620D01*
X19775238Y1362620D02*
X19775238Y2362620D01*
X20346666Y1362620D02*
X19918095Y1934048D01*
X20346666Y2362620D02*
X19775238Y1791191D01*
X21203809Y2029286D02*
X21203809Y1362620D01*
X20775238Y2029286D02*
X20775238Y1505477D01*
X20775238Y1505477D02*
X20822857Y1410239D01*
X20822857Y1410239D02*
X20918095Y1362620D01*
X20918095Y1362620D02*
X21060952Y1362620D01*
X21060952Y1362620D02*
X21156190Y1410239D01*
X21156190Y1410239D02*
X21203809Y1457858D01*
X21680000Y1362620D02*
X21680000Y2029286D01*
X21680000Y1934048D02*
X21727619Y1981667D01*
X21727619Y1981667D02*
X21822857Y2029286D01*
X21822857Y2029286D02*
X21965714Y2029286D01*
X21965714Y2029286D02*
X22060952Y1981667D01*
X22060952Y1981667D02*
X22108571Y1886429D01*
X22108571Y1886429D02*
X22108571Y1362620D01*
X22108571Y1886429D02*
X22156190Y1981667D01*
X22156190Y1981667D02*
X22251428Y2029286D01*
X22251428Y2029286D02*
X22394285Y2029286D01*
X22394285Y2029286D02*
X22489524Y1981667D01*
X22489524Y1981667D02*
X22537143Y1886429D01*
X22537143Y1886429D02*
X22537143Y1362620D01*
X23441904Y1362620D02*
X23441904Y1886429D01*
X23441904Y1886429D02*
X23394285Y1981667D01*
X23394285Y1981667D02*
X23299047Y2029286D01*
X23299047Y2029286D02*
X23108571Y2029286D01*
X23108571Y2029286D02*
X23013333Y1981667D01*
X23441904Y1410239D02*
X23346666Y1362620D01*
X23346666Y1362620D02*
X23108571Y1362620D01*
X23108571Y1362620D02*
X23013333Y1410239D01*
X23013333Y1410239D02*
X22965714Y1505477D01*
X22965714Y1505477D02*
X22965714Y1600715D01*
X22965714Y1600715D02*
X23013333Y1695953D01*
X23013333Y1695953D02*
X23108571Y1743572D01*
X23108571Y1743572D02*
X23346666Y1743572D01*
X23346666Y1743572D02*
X23441904Y1791191D01*
X24346666Y2029286D02*
X24346666Y1219762D01*
X24346666Y1219762D02*
X24299047Y1124524D01*
X24299047Y1124524D02*
X24251428Y1076905D01*
X24251428Y1076905D02*
X24156190Y1029286D01*
X24156190Y1029286D02*
X24013333Y1029286D01*
X24013333Y1029286D02*
X23918095Y1076905D01*
X24346666Y1410239D02*
X24251428Y1362620D01*
X24251428Y1362620D02*
X24060952Y1362620D01*
X24060952Y1362620D02*
X23965714Y1410239D01*
X23965714Y1410239D02*
X23918095Y1457858D01*
X23918095Y1457858D02*
X23870476Y1553096D01*
X23870476Y1553096D02*
X23870476Y1838810D01*
X23870476Y1838810D02*
X23918095Y1934048D01*
X23918095Y1934048D02*
X23965714Y1981667D01*
X23965714Y1981667D02*
X24060952Y2029286D01*
X24060952Y2029286D02*
X24251428Y2029286D01*
X24251428Y2029286D02*
X24346666Y1981667D01*
X25251428Y1362620D02*
X25251428Y1886429D01*
X25251428Y1886429D02*
X25203809Y1981667D01*
X25203809Y1981667D02*
X25108571Y2029286D01*
X25108571Y2029286D02*
X24918095Y2029286D01*
X24918095Y2029286D02*
X24822857Y1981667D01*
X25251428Y1410239D02*
X25156190Y1362620D01*
X25156190Y1362620D02*
X24918095Y1362620D01*
X24918095Y1362620D02*
X24822857Y1410239D01*
X24822857Y1410239D02*
X24775238Y1505477D01*
X24775238Y1505477D02*
X24775238Y1600715D01*
X24775238Y1600715D02*
X24822857Y1695953D01*
X24822857Y1695953D02*
X24918095Y1743572D01*
X24918095Y1743572D02*
X25156190Y1743572D01*
X25156190Y1743572D02*
X25251428Y1791191D01*
X25727619Y1362620D02*
X25727619Y2029286D01*
X25727619Y2362620D02*
X25680000Y2315000D01*
X25680000Y2315000D02*
X25727619Y2267381D01*
X25727619Y2267381D02*
X25775238Y2315000D01*
X25775238Y2315000D02*
X25727619Y2362620D01*
X25727619Y2362620D02*
X25727619Y2267381D01*
X28777619Y81124762D02*
X28777619Y80553334D01*
X27777619Y80839048D02*
X28777619Y80839048D01*
X28777619Y80315238D02*
X27777619Y79648572D01*
X28777619Y79648572D02*
X27777619Y80315238D01*
X27777619Y79267619D02*
X28777619Y79267619D01*
X28777619Y79267619D02*
X28777619Y79029524D01*
X28777619Y79029524D02*
X28730000Y78886667D01*
X28730000Y78886667D02*
X28634761Y78791429D01*
X28634761Y78791429D02*
X28539523Y78743810D01*
X28539523Y78743810D02*
X28349047Y78696191D01*
X28349047Y78696191D02*
X28206190Y78696191D01*
X28206190Y78696191D02*
X28015714Y78743810D01*
X28015714Y78743810D02*
X27920476Y78791429D01*
X27920476Y78791429D02*
X27825238Y78886667D01*
X27825238Y78886667D02*
X27777619Y79029524D01*
X27777619Y79029524D02*
X27777619Y79267619D01*
X32030000Y80458096D02*
X32077619Y80553334D01*
X32077619Y80553334D02*
X32077619Y80696191D01*
X32077619Y80696191D02*
X32030000Y80839048D01*
X32030000Y80839048D02*
X31934761Y80934286D01*
X31934761Y80934286D02*
X31839523Y80981905D01*
X31839523Y80981905D02*
X31649047Y81029524D01*
X31649047Y81029524D02*
X31506190Y81029524D01*
X31506190Y81029524D02*
X31315714Y80981905D01*
X31315714Y80981905D02*
X31220476Y80934286D01*
X31220476Y80934286D02*
X31125238Y80839048D01*
X31125238Y80839048D02*
X31077619Y80696191D01*
X31077619Y80696191D02*
X31077619Y80600953D01*
X31077619Y80600953D02*
X31125238Y80458096D01*
X31125238Y80458096D02*
X31172857Y80410477D01*
X31172857Y80410477D02*
X31506190Y80410477D01*
X31506190Y80410477D02*
X31506190Y80600953D01*
X31077619Y79981905D02*
X32077619Y79981905D01*
X32077619Y79981905D02*
X31077619Y79410477D01*
X31077619Y79410477D02*
X32077619Y79410477D01*
X31077619Y78934286D02*
X32077619Y78934286D01*
X32077619Y78934286D02*
X32077619Y78696191D01*
X32077619Y78696191D02*
X32030000Y78553334D01*
X32030000Y78553334D02*
X31934761Y78458096D01*
X31934761Y78458096D02*
X31839523Y78410477D01*
X31839523Y78410477D02*
X31649047Y78362858D01*
X31649047Y78362858D02*
X31506190Y78362858D01*
X31506190Y78362858D02*
X31315714Y78410477D01*
X31315714Y78410477D02*
X31220476Y78458096D01*
X31220476Y78458096D02*
X31125238Y78553334D01*
X31125238Y78553334D02*
X31077619Y78696191D01*
X31077619Y78696191D02*
X31077619Y78934286D01*
X81117619Y80981905D02*
X82117619Y80981905D01*
X82117619Y80981905D02*
X81403333Y80648572D01*
X81403333Y80648572D02*
X82117619Y80315239D01*
X82117619Y80315239D02*
X81117619Y80315239D01*
X82117619Y79648572D02*
X82117619Y79458096D01*
X82117619Y79458096D02*
X82070000Y79362858D01*
X82070000Y79362858D02*
X81974761Y79267620D01*
X81974761Y79267620D02*
X81784285Y79220001D01*
X81784285Y79220001D02*
X81450952Y79220001D01*
X81450952Y79220001D02*
X81260476Y79267620D01*
X81260476Y79267620D02*
X81165238Y79362858D01*
X81165238Y79362858D02*
X81117619Y79458096D01*
X81117619Y79458096D02*
X81117619Y79648572D01*
X81117619Y79648572D02*
X81165238Y79743810D01*
X81165238Y79743810D02*
X81260476Y79839048D01*
X81260476Y79839048D02*
X81450952Y79886667D01*
X81450952Y79886667D02*
X81784285Y79886667D01*
X81784285Y79886667D02*
X81974761Y79839048D01*
X81974761Y79839048D02*
X82070000Y79743810D01*
X82070000Y79743810D02*
X82117619Y79648572D01*
X81165238Y78839048D02*
X81117619Y78696191D01*
X81117619Y78696191D02*
X81117619Y78458096D01*
X81117619Y78458096D02*
X81165238Y78362858D01*
X81165238Y78362858D02*
X81212857Y78315239D01*
X81212857Y78315239D02*
X81308095Y78267620D01*
X81308095Y78267620D02*
X81403333Y78267620D01*
X81403333Y78267620D02*
X81498571Y78315239D01*
X81498571Y78315239D02*
X81546190Y78362858D01*
X81546190Y78362858D02*
X81593809Y78458096D01*
X81593809Y78458096D02*
X81641428Y78648572D01*
X81641428Y78648572D02*
X81689047Y78743810D01*
X81689047Y78743810D02*
X81736666Y78791429D01*
X81736666Y78791429D02*
X81831904Y78839048D01*
X81831904Y78839048D02*
X81927142Y78839048D01*
X81927142Y78839048D02*
X82022380Y78791429D01*
X82022380Y78791429D02*
X82070000Y78743810D01*
X82070000Y78743810D02*
X82117619Y78648572D01*
X82117619Y78648572D02*
X82117619Y78410477D01*
X82117619Y78410477D02*
X82070000Y78267620D01*
X81117619Y77839048D02*
X82117619Y77839048D01*
X25237619Y80410477D02*
X25713809Y80743810D01*
X25237619Y80981905D02*
X26237619Y80981905D01*
X26237619Y80981905D02*
X26237619Y80600953D01*
X26237619Y80600953D02*
X26190000Y80505715D01*
X26190000Y80505715D02*
X26142380Y80458096D01*
X26142380Y80458096D02*
X26047142Y80410477D01*
X26047142Y80410477D02*
X25904285Y80410477D01*
X25904285Y80410477D02*
X25809047Y80458096D01*
X25809047Y80458096D02*
X25761428Y80505715D01*
X25761428Y80505715D02*
X25713809Y80600953D01*
X25713809Y80600953D02*
X25713809Y80981905D01*
X26237619Y80077143D02*
X25237619Y79410477D01*
X26237619Y79410477D02*
X25237619Y80077143D01*
X25237619Y79029524D02*
X26237619Y79029524D01*
X26237619Y79029524D02*
X26237619Y78791429D01*
X26237619Y78791429D02*
X26190000Y78648572D01*
X26190000Y78648572D02*
X26094761Y78553334D01*
X26094761Y78553334D02*
X25999523Y78505715D01*
X25999523Y78505715D02*
X25809047Y78458096D01*
X25809047Y78458096D02*
X25666190Y78458096D01*
X25666190Y78458096D02*
X25475714Y78505715D01*
X25475714Y78505715D02*
X25380476Y78553334D01*
X25380476Y78553334D02*
X25285238Y78648572D01*
X25285238Y78648572D02*
X25237619Y78791429D01*
X25237619Y78791429D02*
X25237619Y79029524D01*
X73014761Y78410477D02*
X73062380Y78553334D01*
X73062380Y78553334D02*
X73062380Y78791429D01*
X73062380Y78791429D02*
X73014761Y78886667D01*
X73014761Y78886667D02*
X72967142Y78934286D01*
X72967142Y78934286D02*
X72871904Y78981905D01*
X72871904Y78981905D02*
X72776666Y78981905D01*
X72776666Y78981905D02*
X72681428Y78934286D01*
X72681428Y78934286D02*
X72633809Y78886667D01*
X72633809Y78886667D02*
X72586190Y78791429D01*
X72586190Y78791429D02*
X72538571Y78600953D01*
X72538571Y78600953D02*
X72490952Y78505715D01*
X72490952Y78505715D02*
X72443333Y78458096D01*
X72443333Y78458096D02*
X72348095Y78410477D01*
X72348095Y78410477D02*
X72252857Y78410477D01*
X72252857Y78410477D02*
X72157619Y78458096D01*
X72157619Y78458096D02*
X72110000Y78505715D01*
X72110000Y78505715D02*
X72062380Y78600953D01*
X72062380Y78600953D02*
X72062380Y78839048D01*
X72062380Y78839048D02*
X72110000Y78981905D01*
X73014761Y79362858D02*
X73062380Y79505715D01*
X73062380Y79505715D02*
X73062380Y79743810D01*
X73062380Y79743810D02*
X73014761Y79839048D01*
X73014761Y79839048D02*
X72967142Y79886667D01*
X72967142Y79886667D02*
X72871904Y79934286D01*
X72871904Y79934286D02*
X72776666Y79934286D01*
X72776666Y79934286D02*
X72681428Y79886667D01*
X72681428Y79886667D02*
X72633809Y79839048D01*
X72633809Y79839048D02*
X72586190Y79743810D01*
X72586190Y79743810D02*
X72538571Y79553334D01*
X72538571Y79553334D02*
X72490952Y79458096D01*
X72490952Y79458096D02*
X72443333Y79410477D01*
X72443333Y79410477D02*
X72348095Y79362858D01*
X72348095Y79362858D02*
X72252857Y79362858D01*
X72252857Y79362858D02*
X72157619Y79410477D01*
X72157619Y79410477D02*
X72110000Y79458096D01*
X72110000Y79458096D02*
X72062380Y79553334D01*
X72062380Y79553334D02*
X72062380Y79791429D01*
X72062380Y79791429D02*
X72110000Y79934286D01*
X86245238Y81029524D02*
X86197619Y80886667D01*
X86197619Y80886667D02*
X86197619Y80648572D01*
X86197619Y80648572D02*
X86245238Y80553334D01*
X86245238Y80553334D02*
X86292857Y80505715D01*
X86292857Y80505715D02*
X86388095Y80458096D01*
X86388095Y80458096D02*
X86483333Y80458096D01*
X86483333Y80458096D02*
X86578571Y80505715D01*
X86578571Y80505715D02*
X86626190Y80553334D01*
X86626190Y80553334D02*
X86673809Y80648572D01*
X86673809Y80648572D02*
X86721428Y80839048D01*
X86721428Y80839048D02*
X86769047Y80934286D01*
X86769047Y80934286D02*
X86816666Y80981905D01*
X86816666Y80981905D02*
X86911904Y81029524D01*
X86911904Y81029524D02*
X87007142Y81029524D01*
X87007142Y81029524D02*
X87102380Y80981905D01*
X87102380Y80981905D02*
X87150000Y80934286D01*
X87150000Y80934286D02*
X87197619Y80839048D01*
X87197619Y80839048D02*
X87197619Y80600953D01*
X87197619Y80600953D02*
X87150000Y80458096D01*
X86292857Y79458096D02*
X86245238Y79505715D01*
X86245238Y79505715D02*
X86197619Y79648572D01*
X86197619Y79648572D02*
X86197619Y79743810D01*
X86197619Y79743810D02*
X86245238Y79886667D01*
X86245238Y79886667D02*
X86340476Y79981905D01*
X86340476Y79981905D02*
X86435714Y80029524D01*
X86435714Y80029524D02*
X86626190Y80077143D01*
X86626190Y80077143D02*
X86769047Y80077143D01*
X86769047Y80077143D02*
X86959523Y80029524D01*
X86959523Y80029524D02*
X87054761Y79981905D01*
X87054761Y79981905D02*
X87150000Y79886667D01*
X87150000Y79886667D02*
X87197619Y79743810D01*
X87197619Y79743810D02*
X87197619Y79648572D01*
X87197619Y79648572D02*
X87150000Y79505715D01*
X87150000Y79505715D02*
X87102380Y79458096D01*
X86197619Y78553334D02*
X86197619Y79029524D01*
X86197619Y79029524D02*
X87197619Y79029524D01*
X86197619Y78220000D02*
X87197619Y78220000D01*
X86197619Y77648572D02*
X86769047Y78077143D01*
X87197619Y77648572D02*
X86626190Y78220000D01*
X79530000Y80458096D02*
X79577619Y80553334D01*
X79577619Y80553334D02*
X79577619Y80696191D01*
X79577619Y80696191D02*
X79530000Y80839048D01*
X79530000Y80839048D02*
X79434761Y80934286D01*
X79434761Y80934286D02*
X79339523Y80981905D01*
X79339523Y80981905D02*
X79149047Y81029524D01*
X79149047Y81029524D02*
X79006190Y81029524D01*
X79006190Y81029524D02*
X78815714Y80981905D01*
X78815714Y80981905D02*
X78720476Y80934286D01*
X78720476Y80934286D02*
X78625238Y80839048D01*
X78625238Y80839048D02*
X78577619Y80696191D01*
X78577619Y80696191D02*
X78577619Y80600953D01*
X78577619Y80600953D02*
X78625238Y80458096D01*
X78625238Y80458096D02*
X78672857Y80410477D01*
X78672857Y80410477D02*
X79006190Y80410477D01*
X79006190Y80410477D02*
X79006190Y80600953D01*
X78577619Y79981905D02*
X79577619Y79981905D01*
X79577619Y79981905D02*
X78577619Y79410477D01*
X78577619Y79410477D02*
X79577619Y79410477D01*
X78577619Y78934286D02*
X79577619Y78934286D01*
X79577619Y78934286D02*
X79577619Y78696191D01*
X79577619Y78696191D02*
X79530000Y78553334D01*
X79530000Y78553334D02*
X79434761Y78458096D01*
X79434761Y78458096D02*
X79339523Y78410477D01*
X79339523Y78410477D02*
X79149047Y78362858D01*
X79149047Y78362858D02*
X79006190Y78362858D01*
X79006190Y78362858D02*
X78815714Y78410477D01*
X78815714Y78410477D02*
X78720476Y78458096D01*
X78720476Y78458096D02*
X78625238Y78553334D01*
X78625238Y78553334D02*
X78577619Y78696191D01*
X78577619Y78696191D02*
X78577619Y78934286D01*
X14870238Y74104524D02*
X14822619Y73961667D01*
X14822619Y73961667D02*
X14822619Y73723572D01*
X14822619Y73723572D02*
X14870238Y73628334D01*
X14870238Y73628334D02*
X14917857Y73580715D01*
X14917857Y73580715D02*
X15013095Y73533096D01*
X15013095Y73533096D02*
X15108333Y73533096D01*
X15108333Y73533096D02*
X15203571Y73580715D01*
X15203571Y73580715D02*
X15251190Y73628334D01*
X15251190Y73628334D02*
X15298809Y73723572D01*
X15298809Y73723572D02*
X15346428Y73914048D01*
X15346428Y73914048D02*
X15394047Y74009286D01*
X15394047Y74009286D02*
X15441666Y74056905D01*
X15441666Y74056905D02*
X15536904Y74104524D01*
X15536904Y74104524D02*
X15632142Y74104524D01*
X15632142Y74104524D02*
X15727380Y74056905D01*
X15727380Y74056905D02*
X15775000Y74009286D01*
X15775000Y74009286D02*
X15822619Y73914048D01*
X15822619Y73914048D02*
X15822619Y73675953D01*
X15822619Y73675953D02*
X15775000Y73533096D01*
X14870238Y72723572D02*
X14822619Y72818810D01*
X14822619Y72818810D02*
X14822619Y73009286D01*
X14822619Y73009286D02*
X14870238Y73104524D01*
X14870238Y73104524D02*
X14965476Y73152143D01*
X14965476Y73152143D02*
X15346428Y73152143D01*
X15346428Y73152143D02*
X15441666Y73104524D01*
X15441666Y73104524D02*
X15489285Y73009286D01*
X15489285Y73009286D02*
X15489285Y72818810D01*
X15489285Y72818810D02*
X15441666Y72723572D01*
X15441666Y72723572D02*
X15346428Y72675953D01*
X15346428Y72675953D02*
X15251190Y72675953D01*
X15251190Y72675953D02*
X15155952Y73152143D01*
X14822619Y72247381D02*
X15489285Y72247381D01*
X15298809Y72247381D02*
X15394047Y72199762D01*
X15394047Y72199762D02*
X15441666Y72152143D01*
X15441666Y72152143D02*
X15489285Y72056905D01*
X15489285Y72056905D02*
X15489285Y71961667D01*
X14822619Y71628333D02*
X15489285Y71628333D01*
X15822619Y71628333D02*
X15775000Y71675952D01*
X15775000Y71675952D02*
X15727380Y71628333D01*
X15727380Y71628333D02*
X15775000Y71580714D01*
X15775000Y71580714D02*
X15822619Y71628333D01*
X15822619Y71628333D02*
X15727380Y71628333D01*
X14822619Y70723572D02*
X15346428Y70723572D01*
X15346428Y70723572D02*
X15441666Y70771191D01*
X15441666Y70771191D02*
X15489285Y70866429D01*
X15489285Y70866429D02*
X15489285Y71056905D01*
X15489285Y71056905D02*
X15441666Y71152143D01*
X14870238Y70723572D02*
X14822619Y70818810D01*
X14822619Y70818810D02*
X14822619Y71056905D01*
X14822619Y71056905D02*
X14870238Y71152143D01*
X14870238Y71152143D02*
X14965476Y71199762D01*
X14965476Y71199762D02*
X15060714Y71199762D01*
X15060714Y71199762D02*
X15155952Y71152143D01*
X15155952Y71152143D02*
X15203571Y71056905D01*
X15203571Y71056905D02*
X15203571Y70818810D01*
X15203571Y70818810D02*
X15251190Y70723572D01*
X14822619Y70104524D02*
X14870238Y70199762D01*
X14870238Y70199762D02*
X14965476Y70247381D01*
X14965476Y70247381D02*
X15822619Y70247381D01*
X59210000Y80458096D02*
X59257619Y80553334D01*
X59257619Y80553334D02*
X59257619Y80696191D01*
X59257619Y80696191D02*
X59210000Y80839048D01*
X59210000Y80839048D02*
X59114761Y80934286D01*
X59114761Y80934286D02*
X59019523Y80981905D01*
X59019523Y80981905D02*
X58829047Y81029524D01*
X58829047Y81029524D02*
X58686190Y81029524D01*
X58686190Y81029524D02*
X58495714Y80981905D01*
X58495714Y80981905D02*
X58400476Y80934286D01*
X58400476Y80934286D02*
X58305238Y80839048D01*
X58305238Y80839048D02*
X58257619Y80696191D01*
X58257619Y80696191D02*
X58257619Y80600953D01*
X58257619Y80600953D02*
X58305238Y80458096D01*
X58305238Y80458096D02*
X58352857Y80410477D01*
X58352857Y80410477D02*
X58686190Y80410477D01*
X58686190Y80410477D02*
X58686190Y80600953D01*
X58257619Y79981905D02*
X59257619Y79981905D01*
X59257619Y79981905D02*
X58257619Y79410477D01*
X58257619Y79410477D02*
X59257619Y79410477D01*
X58257619Y78934286D02*
X59257619Y78934286D01*
X59257619Y78934286D02*
X59257619Y78696191D01*
X59257619Y78696191D02*
X59210000Y78553334D01*
X59210000Y78553334D02*
X59114761Y78458096D01*
X59114761Y78458096D02*
X59019523Y78410477D01*
X59019523Y78410477D02*
X58829047Y78362858D01*
X58829047Y78362858D02*
X58686190Y78362858D01*
X58686190Y78362858D02*
X58495714Y78410477D01*
X58495714Y78410477D02*
X58400476Y78458096D01*
X58400476Y78458096D02*
X58305238Y78553334D01*
X58305238Y78553334D02*
X58257619Y78696191D01*
X58257619Y78696191D02*
X58257619Y78934286D01*
X53177619Y80981905D02*
X54177619Y80981905D01*
X54177619Y80981905D02*
X54177619Y80600953D01*
X54177619Y80600953D02*
X54130000Y80505715D01*
X54130000Y80505715D02*
X54082380Y80458096D01*
X54082380Y80458096D02*
X53987142Y80410477D01*
X53987142Y80410477D02*
X53844285Y80410477D01*
X53844285Y80410477D02*
X53749047Y80458096D01*
X53749047Y80458096D02*
X53701428Y80505715D01*
X53701428Y80505715D02*
X53653809Y80600953D01*
X53653809Y80600953D02*
X53653809Y80981905D01*
X54130000Y79458096D02*
X54177619Y79553334D01*
X54177619Y79553334D02*
X54177619Y79696191D01*
X54177619Y79696191D02*
X54130000Y79839048D01*
X54130000Y79839048D02*
X54034761Y79934286D01*
X54034761Y79934286D02*
X53939523Y79981905D01*
X53939523Y79981905D02*
X53749047Y80029524D01*
X53749047Y80029524D02*
X53606190Y80029524D01*
X53606190Y80029524D02*
X53415714Y79981905D01*
X53415714Y79981905D02*
X53320476Y79934286D01*
X53320476Y79934286D02*
X53225238Y79839048D01*
X53225238Y79839048D02*
X53177619Y79696191D01*
X53177619Y79696191D02*
X53177619Y79600953D01*
X53177619Y79600953D02*
X53225238Y79458096D01*
X53225238Y79458096D02*
X53272857Y79410477D01*
X53272857Y79410477D02*
X53606190Y79410477D01*
X53606190Y79410477D02*
X53606190Y79600953D01*
X53272857Y78410477D02*
X53225238Y78458096D01*
X53225238Y78458096D02*
X53177619Y78600953D01*
X53177619Y78600953D02*
X53177619Y78696191D01*
X53177619Y78696191D02*
X53225238Y78839048D01*
X53225238Y78839048D02*
X53320476Y78934286D01*
X53320476Y78934286D02*
X53415714Y78981905D01*
X53415714Y78981905D02*
X53606190Y79029524D01*
X53606190Y79029524D02*
X53749047Y79029524D01*
X53749047Y79029524D02*
X53939523Y78981905D01*
X53939523Y78981905D02*
X54034761Y78934286D01*
X54034761Y78934286D02*
X54130000Y78839048D01*
X54130000Y78839048D02*
X54177619Y78696191D01*
X54177619Y78696191D02*
X54177619Y78600953D01*
X54177619Y78600953D02*
X54130000Y78458096D01*
X54130000Y78458096D02*
X54082380Y78410477D01*
X55717619Y80981905D02*
X56717619Y80981905D01*
X56717619Y80981905D02*
X56717619Y80600953D01*
X56717619Y80600953D02*
X56670000Y80505715D01*
X56670000Y80505715D02*
X56622380Y80458096D01*
X56622380Y80458096D02*
X56527142Y80410477D01*
X56527142Y80410477D02*
X56384285Y80410477D01*
X56384285Y80410477D02*
X56289047Y80458096D01*
X56289047Y80458096D02*
X56241428Y80505715D01*
X56241428Y80505715D02*
X56193809Y80600953D01*
X56193809Y80600953D02*
X56193809Y80981905D01*
X56670000Y79458096D02*
X56717619Y79553334D01*
X56717619Y79553334D02*
X56717619Y79696191D01*
X56717619Y79696191D02*
X56670000Y79839048D01*
X56670000Y79839048D02*
X56574761Y79934286D01*
X56574761Y79934286D02*
X56479523Y79981905D01*
X56479523Y79981905D02*
X56289047Y80029524D01*
X56289047Y80029524D02*
X56146190Y80029524D01*
X56146190Y80029524D02*
X55955714Y79981905D01*
X55955714Y79981905D02*
X55860476Y79934286D01*
X55860476Y79934286D02*
X55765238Y79839048D01*
X55765238Y79839048D02*
X55717619Y79696191D01*
X55717619Y79696191D02*
X55717619Y79600953D01*
X55717619Y79600953D02*
X55765238Y79458096D01*
X55765238Y79458096D02*
X55812857Y79410477D01*
X55812857Y79410477D02*
X56146190Y79410477D01*
X56146190Y79410477D02*
X56146190Y79600953D01*
X55717619Y78981905D02*
X56717619Y78981905D01*
X56717619Y78981905D02*
X56717619Y78743810D01*
X56717619Y78743810D02*
X56670000Y78600953D01*
X56670000Y78600953D02*
X56574761Y78505715D01*
X56574761Y78505715D02*
X56479523Y78458096D01*
X56479523Y78458096D02*
X56289047Y78410477D01*
X56289047Y78410477D02*
X56146190Y78410477D01*
X56146190Y78410477D02*
X55955714Y78458096D01*
X55955714Y78458096D02*
X55860476Y78505715D01*
X55860476Y78505715D02*
X55765238Y78600953D01*
X55765238Y78600953D02*
X55717619Y78743810D01*
X55717619Y78743810D02*
X55717619Y78981905D01*
X18617619Y80505715D02*
X18617619Y80981905D01*
X18617619Y80981905D02*
X18141428Y81029524D01*
X18141428Y81029524D02*
X18189047Y80981905D01*
X18189047Y80981905D02*
X18236666Y80886667D01*
X18236666Y80886667D02*
X18236666Y80648572D01*
X18236666Y80648572D02*
X18189047Y80553334D01*
X18189047Y80553334D02*
X18141428Y80505715D01*
X18141428Y80505715D02*
X18046190Y80458096D01*
X18046190Y80458096D02*
X17808095Y80458096D01*
X17808095Y80458096D02*
X17712857Y80505715D01*
X17712857Y80505715D02*
X17665238Y80553334D01*
X17665238Y80553334D02*
X17617619Y80648572D01*
X17617619Y80648572D02*
X17617619Y80886667D01*
X17617619Y80886667D02*
X17665238Y80981905D01*
X17665238Y80981905D02*
X17712857Y81029524D01*
X18617619Y80172381D02*
X17617619Y79839048D01*
X17617619Y79839048D02*
X18617619Y79505715D01*
X63337619Y80981905D02*
X64337619Y80981905D01*
X64337619Y80981905D02*
X63623333Y80648572D01*
X63623333Y80648572D02*
X64337619Y80315239D01*
X64337619Y80315239D02*
X63337619Y80315239D01*
X63432857Y79267620D02*
X63385238Y79315239D01*
X63385238Y79315239D02*
X63337619Y79458096D01*
X63337619Y79458096D02*
X63337619Y79553334D01*
X63337619Y79553334D02*
X63385238Y79696191D01*
X63385238Y79696191D02*
X63480476Y79791429D01*
X63480476Y79791429D02*
X63575714Y79839048D01*
X63575714Y79839048D02*
X63766190Y79886667D01*
X63766190Y79886667D02*
X63909047Y79886667D01*
X63909047Y79886667D02*
X64099523Y79839048D01*
X64099523Y79839048D02*
X64194761Y79791429D01*
X64194761Y79791429D02*
X64290000Y79696191D01*
X64290000Y79696191D02*
X64337619Y79553334D01*
X64337619Y79553334D02*
X64337619Y79458096D01*
X64337619Y79458096D02*
X64290000Y79315239D01*
X64290000Y79315239D02*
X64242380Y79267620D01*
X63337619Y78362858D02*
X63337619Y78839048D01*
X63337619Y78839048D02*
X64337619Y78839048D01*
X63337619Y77458096D02*
X63813809Y77791429D01*
X63337619Y78029524D02*
X64337619Y78029524D01*
X64337619Y78029524D02*
X64337619Y77648572D01*
X64337619Y77648572D02*
X64290000Y77553334D01*
X64290000Y77553334D02*
X64242380Y77505715D01*
X64242380Y77505715D02*
X64147142Y77458096D01*
X64147142Y77458096D02*
X64004285Y77458096D01*
X64004285Y77458096D02*
X63909047Y77505715D01*
X63909047Y77505715D02*
X63861428Y77553334D01*
X63861428Y77553334D02*
X63813809Y77648572D01*
X63813809Y77648572D02*
X63813809Y78029524D01*
X28749523Y1487620D02*
X28416190Y1963810D01*
X28178095Y1487620D02*
X28178095Y2487620D01*
X28178095Y2487620D02*
X28559047Y2487620D01*
X28559047Y2487620D02*
X28654285Y2440000D01*
X28654285Y2440000D02*
X28701904Y2392381D01*
X28701904Y2392381D02*
X28749523Y2297143D01*
X28749523Y2297143D02*
X28749523Y2154286D01*
X28749523Y2154286D02*
X28701904Y2059048D01*
X28701904Y2059048D02*
X28654285Y2011429D01*
X28654285Y2011429D02*
X28559047Y1963810D01*
X28559047Y1963810D02*
X28178095Y1963810D01*
X29559047Y1535239D02*
X29463809Y1487620D01*
X29463809Y1487620D02*
X29273333Y1487620D01*
X29273333Y1487620D02*
X29178095Y1535239D01*
X29178095Y1535239D02*
X29130476Y1630477D01*
X29130476Y1630477D02*
X29130476Y2011429D01*
X29130476Y2011429D02*
X29178095Y2106667D01*
X29178095Y2106667D02*
X29273333Y2154286D01*
X29273333Y2154286D02*
X29463809Y2154286D01*
X29463809Y2154286D02*
X29559047Y2106667D01*
X29559047Y2106667D02*
X29606666Y2011429D01*
X29606666Y2011429D02*
X29606666Y1916191D01*
X29606666Y1916191D02*
X29130476Y1820953D01*
X29940000Y2154286D02*
X30178095Y1487620D01*
X30178095Y1487620D02*
X30416190Y2154286D01*
X30797143Y1582858D02*
X30844762Y1535239D01*
X30844762Y1535239D02*
X30797143Y1487620D01*
X30797143Y1487620D02*
X30749524Y1535239D01*
X30749524Y1535239D02*
X30797143Y1582858D01*
X30797143Y1582858D02*
X30797143Y1487620D01*
X32063809Y2487620D02*
X32159047Y2487620D01*
X32159047Y2487620D02*
X32254285Y2440000D01*
X32254285Y2440000D02*
X32301904Y2392381D01*
X32301904Y2392381D02*
X32349523Y2297143D01*
X32349523Y2297143D02*
X32397142Y2106667D01*
X32397142Y2106667D02*
X32397142Y1868572D01*
X32397142Y1868572D02*
X32349523Y1678096D01*
X32349523Y1678096D02*
X32301904Y1582858D01*
X32301904Y1582858D02*
X32254285Y1535239D01*
X32254285Y1535239D02*
X32159047Y1487620D01*
X32159047Y1487620D02*
X32063809Y1487620D01*
X32063809Y1487620D02*
X31968571Y1535239D01*
X31968571Y1535239D02*
X31920952Y1582858D01*
X31920952Y1582858D02*
X31873333Y1678096D01*
X31873333Y1678096D02*
X31825714Y1868572D01*
X31825714Y1868572D02*
X31825714Y2106667D01*
X31825714Y2106667D02*
X31873333Y2297143D01*
X31873333Y2297143D02*
X31920952Y2392381D01*
X31920952Y2392381D02*
X31968571Y2440000D01*
X31968571Y2440000D02*
X32063809Y2487620D01*
X33016190Y2487620D02*
X33111428Y2487620D01*
X33111428Y2487620D02*
X33206666Y2440000D01*
X33206666Y2440000D02*
X33254285Y2392381D01*
X33254285Y2392381D02*
X33301904Y2297143D01*
X33301904Y2297143D02*
X33349523Y2106667D01*
X33349523Y2106667D02*
X33349523Y1868572D01*
X33349523Y1868572D02*
X33301904Y1678096D01*
X33301904Y1678096D02*
X33254285Y1582858D01*
X33254285Y1582858D02*
X33206666Y1535239D01*
X33206666Y1535239D02*
X33111428Y1487620D01*
X33111428Y1487620D02*
X33016190Y1487620D01*
X33016190Y1487620D02*
X32920952Y1535239D01*
X32920952Y1535239D02*
X32873333Y1582858D01*
X32873333Y1582858D02*
X32825714Y1678096D01*
X32825714Y1678096D02*
X32778095Y1868572D01*
X32778095Y1868572D02*
X32778095Y2106667D01*
X32778095Y2106667D02*
X32825714Y2297143D01*
X32825714Y2297143D02*
X32873333Y2392381D01*
X32873333Y2392381D02*
X32920952Y2440000D01*
X32920952Y2440000D02*
X33016190Y2487620D01*
X34301904Y1487620D02*
X33730476Y1487620D01*
X34016190Y1487620D02*
X34016190Y2487620D01*
X34016190Y2487620D02*
X33920952Y2344762D01*
X33920952Y2344762D02*
X33825714Y2249524D01*
X33825714Y2249524D02*
X33730476Y2201905D01*
X61797619Y81124762D02*
X60797619Y80791429D01*
X60797619Y80791429D02*
X61797619Y80458096D01*
X60797619Y80124762D02*
X61797619Y80124762D01*
X61797619Y80124762D02*
X61797619Y79886667D01*
X61797619Y79886667D02*
X61750000Y79743810D01*
X61750000Y79743810D02*
X61654761Y79648572D01*
X61654761Y79648572D02*
X61559523Y79600953D01*
X61559523Y79600953D02*
X61369047Y79553334D01*
X61369047Y79553334D02*
X61226190Y79553334D01*
X61226190Y79553334D02*
X61035714Y79600953D01*
X61035714Y79600953D02*
X60940476Y79648572D01*
X60940476Y79648572D02*
X60845238Y79743810D01*
X60845238Y79743810D02*
X60797619Y79886667D01*
X60797619Y79886667D02*
X60797619Y80124762D01*
X60797619Y79124762D02*
X61797619Y79124762D01*
X61797619Y79124762D02*
X61797619Y78886667D01*
X61797619Y78886667D02*
X61750000Y78743810D01*
X61750000Y78743810D02*
X61654761Y78648572D01*
X61654761Y78648572D02*
X61559523Y78600953D01*
X61559523Y78600953D02*
X61369047Y78553334D01*
X61369047Y78553334D02*
X61226190Y78553334D01*
X61226190Y78553334D02*
X61035714Y78600953D01*
X61035714Y78600953D02*
X60940476Y78648572D01*
X60940476Y78648572D02*
X60845238Y78743810D01*
X60845238Y78743810D02*
X60797619Y78886667D01*
X60797619Y78886667D02*
X60797619Y79124762D01*
X43418095Y48477620D02*
X43418095Y49477620D01*
X43418095Y49001429D02*
X43989523Y49001429D01*
X43989523Y48477620D02*
X43989523Y49477620D01*
X44465714Y48477620D02*
X44465714Y49477620D01*
X44465714Y49477620D02*
X44799047Y48763334D01*
X44799047Y48763334D02*
X45132380Y49477620D01*
X45132380Y49477620D02*
X45132380Y48477620D01*
X46037142Y49477620D02*
X45846666Y49477620D01*
X45846666Y49477620D02*
X45751428Y49430000D01*
X45751428Y49430000D02*
X45703809Y49382381D01*
X45703809Y49382381D02*
X45608571Y49239524D01*
X45608571Y49239524D02*
X45560952Y49049048D01*
X45560952Y49049048D02*
X45560952Y48668096D01*
X45560952Y48668096D02*
X45608571Y48572858D01*
X45608571Y48572858D02*
X45656190Y48525239D01*
X45656190Y48525239D02*
X45751428Y48477620D01*
X45751428Y48477620D02*
X45941904Y48477620D01*
X45941904Y48477620D02*
X46037142Y48525239D01*
X46037142Y48525239D02*
X46084761Y48572858D01*
X46084761Y48572858D02*
X46132380Y48668096D01*
X46132380Y48668096D02*
X46132380Y48906191D01*
X46132380Y48906191D02*
X46084761Y49001429D01*
X46084761Y49001429D02*
X46037142Y49049048D01*
X46037142Y49049048D02*
X45941904Y49096667D01*
X45941904Y49096667D02*
X45751428Y49096667D01*
X45751428Y49096667D02*
X45656190Y49049048D01*
X45656190Y49049048D02*
X45608571Y49001429D01*
X45608571Y49001429D02*
X45560952Y48906191D01*
X46465714Y49477620D02*
X47132380Y49477620D01*
X47132380Y49477620D02*
X46703809Y48477620D01*
X47656190Y49049048D02*
X47560952Y49096667D01*
X47560952Y49096667D02*
X47513333Y49144286D01*
X47513333Y49144286D02*
X47465714Y49239524D01*
X47465714Y49239524D02*
X47465714Y49287143D01*
X47465714Y49287143D02*
X47513333Y49382381D01*
X47513333Y49382381D02*
X47560952Y49430000D01*
X47560952Y49430000D02*
X47656190Y49477620D01*
X47656190Y49477620D02*
X47846666Y49477620D01*
X47846666Y49477620D02*
X47941904Y49430000D01*
X47941904Y49430000D02*
X47989523Y49382381D01*
X47989523Y49382381D02*
X48037142Y49287143D01*
X48037142Y49287143D02*
X48037142Y49239524D01*
X48037142Y49239524D02*
X47989523Y49144286D01*
X47989523Y49144286D02*
X47941904Y49096667D01*
X47941904Y49096667D02*
X47846666Y49049048D01*
X47846666Y49049048D02*
X47656190Y49049048D01*
X47656190Y49049048D02*
X47560952Y49001429D01*
X47560952Y49001429D02*
X47513333Y48953810D01*
X47513333Y48953810D02*
X47465714Y48858572D01*
X47465714Y48858572D02*
X47465714Y48668096D01*
X47465714Y48668096D02*
X47513333Y48572858D01*
X47513333Y48572858D02*
X47560952Y48525239D01*
X47560952Y48525239D02*
X47656190Y48477620D01*
X47656190Y48477620D02*
X47846666Y48477620D01*
X47846666Y48477620D02*
X47941904Y48525239D01*
X47941904Y48525239D02*
X47989523Y48572858D01*
X47989523Y48572858D02*
X48037142Y48668096D01*
X48037142Y48668096D02*
X48037142Y48858572D01*
X48037142Y48858572D02*
X47989523Y48953810D01*
X47989523Y48953810D02*
X47941904Y49001429D01*
X47941904Y49001429D02*
X47846666Y49049048D01*
X48989523Y48477620D02*
X48418095Y48477620D01*
X48703809Y48477620D02*
X48703809Y49477620D01*
X48703809Y49477620D02*
X48608571Y49334762D01*
X48608571Y49334762D02*
X48513333Y49239524D01*
X48513333Y49239524D02*
X48418095Y49191905D01*
X49370476Y49382381D02*
X49418095Y49430000D01*
X49418095Y49430000D02*
X49513333Y49477620D01*
X49513333Y49477620D02*
X49751428Y49477620D01*
X49751428Y49477620D02*
X49846666Y49430000D01*
X49846666Y49430000D02*
X49894285Y49382381D01*
X49894285Y49382381D02*
X49941904Y49287143D01*
X49941904Y49287143D02*
X49941904Y49191905D01*
X49941904Y49191905D02*
X49894285Y49049048D01*
X49894285Y49049048D02*
X49322857Y48477620D01*
X49322857Y48477620D02*
X49941904Y48477620D01*
X50275238Y49477620D02*
X50941904Y49477620D01*
X50941904Y49477620D02*
X50513333Y48477620D01*
X51322857Y48858572D02*
X52084762Y48858572D01*
X53084761Y48477620D02*
X52513333Y48477620D01*
X52799047Y48477620D02*
X52799047Y49477620D01*
X52799047Y49477620D02*
X52703809Y49334762D01*
X52703809Y49334762D02*
X52608571Y49239524D01*
X52608571Y49239524D02*
X52513333Y49191905D01*
X53465714Y49382381D02*
X53513333Y49430000D01*
X53513333Y49430000D02*
X53608571Y49477620D01*
X53608571Y49477620D02*
X53846666Y49477620D01*
X53846666Y49477620D02*
X53941904Y49430000D01*
X53941904Y49430000D02*
X53989523Y49382381D01*
X53989523Y49382381D02*
X54037142Y49287143D01*
X54037142Y49287143D02*
X54037142Y49191905D01*
X54037142Y49191905D02*
X53989523Y49049048D01*
X53989523Y49049048D02*
X53418095Y48477620D01*
X53418095Y48477620D02*
X54037142Y48477620D01*
X5318095Y44032620D02*
X5318095Y45032620D01*
X5318095Y45032620D02*
X5699047Y45032620D01*
X5699047Y45032620D02*
X5794285Y44985000D01*
X5794285Y44985000D02*
X5841904Y44937381D01*
X5841904Y44937381D02*
X5889523Y44842143D01*
X5889523Y44842143D02*
X5889523Y44699286D01*
X5889523Y44699286D02*
X5841904Y44604048D01*
X5841904Y44604048D02*
X5794285Y44556429D01*
X5794285Y44556429D02*
X5699047Y44508810D01*
X5699047Y44508810D02*
X5318095Y44508810D01*
X6318095Y44032620D02*
X6318095Y45032620D01*
X7365713Y44127858D02*
X7318094Y44080239D01*
X7318094Y44080239D02*
X7175237Y44032620D01*
X7175237Y44032620D02*
X7079999Y44032620D01*
X7079999Y44032620D02*
X6937142Y44080239D01*
X6937142Y44080239D02*
X6841904Y44175477D01*
X6841904Y44175477D02*
X6794285Y44270715D01*
X6794285Y44270715D02*
X6746666Y44461191D01*
X6746666Y44461191D02*
X6746666Y44604048D01*
X6746666Y44604048D02*
X6794285Y44794524D01*
X6794285Y44794524D02*
X6841904Y44889762D01*
X6841904Y44889762D02*
X6937142Y44985000D01*
X6937142Y44985000D02*
X7079999Y45032620D01*
X7079999Y45032620D02*
X7175237Y45032620D01*
X7175237Y45032620D02*
X7318094Y44985000D01*
X7318094Y44985000D02*
X7365713Y44937381D01*
X8318094Y44032620D02*
X7746666Y44032620D01*
X8032380Y44032620D02*
X8032380Y45032620D01*
X8032380Y45032620D02*
X7937142Y44889762D01*
X7937142Y44889762D02*
X7841904Y44794524D01*
X7841904Y44794524D02*
X7746666Y44746905D01*
X8889523Y44604048D02*
X8794285Y44651667D01*
X8794285Y44651667D02*
X8746666Y44699286D01*
X8746666Y44699286D02*
X8699047Y44794524D01*
X8699047Y44794524D02*
X8699047Y44842143D01*
X8699047Y44842143D02*
X8746666Y44937381D01*
X8746666Y44937381D02*
X8794285Y44985000D01*
X8794285Y44985000D02*
X8889523Y45032620D01*
X8889523Y45032620D02*
X9079999Y45032620D01*
X9079999Y45032620D02*
X9175237Y44985000D01*
X9175237Y44985000D02*
X9222856Y44937381D01*
X9222856Y44937381D02*
X9270475Y44842143D01*
X9270475Y44842143D02*
X9270475Y44794524D01*
X9270475Y44794524D02*
X9222856Y44699286D01*
X9222856Y44699286D02*
X9175237Y44651667D01*
X9175237Y44651667D02*
X9079999Y44604048D01*
X9079999Y44604048D02*
X8889523Y44604048D01*
X8889523Y44604048D02*
X8794285Y44556429D01*
X8794285Y44556429D02*
X8746666Y44508810D01*
X8746666Y44508810D02*
X8699047Y44413572D01*
X8699047Y44413572D02*
X8699047Y44223096D01*
X8699047Y44223096D02*
X8746666Y44127858D01*
X8746666Y44127858D02*
X8794285Y44080239D01*
X8794285Y44080239D02*
X8889523Y44032620D01*
X8889523Y44032620D02*
X9079999Y44032620D01*
X9079999Y44032620D02*
X9175237Y44080239D01*
X9175237Y44080239D02*
X9222856Y44127858D01*
X9222856Y44127858D02*
X9270475Y44223096D01*
X9270475Y44223096D02*
X9270475Y44413572D01*
X9270475Y44413572D02*
X9222856Y44508810D01*
X9222856Y44508810D02*
X9175237Y44556429D01*
X9175237Y44556429D02*
X9079999Y44604048D01*
X10032380Y44556429D02*
X9699047Y44556429D01*
X9699047Y44032620D02*
X9699047Y45032620D01*
X9699047Y45032620D02*
X10175237Y45032620D01*
X11032380Y45032620D02*
X10556190Y45032620D01*
X10556190Y45032620D02*
X10508571Y44556429D01*
X10508571Y44556429D02*
X10556190Y44604048D01*
X10556190Y44604048D02*
X10651428Y44651667D01*
X10651428Y44651667D02*
X10889523Y44651667D01*
X10889523Y44651667D02*
X10984761Y44604048D01*
X10984761Y44604048D02*
X11032380Y44556429D01*
X11032380Y44556429D02*
X11079999Y44461191D01*
X11079999Y44461191D02*
X11079999Y44223096D01*
X11079999Y44223096D02*
X11032380Y44127858D01*
X11032380Y44127858D02*
X10984761Y44080239D01*
X10984761Y44080239D02*
X10889523Y44032620D01*
X10889523Y44032620D02*
X10651428Y44032620D01*
X10651428Y44032620D02*
X10556190Y44080239D01*
X10556190Y44080239D02*
X10508571Y44127858D01*
X11413333Y45032620D02*
X12079999Y45032620D01*
X12079999Y45032620D02*
X11651428Y44032620D01*
X13127618Y43937381D02*
X13032380Y43985000D01*
X13032380Y43985000D02*
X12937142Y44080239D01*
X12937142Y44080239D02*
X12794285Y44223096D01*
X12794285Y44223096D02*
X12699047Y44270715D01*
X12699047Y44270715D02*
X12603809Y44270715D01*
X12651428Y44032620D02*
X12556190Y44080239D01*
X12556190Y44080239D02*
X12460952Y44175477D01*
X12460952Y44175477D02*
X12413333Y44365953D01*
X12413333Y44365953D02*
X12413333Y44699286D01*
X12413333Y44699286D02*
X12460952Y44889762D01*
X12460952Y44889762D02*
X12556190Y44985000D01*
X12556190Y44985000D02*
X12651428Y45032620D01*
X12651428Y45032620D02*
X12841904Y45032620D01*
X12841904Y45032620D02*
X12937142Y44985000D01*
X12937142Y44985000D02*
X13032380Y44889762D01*
X13032380Y44889762D02*
X13079999Y44699286D01*
X13079999Y44699286D02*
X13079999Y44365953D01*
X13079999Y44365953D02*
X13032380Y44175477D01*
X13032380Y44175477D02*
X12937142Y44080239D01*
X12937142Y44080239D02*
X12841904Y44032620D01*
X12841904Y44032620D02*
X12651428Y44032620D01*
X13937142Y44699286D02*
X13937142Y44032620D01*
X13699047Y45080239D02*
X13460952Y44365953D01*
X13460952Y44365953D02*
X14079999Y44365953D01*
X14365714Y45032620D02*
X14984761Y45032620D01*
X14984761Y45032620D02*
X14651428Y44651667D01*
X14651428Y44651667D02*
X14794285Y44651667D01*
X14794285Y44651667D02*
X14889523Y44604048D01*
X14889523Y44604048D02*
X14937142Y44556429D01*
X14937142Y44556429D02*
X14984761Y44461191D01*
X14984761Y44461191D02*
X14984761Y44223096D01*
X14984761Y44223096D02*
X14937142Y44127858D01*
X14937142Y44127858D02*
X14889523Y44080239D01*
X14889523Y44080239D02*
X14794285Y44032620D01*
X14794285Y44032620D02*
X14508571Y44032620D01*
X14508571Y44032620D02*
X14413333Y44080239D01*
X14413333Y44080239D02*
X14365714Y44127858D01*
X16013333Y44032620D02*
X16013333Y45032620D01*
X16013333Y44651667D02*
X16108571Y44699286D01*
X16108571Y44699286D02*
X16299047Y44699286D01*
X16299047Y44699286D02*
X16394285Y44651667D01*
X16394285Y44651667D02*
X16441904Y44604048D01*
X16441904Y44604048D02*
X16489523Y44508810D01*
X16489523Y44508810D02*
X16489523Y44223096D01*
X16489523Y44223096D02*
X16441904Y44127858D01*
X16441904Y44127858D02*
X16394285Y44080239D01*
X16394285Y44080239D02*
X16299047Y44032620D01*
X16299047Y44032620D02*
X16108571Y44032620D01*
X16108571Y44032620D02*
X16013333Y44080239D01*
X17060952Y44032620D02*
X16965714Y44080239D01*
X16965714Y44080239D02*
X16918095Y44127858D01*
X16918095Y44127858D02*
X16870476Y44223096D01*
X16870476Y44223096D02*
X16870476Y44508810D01*
X16870476Y44508810D02*
X16918095Y44604048D01*
X16918095Y44604048D02*
X16965714Y44651667D01*
X16965714Y44651667D02*
X17060952Y44699286D01*
X17060952Y44699286D02*
X17203809Y44699286D01*
X17203809Y44699286D02*
X17299047Y44651667D01*
X17299047Y44651667D02*
X17346666Y44604048D01*
X17346666Y44604048D02*
X17394285Y44508810D01*
X17394285Y44508810D02*
X17394285Y44223096D01*
X17394285Y44223096D02*
X17346666Y44127858D01*
X17346666Y44127858D02*
X17299047Y44080239D01*
X17299047Y44080239D02*
X17203809Y44032620D01*
X17203809Y44032620D02*
X17060952Y44032620D01*
X18251428Y44032620D02*
X18251428Y44556429D01*
X18251428Y44556429D02*
X18203809Y44651667D01*
X18203809Y44651667D02*
X18108571Y44699286D01*
X18108571Y44699286D02*
X17918095Y44699286D01*
X17918095Y44699286D02*
X17822857Y44651667D01*
X18251428Y44080239D02*
X18156190Y44032620D01*
X18156190Y44032620D02*
X17918095Y44032620D01*
X17918095Y44032620D02*
X17822857Y44080239D01*
X17822857Y44080239D02*
X17775238Y44175477D01*
X17775238Y44175477D02*
X17775238Y44270715D01*
X17775238Y44270715D02*
X17822857Y44365953D01*
X17822857Y44365953D02*
X17918095Y44413572D01*
X17918095Y44413572D02*
X18156190Y44413572D01*
X18156190Y44413572D02*
X18251428Y44461191D01*
X18727619Y44032620D02*
X18727619Y44699286D01*
X18727619Y44508810D02*
X18775238Y44604048D01*
X18775238Y44604048D02*
X18822857Y44651667D01*
X18822857Y44651667D02*
X18918095Y44699286D01*
X18918095Y44699286D02*
X19013333Y44699286D01*
X19775238Y44032620D02*
X19775238Y45032620D01*
X19775238Y44080239D02*
X19680000Y44032620D01*
X19680000Y44032620D02*
X19489524Y44032620D01*
X19489524Y44032620D02*
X19394286Y44080239D01*
X19394286Y44080239D02*
X19346667Y44127858D01*
X19346667Y44127858D02*
X19299048Y44223096D01*
X19299048Y44223096D02*
X19299048Y44508810D01*
X19299048Y44508810D02*
X19346667Y44604048D01*
X19346667Y44604048D02*
X19394286Y44651667D01*
X19394286Y44651667D02*
X19489524Y44699286D01*
X19489524Y44699286D02*
X19680000Y44699286D01*
X19680000Y44699286D02*
X19775238Y44651667D01*
X83657619Y80981905D02*
X84657619Y80981905D01*
X84657619Y80981905D02*
X83943333Y80648572D01*
X83943333Y80648572D02*
X84657619Y80315239D01*
X84657619Y80315239D02*
X83657619Y80315239D01*
X83657619Y79839048D02*
X84657619Y79839048D01*
X83705238Y79410477D02*
X83657619Y79267620D01*
X83657619Y79267620D02*
X83657619Y79029525D01*
X83657619Y79029525D02*
X83705238Y78934287D01*
X83705238Y78934287D02*
X83752857Y78886668D01*
X83752857Y78886668D02*
X83848095Y78839049D01*
X83848095Y78839049D02*
X83943333Y78839049D01*
X83943333Y78839049D02*
X84038571Y78886668D01*
X84038571Y78886668D02*
X84086190Y78934287D01*
X84086190Y78934287D02*
X84133809Y79029525D01*
X84133809Y79029525D02*
X84181428Y79220001D01*
X84181428Y79220001D02*
X84229047Y79315239D01*
X84229047Y79315239D02*
X84276666Y79362858D01*
X84276666Y79362858D02*
X84371904Y79410477D01*
X84371904Y79410477D02*
X84467142Y79410477D01*
X84467142Y79410477D02*
X84562380Y79362858D01*
X84562380Y79362858D02*
X84610000Y79315239D01*
X84610000Y79315239D02*
X84657619Y79220001D01*
X84657619Y79220001D02*
X84657619Y78981906D01*
X84657619Y78981906D02*
X84610000Y78839049D01*
X84657619Y78220001D02*
X84657619Y78029525D01*
X84657619Y78029525D02*
X84610000Y77934287D01*
X84610000Y77934287D02*
X84514761Y77839049D01*
X84514761Y77839049D02*
X84324285Y77791430D01*
X84324285Y77791430D02*
X83990952Y77791430D01*
X83990952Y77791430D02*
X83800476Y77839049D01*
X83800476Y77839049D02*
X83705238Y77934287D01*
X83705238Y77934287D02*
X83657619Y78029525D01*
X83657619Y78029525D02*
X83657619Y78220001D01*
X83657619Y78220001D02*
X83705238Y78315239D01*
X83705238Y78315239D02*
X83800476Y78410477D01*
X83800476Y78410477D02*
X83990952Y78458096D01*
X83990952Y78458096D02*
X84324285Y78458096D01*
X84324285Y78458096D02*
X84514761Y78410477D01*
X84514761Y78410477D02*
X84610000Y78315239D01*
X84610000Y78315239D02*
X84657619Y78220001D01*
X35456905Y66307620D02*
X35456905Y67307620D01*
X35456905Y67307620D02*
X35695000Y67307620D01*
X35695000Y67307620D02*
X35837857Y67260000D01*
X35837857Y67260000D02*
X35933095Y67164762D01*
X35933095Y67164762D02*
X35980714Y67069524D01*
X35980714Y67069524D02*
X36028333Y66879048D01*
X36028333Y66879048D02*
X36028333Y66736191D01*
X36028333Y66736191D02*
X35980714Y66545715D01*
X35980714Y66545715D02*
X35933095Y66450477D01*
X35933095Y66450477D02*
X35837857Y66355239D01*
X35837857Y66355239D02*
X35695000Y66307620D01*
X35695000Y66307620D02*
X35456905Y66307620D01*
X36409286Y67212381D02*
X36456905Y67260000D01*
X36456905Y67260000D02*
X36552143Y67307620D01*
X36552143Y67307620D02*
X36790238Y67307620D01*
X36790238Y67307620D02*
X36885476Y67260000D01*
X36885476Y67260000D02*
X36933095Y67212381D01*
X36933095Y67212381D02*
X36980714Y67117143D01*
X36980714Y67117143D02*
X36980714Y67021905D01*
X36980714Y67021905D02*
X36933095Y66879048D01*
X36933095Y66879048D02*
X36361667Y66307620D01*
X36361667Y66307620D02*
X36980714Y66307620D01*
X41743333Y49547858D02*
X41695714Y49500239D01*
X41695714Y49500239D02*
X41552857Y49452620D01*
X41552857Y49452620D02*
X41457619Y49452620D01*
X41457619Y49452620D02*
X41314762Y49500239D01*
X41314762Y49500239D02*
X41219524Y49595477D01*
X41219524Y49595477D02*
X41171905Y49690715D01*
X41171905Y49690715D02*
X41124286Y49881191D01*
X41124286Y49881191D02*
X41124286Y50024048D01*
X41124286Y50024048D02*
X41171905Y50214524D01*
X41171905Y50214524D02*
X41219524Y50309762D01*
X41219524Y50309762D02*
X41314762Y50405000D01*
X41314762Y50405000D02*
X41457619Y50452620D01*
X41457619Y50452620D02*
X41552857Y50452620D01*
X41552857Y50452620D02*
X41695714Y50405000D01*
X41695714Y50405000D02*
X41743333Y50357381D01*
X42124286Y50357381D02*
X42171905Y50405000D01*
X42171905Y50405000D02*
X42267143Y50452620D01*
X42267143Y50452620D02*
X42505238Y50452620D01*
X42505238Y50452620D02*
X42600476Y50405000D01*
X42600476Y50405000D02*
X42648095Y50357381D01*
X42648095Y50357381D02*
X42695714Y50262143D01*
X42695714Y50262143D02*
X42695714Y50166905D01*
X42695714Y50166905D02*
X42648095Y50024048D01*
X42648095Y50024048D02*
X42076667Y49452620D01*
X42076667Y49452620D02*
X42695714Y49452620D01*
X61327380Y57618334D02*
X60851190Y57285001D01*
X61327380Y57046906D02*
X60327380Y57046906D01*
X60327380Y57046906D02*
X60327380Y57427858D01*
X60327380Y57427858D02*
X60375000Y57523096D01*
X60375000Y57523096D02*
X60422619Y57570715D01*
X60422619Y57570715D02*
X60517857Y57618334D01*
X60517857Y57618334D02*
X60660714Y57618334D01*
X60660714Y57618334D02*
X60755952Y57570715D01*
X60755952Y57570715D02*
X60803571Y57523096D01*
X60803571Y57523096D02*
X60851190Y57427858D01*
X60851190Y57427858D02*
X60851190Y57046906D01*
X60327380Y58523096D02*
X60327380Y58046906D01*
X60327380Y58046906D02*
X60803571Y57999287D01*
X60803571Y57999287D02*
X60755952Y58046906D01*
X60755952Y58046906D02*
X60708333Y58142144D01*
X60708333Y58142144D02*
X60708333Y58380239D01*
X60708333Y58380239D02*
X60755952Y58475477D01*
X60755952Y58475477D02*
X60803571Y58523096D01*
X60803571Y58523096D02*
X60898809Y58570715D01*
X60898809Y58570715D02*
X61136904Y58570715D01*
X61136904Y58570715D02*
X61232142Y58523096D01*
X61232142Y58523096D02*
X61279761Y58475477D01*
X61279761Y58475477D02*
X61327380Y58380239D01*
X61327380Y58380239D02*
X61327380Y58142144D01*
X61327380Y58142144D02*
X61279761Y58046906D01*
X61279761Y58046906D02*
X61232142Y57999287D01*
X48627380Y57046906D02*
X47627380Y57046906D01*
X47627380Y57046906D02*
X47627380Y57285001D01*
X47627380Y57285001D02*
X47675000Y57427858D01*
X47675000Y57427858D02*
X47770238Y57523096D01*
X47770238Y57523096D02*
X47865476Y57570715D01*
X47865476Y57570715D02*
X48055952Y57618334D01*
X48055952Y57618334D02*
X48198809Y57618334D01*
X48198809Y57618334D02*
X48389285Y57570715D01*
X48389285Y57570715D02*
X48484523Y57523096D01*
X48484523Y57523096D02*
X48579761Y57427858D01*
X48579761Y57427858D02*
X48627380Y57285001D01*
X48627380Y57285001D02*
X48627380Y57046906D01*
X48627380Y58570715D02*
X48627380Y57999287D01*
X48627380Y58285001D02*
X47627380Y58285001D01*
X47627380Y58285001D02*
X47770238Y58189763D01*
X47770238Y58189763D02*
X47865476Y58094525D01*
X47865476Y58094525D02*
X47913095Y57999287D01*
X50427380Y67048096D02*
X49427380Y67048096D01*
X50427380Y67619524D02*
X49855952Y67190953D01*
X49427380Y67619524D02*
X49998809Y67048096D01*
X34861667Y78420239D02*
X35004524Y78372620D01*
X35004524Y78372620D02*
X35242619Y78372620D01*
X35242619Y78372620D02*
X35337857Y78420239D01*
X35337857Y78420239D02*
X35385476Y78467858D01*
X35385476Y78467858D02*
X35433095Y78563096D01*
X35433095Y78563096D02*
X35433095Y78658334D01*
X35433095Y78658334D02*
X35385476Y78753572D01*
X35385476Y78753572D02*
X35337857Y78801191D01*
X35337857Y78801191D02*
X35242619Y78848810D01*
X35242619Y78848810D02*
X35052143Y78896429D01*
X35052143Y78896429D02*
X34956905Y78944048D01*
X34956905Y78944048D02*
X34909286Y78991667D01*
X34909286Y78991667D02*
X34861667Y79086905D01*
X34861667Y79086905D02*
X34861667Y79182143D01*
X34861667Y79182143D02*
X34909286Y79277381D01*
X34909286Y79277381D02*
X34956905Y79325000D01*
X34956905Y79325000D02*
X35052143Y79372620D01*
X35052143Y79372620D02*
X35290238Y79372620D01*
X35290238Y79372620D02*
X35433095Y79325000D01*
X35766429Y79372620D02*
X36004524Y78372620D01*
X36004524Y78372620D02*
X36195000Y79086905D01*
X36195000Y79086905D02*
X36385476Y78372620D01*
X36385476Y78372620D02*
X36623572Y79372620D01*
X37528333Y78372620D02*
X36956905Y78372620D01*
X37242619Y78372620D02*
X37242619Y79372620D01*
X37242619Y79372620D02*
X37147381Y79229762D01*
X37147381Y79229762D02*
X37052143Y79134524D01*
X37052143Y79134524D02*
X36956905Y79086905D01*
X4318095Y7942620D02*
X4318095Y8942620D01*
X4318095Y8466429D02*
X4889523Y8466429D01*
X4889523Y7942620D02*
X4889523Y8942620D01*
X5318095Y8847381D02*
X5365714Y8895000D01*
X5365714Y8895000D02*
X5460952Y8942620D01*
X5460952Y8942620D02*
X5699047Y8942620D01*
X5699047Y8942620D02*
X5794285Y8895000D01*
X5794285Y8895000D02*
X5841904Y8847381D01*
X5841904Y8847381D02*
X5889523Y8752143D01*
X5889523Y8752143D02*
X5889523Y8656905D01*
X5889523Y8656905D02*
X5841904Y8514048D01*
X5841904Y8514048D02*
X5270476Y7942620D01*
X5270476Y7942620D02*
X5889523Y7942620D01*
X86026666Y67732620D02*
X86026666Y67018334D01*
X86026666Y67018334D02*
X85979047Y66875477D01*
X85979047Y66875477D02*
X85883809Y66780239D01*
X85883809Y66780239D02*
X85740952Y66732620D01*
X85740952Y66732620D02*
X85645714Y66732620D01*
X86407619Y67732620D02*
X87074285Y67732620D01*
X87074285Y67732620D02*
X86645714Y66732620D01*
X3746666Y52917620D02*
X3746666Y52203334D01*
X3746666Y52203334D02*
X3699047Y52060477D01*
X3699047Y52060477D02*
X3603809Y51965239D01*
X3603809Y51965239D02*
X3460952Y51917620D01*
X3460952Y51917620D02*
X3365714Y51917620D01*
X4127619Y52917620D02*
X4746666Y52917620D01*
X4746666Y52917620D02*
X4413333Y52536667D01*
X4413333Y52536667D02*
X4556190Y52536667D01*
X4556190Y52536667D02*
X4651428Y52489048D01*
X4651428Y52489048D02*
X4699047Y52441429D01*
X4699047Y52441429D02*
X4746666Y52346191D01*
X4746666Y52346191D02*
X4746666Y52108096D01*
X4746666Y52108096D02*
X4699047Y52012858D01*
X4699047Y52012858D02*
X4651428Y51965239D01*
X4651428Y51965239D02*
X4556190Y51917620D01*
X4556190Y51917620D02*
X4270476Y51917620D01*
X4270476Y51917620D02*
X4175238Y51965239D01*
X4175238Y51965239D02*
X4127619Y52012858D01*
X58787380Y57618334D02*
X58311190Y57285001D01*
X58787380Y57046906D02*
X57787380Y57046906D01*
X57787380Y57046906D02*
X57787380Y57427858D01*
X57787380Y57427858D02*
X57835000Y57523096D01*
X57835000Y57523096D02*
X57882619Y57570715D01*
X57882619Y57570715D02*
X57977857Y57618334D01*
X57977857Y57618334D02*
X58120714Y57618334D01*
X58120714Y57618334D02*
X58215952Y57570715D01*
X58215952Y57570715D02*
X58263571Y57523096D01*
X58263571Y57523096D02*
X58311190Y57427858D01*
X58311190Y57427858D02*
X58311190Y57046906D01*
X58120714Y58475477D02*
X58787380Y58475477D01*
X57739761Y58237382D02*
X58454047Y57999287D01*
X58454047Y57999287D02*
X58454047Y58618334D01*
X76053333Y24837858D02*
X76005714Y24790239D01*
X76005714Y24790239D02*
X75862857Y24742620D01*
X75862857Y24742620D02*
X75767619Y24742620D01*
X75767619Y24742620D02*
X75624762Y24790239D01*
X75624762Y24790239D02*
X75529524Y24885477D01*
X75529524Y24885477D02*
X75481905Y24980715D01*
X75481905Y24980715D02*
X75434286Y25171191D01*
X75434286Y25171191D02*
X75434286Y25314048D01*
X75434286Y25314048D02*
X75481905Y25504524D01*
X75481905Y25504524D02*
X75529524Y25599762D01*
X75529524Y25599762D02*
X75624762Y25695000D01*
X75624762Y25695000D02*
X75767619Y25742620D01*
X75767619Y25742620D02*
X75862857Y25742620D01*
X75862857Y25742620D02*
X76005714Y25695000D01*
X76005714Y25695000D02*
X76053333Y25647381D01*
X76958095Y25742620D02*
X76481905Y25742620D01*
X76481905Y25742620D02*
X76434286Y25266429D01*
X76434286Y25266429D02*
X76481905Y25314048D01*
X76481905Y25314048D02*
X76577143Y25361667D01*
X76577143Y25361667D02*
X76815238Y25361667D01*
X76815238Y25361667D02*
X76910476Y25314048D01*
X76910476Y25314048D02*
X76958095Y25266429D01*
X76958095Y25266429D02*
X77005714Y25171191D01*
X77005714Y25171191D02*
X77005714Y24933096D01*
X77005714Y24933096D02*
X76958095Y24837858D01*
X76958095Y24837858D02*
X76910476Y24790239D01*
X76910476Y24790239D02*
X76815238Y24742620D01*
X76815238Y24742620D02*
X76577143Y24742620D01*
X76577143Y24742620D02*
X76481905Y24790239D01*
X76481905Y24790239D02*
X76434286Y24837858D01*
X1778095Y65672620D02*
X1778095Y66672620D01*
X1778095Y66196429D02*
X2349523Y66196429D01*
X2349523Y65672620D02*
X2349523Y66672620D01*
X3301904Y66672620D02*
X2825714Y66672620D01*
X2825714Y66672620D02*
X2778095Y66196429D01*
X2778095Y66196429D02*
X2825714Y66244048D01*
X2825714Y66244048D02*
X2920952Y66291667D01*
X2920952Y66291667D02*
X3159047Y66291667D01*
X3159047Y66291667D02*
X3254285Y66244048D01*
X3254285Y66244048D02*
X3301904Y66196429D01*
X3301904Y66196429D02*
X3349523Y66101191D01*
X3349523Y66101191D02*
X3349523Y65863096D01*
X3349523Y65863096D02*
X3301904Y65767858D01*
X3301904Y65767858D02*
X3254285Y65720239D01*
X3254285Y65720239D02*
X3159047Y65672620D01*
X3159047Y65672620D02*
X2920952Y65672620D01*
X2920952Y65672620D02*
X2825714Y65720239D01*
X2825714Y65720239D02*
X2778095Y65767858D01*
X33528095Y49527620D02*
X33528095Y48718096D01*
X33528095Y48718096D02*
X33575714Y48622858D01*
X33575714Y48622858D02*
X33623333Y48575239D01*
X33623333Y48575239D02*
X33718571Y48527620D01*
X33718571Y48527620D02*
X33909047Y48527620D01*
X33909047Y48527620D02*
X34004285Y48575239D01*
X34004285Y48575239D02*
X34051904Y48622858D01*
X34051904Y48622858D02*
X34099523Y48718096D01*
X34099523Y48718096D02*
X34099523Y49527620D01*
X34528095Y49432381D02*
X34575714Y49480000D01*
X34575714Y49480000D02*
X34670952Y49527620D01*
X34670952Y49527620D02*
X34909047Y49527620D01*
X34909047Y49527620D02*
X35004285Y49480000D01*
X35004285Y49480000D02*
X35051904Y49432381D01*
X35051904Y49432381D02*
X35099523Y49337143D01*
X35099523Y49337143D02*
X35099523Y49241905D01*
X35099523Y49241905D02*
X35051904Y49099048D01*
X35051904Y49099048D02*
X34480476Y48527620D01*
X34480476Y48527620D02*
X35099523Y48527620D01*
X74866666Y69272620D02*
X74533333Y69748810D01*
X74295238Y69272620D02*
X74295238Y70272620D01*
X74295238Y70272620D02*
X74676190Y70272620D01*
X74676190Y70272620D02*
X74771428Y70225000D01*
X74771428Y70225000D02*
X74819047Y70177381D01*
X74819047Y70177381D02*
X74866666Y70082143D01*
X74866666Y70082143D02*
X74866666Y69939286D01*
X74866666Y69939286D02*
X74819047Y69844048D01*
X74819047Y69844048D02*
X74771428Y69796429D01*
X74771428Y69796429D02*
X74676190Y69748810D01*
X74676190Y69748810D02*
X74295238Y69748810D01*
X75295238Y69796429D02*
X75628571Y69796429D01*
X75771428Y69272620D02*
X75295238Y69272620D01*
X75295238Y69272620D02*
X75295238Y70272620D01*
X75295238Y70272620D02*
X75771428Y70272620D01*
X76533333Y69796429D02*
X76200000Y69796429D01*
X76200000Y69272620D02*
X76200000Y70272620D01*
X76200000Y70272620D02*
X76676190Y70272620D01*
X77200000Y70272620D02*
X77200000Y70034524D01*
X76961905Y70129762D02*
X77200000Y70034524D01*
X77200000Y70034524D02*
X77438095Y70129762D01*
X77057143Y69844048D02*
X77200000Y70034524D01*
X77200000Y70034524D02*
X77342857Y69844048D01*
X77961905Y70272620D02*
X77961905Y70034524D01*
X77723810Y70129762D02*
X77961905Y70034524D01*
X77961905Y70034524D02*
X78200000Y70129762D01*
X77819048Y69844048D02*
X77961905Y70034524D01*
X77961905Y70034524D02*
X78104762Y69844048D01*
X93218095Y7942620D02*
X93218095Y8942620D01*
X93218095Y8466429D02*
X93789523Y8466429D01*
X93789523Y7942620D02*
X93789523Y8942620D01*
X94694285Y8609286D02*
X94694285Y7942620D01*
X94456190Y8990239D02*
X94218095Y8275953D01*
X94218095Y8275953D02*
X94837142Y8275953D01*
X11263333Y32112858D02*
X11215714Y32065239D01*
X11215714Y32065239D02*
X11072857Y32017620D01*
X11072857Y32017620D02*
X10977619Y32017620D01*
X10977619Y32017620D02*
X10834762Y32065239D01*
X10834762Y32065239D02*
X10739524Y32160477D01*
X10739524Y32160477D02*
X10691905Y32255715D01*
X10691905Y32255715D02*
X10644286Y32446191D01*
X10644286Y32446191D02*
X10644286Y32589048D01*
X10644286Y32589048D02*
X10691905Y32779524D01*
X10691905Y32779524D02*
X10739524Y32874762D01*
X10739524Y32874762D02*
X10834762Y32970000D01*
X10834762Y32970000D02*
X10977619Y33017620D01*
X10977619Y33017620D02*
X11072857Y33017620D01*
X11072857Y33017620D02*
X11215714Y32970000D01*
X11215714Y32970000D02*
X11263333Y32922381D01*
X12215714Y32017620D02*
X11644286Y32017620D01*
X11930000Y32017620D02*
X11930000Y33017620D01*
X11930000Y33017620D02*
X11834762Y32874762D01*
X11834762Y32874762D02*
X11739524Y32779524D01*
X11739524Y32779524D02*
X11644286Y32731905D01*
X51167380Y57618334D02*
X50691190Y57285001D01*
X51167380Y57046906D02*
X50167380Y57046906D01*
X50167380Y57046906D02*
X50167380Y57427858D01*
X50167380Y57427858D02*
X50215000Y57523096D01*
X50215000Y57523096D02*
X50262619Y57570715D01*
X50262619Y57570715D02*
X50357857Y57618334D01*
X50357857Y57618334D02*
X50500714Y57618334D01*
X50500714Y57618334D02*
X50595952Y57570715D01*
X50595952Y57570715D02*
X50643571Y57523096D01*
X50643571Y57523096D02*
X50691190Y57427858D01*
X50691190Y57427858D02*
X50691190Y57046906D01*
X51167380Y58570715D02*
X51167380Y57999287D01*
X51167380Y58285001D02*
X50167380Y58285001D01*
X50167380Y58285001D02*
X50310238Y58189763D01*
X50310238Y58189763D02*
X50405476Y58094525D01*
X50405476Y58094525D02*
X50453095Y57999287D01*
X42211666Y81277620D02*
X42211666Y80563334D01*
X42211666Y80563334D02*
X42164047Y80420477D01*
X42164047Y80420477D02*
X42068809Y80325239D01*
X42068809Y80325239D02*
X41925952Y80277620D01*
X41925952Y80277620D02*
X41830714Y80277620D01*
X43164047Y81277620D02*
X42687857Y81277620D01*
X42687857Y81277620D02*
X42640238Y80801429D01*
X42640238Y80801429D02*
X42687857Y80849048D01*
X42687857Y80849048D02*
X42783095Y80896667D01*
X42783095Y80896667D02*
X43021190Y80896667D01*
X43021190Y80896667D02*
X43116428Y80849048D01*
X43116428Y80849048D02*
X43164047Y80801429D01*
X43164047Y80801429D02*
X43211666Y80706191D01*
X43211666Y80706191D02*
X43211666Y80468096D01*
X43211666Y80468096D02*
X43164047Y80372858D01*
X43164047Y80372858D02*
X43116428Y80325239D01*
X43116428Y80325239D02*
X43021190Y80277620D01*
X43021190Y80277620D02*
X42783095Y80277620D01*
X42783095Y80277620D02*
X42687857Y80325239D01*
X42687857Y80325239D02*
X42640238Y80372858D01*
X56247380Y57618334D02*
X55771190Y57285001D01*
X56247380Y57046906D02*
X55247380Y57046906D01*
X55247380Y57046906D02*
X55247380Y57427858D01*
X55247380Y57427858D02*
X55295000Y57523096D01*
X55295000Y57523096D02*
X55342619Y57570715D01*
X55342619Y57570715D02*
X55437857Y57618334D01*
X55437857Y57618334D02*
X55580714Y57618334D01*
X55580714Y57618334D02*
X55675952Y57570715D01*
X55675952Y57570715D02*
X55723571Y57523096D01*
X55723571Y57523096D02*
X55771190Y57427858D01*
X55771190Y57427858D02*
X55771190Y57046906D01*
X55247380Y57951668D02*
X55247380Y58570715D01*
X55247380Y58570715D02*
X55628333Y58237382D01*
X55628333Y58237382D02*
X55628333Y58380239D01*
X55628333Y58380239D02*
X55675952Y58475477D01*
X55675952Y58475477D02*
X55723571Y58523096D01*
X55723571Y58523096D02*
X55818809Y58570715D01*
X55818809Y58570715D02*
X56056904Y58570715D01*
X56056904Y58570715D02*
X56152142Y58523096D01*
X56152142Y58523096D02*
X56199761Y58475477D01*
X56199761Y58475477D02*
X56247380Y58380239D01*
X56247380Y58380239D02*
X56247380Y58094525D01*
X56247380Y58094525D02*
X56199761Y57999287D01*
X56199761Y57999287D02*
X56152142Y57951668D01*
X14271666Y76137620D02*
X14271666Y75423334D01*
X14271666Y75423334D02*
X14224047Y75280477D01*
X14224047Y75280477D02*
X14128809Y75185239D01*
X14128809Y75185239D02*
X13985952Y75137620D01*
X13985952Y75137620D02*
X13890714Y75137620D01*
X15176428Y75804286D02*
X15176428Y75137620D01*
X14938333Y76185239D02*
X14700238Y75470953D01*
X14700238Y75470953D02*
X15319285Y75470953D01*
X42378333Y31213258D02*
X42330714Y31165639D01*
X42330714Y31165639D02*
X42187857Y31118020D01*
X42187857Y31118020D02*
X42092619Y31118020D01*
X42092619Y31118020D02*
X41949762Y31165639D01*
X41949762Y31165639D02*
X41854524Y31260877D01*
X41854524Y31260877D02*
X41806905Y31356115D01*
X41806905Y31356115D02*
X41759286Y31546591D01*
X41759286Y31546591D02*
X41759286Y31689448D01*
X41759286Y31689448D02*
X41806905Y31879924D01*
X41806905Y31879924D02*
X41854524Y31975162D01*
X41854524Y31975162D02*
X41949762Y32070400D01*
X41949762Y32070400D02*
X42092619Y32118020D01*
X42092619Y32118020D02*
X42187857Y32118020D01*
X42187857Y32118020D02*
X42330714Y32070400D01*
X42330714Y32070400D02*
X42378333Y32022781D01*
X43235476Y32118020D02*
X43045000Y32118020D01*
X43045000Y32118020D02*
X42949762Y32070400D01*
X42949762Y32070400D02*
X42902143Y32022781D01*
X42902143Y32022781D02*
X42806905Y31879924D01*
X42806905Y31879924D02*
X42759286Y31689448D01*
X42759286Y31689448D02*
X42759286Y31308496D01*
X42759286Y31308496D02*
X42806905Y31213258D01*
X42806905Y31213258D02*
X42854524Y31165639D01*
X42854524Y31165639D02*
X42949762Y31118020D01*
X42949762Y31118020D02*
X43140238Y31118020D01*
X43140238Y31118020D02*
X43235476Y31165639D01*
X43235476Y31165639D02*
X43283095Y31213258D01*
X43283095Y31213258D02*
X43330714Y31308496D01*
X43330714Y31308496D02*
X43330714Y31546591D01*
X43330714Y31546591D02*
X43283095Y31641829D01*
X43283095Y31641829D02*
X43235476Y31689448D01*
X43235476Y31689448D02*
X43140238Y31737067D01*
X43140238Y31737067D02*
X42949762Y31737067D01*
X42949762Y31737067D02*
X42854524Y31689448D01*
X42854524Y31689448D02*
X42806905Y31641829D01*
X42806905Y31641829D02*
X42759286Y31546591D01*
X1143095Y45082620D02*
X1143095Y44273096D01*
X1143095Y44273096D02*
X1190714Y44177858D01*
X1190714Y44177858D02*
X1238333Y44130239D01*
X1238333Y44130239D02*
X1333571Y44082620D01*
X1333571Y44082620D02*
X1524047Y44082620D01*
X1524047Y44082620D02*
X1619285Y44130239D01*
X1619285Y44130239D02*
X1666904Y44177858D01*
X1666904Y44177858D02*
X1714523Y44273096D01*
X1714523Y44273096D02*
X1714523Y45082620D01*
X2714523Y44082620D02*
X2143095Y44082620D01*
X2428809Y44082620D02*
X2428809Y45082620D01*
X2428809Y45082620D02*
X2333571Y44939762D01*
X2333571Y44939762D02*
X2238333Y44844524D01*
X2238333Y44844524D02*
X2143095Y44796905D01*
X2666904Y38952620D02*
X2095476Y38952620D01*
X2381190Y38952620D02*
X2381190Y39952620D01*
X2381190Y39952620D02*
X2285952Y39809762D01*
X2285952Y39809762D02*
X2190714Y39714524D01*
X2190714Y39714524D02*
X2095476Y39666905D01*
X76053333Y45157858D02*
X76005714Y45110239D01*
X76005714Y45110239D02*
X75862857Y45062620D01*
X75862857Y45062620D02*
X75767619Y45062620D01*
X75767619Y45062620D02*
X75624762Y45110239D01*
X75624762Y45110239D02*
X75529524Y45205477D01*
X75529524Y45205477D02*
X75481905Y45300715D01*
X75481905Y45300715D02*
X75434286Y45491191D01*
X75434286Y45491191D02*
X75434286Y45634048D01*
X75434286Y45634048D02*
X75481905Y45824524D01*
X75481905Y45824524D02*
X75529524Y45919762D01*
X75529524Y45919762D02*
X75624762Y46015000D01*
X75624762Y46015000D02*
X75767619Y46062620D01*
X75767619Y46062620D02*
X75862857Y46062620D01*
X75862857Y46062620D02*
X76005714Y46015000D01*
X76005714Y46015000D02*
X76053333Y45967381D01*
X76910476Y45729286D02*
X76910476Y45062620D01*
X76672381Y46110239D02*
X76434286Y45395953D01*
X76434286Y45395953D02*
X77053333Y45395953D01*
X93218095Y64402620D02*
X93218095Y65402620D01*
X93218095Y64926429D02*
X93789523Y64926429D01*
X93789523Y64402620D02*
X93789523Y65402620D01*
X94694285Y65402620D02*
X94503809Y65402620D01*
X94503809Y65402620D02*
X94408571Y65355000D01*
X94408571Y65355000D02*
X94360952Y65307381D01*
X94360952Y65307381D02*
X94265714Y65164524D01*
X94265714Y65164524D02*
X94218095Y64974048D01*
X94218095Y64974048D02*
X94218095Y64593096D01*
X94218095Y64593096D02*
X94265714Y64497858D01*
X94265714Y64497858D02*
X94313333Y64450239D01*
X94313333Y64450239D02*
X94408571Y64402620D01*
X94408571Y64402620D02*
X94599047Y64402620D01*
X94599047Y64402620D02*
X94694285Y64450239D01*
X94694285Y64450239D02*
X94741904Y64497858D01*
X94741904Y64497858D02*
X94789523Y64593096D01*
X94789523Y64593096D02*
X94789523Y64831191D01*
X94789523Y64831191D02*
X94741904Y64926429D01*
X94741904Y64926429D02*
X94694285Y64974048D01*
X94694285Y64974048D02*
X94599047Y65021667D01*
X94599047Y65021667D02*
X94408571Y65021667D01*
X94408571Y65021667D02*
X94313333Y64974048D01*
X94313333Y64974048D02*
X94265714Y64926429D01*
X94265714Y64926429D02*
X94218095Y64831191D01*
X70151666Y81277620D02*
X70151666Y80563334D01*
X70151666Y80563334D02*
X70104047Y80420477D01*
X70104047Y80420477D02*
X70008809Y80325239D01*
X70008809Y80325239D02*
X69865952Y80277620D01*
X69865952Y80277620D02*
X69770714Y80277620D01*
X71056428Y81277620D02*
X70865952Y81277620D01*
X70865952Y81277620D02*
X70770714Y81230000D01*
X70770714Y81230000D02*
X70723095Y81182381D01*
X70723095Y81182381D02*
X70627857Y81039524D01*
X70627857Y81039524D02*
X70580238Y80849048D01*
X70580238Y80849048D02*
X70580238Y80468096D01*
X70580238Y80468096D02*
X70627857Y80372858D01*
X70627857Y80372858D02*
X70675476Y80325239D01*
X70675476Y80325239D02*
X70770714Y80277620D01*
X70770714Y80277620D02*
X70961190Y80277620D01*
X70961190Y80277620D02*
X71056428Y80325239D01*
X71056428Y80325239D02*
X71104047Y80372858D01*
X71104047Y80372858D02*
X71151666Y80468096D01*
X71151666Y80468096D02*
X71151666Y80706191D01*
X71151666Y80706191D02*
X71104047Y80801429D01*
X71104047Y80801429D02*
X71056428Y80849048D01*
X71056428Y80849048D02*
X70961190Y80896667D01*
X70961190Y80896667D02*
X70770714Y80896667D01*
X70770714Y80896667D02*
X70675476Y80849048D01*
X70675476Y80849048D02*
X70627857Y80801429D01*
X70627857Y80801429D02*
X70580238Y80706191D01*
X26531667Y58640239D02*
X26674524Y58592620D01*
X26674524Y58592620D02*
X26912619Y58592620D01*
X26912619Y58592620D02*
X27007857Y58640239D01*
X27007857Y58640239D02*
X27055476Y58687858D01*
X27055476Y58687858D02*
X27103095Y58783096D01*
X27103095Y58783096D02*
X27103095Y58878334D01*
X27103095Y58878334D02*
X27055476Y58973572D01*
X27055476Y58973572D02*
X27007857Y59021191D01*
X27007857Y59021191D02*
X26912619Y59068810D01*
X26912619Y59068810D02*
X26722143Y59116429D01*
X26722143Y59116429D02*
X26626905Y59164048D01*
X26626905Y59164048D02*
X26579286Y59211667D01*
X26579286Y59211667D02*
X26531667Y59306905D01*
X26531667Y59306905D02*
X26531667Y59402143D01*
X26531667Y59402143D02*
X26579286Y59497381D01*
X26579286Y59497381D02*
X26626905Y59545000D01*
X26626905Y59545000D02*
X26722143Y59592620D01*
X26722143Y59592620D02*
X26960238Y59592620D01*
X26960238Y59592620D02*
X27103095Y59545000D01*
X27436429Y59592620D02*
X27674524Y58592620D01*
X27674524Y58592620D02*
X27865000Y59306905D01*
X27865000Y59306905D02*
X28055476Y58592620D01*
X28055476Y58592620D02*
X28293572Y59592620D01*
X28626905Y59497381D02*
X28674524Y59545000D01*
X28674524Y59545000D02*
X28769762Y59592620D01*
X28769762Y59592620D02*
X29007857Y59592620D01*
X29007857Y59592620D02*
X29103095Y59545000D01*
X29103095Y59545000D02*
X29150714Y59497381D01*
X29150714Y59497381D02*
X29198333Y59402143D01*
X29198333Y59402143D02*
X29198333Y59306905D01*
X29198333Y59306905D02*
X29150714Y59164048D01*
X29150714Y59164048D02*
X28579286Y58592620D01*
X28579286Y58592620D02*
X29198333Y58592620D01*
X86026666Y60552620D02*
X86026666Y59838334D01*
X86026666Y59838334D02*
X85979047Y59695477D01*
X85979047Y59695477D02*
X85883809Y59600239D01*
X85883809Y59600239D02*
X85740952Y59552620D01*
X85740952Y59552620D02*
X85645714Y59552620D01*
X87026666Y59552620D02*
X86455238Y59552620D01*
X86740952Y59552620D02*
X86740952Y60552620D01*
X86740952Y60552620D02*
X86645714Y60409762D01*
X86645714Y60409762D02*
X86550476Y60314524D01*
X86550476Y60314524D02*
X86455238Y60266905D01*
X53707380Y57618334D02*
X53231190Y57285001D01*
X53707380Y57046906D02*
X52707380Y57046906D01*
X52707380Y57046906D02*
X52707380Y57427858D01*
X52707380Y57427858D02*
X52755000Y57523096D01*
X52755000Y57523096D02*
X52802619Y57570715D01*
X52802619Y57570715D02*
X52897857Y57618334D01*
X52897857Y57618334D02*
X53040714Y57618334D01*
X53040714Y57618334D02*
X53135952Y57570715D01*
X53135952Y57570715D02*
X53183571Y57523096D01*
X53183571Y57523096D02*
X53231190Y57427858D01*
X53231190Y57427858D02*
X53231190Y57046906D01*
X52802619Y57999287D02*
X52755000Y58046906D01*
X52755000Y58046906D02*
X52707380Y58142144D01*
X52707380Y58142144D02*
X52707380Y58380239D01*
X52707380Y58380239D02*
X52755000Y58475477D01*
X52755000Y58475477D02*
X52802619Y58523096D01*
X52802619Y58523096D02*
X52897857Y58570715D01*
X52897857Y58570715D02*
X52993095Y58570715D01*
X52993095Y58570715D02*
X53135952Y58523096D01*
X53135952Y58523096D02*
X53707380Y57951668D01*
X53707380Y57951668D02*
X53707380Y58570715D01*
X65706666Y60552620D02*
X65706666Y59838334D01*
X65706666Y59838334D02*
X65659047Y59695477D01*
X65659047Y59695477D02*
X65563809Y59600239D01*
X65563809Y59600239D02*
X65420952Y59552620D01*
X65420952Y59552620D02*
X65325714Y59552620D01*
X66135238Y60457381D02*
X66182857Y60505000D01*
X66182857Y60505000D02*
X66278095Y60552620D01*
X66278095Y60552620D02*
X66516190Y60552620D01*
X66516190Y60552620D02*
X66611428Y60505000D01*
X66611428Y60505000D02*
X66659047Y60457381D01*
X66659047Y60457381D02*
X66706666Y60362143D01*
X66706666Y60362143D02*
X66706666Y60266905D01*
X66706666Y60266905D02*
X66659047Y60124048D01*
X66659047Y60124048D02*
X66087619Y59552620D01*
X66087619Y59552620D02*
X66706666Y59552620D01*
X16363333Y62017858D02*
X16315714Y61970239D01*
X16315714Y61970239D02*
X16172857Y61922620D01*
X16172857Y61922620D02*
X16077619Y61922620D01*
X16077619Y61922620D02*
X15934762Y61970239D01*
X15934762Y61970239D02*
X15839524Y62065477D01*
X15839524Y62065477D02*
X15791905Y62160715D01*
X15791905Y62160715D02*
X15744286Y62351191D01*
X15744286Y62351191D02*
X15744286Y62494048D01*
X15744286Y62494048D02*
X15791905Y62684524D01*
X15791905Y62684524D02*
X15839524Y62779762D01*
X15839524Y62779762D02*
X15934762Y62875000D01*
X15934762Y62875000D02*
X16077619Y62922620D01*
X16077619Y62922620D02*
X16172857Y62922620D01*
X16172857Y62922620D02*
X16315714Y62875000D01*
X16315714Y62875000D02*
X16363333Y62827381D01*
X16696667Y62922620D02*
X17315714Y62922620D01*
X17315714Y62922620D02*
X16982381Y62541667D01*
X16982381Y62541667D02*
X17125238Y62541667D01*
X17125238Y62541667D02*
X17220476Y62494048D01*
X17220476Y62494048D02*
X17268095Y62446429D01*
X17268095Y62446429D02*
X17315714Y62351191D01*
X17315714Y62351191D02*
X17315714Y62113096D01*
X17315714Y62113096D02*
X17268095Y62017858D01*
X17268095Y62017858D02*
X17220476Y61970239D01*
X17220476Y61970239D02*
X17125238Y61922620D01*
X17125238Y61922620D02*
X16839524Y61922620D01*
X16839524Y61922620D02*
X16744286Y61970239D01*
X16744286Y61970239D02*
X16696667Y62017858D01*
D11*
X39336000Y65060000D02*
X39180000Y65060000D01*
X37020000Y65060000D02*
X36864000Y65060000D01*
X39178608Y61827666D02*
G75*
G03*
X39335515Y65059999I-1078608J1672334D01*
G01*
X39179836Y62458871D02*
G75*
G03*
X39179999Y64540960I-1079836J1041129D01*
G01*
X37020001Y64540960D02*
G75*
G03*
X37020164Y62458871I1079999J-1040960D01*
G01*
X36864485Y65059999D02*
G75*
G03*
X37021392Y61827666I1235515J-1559999D01*
G01*
X44780000Y50950000D02*
X44780000Y51015000D01*
X44780000Y50950000D02*
X41540000Y50950000D01*
X44780000Y53125000D02*
X44780000Y53190000D01*
X44780000Y53190000D02*
X41540000Y53190000D01*
X41540000Y50950000D02*
X41540000Y51015000D01*
X41540000Y53125000D02*
X41540000Y53190000D01*
X60960000Y60630000D02*
X60960000Y61580000D01*
X60040000Y61580000D02*
X61880000Y61580000D01*
X61880000Y61580000D02*
X61880000Y65420000D01*
X60040000Y65420000D02*
X60040000Y61580000D01*
X61880000Y65420000D02*
X60040000Y65420000D01*
X60960000Y66370000D02*
X60960000Y65420000D01*
X48260000Y66270000D02*
X48260000Y65620000D01*
X49380000Y65620000D02*
X47140000Y65620000D01*
X47140000Y65620000D02*
X47140000Y61380000D01*
X49380000Y65020000D02*
X47140000Y65020000D01*
X49380000Y64900000D02*
X47140000Y64900000D01*
X49380000Y64780000D02*
X47140000Y64780000D01*
X49380000Y61380000D02*
X49380000Y65620000D01*
X47140000Y61380000D02*
X49380000Y61380000D01*
X48260000Y60730000D02*
X48260000Y61380000D01*
X40100000Y78060000D02*
X40100000Y69260000D01*
X36100000Y78060000D02*
X40100000Y78060000D01*
X40100000Y69260000D02*
X36100000Y69260000D01*
X36100000Y69260000D02*
X36100000Y78060000D01*
X85030000Y66100000D02*
X86360000Y66100000D01*
X85030000Y64770000D02*
X85030000Y66100000D01*
X85030000Y63500000D02*
X85030000Y60900000D01*
X85030000Y63500000D02*
X87690000Y63500000D01*
X85030000Y60900000D02*
X87690000Y60900000D01*
X87690000Y63500000D02*
X87690000Y60900000D01*
X540000Y62285000D02*
X540000Y53285000D01*
X540000Y53285000D02*
X15040000Y53285000D01*
X4040000Y53285000D02*
X4040000Y62285000D01*
X7740000Y56785000D02*
X7740000Y58785000D01*
X8740000Y58785000D02*
X8740000Y56785000D01*
X10240000Y53385000D02*
X12240000Y53385000D01*
X10240000Y52385000D02*
X12240000Y52385000D01*
X13740000Y56485000D02*
X13740000Y59085000D01*
X14740000Y59085000D02*
X14740000Y56485000D01*
X15040000Y62285000D02*
X540000Y62285000D01*
X15040000Y53285000D02*
X15040000Y62285000D01*
X8740000Y58785000D02*
G75*
G03*
X7740000Y58785000I-500000J0D01*
G01*
X7740000Y56785000D02*
G75*
G03*
X8740000Y56785000I500000J0D01*
G01*
X10240000Y53385000D02*
G75*
G03*
X10240000Y52385000I0J-500000D01*
G01*
X12240000Y52385000D02*
G75*
G03*
X12240000Y53385000I0J500000D01*
G01*
X14740000Y59085000D02*
G75*
G03*
X13740000Y59085000I-500000J0D01*
G01*
X13740000Y56485000D02*
G75*
G03*
X14740000Y56485000I500000J0D01*
G01*
X58420000Y60630000D02*
X58420000Y61580000D01*
X57500000Y61580000D02*
X59340000Y61580000D01*
X59340000Y61580000D02*
X59340000Y65420000D01*
X57500000Y65420000D02*
X57500000Y61580000D01*
X59340000Y65420000D02*
X57500000Y65420000D01*
X58420000Y66370000D02*
X58420000Y65420000D01*
X74600000Y23980000D02*
X74600000Y23915000D01*
X74600000Y23980000D02*
X77840000Y23980000D01*
X74600000Y21805000D02*
X74600000Y21740000D01*
X74600000Y21740000D02*
X77840000Y21740000D01*
X77840000Y23980000D02*
X77840000Y23915000D01*
X77840000Y21805000D02*
X77840000Y21740000D01*
X33415000Y47990000D02*
X33415000Y34790000D01*
X54215000Y45990000D02*
X54015000Y45990000D01*
X54215000Y45990000D02*
X54215000Y34790000D01*
X54015000Y45990000D02*
X54015000Y47990000D01*
X67310000Y68640000D02*
X67310000Y67250000D01*
X67945000Y58420000D02*
X84455000Y58420000D01*
X67945000Y7620000D02*
X84455000Y7620000D01*
X70140000Y68640000D02*
X70140000Y7620000D01*
X70140000Y7730000D02*
X82260000Y7730000D01*
X75200000Y68640000D02*
X70140000Y68640000D01*
X82260000Y68640000D02*
X77200000Y68640000D01*
X82260000Y7730000D02*
X82260000Y68640000D01*
X85090000Y68700000D02*
X67310000Y68700000D01*
X85090000Y68700000D02*
X85090000Y67310000D01*
X75200000Y68640000D02*
G75*
G03*
X77200000Y68640000I1000000J0D01*
G01*
X75200000Y58404000D02*
G75*
G03*
X77200000Y58404000I1000000J0D01*
G01*
X12850000Y28840000D02*
X12915000Y28840000D01*
X12850000Y28840000D02*
X12850000Y32080000D01*
X15025000Y28840000D02*
X15090000Y28840000D01*
X15090000Y28840000D02*
X15090000Y32080000D01*
X12850000Y32080000D02*
X12915000Y32080000D01*
X15025000Y32080000D02*
X15090000Y32080000D01*
X50800000Y66370000D02*
X50800000Y65420000D01*
X51720000Y65420000D02*
X49880000Y65420000D01*
X49880000Y65420000D02*
X49880000Y61580000D01*
X51720000Y61580000D02*
X51720000Y65420000D01*
X49880000Y61580000D02*
X51720000Y61580000D01*
X50800000Y60630000D02*
X50800000Y61580000D01*
X63500000Y69850000D02*
X64770000Y69850000D01*
X64770000Y69850000D02*
X64770000Y71120000D01*
X45340000Y72162929D02*
X45340000Y72560000D01*
X46100000Y72162929D02*
X46100000Y72560000D01*
X47880000Y72162929D02*
X47880000Y72560000D01*
X48640000Y72162929D02*
X48640000Y72560000D01*
X50420000Y72162929D02*
X50420000Y72560000D01*
X51180000Y72162929D02*
X51180000Y72560000D01*
X52960000Y72162929D02*
X52960000Y72560000D01*
X53720000Y72162929D02*
X53720000Y72560000D01*
X55500000Y72162929D02*
X55500000Y72560000D01*
X56260000Y72162929D02*
X56260000Y72560000D01*
X58040000Y72162929D02*
X58040000Y72560000D01*
X58800000Y72162929D02*
X58800000Y72560000D01*
X60580000Y72162929D02*
X60580000Y72560000D01*
X61340000Y72162929D02*
X61340000Y72560000D01*
X63120000Y72230000D02*
X63120000Y72560000D01*
X63880000Y72230000D02*
X63880000Y72560000D01*
X44390000Y72560000D02*
X44390000Y75220000D01*
X46990000Y72560000D02*
X46990000Y75220000D01*
X49530000Y72560000D02*
X49530000Y75220000D01*
X52070000Y72560000D02*
X52070000Y75220000D01*
X54610000Y72560000D02*
X54610000Y75220000D01*
X57150000Y72560000D02*
X57150000Y75220000D01*
X59690000Y72560000D02*
X59690000Y75220000D01*
X62230000Y72560000D02*
X62230000Y75220000D01*
X64830000Y72560000D02*
X44390000Y72560000D01*
X44390000Y75220000D02*
X64830000Y75220000D01*
X46100000Y75220000D02*
X46100000Y76180400D01*
X48656200Y75220000D02*
X48655200Y76180400D01*
X51180000Y75220000D02*
X51180000Y76180400D01*
X53736200Y75220000D02*
X53735200Y76180400D01*
X56276200Y75220000D02*
X56275200Y76180400D01*
X58800000Y75220000D02*
X58800000Y76180400D01*
X61340000Y75220000D02*
X61340000Y76180400D01*
X63700000Y75220000D02*
X63700000Y76180400D01*
X64830000Y75220000D02*
X64830000Y72560000D01*
X63108800Y75266000D02*
X63108800Y76180400D01*
X63210400Y75266000D02*
X63210400Y76180400D01*
X63312000Y75266000D02*
X63312000Y76180400D01*
X63413600Y75266000D02*
X63413600Y76180400D01*
X63515200Y75266000D02*
X63515200Y76180400D01*
X63616800Y75266000D02*
X63616800Y76180400D01*
X63769200Y75266000D02*
X63769200Y76180400D01*
X63870800Y75266000D02*
X63870800Y76180400D01*
X63921600Y75266000D02*
X63921600Y76180400D01*
X45340000Y76180400D02*
X45340000Y75220000D01*
X46100000Y76180400D02*
X45340000Y76180400D01*
X47895200Y76180400D02*
X47894200Y75220000D01*
X48655200Y76180400D02*
X47895200Y76180400D01*
X50420000Y76180400D02*
X50420000Y75220000D01*
X51180000Y76180400D02*
X50420000Y76180400D01*
X52975200Y76180400D02*
X52974200Y75220000D01*
X53735200Y76180400D02*
X52975200Y76180400D01*
X55515200Y76180400D02*
X55514200Y75291400D01*
X56275200Y76180400D02*
X55515200Y76180400D01*
X58040000Y76180400D02*
X58040000Y75220000D01*
X58800000Y76180400D02*
X58040000Y76180400D01*
X60580000Y76180400D02*
X60580000Y75220000D01*
X61340000Y76180400D02*
X60580000Y76180400D01*
X63135200Y76180400D02*
X63108800Y75215200D01*
X63895200Y76180400D02*
X63135200Y76180400D01*
X55880000Y66370000D02*
X55880000Y65420000D01*
X56800000Y65420000D02*
X54960000Y65420000D01*
X54960000Y65420000D02*
X54960000Y61580000D01*
X56800000Y61580000D02*
X56800000Y65420000D01*
X54960000Y61580000D02*
X56800000Y61580000D01*
X55880000Y60630000D02*
X55880000Y61580000D01*
X16510000Y69850000D02*
X16510000Y71120000D01*
X17780000Y69850000D02*
X16510000Y69850000D01*
X19940000Y72162929D02*
X19940000Y72560000D01*
X20700000Y72162929D02*
X20700000Y72560000D01*
X22480000Y72162929D02*
X22480000Y72560000D01*
X23240000Y72162929D02*
X23240000Y72560000D01*
X25020000Y72162929D02*
X25020000Y72560000D01*
X25780000Y72162929D02*
X25780000Y72560000D01*
X27560000Y72162929D02*
X27560000Y72560000D01*
X28320000Y72162929D02*
X28320000Y72560000D01*
X30100000Y72162929D02*
X30100000Y72560000D01*
X30860000Y72162929D02*
X30860000Y72560000D01*
X17400000Y72230000D02*
X17400000Y72560000D01*
X18160000Y72230000D02*
X18160000Y72560000D01*
X16450000Y72560000D02*
X31810000Y72560000D01*
X19050000Y72560000D02*
X19050000Y75220000D01*
X21590000Y72560000D02*
X21590000Y75220000D01*
X24130000Y72560000D02*
X24130000Y75220000D01*
X26670000Y72560000D02*
X26670000Y75220000D01*
X29210000Y72560000D02*
X29210000Y75220000D01*
X31810000Y72560000D02*
X31810000Y75220000D01*
X16450000Y75220000D02*
X16450000Y72560000D01*
X17400000Y75220000D02*
X17400000Y76200000D01*
X17460000Y75220000D02*
X17460000Y76200000D01*
X17580000Y75220000D02*
X17580000Y76200000D01*
X17700000Y75220000D02*
X17700000Y76200000D01*
X17830800Y75220000D02*
X17830800Y76200000D01*
X17940000Y75220000D02*
X17940000Y76200000D01*
X18060000Y75220000D02*
X18059400Y76200000D01*
X19940000Y75220000D02*
X19940000Y76225400D01*
X22480000Y75220000D02*
X22480000Y76200000D01*
X25020000Y75220000D02*
X25020000Y76200000D01*
X27560000Y75220000D02*
X27560000Y76200000D01*
X30100000Y75220000D02*
X30100000Y76200000D01*
X31810000Y75220000D02*
X16450000Y75220000D01*
X17780000Y75234800D02*
X17780000Y76200000D01*
X17400000Y76200000D02*
X18160000Y76200000D01*
X18160000Y76200000D02*
X18160000Y75220000D01*
X22480000Y76200000D02*
X23240000Y76200000D01*
X23240000Y76200000D02*
X23240000Y75220000D01*
X25020000Y76200000D02*
X25780000Y76200000D01*
X25780000Y76200000D02*
X25780000Y75220000D01*
X27560000Y76200000D02*
X28320000Y76200000D01*
X28320000Y76200000D02*
X28320000Y75220000D01*
X30100000Y76200000D02*
X30860000Y76200000D01*
X30860000Y76200000D02*
X30860000Y75220000D01*
X19940000Y76225400D02*
X20700000Y76225400D01*
X20700000Y76225400D02*
X20700000Y75220000D01*
X42215000Y30355400D02*
X42215000Y30290400D01*
X42215000Y30355400D02*
X45455000Y30355400D01*
X42215000Y28180400D02*
X42215000Y28115400D01*
X42215000Y28115400D02*
X45455000Y28115400D01*
X45455000Y30355400D02*
X45455000Y30290400D01*
X45455000Y28180400D02*
X45455000Y28115400D01*
X1270000Y41275000D02*
X1270000Y40640000D01*
X1270000Y40640000D02*
X3810000Y43180000D01*
X3175000Y43180000D02*
X1270000Y41275000D01*
X1270000Y43180000D02*
X26670000Y43180000D01*
X26670000Y43180000D02*
X26670000Y17780000D01*
X26670000Y17780000D02*
X1270000Y17780000D01*
X1270000Y17780000D02*
X1270000Y43180000D01*
X8255000Y36195000D02*
G75*
G03*
X8255000Y36195000I0J0D01*
G01*
X8614210Y36195000D02*
G75*
G03*
X8614210Y36195000I-359210J0D01*
G01*
X8890000Y36195000D02*
G75*
G03*
X8890000Y36195000I-635000J0D01*
G01*
X9153026Y36195000D02*
G75*
G03*
X9153026Y36195000I-898026J0D01*
G01*
X74600000Y44300000D02*
X74600000Y44235000D01*
X74600000Y44300000D02*
X77840000Y44300000D01*
X74600000Y42125000D02*
X74600000Y42060000D01*
X74600000Y42060000D02*
X77840000Y42060000D01*
X77840000Y44300000D02*
X77840000Y44235000D01*
X77840000Y42125000D02*
X77840000Y42060000D01*
X72390000Y69850000D02*
X72390000Y71120000D01*
X73660000Y69850000D02*
X72390000Y69850000D01*
X75820000Y72162929D02*
X75820000Y72560000D01*
X76580000Y72162929D02*
X76580000Y72560000D01*
X78360000Y72162929D02*
X78360000Y72560000D01*
X79120000Y72162929D02*
X79120000Y72560000D01*
X80900000Y72162929D02*
X80900000Y72560000D01*
X81660000Y72162929D02*
X81660000Y72560000D01*
X83440000Y72162929D02*
X83440000Y72560000D01*
X84200000Y72162929D02*
X84200000Y72560000D01*
X85980000Y72162929D02*
X85980000Y72560000D01*
X86740000Y72162929D02*
X86740000Y72560000D01*
X73280000Y72230000D02*
X73280000Y72560000D01*
X74040000Y72230000D02*
X74040000Y72560000D01*
X72330000Y72560000D02*
X87690000Y72560000D01*
X74930000Y72560000D02*
X74930000Y75220000D01*
X77470000Y72560000D02*
X77470000Y75220000D01*
X80010000Y72560000D02*
X80010000Y75220000D01*
X82550000Y72560000D02*
X82550000Y75220000D01*
X85090000Y72560000D02*
X85090000Y75220000D01*
X87690000Y72560000D02*
X87690000Y75220000D01*
X72330000Y75220000D02*
X72330000Y72560000D01*
X73280000Y75220000D02*
X73280000Y76200000D01*
X73340000Y75220000D02*
X73340000Y76200000D01*
X73460000Y75220000D02*
X73460000Y76200000D01*
X73580000Y75220000D02*
X73580000Y76200000D01*
X73710800Y75220000D02*
X73710800Y76200000D01*
X73820000Y75220000D02*
X73820000Y76200000D01*
X73940000Y75220000D02*
X73939400Y76200000D01*
X75820000Y75220000D02*
X75820000Y76225400D01*
X78360000Y75220000D02*
X78360000Y76200000D01*
X80900000Y75220000D02*
X80900000Y76200000D01*
X83440000Y75220000D02*
X83440000Y76200000D01*
X85980000Y75220000D02*
X85980000Y76200000D01*
X87690000Y75220000D02*
X72330000Y75220000D01*
X73660000Y75234800D02*
X73660000Y76200000D01*
X73280000Y76200000D02*
X74040000Y76200000D01*
X74040000Y76200000D02*
X74040000Y75220000D01*
X78360000Y76200000D02*
X79120000Y76200000D01*
X79120000Y76200000D02*
X79120000Y75220000D01*
X80900000Y76200000D02*
X81660000Y76200000D01*
X81660000Y76200000D02*
X81660000Y75220000D01*
X83440000Y76200000D02*
X84200000Y76200000D01*
X84200000Y76200000D02*
X84200000Y75220000D01*
X85980000Y76200000D02*
X86740000Y76200000D01*
X86740000Y76200000D02*
X86740000Y75220000D01*
X75820000Y76225400D02*
X76580000Y76225400D01*
X76580000Y76225400D02*
X76580000Y75220000D01*
X31365000Y62460000D02*
X31365000Y63960000D01*
X30115000Y66460000D02*
X25615000Y66460000D01*
X25615000Y59960000D02*
X30115000Y59960000D01*
X24365000Y63960000D02*
X24365000Y62460000D01*
X85030000Y55880000D02*
X85030000Y7560000D01*
X85030000Y55880000D02*
X87690000Y55880000D01*
X85030000Y7560000D02*
X87690000Y7560000D01*
X86360000Y58480000D02*
X87690000Y58480000D01*
X87690000Y58480000D02*
X87690000Y57150000D01*
X87690000Y55880000D02*
X87690000Y7560000D01*
X53340000Y66370000D02*
X53340000Y65420000D01*
X54260000Y65420000D02*
X52420000Y65420000D01*
X52420000Y65420000D02*
X52420000Y61580000D01*
X54260000Y61580000D02*
X54260000Y65420000D01*
X52420000Y61580000D02*
X54260000Y61580000D01*
X53340000Y60630000D02*
X53340000Y61580000D01*
X64710000Y55880000D02*
X64710000Y7560000D01*
X64710000Y55880000D02*
X67370000Y55880000D01*
X64710000Y7560000D02*
X67370000Y7560000D01*
X66040000Y58480000D02*
X67370000Y58480000D01*
X67370000Y58480000D02*
X67370000Y57150000D01*
X67370000Y55880000D02*
X67370000Y7560000D01*
X19334775Y64565000D02*
X18834775Y64565000D01*
X19084775Y64315000D02*
X19084775Y64815000D01*
X16530000Y63460000D02*
X16530000Y68620000D01*
X16490000Y63460000D02*
X16490000Y68620000D01*
X16450000Y63461000D02*
X16450000Y68619000D01*
X16410000Y63462000D02*
X16410000Y68618000D01*
X16370000Y63464000D02*
X16370000Y68616000D01*
X16330000Y63467000D02*
X16330000Y68613000D01*
X16290000Y63471000D02*
X16290000Y65000000D01*
X16290000Y67080000D02*
X16290000Y68609000D01*
X16250000Y63475000D02*
X16250000Y65000000D01*
X16250000Y67080000D02*
X16250000Y68605000D01*
X16210000Y63479000D02*
X16210000Y65000000D01*
X16210000Y67080000D02*
X16210000Y68601000D01*
X16170000Y63484000D02*
X16170000Y65000000D01*
X16170000Y67080000D02*
X16170000Y68596000D01*
X16130000Y63490000D02*
X16130000Y65000000D01*
X16130000Y67080000D02*
X16130000Y68590000D01*
X16090000Y63497000D02*
X16090000Y65000000D01*
X16090000Y67080000D02*
X16090000Y68583000D01*
X16050000Y63504000D02*
X16050000Y65000000D01*
X16050000Y67080000D02*
X16050000Y68576000D01*
X16010000Y63512000D02*
X16010000Y65000000D01*
X16010000Y67080000D02*
X16010000Y68568000D01*
X15970000Y63520000D02*
X15970000Y65000000D01*
X15970000Y67080000D02*
X15970000Y68560000D01*
X15930000Y63529000D02*
X15930000Y65000000D01*
X15930000Y67080000D02*
X15930000Y68551000D01*
X15890000Y63539000D02*
X15890000Y65000000D01*
X15890000Y67080000D02*
X15890000Y68541000D01*
X15850000Y63549000D02*
X15850000Y65000000D01*
X15850000Y67080000D02*
X15850000Y68531000D01*
X15809000Y63560000D02*
X15809000Y65000000D01*
X15809000Y67080000D02*
X15809000Y68520000D01*
X15769000Y63572000D02*
X15769000Y65000000D01*
X15769000Y67080000D02*
X15769000Y68508000D01*
X15729000Y63585000D02*
X15729000Y65000000D01*
X15729000Y67080000D02*
X15729000Y68495000D01*
X15689000Y63598000D02*
X15689000Y65000000D01*
X15689000Y67080000D02*
X15689000Y68482000D01*
X15649000Y63612000D02*
X15649000Y65000000D01*
X15649000Y67080000D02*
X15649000Y68468000D01*
X15609000Y63626000D02*
X15609000Y65000000D01*
X15609000Y67080000D02*
X15609000Y68454000D01*
X15569000Y63642000D02*
X15569000Y65000000D01*
X15569000Y67080000D02*
X15569000Y68438000D01*
X15529000Y63658000D02*
X15529000Y65000000D01*
X15529000Y67080000D02*
X15529000Y68422000D01*
X15489000Y63675000D02*
X15489000Y65000000D01*
X15489000Y67080000D02*
X15489000Y68405000D01*
X15449000Y63692000D02*
X15449000Y65000000D01*
X15449000Y67080000D02*
X15449000Y68388000D01*
X15409000Y63711000D02*
X15409000Y65000000D01*
X15409000Y67080000D02*
X15409000Y68369000D01*
X15369000Y63730000D02*
X15369000Y65000000D01*
X15369000Y67080000D02*
X15369000Y68350000D01*
X15329000Y63750000D02*
X15329000Y65000000D01*
X15329000Y67080000D02*
X15329000Y68330000D01*
X15289000Y63772000D02*
X15289000Y65000000D01*
X15289000Y67080000D02*
X15289000Y68308000D01*
X15249000Y63793000D02*
X15249000Y65000000D01*
X15249000Y67080000D02*
X15249000Y68287000D01*
X15209000Y63816000D02*
X15209000Y65000000D01*
X15209000Y67080000D02*
X15209000Y68264000D01*
X15169000Y63840000D02*
X15169000Y65000000D01*
X15169000Y67080000D02*
X15169000Y68240000D01*
X15129000Y63865000D02*
X15129000Y65000000D01*
X15129000Y67080000D02*
X15129000Y68215000D01*
X15089000Y63891000D02*
X15089000Y65000000D01*
X15089000Y67080000D02*
X15089000Y68189000D01*
X15049000Y63918000D02*
X15049000Y65000000D01*
X15049000Y67080000D02*
X15049000Y68162000D01*
X15009000Y63945000D02*
X15009000Y65000000D01*
X15009000Y67080000D02*
X15009000Y68135000D01*
X14969000Y63975000D02*
X14969000Y65000000D01*
X14969000Y67080000D02*
X14969000Y68105000D01*
X14929000Y64005000D02*
X14929000Y65000000D01*
X14929000Y67080000D02*
X14929000Y68075000D01*
X14889000Y64036000D02*
X14889000Y65000000D01*
X14889000Y67080000D02*
X14889000Y68044000D01*
X14849000Y64069000D02*
X14849000Y65000000D01*
X14849000Y67080000D02*
X14849000Y68011000D01*
X14809000Y64103000D02*
X14809000Y65000000D01*
X14809000Y67080000D02*
X14809000Y67977000D01*
X14769000Y64139000D02*
X14769000Y65000000D01*
X14769000Y67080000D02*
X14769000Y67941000D01*
X14729000Y64176000D02*
X14729000Y65000000D01*
X14729000Y67080000D02*
X14729000Y67904000D01*
X14689000Y64214000D02*
X14689000Y65000000D01*
X14689000Y67080000D02*
X14689000Y67866000D01*
X14649000Y64255000D02*
X14649000Y65000000D01*
X14649000Y67080000D02*
X14649000Y67825000D01*
X14609000Y64297000D02*
X14609000Y65000000D01*
X14609000Y67080000D02*
X14609000Y67783000D01*
X14569000Y64341000D02*
X14569000Y65000000D01*
X14569000Y67080000D02*
X14569000Y67739000D01*
X14529000Y64387000D02*
X14529000Y65000000D01*
X14529000Y67080000D02*
X14529000Y67693000D01*
X14489000Y64435000D02*
X14489000Y65000000D01*
X14489000Y67080000D02*
X14489000Y67645000D01*
X14449000Y64486000D02*
X14449000Y65000000D01*
X14449000Y67080000D02*
X14449000Y67594000D01*
X14409000Y64540000D02*
X14409000Y65000000D01*
X14409000Y67080000D02*
X14409000Y67540000D01*
X14369000Y64597000D02*
X14369000Y65000000D01*
X14369000Y67080000D02*
X14369000Y67483000D01*
X14329000Y64657000D02*
X14329000Y65000000D01*
X14329000Y67080000D02*
X14329000Y67423000D01*
X14289000Y64721000D02*
X14289000Y65000000D01*
X14289000Y67080000D02*
X14289000Y67359000D01*
X14249000Y64789000D02*
X14249000Y65000000D01*
X14249000Y67080000D02*
X14249000Y67291000D01*
X14209000Y64862000D02*
X14209000Y67218000D01*
X14169000Y64942000D02*
X14169000Y67138000D01*
X14129000Y65029000D02*
X14129000Y67051000D01*
X14089000Y65125000D02*
X14089000Y66955000D01*
X14049000Y65235000D02*
X14049000Y66845000D01*
X14009000Y65363000D02*
X14009000Y66717000D01*
X13969000Y65522000D02*
X13969000Y66558000D01*
X13929000Y65756000D02*
X13929000Y66324000D01*
X19150000Y66040000D02*
G75*
G03*
X19150000Y66040000I-2620000J0D01*
G01*
M02*
