M48
; DRILL file {KiCad (7.0.0)} date Tue Feb 28 12:44:18 2023
; FORMAT={-:-/ absolute / metric / decimal}
; #@! TF.CreationDate,2023-02-28T12:44:18+09:00
; #@! TF.GenerationSoftware,Kicad,Pcbnew,(7.0.0)
; #@! TF.FileFunction,Plated,1,2,PTH
FMAT,2
METRIC
; #@! TA.AperFunction,Plated,PTH,ViaDrill
T1C0.300
; #@! TA.AperFunction,Plated,PTH,ComponentDrill
T2C0.700
; #@! TA.AperFunction,Plated,PTH,ComponentDrill
T3C0.762
; #@! TA.AperFunction,Plated,PTH,ComponentDrill
T4C0.800
; #@! TA.AperFunction,Plated,PTH,ViaDrill
T5C0.900
; #@! TA.AperFunction,Plated,PTH,ComponentDrill
T6C0.900
; #@! TA.AperFunction,Plated,PTH,ComponentDrill
T7C1.000
; #@! TA.AperFunction,Plated,PTH,ComponentDrill
T8C1.100
%
G90
G05
T1
X4.824Y30.479
X13.078Y10.051
X14.708Y8.949
X15.927Y39.351
X21.979Y12.211
X40.298Y34.011
X40.382Y16.794
X40.896Y15.117
X42.102Y7.442
X42.4Y28.647
X43.036Y27.903
X45.004Y18.662
X45.021Y27.384
X48.866Y8.43
X50.489Y57.345
X50.489Y54.714
X55.01Y20.956
X55.588Y22.441
X58.995Y50.337
X59.276Y52.21
X61.478Y14.148
X69.331Y53.48
X70.459Y44.452
X72.388Y47.128
X73.281Y42.657
X73.467Y47.584
X80.313Y48.634
T2
X5.25Y31.89
X5.25Y24.27
X7.79Y57.29
X7.79Y49.67
X42.08Y63.64
X49.7Y63.64
X52.24Y66.18
X52.24Y63.64
X59.86Y66.18
X59.86Y63.64
T3
X45.72Y80.15
X45.72Y77.61
X45.72Y75.07
T4
X7.79Y31.87
X7.79Y29.37
X7.79Y26.81
X7.79Y19.19
X10.16Y57.29
X10.16Y54.75
X10.16Y52.21
X10.16Y49.67
X10.16Y47.13
X10.16Y44.59
X10.16Y42.05
X10.16Y39.51
X10.16Y36.97
X10.16Y34.43
X10.16Y31.89
X10.16Y29.35
X10.16Y26.81
X10.16Y24.27
X10.16Y21.73
X10.16Y19.19
X10.16Y16.65
X10.16Y14.11
X10.16Y11.57
X10.16Y9.03
X25.4Y57.29
X25.4Y54.75
X25.4Y52.21
X25.4Y49.67
X25.4Y47.13
X25.4Y44.59
X25.4Y42.05
X25.4Y39.51
X25.4Y36.97
X25.4Y34.43
X25.4Y31.89
X25.4Y29.35
X25.4Y26.81
X25.4Y24.27
X25.4Y21.73
X25.4Y19.19
X25.4Y16.65
X25.4Y14.11
X25.4Y11.57
X25.4Y9.03
X28.11Y36.93
X28.11Y34.43
X38.1Y47.13
X38.1Y44.59
X38.1Y42.05
X38.1Y39.51
X38.1Y36.97
X38.1Y34.43
X38.1Y31.89
X38.1Y29.35
X38.1Y26.81
X38.1Y24.27
X38.1Y21.73
X38.1Y19.19
X38.1Y16.65
X38.1Y14.11
X38.1Y11.57
X38.1Y9.03
X38.27Y77.57
X38.27Y75.07
X47.16Y5.855
X47.16Y3.355
X53.34Y47.13
X53.34Y44.59
X53.34Y42.05
X53.34Y39.51
X53.34Y36.97
X53.34Y34.43
X53.34Y31.89
X53.34Y29.35
X53.34Y26.81
X53.34Y24.27
X53.34Y21.73
X53.34Y19.19
X53.34Y16.65
X53.34Y14.11
X53.34Y11.57
X53.34Y9.03
X68.75Y67.45
X68.75Y64.91
X68.75Y62.37
X68.75Y59.83
X68.75Y57.29
X68.75Y54.75
X68.75Y52.21
X68.75Y49.67
X68.75Y47.13
X68.75Y44.59
X68.75Y42.05
X68.75Y39.51
X68.75Y36.97
X68.75Y34.43
X68.75Y31.89
X68.75Y29.35
X68.75Y26.81
X68.75Y24.27
X68.75Y21.73
X68.75Y19.19
X68.75Y16.65
X68.75Y14.11
X68.75Y11.57
X68.75Y9.03
X75.14Y44.59
X75.14Y24.27
X77.64Y44.59
X77.64Y24.27
X83.99Y67.45
X83.99Y64.91
X83.99Y62.37
X83.99Y59.83
X83.99Y57.29
X83.99Y54.75
X83.99Y52.21
X83.99Y49.67
X83.99Y47.13
X83.99Y44.59
X83.99Y42.05
X83.99Y39.51
X83.99Y36.97
X83.99Y34.43
X83.99Y31.89
X83.99Y29.35
X83.99Y26.81
X83.99Y24.27
X83.99Y21.73
X83.99Y19.19
X83.99Y16.65
X83.99Y14.11
X83.99Y11.57
X83.99Y9.03
T5
X16.68Y34.43
X16.68Y29.35
X16.68Y2.68
X19.22Y36.97
X19.22Y31.89
X19.22Y6.49
X44.48Y3.315
X59.86Y5.855
X75.1Y69.99
X75.1Y3.315
X77.64Y5.855
X78.91Y80.15
T6
X45.89Y69.99
X45.89Y67.45
T7
X2.71Y57.29
X2.71Y54.75
X2.71Y52.21
X2.71Y49.67
X2.71Y47.13
X2.71Y44.59
X12.87Y73.8
X15.41Y73.8
X17.95Y73.8
X20.49Y73.8
X23.03Y73.8
X25.57Y73.8
X28.11Y73.8
X30.65Y73.8
X66.21Y57.29
X66.21Y54.75
X66.21Y52.21
X66.21Y49.67
X66.21Y47.13
X66.21Y44.59
X66.21Y42.05
X66.21Y39.51
X66.21Y36.97
X66.21Y34.43
X66.21Y31.89
X66.21Y29.35
X66.21Y26.81
X66.21Y24.27
X66.21Y21.73
X66.21Y19.19
X66.21Y16.65
X66.21Y14.11
X66.21Y11.57
X66.21Y9.03
X71.29Y73.8
X73.83Y73.8
X76.37Y73.8
X78.91Y73.8
X81.45Y73.8
X83.99Y73.8
X86.53Y57.29
X86.53Y54.75
X86.53Y52.21
X86.53Y49.67
X86.53Y47.13
X86.53Y44.59
X86.53Y42.05
X86.53Y39.51
X86.53Y36.97
X86.53Y34.43
X86.53Y31.89
X86.53Y29.35
X86.53Y26.81
X86.53Y24.27
X86.53Y21.73
X86.53Y19.19
X86.53Y16.65
X86.53Y14.11
X86.53Y11.57
X86.53Y9.03
T8
X31.77Y69.99
X31.77Y65.49
X38.27Y69.99
X38.27Y65.49
T7
G00X51.15Y74.34
M15
G01X51.15Y72.34
M16
G05
G00X57.05Y76.34
M15
G01X55.05Y76.34
M16
G05
G00X57.3Y70.34
M15
G01X54.8Y70.34
M16
G05
T0
M30
