G04 #@! TF.GenerationSoftware,KiCad,Pcbnew,(7.0.0)*
G04 #@! TF.CreationDate,2023-02-28T12:43:52+09:00*
G04 #@! TF.ProjectId,EMUPU_RAM40,454d5550-555f-4524-914d-34302e6b6963,rev?*
G04 #@! TF.SameCoordinates,PX55d4a80PY9043270*
G04 #@! TF.FileFunction,Soldermask,Bot*
G04 #@! TF.FilePolarity,Negative*
%FSLAX46Y46*%
G04 Gerber Fmt 4.6, Leading zero omitted, Abs format (unit mm)*
G04 Created by KiCad (PCBNEW (7.0.0)) date 2023-02-28 12:43:52*
%MOMM*%
%LPD*%
G01*
G04 APERTURE LIST*
G04 Aperture macros list*
%AMRoundRect*
0 Rectangle with rounded corners*
0 $1 Rounding radius*
0 $2 $3 $4 $5 $6 $7 $8 $9 X,Y pos of 4 corners*
0 Add a 4 corners polygon primitive as box body*
4,1,4,$2,$3,$4,$5,$6,$7,$8,$9,$2,$3,0*
0 Add four circle primitives for the rounded corners*
1,1,$1+$1,$2,$3*
1,1,$1+$1,$4,$5*
1,1,$1+$1,$6,$7*
1,1,$1+$1,$8,$9*
0 Add four rect primitives between the rounded corners*
20,1,$1+$1,$2,$3,$4,$5,0*
20,1,$1+$1,$4,$5,$6,$7,0*
20,1,$1+$1,$6,$7,$8,$9,0*
20,1,$1+$1,$8,$9,$2,$3,0*%
G04 Aperture macros list end*
%ADD10C,1.400000*%
%ADD11O,1.400000X1.400000*%
%ADD12R,1.600000X1.600000*%
%ADD13O,1.600000X1.600000*%
%ADD14R,1.700000X1.700000*%
%ADD15O,1.700000X1.700000*%
%ADD16C,3.500000*%
%ADD17C,1.524000*%
%ADD18C,2.000000*%
%ADD19C,1.600000*%
%ADD20R,1.800000X1.800000*%
%ADD21C,1.800000*%
%ADD22R,2.400000X1.200000*%
%ADD23O,2.400000X1.200000*%
%ADD24RoundRect,0.750000X-1.250000X0.750000X-1.250000X-0.750000X1.250000X-0.750000X1.250000X0.750000X0*%
%ADD25RoundRect,0.750000X-0.750000X1.250000X-0.750000X-1.250000X0.750000X-1.250000X0.750000X1.250000X0*%
%ADD26C,1.270000*%
%ADD27C,0.600000*%
G04 APERTURE END LIST*
D10*
X59860000Y66180000D03*
D11*
X52239999Y66179999D03*
D12*
X10159999Y57289999D03*
D13*
X10159999Y54749999D03*
X10159999Y52209999D03*
X10159999Y49669999D03*
X10159999Y47129999D03*
X10159999Y44589999D03*
X10159999Y42049999D03*
X10159999Y39509999D03*
X10159999Y36969999D03*
X10159999Y34429999D03*
X10159999Y31889999D03*
X10159999Y29349999D03*
X10159999Y26809999D03*
X10159999Y24269999D03*
X10159999Y21729999D03*
X10159999Y19189999D03*
X10159999Y16649999D03*
X10159999Y14109999D03*
X10159999Y11569999D03*
X10159999Y9029999D03*
X25399999Y9029999D03*
X25399999Y11569999D03*
X25399999Y14109999D03*
X25399999Y16649999D03*
X25399999Y19189999D03*
X25399999Y21729999D03*
X25399999Y24269999D03*
X25399999Y26809999D03*
X25399999Y29349999D03*
X25399999Y31889999D03*
X25399999Y34429999D03*
X25399999Y36969999D03*
X25399999Y39509999D03*
X25399999Y42049999D03*
X25399999Y44589999D03*
X25399999Y47129999D03*
X25399999Y49669999D03*
X25399999Y52209999D03*
X25399999Y54749999D03*
X25399999Y57289999D03*
D14*
X2709999Y57289999D03*
D15*
X2709999Y54749999D03*
X2709999Y52209999D03*
X2709999Y49669999D03*
X2709999Y47129999D03*
X2709999Y44589999D03*
D14*
X86529999Y57289999D03*
D15*
X86529999Y54749999D03*
X86529999Y52209999D03*
X86529999Y49669999D03*
X86529999Y47129999D03*
X86529999Y44589999D03*
X86529999Y42049999D03*
X86529999Y39509999D03*
X86529999Y36969999D03*
X86529999Y34429999D03*
X86529999Y31889999D03*
X86529999Y29349999D03*
X86529999Y26809999D03*
X86529999Y24269999D03*
X86529999Y21729999D03*
X86529999Y19189999D03*
X86529999Y16649999D03*
X86529999Y14109999D03*
X86529999Y11569999D03*
X86529999Y9029999D03*
D16*
X93980000Y69850000D03*
D17*
X45720000Y75070000D03*
X45720000Y77610000D03*
X45720000Y80150000D03*
D10*
X42080000Y63640000D03*
D11*
X49699999Y63639999D03*
D10*
X59860000Y63640000D03*
D11*
X52239999Y63639999D03*
D16*
X5080000Y3835400D03*
D14*
X66209999Y57289999D03*
D15*
X66209999Y54749999D03*
X66209999Y52209999D03*
X66209999Y49669999D03*
X66209999Y47129999D03*
X66209999Y44589999D03*
X66209999Y42049999D03*
X66209999Y39509999D03*
X66209999Y36969999D03*
X66209999Y34429999D03*
X66209999Y31889999D03*
X66209999Y29349999D03*
X66209999Y26809999D03*
X66209999Y24269999D03*
X66209999Y21729999D03*
X66209999Y19189999D03*
X66209999Y16649999D03*
X66209999Y14109999D03*
X66209999Y11569999D03*
X66209999Y9029999D03*
D12*
X7789999Y19189999D03*
D13*
X7789999Y26809999D03*
D18*
X38270000Y65490000D03*
X31770000Y65490000D03*
X38270000Y69990000D03*
X31770000Y69990000D03*
D14*
X71289999Y73799999D03*
D15*
X73829999Y73799999D03*
X76369999Y73799999D03*
X78909999Y73799999D03*
X81449999Y73799999D03*
X83989999Y73799999D03*
D14*
X30649999Y73799999D03*
D15*
X28109999Y73799999D03*
X25569999Y73799999D03*
X23029999Y73799999D03*
X20489999Y73799999D03*
X17949999Y73799999D03*
X15409999Y73799999D03*
X12869999Y73799999D03*
D19*
X77640000Y24270000D03*
X75140000Y24270000D03*
D12*
X38099999Y47129999D03*
D13*
X38099999Y44589999D03*
X38099999Y42049999D03*
X38099999Y39509999D03*
X38099999Y36969999D03*
X38099999Y34429999D03*
X38099999Y31889999D03*
X38099999Y29349999D03*
X38099999Y26809999D03*
X38099999Y24269999D03*
X38099999Y21729999D03*
X38099999Y19189999D03*
X38099999Y16649999D03*
X38099999Y14109999D03*
X38099999Y11569999D03*
X38099999Y9029999D03*
X53339999Y9029999D03*
X53339999Y11569999D03*
X53339999Y14109999D03*
X53339999Y16649999D03*
X53339999Y19189999D03*
X53339999Y21729999D03*
X53339999Y24269999D03*
X53339999Y26809999D03*
X53339999Y29349999D03*
X53339999Y31889999D03*
X53339999Y34429999D03*
X53339999Y36969999D03*
X53339999Y39509999D03*
X53339999Y42049999D03*
X53339999Y44589999D03*
X53339999Y47129999D03*
D19*
X7790000Y31870000D03*
X7790000Y29370000D03*
X28110000Y36930000D03*
X28110000Y34430000D03*
D12*
X38269999Y77569999D03*
D19*
X38270000Y75070000D03*
D20*
X45889999Y69989999D03*
D21*
X45890000Y67450000D03*
D22*
X68749999Y67449999D03*
D23*
X68749999Y64909999D03*
X68749999Y62369999D03*
X68749999Y59829999D03*
X68749999Y57289999D03*
X68749999Y54749999D03*
X68749999Y52209999D03*
X68749999Y49669999D03*
X68749999Y47129999D03*
X68749999Y44589999D03*
X68749999Y42049999D03*
X68749999Y39509999D03*
X68749999Y36969999D03*
X68749999Y34429999D03*
X68749999Y31889999D03*
X68749999Y29349999D03*
X68749999Y26809999D03*
X68749999Y24269999D03*
X68749999Y21729999D03*
X68749999Y19189999D03*
X68749999Y16649999D03*
X68749999Y14109999D03*
X68749999Y11569999D03*
X68749999Y9029999D03*
X83989999Y9029999D03*
X83989999Y11569999D03*
X83989999Y14109999D03*
X83989999Y16649999D03*
X83989999Y19189999D03*
X83989999Y21729999D03*
X83989999Y24269999D03*
X83989999Y26809999D03*
X83989999Y29349999D03*
X83989999Y31889999D03*
X83989999Y34429999D03*
X83989999Y36969999D03*
X83989999Y39509999D03*
X83989999Y42049999D03*
X83989999Y44589999D03*
X83989999Y47129999D03*
X83989999Y49669999D03*
X83989999Y52209999D03*
X83989999Y54749999D03*
X83989999Y57289999D03*
X83989999Y59829999D03*
X83989999Y62369999D03*
X83989999Y64909999D03*
X83989999Y67449999D03*
D10*
X7790000Y49670000D03*
D11*
X7789999Y57289999D03*
D10*
X5250000Y31890000D03*
D11*
X5249999Y24269999D03*
D16*
X93980000Y3810000D03*
X5080000Y69850000D03*
D19*
X77640000Y44590000D03*
X75140000Y44590000D03*
X47160000Y5855000D03*
X47160000Y3355000D03*
D24*
X56050000Y70340000D03*
D25*
X51150000Y73340000D03*
D24*
X56050000Y76340000D03*
D26*
X19220000Y6490000D03*
X19220000Y31890000D03*
X78910000Y80150000D03*
X19220000Y36970000D03*
X59860000Y5855000D03*
X77640000Y5855000D03*
D27*
X50488800Y57345100D03*
D26*
X75100000Y3315000D03*
X16680000Y34430000D03*
X16680000Y2680000D03*
X44480000Y3315000D03*
X16680000Y29350000D03*
X75100000Y69990000D03*
D27*
X61477800Y14148500D03*
X58995500Y50336700D03*
X15926800Y39351000D03*
X14708500Y8948700D03*
X4824000Y30478900D03*
X13077700Y10051100D03*
X42399700Y28646800D03*
X21978900Y12210700D03*
X80312800Y48633900D03*
X48865600Y8430200D03*
X70458800Y44451600D03*
X45004300Y18661700D03*
X45021200Y27383600D03*
X40896200Y15116700D03*
X55010100Y20956100D03*
X55588300Y22440600D03*
X40381800Y16794300D03*
X50488800Y54714200D03*
X59275700Y52210000D03*
X40297800Y34011000D03*
X42101500Y7442500D03*
X73280700Y42657400D03*
X72388300Y47128500D03*
X43036300Y27903000D03*
X73467000Y47584000D03*
X69330700Y53480000D03*
M02*
