G04 #@! TF.GenerationSoftware,KiCad,Pcbnew,(7.0.0)*
G04 #@! TF.CreationDate,2023-02-28T12:43:52+09:00*
G04 #@! TF.ProjectId,EMUPU_RAM40,454d5550-555f-4524-914d-34302e6b6963,rev?*
G04 #@! TF.SameCoordinates,PX55d4a80PY9043270*
G04 #@! TF.FileFunction,Legend,Top*
G04 #@! TF.FilePolarity,Positive*
%FSLAX46Y46*%
G04 Gerber Fmt 4.6, Leading zero omitted, Abs format (unit mm)*
G04 Created by KiCad (PCBNEW (7.0.0)) date 2023-02-28 12:43:52*
%MOMM*%
%LPD*%
G01*
G04 APERTURE LIST*
%ADD10C,0.200000*%
%ADD11C,0.300000*%
%ADD12C,0.150000*%
%ADD13C,0.250000*%
%ADD14C,0.120000*%
G04 APERTURE END LIST*
D10*
G36*
X33825000Y73165000D02*
G01*
X32555000Y73800000D01*
X33825000Y74435000D01*
X33825000Y73165000D01*
G37*
X33825000Y73165000D02*
X32555000Y73800000D01*
X33825000Y74435000D01*
X33825000Y73165000D01*
D11*
X61098571Y25866429D02*
X61098571Y27366429D01*
X61098571Y27366429D02*
X61455714Y27366429D01*
X61455714Y27366429D02*
X61670000Y27295000D01*
X61670000Y27295000D02*
X61812857Y27152143D01*
X61812857Y27152143D02*
X61884286Y27009286D01*
X61884286Y27009286D02*
X61955714Y26723572D01*
X61955714Y26723572D02*
X61955714Y26509286D01*
X61955714Y26509286D02*
X61884286Y26223572D01*
X61884286Y26223572D02*
X61812857Y26080715D01*
X61812857Y26080715D02*
X61670000Y25937858D01*
X61670000Y25937858D02*
X61455714Y25866429D01*
X61455714Y25866429D02*
X61098571Y25866429D01*
X62455714Y27366429D02*
X63455714Y27366429D01*
X63455714Y27366429D02*
X62812857Y25866429D01*
X89927142Y19032143D02*
X90141428Y18960715D01*
X90141428Y18960715D02*
X90212857Y18889286D01*
X90212857Y18889286D02*
X90284285Y18746429D01*
X90284285Y18746429D02*
X90284285Y18532143D01*
X90284285Y18532143D02*
X90212857Y18389286D01*
X90212857Y18389286D02*
X90141428Y18317858D01*
X90141428Y18317858D02*
X89998571Y18246429D01*
X89998571Y18246429D02*
X89427142Y18246429D01*
X89427142Y18246429D02*
X89427142Y19746429D01*
X89427142Y19746429D02*
X89927142Y19746429D01*
X89927142Y19746429D02*
X90070000Y19675000D01*
X90070000Y19675000D02*
X90141428Y19603572D01*
X90141428Y19603572D02*
X90212857Y19460715D01*
X90212857Y19460715D02*
X90212857Y19317858D01*
X90212857Y19317858D02*
X90141428Y19175000D01*
X90141428Y19175000D02*
X90070000Y19103572D01*
X90070000Y19103572D02*
X89927142Y19032143D01*
X89927142Y19032143D02*
X89427142Y19032143D01*
X90927142Y19746429D02*
X90927142Y18532143D01*
X90927142Y18532143D02*
X90998571Y18389286D01*
X90998571Y18389286D02*
X91070000Y18317858D01*
X91070000Y18317858D02*
X91212857Y18246429D01*
X91212857Y18246429D02*
X91498571Y18246429D01*
X91498571Y18246429D02*
X91641428Y18317858D01*
X91641428Y18317858D02*
X91712857Y18389286D01*
X91712857Y18389286D02*
X91784285Y18532143D01*
X91784285Y18532143D02*
X91784285Y19746429D01*
X92427143Y18317858D02*
X92641429Y18246429D01*
X92641429Y18246429D02*
X92998571Y18246429D01*
X92998571Y18246429D02*
X93141429Y18317858D01*
X93141429Y18317858D02*
X93212857Y18389286D01*
X93212857Y18389286D02*
X93284286Y18532143D01*
X93284286Y18532143D02*
X93284286Y18675000D01*
X93284286Y18675000D02*
X93212857Y18817858D01*
X93212857Y18817858D02*
X93141429Y18889286D01*
X93141429Y18889286D02*
X92998571Y18960715D01*
X92998571Y18960715D02*
X92712857Y19032143D01*
X92712857Y19032143D02*
X92570000Y19103572D01*
X92570000Y19103572D02*
X92498571Y19175000D01*
X92498571Y19175000D02*
X92427143Y19317858D01*
X92427143Y19317858D02*
X92427143Y19460715D01*
X92427143Y19460715D02*
X92498571Y19603572D01*
X92498571Y19603572D02*
X92570000Y19675000D01*
X92570000Y19675000D02*
X92712857Y19746429D01*
X92712857Y19746429D02*
X93070000Y19746429D01*
X93070000Y19746429D02*
X93284286Y19675000D01*
X94784285Y18246429D02*
X94284285Y18960715D01*
X93927142Y18246429D02*
X93927142Y19746429D01*
X93927142Y19746429D02*
X94498571Y19746429D01*
X94498571Y19746429D02*
X94641428Y19675000D01*
X94641428Y19675000D02*
X94712857Y19603572D01*
X94712857Y19603572D02*
X94784285Y19460715D01*
X94784285Y19460715D02*
X94784285Y19246429D01*
X94784285Y19246429D02*
X94712857Y19103572D01*
X94712857Y19103572D02*
X94641428Y19032143D01*
X94641428Y19032143D02*
X94498571Y18960715D01*
X94498571Y18960715D02*
X93927142Y18960715D01*
X96427142Y18103572D02*
X96284285Y18175000D01*
X96284285Y18175000D02*
X96141428Y18317858D01*
X96141428Y18317858D02*
X95927142Y18532143D01*
X95927142Y18532143D02*
X95784285Y18603572D01*
X95784285Y18603572D02*
X95641428Y18603572D01*
X95712857Y18246429D02*
X95570000Y18317858D01*
X95570000Y18317858D02*
X95427142Y18460715D01*
X95427142Y18460715D02*
X95355714Y18746429D01*
X95355714Y18746429D02*
X95355714Y19246429D01*
X95355714Y19246429D02*
X95427142Y19532143D01*
X95427142Y19532143D02*
X95570000Y19675000D01*
X95570000Y19675000D02*
X95712857Y19746429D01*
X95712857Y19746429D02*
X95998571Y19746429D01*
X95998571Y19746429D02*
X96141428Y19675000D01*
X96141428Y19675000D02*
X96284285Y19532143D01*
X96284285Y19532143D02*
X96355714Y19246429D01*
X96355714Y19246429D02*
X96355714Y18746429D01*
X96355714Y18746429D02*
X96284285Y18460715D01*
X96284285Y18460715D02*
X96141428Y18317858D01*
X96141428Y18317858D02*
X95998571Y18246429D01*
X95998571Y18246429D02*
X95712857Y18246429D01*
X89220000Y20275000D02*
X96491429Y20275000D01*
X59812858Y51695000D02*
X60527144Y51695000D01*
X59670001Y51266429D02*
X60170001Y52766429D01*
X60170001Y52766429D02*
X60670001Y51266429D01*
X61955715Y51266429D02*
X61098572Y51266429D01*
X61527143Y51266429D02*
X61527143Y52766429D01*
X61527143Y52766429D02*
X61384286Y52552143D01*
X61384286Y52552143D02*
X61241429Y52409286D01*
X61241429Y52409286D02*
X61098572Y52337858D01*
X62455714Y52766429D02*
X63384286Y52766429D01*
X63384286Y52766429D02*
X62884286Y52195000D01*
X62884286Y52195000D02*
X63098571Y52195000D01*
X63098571Y52195000D02*
X63241429Y52123572D01*
X63241429Y52123572D02*
X63312857Y52052143D01*
X63312857Y52052143D02*
X63384286Y51909286D01*
X63384286Y51909286D02*
X63384286Y51552143D01*
X63384286Y51552143D02*
X63312857Y51409286D01*
X63312857Y51409286D02*
X63241429Y51337858D01*
X63241429Y51337858D02*
X63098571Y51266429D01*
X63098571Y51266429D02*
X62670000Y51266429D01*
X62670000Y51266429D02*
X62527143Y51337858D01*
X62527143Y51337858D02*
X62455714Y51409286D01*
D12*
X12613333Y3506429D02*
X12946666Y3506429D01*
X13089523Y2982620D02*
X12613333Y2982620D01*
X12613333Y2982620D02*
X12613333Y3982620D01*
X12613333Y3982620D02*
X13089523Y3982620D01*
X13518095Y2982620D02*
X13518095Y3982620D01*
X13518095Y3982620D02*
X13851428Y3268334D01*
X13851428Y3268334D02*
X14184761Y3982620D01*
X14184761Y3982620D02*
X14184761Y2982620D01*
X14660952Y3982620D02*
X14660952Y3173096D01*
X14660952Y3173096D02*
X14708571Y3077858D01*
X14708571Y3077858D02*
X14756190Y3030239D01*
X14756190Y3030239D02*
X14851428Y2982620D01*
X14851428Y2982620D02*
X15041904Y2982620D01*
X15041904Y2982620D02*
X15137142Y3030239D01*
X15137142Y3030239D02*
X15184761Y3077858D01*
X15184761Y3077858D02*
X15232380Y3173096D01*
X15232380Y3173096D02*
X15232380Y3982620D01*
X15708571Y2982620D02*
X15708571Y3982620D01*
X15708571Y3982620D02*
X16089523Y3982620D01*
X16089523Y3982620D02*
X16184761Y3935000D01*
X16184761Y3935000D02*
X16232380Y3887381D01*
X16232380Y3887381D02*
X16279999Y3792143D01*
X16279999Y3792143D02*
X16279999Y3649286D01*
X16279999Y3649286D02*
X16232380Y3554048D01*
X16232380Y3554048D02*
X16184761Y3506429D01*
X16184761Y3506429D02*
X16089523Y3458810D01*
X16089523Y3458810D02*
X15708571Y3458810D01*
X16708571Y3982620D02*
X16708571Y3173096D01*
X16708571Y3173096D02*
X16756190Y3077858D01*
X16756190Y3077858D02*
X16803809Y3030239D01*
X16803809Y3030239D02*
X16899047Y2982620D01*
X16899047Y2982620D02*
X17089523Y2982620D01*
X17089523Y2982620D02*
X17184761Y3030239D01*
X17184761Y3030239D02*
X17232380Y3077858D01*
X17232380Y3077858D02*
X17279999Y3173096D01*
X17279999Y3173096D02*
X17279999Y3982620D01*
X17518095Y2887381D02*
X18279999Y2887381D01*
X19089523Y2982620D02*
X18756190Y3458810D01*
X18518095Y2982620D02*
X18518095Y3982620D01*
X18518095Y3982620D02*
X18899047Y3982620D01*
X18899047Y3982620D02*
X18994285Y3935000D01*
X18994285Y3935000D02*
X19041904Y3887381D01*
X19041904Y3887381D02*
X19089523Y3792143D01*
X19089523Y3792143D02*
X19089523Y3649286D01*
X19089523Y3649286D02*
X19041904Y3554048D01*
X19041904Y3554048D02*
X18994285Y3506429D01*
X18994285Y3506429D02*
X18899047Y3458810D01*
X18899047Y3458810D02*
X18518095Y3458810D01*
X19470476Y3268334D02*
X19946666Y3268334D01*
X19375238Y2982620D02*
X19708571Y3982620D01*
X19708571Y3982620D02*
X20041904Y2982620D01*
X20375238Y2982620D02*
X20375238Y3982620D01*
X20375238Y3982620D02*
X20708571Y3268334D01*
X20708571Y3268334D02*
X21041904Y3982620D01*
X21041904Y3982620D02*
X21041904Y2982620D01*
X21946666Y3649286D02*
X21946666Y2982620D01*
X21708571Y4030239D02*
X21470476Y3315953D01*
X21470476Y3315953D02*
X22089523Y3315953D01*
X22660952Y3982620D02*
X22756190Y3982620D01*
X22756190Y3982620D02*
X22851428Y3935000D01*
X22851428Y3935000D02*
X22899047Y3887381D01*
X22899047Y3887381D02*
X22946666Y3792143D01*
X22946666Y3792143D02*
X22994285Y3601667D01*
X22994285Y3601667D02*
X22994285Y3363572D01*
X22994285Y3363572D02*
X22946666Y3173096D01*
X22946666Y3173096D02*
X22899047Y3077858D01*
X22899047Y3077858D02*
X22851428Y3030239D01*
X22851428Y3030239D02*
X22756190Y2982620D01*
X22756190Y2982620D02*
X22660952Y2982620D01*
X22660952Y2982620D02*
X22565714Y3030239D01*
X22565714Y3030239D02*
X22518095Y3077858D01*
X22518095Y3077858D02*
X22470476Y3173096D01*
X22470476Y3173096D02*
X22422857Y3363572D01*
X22422857Y3363572D02*
X22422857Y3601667D01*
X22422857Y3601667D02*
X22470476Y3792143D01*
X22470476Y3792143D02*
X22518095Y3887381D01*
X22518095Y3887381D02*
X22565714Y3935000D01*
X22565714Y3935000D02*
X22660952Y3982620D01*
X10118095Y981667D02*
X10070476Y1029286D01*
X10070476Y1029286D02*
X9975238Y1172143D01*
X9975238Y1172143D02*
X9927619Y1267381D01*
X9927619Y1267381D02*
X9880000Y1410239D01*
X9880000Y1410239D02*
X9832381Y1648334D01*
X9832381Y1648334D02*
X9832381Y1838810D01*
X9832381Y1838810D02*
X9880000Y2076905D01*
X9880000Y2076905D02*
X9927619Y2219762D01*
X9927619Y2219762D02*
X9975238Y2315000D01*
X9975238Y2315000D02*
X10070476Y2457858D01*
X10070476Y2457858D02*
X10118095Y2505477D01*
X11070476Y1457858D02*
X11022857Y1410239D01*
X11022857Y1410239D02*
X10880000Y1362620D01*
X10880000Y1362620D02*
X10784762Y1362620D01*
X10784762Y1362620D02*
X10641905Y1410239D01*
X10641905Y1410239D02*
X10546667Y1505477D01*
X10546667Y1505477D02*
X10499048Y1600715D01*
X10499048Y1600715D02*
X10451429Y1791191D01*
X10451429Y1791191D02*
X10451429Y1934048D01*
X10451429Y1934048D02*
X10499048Y2124524D01*
X10499048Y2124524D02*
X10546667Y2219762D01*
X10546667Y2219762D02*
X10641905Y2315000D01*
X10641905Y2315000D02*
X10784762Y2362620D01*
X10784762Y2362620D02*
X10880000Y2362620D01*
X10880000Y2362620D02*
X11022857Y2315000D01*
X11022857Y2315000D02*
X11070476Y2267381D01*
X11403810Y981667D02*
X11451429Y1029286D01*
X11451429Y1029286D02*
X11546667Y1172143D01*
X11546667Y1172143D02*
X11594286Y1267381D01*
X11594286Y1267381D02*
X11641905Y1410239D01*
X11641905Y1410239D02*
X11689524Y1648334D01*
X11689524Y1648334D02*
X11689524Y1838810D01*
X11689524Y1838810D02*
X11641905Y2076905D01*
X11641905Y2076905D02*
X11594286Y2219762D01*
X11594286Y2219762D02*
X11546667Y2315000D01*
X11546667Y2315000D02*
X11451429Y2457858D01*
X11451429Y2457858D02*
X11403810Y2505477D01*
X12718096Y2267381D02*
X12765715Y2315000D01*
X12765715Y2315000D02*
X12860953Y2362620D01*
X12860953Y2362620D02*
X13099048Y2362620D01*
X13099048Y2362620D02*
X13194286Y2315000D01*
X13194286Y2315000D02*
X13241905Y2267381D01*
X13241905Y2267381D02*
X13289524Y2172143D01*
X13289524Y2172143D02*
X13289524Y2076905D01*
X13289524Y2076905D02*
X13241905Y1934048D01*
X13241905Y1934048D02*
X12670477Y1362620D01*
X12670477Y1362620D02*
X13289524Y1362620D01*
X13908572Y2362620D02*
X14003810Y2362620D01*
X14003810Y2362620D02*
X14099048Y2315000D01*
X14099048Y2315000D02*
X14146667Y2267381D01*
X14146667Y2267381D02*
X14194286Y2172143D01*
X14194286Y2172143D02*
X14241905Y1981667D01*
X14241905Y1981667D02*
X14241905Y1743572D01*
X14241905Y1743572D02*
X14194286Y1553096D01*
X14194286Y1553096D02*
X14146667Y1457858D01*
X14146667Y1457858D02*
X14099048Y1410239D01*
X14099048Y1410239D02*
X14003810Y1362620D01*
X14003810Y1362620D02*
X13908572Y1362620D01*
X13908572Y1362620D02*
X13813334Y1410239D01*
X13813334Y1410239D02*
X13765715Y1457858D01*
X13765715Y1457858D02*
X13718096Y1553096D01*
X13718096Y1553096D02*
X13670477Y1743572D01*
X13670477Y1743572D02*
X13670477Y1981667D01*
X13670477Y1981667D02*
X13718096Y2172143D01*
X13718096Y2172143D02*
X13765715Y2267381D01*
X13765715Y2267381D02*
X13813334Y2315000D01*
X13813334Y2315000D02*
X13908572Y2362620D01*
X14622858Y2267381D02*
X14670477Y2315000D01*
X14670477Y2315000D02*
X14765715Y2362620D01*
X14765715Y2362620D02*
X15003810Y2362620D01*
X15003810Y2362620D02*
X15099048Y2315000D01*
X15099048Y2315000D02*
X15146667Y2267381D01*
X15146667Y2267381D02*
X15194286Y2172143D01*
X15194286Y2172143D02*
X15194286Y2076905D01*
X15194286Y2076905D02*
X15146667Y1934048D01*
X15146667Y1934048D02*
X14575239Y1362620D01*
X14575239Y1362620D02*
X15194286Y1362620D01*
X15527620Y2362620D02*
X16146667Y2362620D01*
X16146667Y2362620D02*
X15813334Y1981667D01*
X15813334Y1981667D02*
X15956191Y1981667D01*
X15956191Y1981667D02*
X16051429Y1934048D01*
X16051429Y1934048D02*
X16099048Y1886429D01*
X16099048Y1886429D02*
X16146667Y1791191D01*
X16146667Y1791191D02*
X16146667Y1553096D01*
X16146667Y1553096D02*
X16099048Y1457858D01*
X16099048Y1457858D02*
X16051429Y1410239D01*
X16051429Y1410239D02*
X15956191Y1362620D01*
X15956191Y1362620D02*
X15670477Y1362620D01*
X15670477Y1362620D02*
X15575239Y1410239D01*
X15575239Y1410239D02*
X15527620Y1457858D01*
X16622858Y1410239D02*
X16622858Y1362620D01*
X16622858Y1362620D02*
X16575239Y1267381D01*
X16575239Y1267381D02*
X16527620Y1219762D01*
X17651429Y1362620D02*
X17651429Y2362620D01*
X17651429Y2362620D02*
X18222857Y1362620D01*
X18222857Y1362620D02*
X18222857Y2362620D01*
X18699048Y1457858D02*
X18746667Y1410239D01*
X18746667Y1410239D02*
X18699048Y1362620D01*
X18699048Y1362620D02*
X18651429Y1410239D01*
X18651429Y1410239D02*
X18699048Y1457858D01*
X18699048Y1457858D02*
X18699048Y1362620D01*
X19775238Y1362620D02*
X19775238Y2362620D01*
X20346666Y1362620D02*
X19918095Y1934048D01*
X20346666Y2362620D02*
X19775238Y1791191D01*
X21203809Y2029286D02*
X21203809Y1362620D01*
X20775238Y2029286D02*
X20775238Y1505477D01*
X20775238Y1505477D02*
X20822857Y1410239D01*
X20822857Y1410239D02*
X20918095Y1362620D01*
X20918095Y1362620D02*
X21060952Y1362620D01*
X21060952Y1362620D02*
X21156190Y1410239D01*
X21156190Y1410239D02*
X21203809Y1457858D01*
X21680000Y1362620D02*
X21680000Y2029286D01*
X21680000Y1934048D02*
X21727619Y1981667D01*
X21727619Y1981667D02*
X21822857Y2029286D01*
X21822857Y2029286D02*
X21965714Y2029286D01*
X21965714Y2029286D02*
X22060952Y1981667D01*
X22060952Y1981667D02*
X22108571Y1886429D01*
X22108571Y1886429D02*
X22108571Y1362620D01*
X22108571Y1886429D02*
X22156190Y1981667D01*
X22156190Y1981667D02*
X22251428Y2029286D01*
X22251428Y2029286D02*
X22394285Y2029286D01*
X22394285Y2029286D02*
X22489524Y1981667D01*
X22489524Y1981667D02*
X22537143Y1886429D01*
X22537143Y1886429D02*
X22537143Y1362620D01*
X23441904Y1362620D02*
X23441904Y1886429D01*
X23441904Y1886429D02*
X23394285Y1981667D01*
X23394285Y1981667D02*
X23299047Y2029286D01*
X23299047Y2029286D02*
X23108571Y2029286D01*
X23108571Y2029286D02*
X23013333Y1981667D01*
X23441904Y1410239D02*
X23346666Y1362620D01*
X23346666Y1362620D02*
X23108571Y1362620D01*
X23108571Y1362620D02*
X23013333Y1410239D01*
X23013333Y1410239D02*
X22965714Y1505477D01*
X22965714Y1505477D02*
X22965714Y1600715D01*
X22965714Y1600715D02*
X23013333Y1695953D01*
X23013333Y1695953D02*
X23108571Y1743572D01*
X23108571Y1743572D02*
X23346666Y1743572D01*
X23346666Y1743572D02*
X23441904Y1791191D01*
X24346666Y2029286D02*
X24346666Y1219762D01*
X24346666Y1219762D02*
X24299047Y1124524D01*
X24299047Y1124524D02*
X24251428Y1076905D01*
X24251428Y1076905D02*
X24156190Y1029286D01*
X24156190Y1029286D02*
X24013333Y1029286D01*
X24013333Y1029286D02*
X23918095Y1076905D01*
X24346666Y1410239D02*
X24251428Y1362620D01*
X24251428Y1362620D02*
X24060952Y1362620D01*
X24060952Y1362620D02*
X23965714Y1410239D01*
X23965714Y1410239D02*
X23918095Y1457858D01*
X23918095Y1457858D02*
X23870476Y1553096D01*
X23870476Y1553096D02*
X23870476Y1838810D01*
X23870476Y1838810D02*
X23918095Y1934048D01*
X23918095Y1934048D02*
X23965714Y1981667D01*
X23965714Y1981667D02*
X24060952Y2029286D01*
X24060952Y2029286D02*
X24251428Y2029286D01*
X24251428Y2029286D02*
X24346666Y1981667D01*
X25251428Y1362620D02*
X25251428Y1886429D01*
X25251428Y1886429D02*
X25203809Y1981667D01*
X25203809Y1981667D02*
X25108571Y2029286D01*
X25108571Y2029286D02*
X24918095Y2029286D01*
X24918095Y2029286D02*
X24822857Y1981667D01*
X25251428Y1410239D02*
X25156190Y1362620D01*
X25156190Y1362620D02*
X24918095Y1362620D01*
X24918095Y1362620D02*
X24822857Y1410239D01*
X24822857Y1410239D02*
X24775238Y1505477D01*
X24775238Y1505477D02*
X24775238Y1600715D01*
X24775238Y1600715D02*
X24822857Y1695953D01*
X24822857Y1695953D02*
X24918095Y1743572D01*
X24918095Y1743572D02*
X25156190Y1743572D01*
X25156190Y1743572D02*
X25251428Y1791191D01*
X25727619Y1362620D02*
X25727619Y2029286D01*
X25727619Y2362620D02*
X25680000Y2315000D01*
X25680000Y2315000D02*
X25727619Y2267381D01*
X25727619Y2267381D02*
X25775238Y2315000D01*
X25775238Y2315000D02*
X25727619Y2362620D01*
X25727619Y2362620D02*
X25727619Y2267381D01*
D11*
X58812856Y13166429D02*
X58812856Y14666429D01*
X58812856Y13952143D02*
X59669999Y13952143D01*
X59669999Y13166429D02*
X59669999Y14666429D01*
X60312857Y13595000D02*
X61027143Y13595000D01*
X60170000Y13166429D02*
X60670000Y14666429D01*
X60670000Y14666429D02*
X61170000Y13166429D01*
X62384285Y13166429D02*
X61669999Y13166429D01*
X61669999Y13166429D02*
X61669999Y14666429D01*
X62670000Y14666429D02*
X63527143Y14666429D01*
X63098571Y13166429D02*
X63098571Y14666429D01*
X58605714Y15195000D02*
X63520000Y15195000D01*
D12*
X18217619Y83531905D02*
X19217619Y83531905D01*
X19217619Y83531905D02*
X19217619Y83293810D01*
X19217619Y83293810D02*
X19170000Y83150953D01*
X19170000Y83150953D02*
X19074761Y83055715D01*
X19074761Y83055715D02*
X18979523Y83008096D01*
X18979523Y83008096D02*
X18789047Y82960477D01*
X18789047Y82960477D02*
X18646190Y82960477D01*
X18646190Y82960477D02*
X18455714Y83008096D01*
X18455714Y83008096D02*
X18360476Y83055715D01*
X18360476Y83055715D02*
X18265238Y83150953D01*
X18265238Y83150953D02*
X18217619Y83293810D01*
X18217619Y83293810D02*
X18217619Y83531905D01*
X19217619Y82341429D02*
X19217619Y82150953D01*
X19217619Y82150953D02*
X19170000Y82055715D01*
X19170000Y82055715D02*
X19074761Y81960477D01*
X19074761Y81960477D02*
X18884285Y81912858D01*
X18884285Y81912858D02*
X18550952Y81912858D01*
X18550952Y81912858D02*
X18360476Y81960477D01*
X18360476Y81960477D02*
X18265238Y82055715D01*
X18265238Y82055715D02*
X18217619Y82150953D01*
X18217619Y82150953D02*
X18217619Y82341429D01*
X18217619Y82341429D02*
X18265238Y82436667D01*
X18265238Y82436667D02*
X18360476Y82531905D01*
X18360476Y82531905D02*
X18550952Y82579524D01*
X18550952Y82579524D02*
X18884285Y82579524D01*
X18884285Y82579524D02*
X19074761Y82531905D01*
X19074761Y82531905D02*
X19170000Y82436667D01*
X19170000Y82436667D02*
X19217619Y82341429D01*
X18217619Y81484286D02*
X19217619Y81484286D01*
X19217619Y81484286D02*
X18217619Y80912858D01*
X18217619Y80912858D02*
X19217619Y80912858D01*
X19217619Y80579524D02*
X19217619Y80008096D01*
X18217619Y80293810D02*
X19217619Y80293810D01*
X18312857Y79103334D02*
X18265238Y79150953D01*
X18265238Y79150953D02*
X18217619Y79293810D01*
X18217619Y79293810D02*
X18217619Y79389048D01*
X18217619Y79389048D02*
X18265238Y79531905D01*
X18265238Y79531905D02*
X18360476Y79627143D01*
X18360476Y79627143D02*
X18455714Y79674762D01*
X18455714Y79674762D02*
X18646190Y79722381D01*
X18646190Y79722381D02*
X18789047Y79722381D01*
X18789047Y79722381D02*
X18979523Y79674762D01*
X18979523Y79674762D02*
X19074761Y79627143D01*
X19074761Y79627143D02*
X19170000Y79531905D01*
X19170000Y79531905D02*
X19217619Y79389048D01*
X19217619Y79389048D02*
X19217619Y79293810D01*
X19217619Y79293810D02*
X19170000Y79150953D01*
X19170000Y79150953D02*
X19122380Y79103334D01*
X81717619Y83531905D02*
X82717619Y83531905D01*
X82717619Y83531905D02*
X81717619Y82960477D01*
X81717619Y82960477D02*
X82717619Y82960477D01*
X81812857Y81912858D02*
X81765238Y81960477D01*
X81765238Y81960477D02*
X81717619Y82103334D01*
X81717619Y82103334D02*
X81717619Y82198572D01*
X81717619Y82198572D02*
X81765238Y82341429D01*
X81765238Y82341429D02*
X81860476Y82436667D01*
X81860476Y82436667D02*
X81955714Y82484286D01*
X81955714Y82484286D02*
X82146190Y82531905D01*
X82146190Y82531905D02*
X82289047Y82531905D01*
X82289047Y82531905D02*
X82479523Y82484286D01*
X82479523Y82484286D02*
X82574761Y82436667D01*
X82574761Y82436667D02*
X82670000Y82341429D01*
X82670000Y82341429D02*
X82717619Y82198572D01*
X82717619Y82198572D02*
X82717619Y82103334D01*
X82717619Y82103334D02*
X82670000Y81960477D01*
X82670000Y81960477D02*
X82622380Y81912858D01*
D11*
X59812858Y56775000D02*
X60527144Y56775000D01*
X59670001Y56346429D02*
X60170001Y57846429D01*
X60170001Y57846429D02*
X60670001Y56346429D01*
X61955715Y56346429D02*
X61098572Y56346429D01*
X61527143Y56346429D02*
X61527143Y57846429D01*
X61527143Y57846429D02*
X61384286Y57632143D01*
X61384286Y57632143D02*
X61241429Y57489286D01*
X61241429Y57489286D02*
X61098572Y57417858D01*
X63384286Y56346429D02*
X62527143Y56346429D01*
X62955714Y56346429D02*
X62955714Y57846429D01*
X62955714Y57846429D02*
X62812857Y57632143D01*
X62812857Y57632143D02*
X62670000Y57489286D01*
X62670000Y57489286D02*
X62527143Y57417858D01*
X89355714Y41535000D02*
X90070000Y41535000D01*
X89212857Y41106429D02*
X89712857Y42606429D01*
X89712857Y42606429D02*
X90212857Y41106429D01*
X91355714Y42106429D02*
X91355714Y41106429D01*
X90998571Y42677858D02*
X90641428Y41606429D01*
X90641428Y41606429D02*
X91569999Y41606429D01*
X89427142Y23326429D02*
X89427142Y24826429D01*
X89427142Y24826429D02*
X89927142Y23755000D01*
X89927142Y23755000D02*
X90427142Y24826429D01*
X90427142Y24826429D02*
X90427142Y23326429D01*
X91927143Y23326429D02*
X91070000Y23326429D01*
X91498571Y23326429D02*
X91498571Y24826429D01*
X91498571Y24826429D02*
X91355714Y24612143D01*
X91355714Y24612143D02*
X91212857Y24469286D01*
X91212857Y24469286D02*
X91070000Y24397858D01*
X89220000Y25355000D02*
X92062857Y25355000D01*
X60598570Y18246429D02*
X60598570Y19746429D01*
X61312856Y18246429D02*
X61312856Y19746429D01*
X61312856Y19746429D02*
X62169999Y18246429D01*
X62169999Y18246429D02*
X62169999Y19746429D01*
X62670000Y19746429D02*
X63527143Y19746429D01*
X63098571Y18246429D02*
X63098571Y19746429D01*
X60391428Y20275000D02*
X63520000Y20275000D01*
D12*
X15717619Y83531905D02*
X16717619Y83531905D01*
X16717619Y83531905D02*
X15717619Y82960477D01*
X15717619Y82960477D02*
X16717619Y82960477D01*
X15812857Y81912858D02*
X15765238Y81960477D01*
X15765238Y81960477D02*
X15717619Y82103334D01*
X15717619Y82103334D02*
X15717619Y82198572D01*
X15717619Y82198572D02*
X15765238Y82341429D01*
X15765238Y82341429D02*
X15860476Y82436667D01*
X15860476Y82436667D02*
X15955714Y82484286D01*
X15955714Y82484286D02*
X16146190Y82531905D01*
X16146190Y82531905D02*
X16289047Y82531905D01*
X16289047Y82531905D02*
X16479523Y82484286D01*
X16479523Y82484286D02*
X16574761Y82436667D01*
X16574761Y82436667D02*
X16670000Y82341429D01*
X16670000Y82341429D02*
X16717619Y82198572D01*
X16717619Y82198572D02*
X16717619Y82103334D01*
X16717619Y82103334D02*
X16670000Y81960477D01*
X16670000Y81960477D02*
X16622380Y81912858D01*
D11*
X60027141Y15706429D02*
X60027141Y17206429D01*
X60027141Y17206429D02*
X60884284Y15706429D01*
X60884284Y15706429D02*
X60884284Y17206429D01*
X61598570Y15706429D02*
X61598570Y17206429D01*
X61598570Y17206429D02*
X62098570Y16135000D01*
X62098570Y16135000D02*
X62598570Y17206429D01*
X62598570Y17206429D02*
X62598570Y15706429D01*
X63312856Y15706429D02*
X63312856Y17206429D01*
X59819999Y17735000D02*
X63520000Y17735000D01*
X89355714Y49155000D02*
X90070000Y49155000D01*
X89212857Y48726429D02*
X89712857Y50226429D01*
X89712857Y50226429D02*
X90212857Y48726429D01*
X90569999Y50226429D02*
X91569999Y50226429D01*
X91569999Y50226429D02*
X90927142Y48726429D01*
D12*
X23217619Y83531905D02*
X24217619Y83531905D01*
X24217619Y83531905D02*
X24217619Y83150953D01*
X24217619Y83150953D02*
X24170000Y83055715D01*
X24170000Y83055715D02*
X24122380Y83008096D01*
X24122380Y83008096D02*
X24027142Y82960477D01*
X24027142Y82960477D02*
X23884285Y82960477D01*
X23884285Y82960477D02*
X23789047Y83008096D01*
X23789047Y83008096D02*
X23741428Y83055715D01*
X23741428Y83055715D02*
X23693809Y83150953D01*
X23693809Y83150953D02*
X23693809Y83531905D01*
X24170000Y82008096D02*
X24217619Y82103334D01*
X24217619Y82103334D02*
X24217619Y82246191D01*
X24217619Y82246191D02*
X24170000Y82389048D01*
X24170000Y82389048D02*
X24074761Y82484286D01*
X24074761Y82484286D02*
X23979523Y82531905D01*
X23979523Y82531905D02*
X23789047Y82579524D01*
X23789047Y82579524D02*
X23646190Y82579524D01*
X23646190Y82579524D02*
X23455714Y82531905D01*
X23455714Y82531905D02*
X23360476Y82484286D01*
X23360476Y82484286D02*
X23265238Y82389048D01*
X23265238Y82389048D02*
X23217619Y82246191D01*
X23217619Y82246191D02*
X23217619Y82150953D01*
X23217619Y82150953D02*
X23265238Y82008096D01*
X23265238Y82008096D02*
X23312857Y81960477D01*
X23312857Y81960477D02*
X23646190Y81960477D01*
X23646190Y81960477D02*
X23646190Y82150953D01*
X23217619Y81531905D02*
X24217619Y81531905D01*
X24217619Y81531905D02*
X24217619Y81293810D01*
X24217619Y81293810D02*
X24170000Y81150953D01*
X24170000Y81150953D02*
X24074761Y81055715D01*
X24074761Y81055715D02*
X23979523Y81008096D01*
X23979523Y81008096D02*
X23789047Y80960477D01*
X23789047Y80960477D02*
X23646190Y80960477D01*
X23646190Y80960477D02*
X23455714Y81008096D01*
X23455714Y81008096D02*
X23360476Y81055715D01*
X23360476Y81055715D02*
X23265238Y81150953D01*
X23265238Y81150953D02*
X23217619Y81293810D01*
X23217619Y81293810D02*
X23217619Y81531905D01*
X67765238Y82079524D02*
X67717619Y81936667D01*
X67717619Y81936667D02*
X67717619Y81698572D01*
X67717619Y81698572D02*
X67765238Y81603334D01*
X67765238Y81603334D02*
X67812857Y81555715D01*
X67812857Y81555715D02*
X67908095Y81508096D01*
X67908095Y81508096D02*
X68003333Y81508096D01*
X68003333Y81508096D02*
X68098571Y81555715D01*
X68098571Y81555715D02*
X68146190Y81603334D01*
X68146190Y81603334D02*
X68193809Y81698572D01*
X68193809Y81698572D02*
X68241428Y81889048D01*
X68241428Y81889048D02*
X68289047Y81984286D01*
X68289047Y81984286D02*
X68336666Y82031905D01*
X68336666Y82031905D02*
X68431904Y82079524D01*
X68431904Y82079524D02*
X68527142Y82079524D01*
X68527142Y82079524D02*
X68622380Y82031905D01*
X68622380Y82031905D02*
X68670000Y81984286D01*
X68670000Y81984286D02*
X68717619Y81889048D01*
X68717619Y81889048D02*
X68717619Y81650953D01*
X68717619Y81650953D02*
X68670000Y81508096D01*
X67765238Y80698572D02*
X67717619Y80793810D01*
X67717619Y80793810D02*
X67717619Y80984286D01*
X67717619Y80984286D02*
X67765238Y81079524D01*
X67765238Y81079524D02*
X67860476Y81127143D01*
X67860476Y81127143D02*
X68241428Y81127143D01*
X68241428Y81127143D02*
X68336666Y81079524D01*
X68336666Y81079524D02*
X68384285Y80984286D01*
X68384285Y80984286D02*
X68384285Y80793810D01*
X68384285Y80793810D02*
X68336666Y80698572D01*
X68336666Y80698572D02*
X68241428Y80650953D01*
X68241428Y80650953D02*
X68146190Y80650953D01*
X68146190Y80650953D02*
X68050952Y81127143D01*
X67717619Y80222381D02*
X68384285Y80222381D01*
X68193809Y80222381D02*
X68289047Y80174762D01*
X68289047Y80174762D02*
X68336666Y80127143D01*
X68336666Y80127143D02*
X68384285Y80031905D01*
X68384285Y80031905D02*
X68384285Y79936667D01*
X67717619Y79603333D02*
X68384285Y79603333D01*
X68717619Y79603333D02*
X68670000Y79650952D01*
X68670000Y79650952D02*
X68622380Y79603333D01*
X68622380Y79603333D02*
X68670000Y79555714D01*
X68670000Y79555714D02*
X68717619Y79603333D01*
X68717619Y79603333D02*
X68622380Y79603333D01*
X67717619Y78698572D02*
X68241428Y78698572D01*
X68241428Y78698572D02*
X68336666Y78746191D01*
X68336666Y78746191D02*
X68384285Y78841429D01*
X68384285Y78841429D02*
X68384285Y79031905D01*
X68384285Y79031905D02*
X68336666Y79127143D01*
X67765238Y78698572D02*
X67717619Y78793810D01*
X67717619Y78793810D02*
X67717619Y79031905D01*
X67717619Y79031905D02*
X67765238Y79127143D01*
X67765238Y79127143D02*
X67860476Y79174762D01*
X67860476Y79174762D02*
X67955714Y79174762D01*
X67955714Y79174762D02*
X68050952Y79127143D01*
X68050952Y79127143D02*
X68098571Y79031905D01*
X68098571Y79031905D02*
X68098571Y78793810D01*
X68098571Y78793810D02*
X68146190Y78698572D01*
X67717619Y78079524D02*
X67765238Y78174762D01*
X67765238Y78174762D02*
X67860476Y78222381D01*
X67860476Y78222381D02*
X68717619Y78222381D01*
D11*
X89927142Y13952143D02*
X90141428Y13880715D01*
X90141428Y13880715D02*
X90212857Y13809286D01*
X90212857Y13809286D02*
X90284285Y13666429D01*
X90284285Y13666429D02*
X90284285Y13452143D01*
X90284285Y13452143D02*
X90212857Y13309286D01*
X90212857Y13309286D02*
X90141428Y13237858D01*
X90141428Y13237858D02*
X89998571Y13166429D01*
X89998571Y13166429D02*
X89427142Y13166429D01*
X89427142Y13166429D02*
X89427142Y14666429D01*
X89427142Y14666429D02*
X89927142Y14666429D01*
X89927142Y14666429D02*
X90070000Y14595000D01*
X90070000Y14595000D02*
X90141428Y14523572D01*
X90141428Y14523572D02*
X90212857Y14380715D01*
X90212857Y14380715D02*
X90212857Y14237858D01*
X90212857Y14237858D02*
X90141428Y14095000D01*
X90141428Y14095000D02*
X90070000Y14023572D01*
X90070000Y14023572D02*
X89927142Y13952143D01*
X89927142Y13952143D02*
X89427142Y13952143D01*
X90927142Y14666429D02*
X90927142Y13452143D01*
X90927142Y13452143D02*
X90998571Y13309286D01*
X90998571Y13309286D02*
X91070000Y13237858D01*
X91070000Y13237858D02*
X91212857Y13166429D01*
X91212857Y13166429D02*
X91498571Y13166429D01*
X91498571Y13166429D02*
X91641428Y13237858D01*
X91641428Y13237858D02*
X91712857Y13309286D01*
X91712857Y13309286D02*
X91784285Y13452143D01*
X91784285Y13452143D02*
X91784285Y14666429D01*
X92427143Y13237858D02*
X92641429Y13166429D01*
X92641429Y13166429D02*
X92998571Y13166429D01*
X92998571Y13166429D02*
X93141429Y13237858D01*
X93141429Y13237858D02*
X93212857Y13309286D01*
X93212857Y13309286D02*
X93284286Y13452143D01*
X93284286Y13452143D02*
X93284286Y13595000D01*
X93284286Y13595000D02*
X93212857Y13737858D01*
X93212857Y13737858D02*
X93141429Y13809286D01*
X93141429Y13809286D02*
X92998571Y13880715D01*
X92998571Y13880715D02*
X92712857Y13952143D01*
X92712857Y13952143D02*
X92570000Y14023572D01*
X92570000Y14023572D02*
X92498571Y14095000D01*
X92498571Y14095000D02*
X92427143Y14237858D01*
X92427143Y14237858D02*
X92427143Y14380715D01*
X92427143Y14380715D02*
X92498571Y14523572D01*
X92498571Y14523572D02*
X92570000Y14595000D01*
X92570000Y14595000D02*
X92712857Y14666429D01*
X92712857Y14666429D02*
X93070000Y14666429D01*
X93070000Y14666429D02*
X93284286Y14595000D01*
X93855714Y13595000D02*
X94570000Y13595000D01*
X93712857Y13166429D02*
X94212857Y14666429D01*
X94212857Y14666429D02*
X94712857Y13166429D01*
X95212856Y13166429D02*
X95212856Y14666429D01*
X96069999Y13166429D02*
X95427142Y14023572D01*
X96069999Y14666429D02*
X95212856Y13809286D01*
X89220000Y15195000D02*
X96205714Y15195000D01*
X59527143Y32446429D02*
X60027143Y30946429D01*
X60027143Y30946429D02*
X60527143Y32446429D01*
X61884285Y31089286D02*
X61812857Y31017858D01*
X61812857Y31017858D02*
X61598571Y30946429D01*
X61598571Y30946429D02*
X61455714Y30946429D01*
X61455714Y30946429D02*
X61241428Y31017858D01*
X61241428Y31017858D02*
X61098571Y31160715D01*
X61098571Y31160715D02*
X61027142Y31303572D01*
X61027142Y31303572D02*
X60955714Y31589286D01*
X60955714Y31589286D02*
X60955714Y31803572D01*
X60955714Y31803572D02*
X61027142Y32089286D01*
X61027142Y32089286D02*
X61098571Y32232143D01*
X61098571Y32232143D02*
X61241428Y32375000D01*
X61241428Y32375000D02*
X61455714Y32446429D01*
X61455714Y32446429D02*
X61598571Y32446429D01*
X61598571Y32446429D02*
X61812857Y32375000D01*
X61812857Y32375000D02*
X61884285Y32303572D01*
X63384285Y31089286D02*
X63312857Y31017858D01*
X63312857Y31017858D02*
X63098571Y30946429D01*
X63098571Y30946429D02*
X62955714Y30946429D01*
X62955714Y30946429D02*
X62741428Y31017858D01*
X62741428Y31017858D02*
X62598571Y31160715D01*
X62598571Y31160715D02*
X62527142Y31303572D01*
X62527142Y31303572D02*
X62455714Y31589286D01*
X62455714Y31589286D02*
X62455714Y31803572D01*
X62455714Y31803572D02*
X62527142Y32089286D01*
X62527142Y32089286D02*
X62598571Y32232143D01*
X62598571Y32232143D02*
X62741428Y32375000D01*
X62741428Y32375000D02*
X62955714Y32446429D01*
X62955714Y32446429D02*
X63098571Y32446429D01*
X63098571Y32446429D02*
X63312857Y32375000D01*
X63312857Y32375000D02*
X63384285Y32303572D01*
D12*
X85170000Y83008096D02*
X85217619Y83103334D01*
X85217619Y83103334D02*
X85217619Y83246191D01*
X85217619Y83246191D02*
X85170000Y83389048D01*
X85170000Y83389048D02*
X85074761Y83484286D01*
X85074761Y83484286D02*
X84979523Y83531905D01*
X84979523Y83531905D02*
X84789047Y83579524D01*
X84789047Y83579524D02*
X84646190Y83579524D01*
X84646190Y83579524D02*
X84455714Y83531905D01*
X84455714Y83531905D02*
X84360476Y83484286D01*
X84360476Y83484286D02*
X84265238Y83389048D01*
X84265238Y83389048D02*
X84217619Y83246191D01*
X84217619Y83246191D02*
X84217619Y83150953D01*
X84217619Y83150953D02*
X84265238Y83008096D01*
X84265238Y83008096D02*
X84312857Y82960477D01*
X84312857Y82960477D02*
X84646190Y82960477D01*
X84646190Y82960477D02*
X84646190Y83150953D01*
X84217619Y82531905D02*
X85217619Y82531905D01*
X85217619Y82531905D02*
X84217619Y81960477D01*
X84217619Y81960477D02*
X85217619Y81960477D01*
X84217619Y81484286D02*
X85217619Y81484286D01*
X85217619Y81484286D02*
X85217619Y81246191D01*
X85217619Y81246191D02*
X85170000Y81103334D01*
X85170000Y81103334D02*
X85074761Y81008096D01*
X85074761Y81008096D02*
X84979523Y80960477D01*
X84979523Y80960477D02*
X84789047Y80912858D01*
X84789047Y80912858D02*
X84646190Y80912858D01*
X84646190Y80912858D02*
X84455714Y80960477D01*
X84455714Y80960477D02*
X84360476Y81008096D01*
X84360476Y81008096D02*
X84265238Y81103334D01*
X84265238Y81103334D02*
X84217619Y81246191D01*
X84217619Y81246191D02*
X84217619Y81484286D01*
D11*
X61098571Y23326429D02*
X61098571Y24826429D01*
X61098571Y24826429D02*
X61455714Y24826429D01*
X61455714Y24826429D02*
X61670000Y24755000D01*
X61670000Y24755000D02*
X61812857Y24612143D01*
X61812857Y24612143D02*
X61884286Y24469286D01*
X61884286Y24469286D02*
X61955714Y24183572D01*
X61955714Y24183572D02*
X61955714Y23969286D01*
X61955714Y23969286D02*
X61884286Y23683572D01*
X61884286Y23683572D02*
X61812857Y23540715D01*
X61812857Y23540715D02*
X61670000Y23397858D01*
X61670000Y23397858D02*
X61455714Y23326429D01*
X61455714Y23326429D02*
X61098571Y23326429D01*
X62884286Y24826429D02*
X63027143Y24826429D01*
X63027143Y24826429D02*
X63170000Y24755000D01*
X63170000Y24755000D02*
X63241429Y24683572D01*
X63241429Y24683572D02*
X63312857Y24540715D01*
X63312857Y24540715D02*
X63384286Y24255000D01*
X63384286Y24255000D02*
X63384286Y23897858D01*
X63384286Y23897858D02*
X63312857Y23612143D01*
X63312857Y23612143D02*
X63241429Y23469286D01*
X63241429Y23469286D02*
X63170000Y23397858D01*
X63170000Y23397858D02*
X63027143Y23326429D01*
X63027143Y23326429D02*
X62884286Y23326429D01*
X62884286Y23326429D02*
X62741429Y23397858D01*
X62741429Y23397858D02*
X62670000Y23469286D01*
X62670000Y23469286D02*
X62598571Y23612143D01*
X62598571Y23612143D02*
X62527143Y23897858D01*
X62527143Y23897858D02*
X62527143Y24255000D01*
X62527143Y24255000D02*
X62598571Y24540715D01*
X62598571Y24540715D02*
X62670000Y24683572D01*
X62670000Y24683572D02*
X62741429Y24755000D01*
X62741429Y24755000D02*
X62884286Y24826429D01*
X89284285Y17206429D02*
X89641428Y15706429D01*
X89641428Y15706429D02*
X89927142Y16777858D01*
X89927142Y16777858D02*
X90212857Y15706429D01*
X90212857Y15706429D02*
X90570000Y17206429D01*
X91070000Y16135000D02*
X91784286Y16135000D01*
X90927143Y15706429D02*
X91427143Y17206429D01*
X91427143Y17206429D02*
X91927143Y15706429D01*
X92427142Y15706429D02*
X92427142Y17206429D01*
X92927143Y17206429D02*
X93784286Y17206429D01*
X93355714Y15706429D02*
X93355714Y17206429D01*
X89220000Y17735000D02*
X93777143Y17735000D01*
X89355714Y31375000D02*
X90070000Y31375000D01*
X89212857Y30946429D02*
X89712857Y32446429D01*
X89712857Y32446429D02*
X90212857Y30946429D01*
X90998571Y32446429D02*
X91141428Y32446429D01*
X91141428Y32446429D02*
X91284285Y32375000D01*
X91284285Y32375000D02*
X91355714Y32303572D01*
X91355714Y32303572D02*
X91427142Y32160715D01*
X91427142Y32160715D02*
X91498571Y31875000D01*
X91498571Y31875000D02*
X91498571Y31517858D01*
X91498571Y31517858D02*
X91427142Y31232143D01*
X91427142Y31232143D02*
X91355714Y31089286D01*
X91355714Y31089286D02*
X91284285Y31017858D01*
X91284285Y31017858D02*
X91141428Y30946429D01*
X91141428Y30946429D02*
X90998571Y30946429D01*
X90998571Y30946429D02*
X90855714Y31017858D01*
X90855714Y31017858D02*
X90784285Y31089286D01*
X90784285Y31089286D02*
X90712856Y31232143D01*
X90712856Y31232143D02*
X90641428Y31517858D01*
X90641428Y31517858D02*
X90641428Y31875000D01*
X90641428Y31875000D02*
X90712856Y32160715D01*
X90712856Y32160715D02*
X90784285Y32303572D01*
X90784285Y32303572D02*
X90855714Y32375000D01*
X90855714Y32375000D02*
X90998571Y32446429D01*
D13*
X29081428Y1036143D02*
X28681428Y1607572D01*
X28395714Y1036143D02*
X28395714Y2236143D01*
X28395714Y2236143D02*
X28852857Y2236143D01*
X28852857Y2236143D02*
X28967142Y2179000D01*
X28967142Y2179000D02*
X29024285Y2121858D01*
X29024285Y2121858D02*
X29081428Y2007572D01*
X29081428Y2007572D02*
X29081428Y1836143D01*
X29081428Y1836143D02*
X29024285Y1721858D01*
X29024285Y1721858D02*
X28967142Y1664715D01*
X28967142Y1664715D02*
X28852857Y1607572D01*
X28852857Y1607572D02*
X28395714Y1607572D01*
X30052857Y1093286D02*
X29938571Y1036143D01*
X29938571Y1036143D02*
X29710000Y1036143D01*
X29710000Y1036143D02*
X29595714Y1093286D01*
X29595714Y1093286D02*
X29538571Y1207572D01*
X29538571Y1207572D02*
X29538571Y1664715D01*
X29538571Y1664715D02*
X29595714Y1779000D01*
X29595714Y1779000D02*
X29710000Y1836143D01*
X29710000Y1836143D02*
X29938571Y1836143D01*
X29938571Y1836143D02*
X30052857Y1779000D01*
X30052857Y1779000D02*
X30110000Y1664715D01*
X30110000Y1664715D02*
X30110000Y1550429D01*
X30110000Y1550429D02*
X29538571Y1436143D01*
X30509999Y1836143D02*
X30795713Y1036143D01*
X30795713Y1036143D02*
X31081428Y1836143D01*
X31538571Y1150429D02*
X31595714Y1093286D01*
X31595714Y1093286D02*
X31538571Y1036143D01*
X31538571Y1036143D02*
X31481428Y1093286D01*
X31481428Y1093286D02*
X31538571Y1150429D01*
X31538571Y1150429D02*
X31538571Y1036143D01*
X33058571Y2236143D02*
X33172857Y2236143D01*
X33172857Y2236143D02*
X33287143Y2179000D01*
X33287143Y2179000D02*
X33344286Y2121858D01*
X33344286Y2121858D02*
X33401428Y2007572D01*
X33401428Y2007572D02*
X33458571Y1779000D01*
X33458571Y1779000D02*
X33458571Y1493286D01*
X33458571Y1493286D02*
X33401428Y1264715D01*
X33401428Y1264715D02*
X33344286Y1150429D01*
X33344286Y1150429D02*
X33287143Y1093286D01*
X33287143Y1093286D02*
X33172857Y1036143D01*
X33172857Y1036143D02*
X33058571Y1036143D01*
X33058571Y1036143D02*
X32944286Y1093286D01*
X32944286Y1093286D02*
X32887143Y1150429D01*
X32887143Y1150429D02*
X32830000Y1264715D01*
X32830000Y1264715D02*
X32772857Y1493286D01*
X32772857Y1493286D02*
X32772857Y1779000D01*
X32772857Y1779000D02*
X32830000Y2007572D01*
X32830000Y2007572D02*
X32887143Y2121858D01*
X32887143Y2121858D02*
X32944286Y2179000D01*
X32944286Y2179000D02*
X33058571Y2236143D01*
X34201428Y2236143D02*
X34315714Y2236143D01*
X34315714Y2236143D02*
X34430000Y2179000D01*
X34430000Y2179000D02*
X34487143Y2121858D01*
X34487143Y2121858D02*
X34544285Y2007572D01*
X34544285Y2007572D02*
X34601428Y1779000D01*
X34601428Y1779000D02*
X34601428Y1493286D01*
X34601428Y1493286D02*
X34544285Y1264715D01*
X34544285Y1264715D02*
X34487143Y1150429D01*
X34487143Y1150429D02*
X34430000Y1093286D01*
X34430000Y1093286D02*
X34315714Y1036143D01*
X34315714Y1036143D02*
X34201428Y1036143D01*
X34201428Y1036143D02*
X34087143Y1093286D01*
X34087143Y1093286D02*
X34030000Y1150429D01*
X34030000Y1150429D02*
X33972857Y1264715D01*
X33972857Y1264715D02*
X33915714Y1493286D01*
X33915714Y1493286D02*
X33915714Y1779000D01*
X33915714Y1779000D02*
X33972857Y2007572D01*
X33972857Y2007572D02*
X34030000Y2121858D01*
X34030000Y2121858D02*
X34087143Y2179000D01*
X34087143Y2179000D02*
X34201428Y2236143D01*
X35744285Y1036143D02*
X35058571Y1036143D01*
X35401428Y1036143D02*
X35401428Y2236143D01*
X35401428Y2236143D02*
X35287142Y2064715D01*
X35287142Y2064715D02*
X35172857Y1950429D01*
X35172857Y1950429D02*
X35058571Y1893286D01*
D11*
X90284285Y25866429D02*
X89784285Y26580715D01*
X89427142Y25866429D02*
X89427142Y27366429D01*
X89427142Y27366429D02*
X89998571Y27366429D01*
X89998571Y27366429D02*
X90141428Y27295000D01*
X90141428Y27295000D02*
X90212857Y27223572D01*
X90212857Y27223572D02*
X90284285Y27080715D01*
X90284285Y27080715D02*
X90284285Y26866429D01*
X90284285Y26866429D02*
X90212857Y26723572D01*
X90212857Y26723572D02*
X90141428Y26652143D01*
X90141428Y26652143D02*
X89998571Y26580715D01*
X89998571Y26580715D02*
X89427142Y26580715D01*
X91427142Y26652143D02*
X90927142Y26652143D01*
X90927142Y25866429D02*
X90927142Y27366429D01*
X90927142Y27366429D02*
X91641428Y27366429D01*
X92141428Y25937858D02*
X92355714Y25866429D01*
X92355714Y25866429D02*
X92712856Y25866429D01*
X92712856Y25866429D02*
X92855714Y25937858D01*
X92855714Y25937858D02*
X92927142Y26009286D01*
X92927142Y26009286D02*
X92998571Y26152143D01*
X92998571Y26152143D02*
X92998571Y26295000D01*
X92998571Y26295000D02*
X92927142Y26437858D01*
X92927142Y26437858D02*
X92855714Y26509286D01*
X92855714Y26509286D02*
X92712856Y26580715D01*
X92712856Y26580715D02*
X92427142Y26652143D01*
X92427142Y26652143D02*
X92284285Y26723572D01*
X92284285Y26723572D02*
X92212856Y26795000D01*
X92212856Y26795000D02*
X92141428Y26937858D01*
X92141428Y26937858D02*
X92141428Y27080715D01*
X92141428Y27080715D02*
X92212856Y27223572D01*
X92212856Y27223572D02*
X92284285Y27295000D01*
X92284285Y27295000D02*
X92427142Y27366429D01*
X92427142Y27366429D02*
X92784285Y27366429D01*
X92784285Y27366429D02*
X92998571Y27295000D01*
X93641427Y25866429D02*
X93641427Y27366429D01*
X93641427Y26652143D02*
X94498570Y26652143D01*
X94498570Y25866429D02*
X94498570Y27366429D01*
X89220000Y27895000D02*
X94705714Y27895000D01*
D12*
X80217619Y83674762D02*
X79217619Y83341429D01*
X79217619Y83341429D02*
X80217619Y83008096D01*
X79312857Y82103334D02*
X79265238Y82150953D01*
X79265238Y82150953D02*
X79217619Y82293810D01*
X79217619Y82293810D02*
X79217619Y82389048D01*
X79217619Y82389048D02*
X79265238Y82531905D01*
X79265238Y82531905D02*
X79360476Y82627143D01*
X79360476Y82627143D02*
X79455714Y82674762D01*
X79455714Y82674762D02*
X79646190Y82722381D01*
X79646190Y82722381D02*
X79789047Y82722381D01*
X79789047Y82722381D02*
X79979523Y82674762D01*
X79979523Y82674762D02*
X80074761Y82627143D01*
X80074761Y82627143D02*
X80170000Y82531905D01*
X80170000Y82531905D02*
X80217619Y82389048D01*
X80217619Y82389048D02*
X80217619Y82293810D01*
X80217619Y82293810D02*
X80170000Y82150953D01*
X80170000Y82150953D02*
X80122380Y82103334D01*
X79312857Y81103334D02*
X79265238Y81150953D01*
X79265238Y81150953D02*
X79217619Y81293810D01*
X79217619Y81293810D02*
X79217619Y81389048D01*
X79217619Y81389048D02*
X79265238Y81531905D01*
X79265238Y81531905D02*
X79360476Y81627143D01*
X79360476Y81627143D02*
X79455714Y81674762D01*
X79455714Y81674762D02*
X79646190Y81722381D01*
X79646190Y81722381D02*
X79789047Y81722381D01*
X79789047Y81722381D02*
X79979523Y81674762D01*
X79979523Y81674762D02*
X80074761Y81627143D01*
X80074761Y81627143D02*
X80170000Y81531905D01*
X80170000Y81531905D02*
X80217619Y81389048D01*
X80217619Y81389048D02*
X80217619Y81293810D01*
X80217619Y81293810D02*
X80170000Y81150953D01*
X80170000Y81150953D02*
X80122380Y81103334D01*
D11*
X61098571Y36026429D02*
X61098571Y37526429D01*
X61098571Y37526429D02*
X61455714Y37526429D01*
X61455714Y37526429D02*
X61670000Y37455000D01*
X61670000Y37455000D02*
X61812857Y37312143D01*
X61812857Y37312143D02*
X61884286Y37169286D01*
X61884286Y37169286D02*
X61955714Y36883572D01*
X61955714Y36883572D02*
X61955714Y36669286D01*
X61955714Y36669286D02*
X61884286Y36383572D01*
X61884286Y36383572D02*
X61812857Y36240715D01*
X61812857Y36240715D02*
X61670000Y36097858D01*
X61670000Y36097858D02*
X61455714Y36026429D01*
X61455714Y36026429D02*
X61098571Y36026429D01*
X63312857Y37526429D02*
X62598571Y37526429D01*
X62598571Y37526429D02*
X62527143Y36812143D01*
X62527143Y36812143D02*
X62598571Y36883572D01*
X62598571Y36883572D02*
X62741429Y36955000D01*
X62741429Y36955000D02*
X63098571Y36955000D01*
X63098571Y36955000D02*
X63241429Y36883572D01*
X63241429Y36883572D02*
X63312857Y36812143D01*
X63312857Y36812143D02*
X63384286Y36669286D01*
X63384286Y36669286D02*
X63384286Y36312143D01*
X63384286Y36312143D02*
X63312857Y36169286D01*
X63312857Y36169286D02*
X63241429Y36097858D01*
X63241429Y36097858D02*
X63098571Y36026429D01*
X63098571Y36026429D02*
X62741429Y36026429D01*
X62741429Y36026429D02*
X62598571Y36097858D01*
X62598571Y36097858D02*
X62527143Y36169286D01*
X59812858Y54235000D02*
X60527144Y54235000D01*
X59670001Y53806429D02*
X60170001Y55306429D01*
X60170001Y55306429D02*
X60670001Y53806429D01*
X61955715Y53806429D02*
X61098572Y53806429D01*
X61527143Y53806429D02*
X61527143Y55306429D01*
X61527143Y55306429D02*
X61384286Y55092143D01*
X61384286Y55092143D02*
X61241429Y54949286D01*
X61241429Y54949286D02*
X61098572Y54877858D01*
X62527143Y55163572D02*
X62598571Y55235000D01*
X62598571Y55235000D02*
X62741429Y55306429D01*
X62741429Y55306429D02*
X63098571Y55306429D01*
X63098571Y55306429D02*
X63241429Y55235000D01*
X63241429Y55235000D02*
X63312857Y55163572D01*
X63312857Y55163572D02*
X63384286Y55020715D01*
X63384286Y55020715D02*
X63384286Y54877858D01*
X63384286Y54877858D02*
X63312857Y54663572D01*
X63312857Y54663572D02*
X62455714Y53806429D01*
X62455714Y53806429D02*
X63384286Y53806429D01*
X89355714Y51695000D02*
X90070000Y51695000D01*
X89212857Y51266429D02*
X89712857Y52766429D01*
X89712857Y52766429D02*
X90212857Y51266429D01*
X90927142Y52123572D02*
X90784285Y52195000D01*
X90784285Y52195000D02*
X90712856Y52266429D01*
X90712856Y52266429D02*
X90641428Y52409286D01*
X90641428Y52409286D02*
X90641428Y52480715D01*
X90641428Y52480715D02*
X90712856Y52623572D01*
X90712856Y52623572D02*
X90784285Y52695000D01*
X90784285Y52695000D02*
X90927142Y52766429D01*
X90927142Y52766429D02*
X91212856Y52766429D01*
X91212856Y52766429D02*
X91355714Y52695000D01*
X91355714Y52695000D02*
X91427142Y52623572D01*
X91427142Y52623572D02*
X91498571Y52480715D01*
X91498571Y52480715D02*
X91498571Y52409286D01*
X91498571Y52409286D02*
X91427142Y52266429D01*
X91427142Y52266429D02*
X91355714Y52195000D01*
X91355714Y52195000D02*
X91212856Y52123572D01*
X91212856Y52123572D02*
X90927142Y52123572D01*
X90927142Y52123572D02*
X90784285Y52052143D01*
X90784285Y52052143D02*
X90712856Y51980715D01*
X90712856Y51980715D02*
X90641428Y51837858D01*
X90641428Y51837858D02*
X90641428Y51552143D01*
X90641428Y51552143D02*
X90712856Y51409286D01*
X90712856Y51409286D02*
X90784285Y51337858D01*
X90784285Y51337858D02*
X90927142Y51266429D01*
X90927142Y51266429D02*
X91212856Y51266429D01*
X91212856Y51266429D02*
X91355714Y51337858D01*
X91355714Y51337858D02*
X91427142Y51409286D01*
X91427142Y51409286D02*
X91498571Y51552143D01*
X91498571Y51552143D02*
X91498571Y51837858D01*
X91498571Y51837858D02*
X91427142Y51980715D01*
X91427142Y51980715D02*
X91355714Y52052143D01*
X91355714Y52052143D02*
X91212856Y52123572D01*
X89284285Y12126429D02*
X89641428Y10626429D01*
X89641428Y10626429D02*
X89927142Y11697858D01*
X89927142Y11697858D02*
X90212857Y10626429D01*
X90212857Y10626429D02*
X90570000Y12126429D01*
X91998571Y10626429D02*
X91498571Y11340715D01*
X91141428Y10626429D02*
X91141428Y12126429D01*
X91141428Y12126429D02*
X91712857Y12126429D01*
X91712857Y12126429D02*
X91855714Y12055000D01*
X91855714Y12055000D02*
X91927143Y11983572D01*
X91927143Y11983572D02*
X91998571Y11840715D01*
X91998571Y11840715D02*
X91998571Y11626429D01*
X91998571Y11626429D02*
X91927143Y11483572D01*
X91927143Y11483572D02*
X91855714Y11412143D01*
X91855714Y11412143D02*
X91712857Y11340715D01*
X91712857Y11340715D02*
X91141428Y11340715D01*
X89220000Y12655000D02*
X92134286Y12655000D01*
X61098571Y28406429D02*
X61098571Y29906429D01*
X61098571Y29906429D02*
X61455714Y29906429D01*
X61455714Y29906429D02*
X61670000Y29835000D01*
X61670000Y29835000D02*
X61812857Y29692143D01*
X61812857Y29692143D02*
X61884286Y29549286D01*
X61884286Y29549286D02*
X61955714Y29263572D01*
X61955714Y29263572D02*
X61955714Y29049286D01*
X61955714Y29049286D02*
X61884286Y28763572D01*
X61884286Y28763572D02*
X61812857Y28620715D01*
X61812857Y28620715D02*
X61670000Y28477858D01*
X61670000Y28477858D02*
X61455714Y28406429D01*
X61455714Y28406429D02*
X61098571Y28406429D01*
X62527143Y29763572D02*
X62598571Y29835000D01*
X62598571Y29835000D02*
X62741429Y29906429D01*
X62741429Y29906429D02*
X63098571Y29906429D01*
X63098571Y29906429D02*
X63241429Y29835000D01*
X63241429Y29835000D02*
X63312857Y29763572D01*
X63312857Y29763572D02*
X63384286Y29620715D01*
X63384286Y29620715D02*
X63384286Y29477858D01*
X63384286Y29477858D02*
X63312857Y29263572D01*
X63312857Y29263572D02*
X62455714Y28406429D01*
X62455714Y28406429D02*
X63384286Y28406429D01*
X59812858Y49155000D02*
X60527144Y49155000D01*
X59670001Y48726429D02*
X60170001Y50226429D01*
X60170001Y50226429D02*
X60670001Y48726429D01*
X61955715Y48726429D02*
X61098572Y48726429D01*
X61527143Y48726429D02*
X61527143Y50226429D01*
X61527143Y50226429D02*
X61384286Y50012143D01*
X61384286Y50012143D02*
X61241429Y49869286D01*
X61241429Y49869286D02*
X61098572Y49797858D01*
X63241429Y49726429D02*
X63241429Y48726429D01*
X62884286Y50297858D02*
X62527143Y49226429D01*
X62527143Y49226429D02*
X63455714Y49226429D01*
X89355714Y46615000D02*
X90070000Y46615000D01*
X89212857Y46186429D02*
X89712857Y47686429D01*
X89712857Y47686429D02*
X90212857Y46186429D01*
X91355714Y47686429D02*
X91069999Y47686429D01*
X91069999Y47686429D02*
X90927142Y47615000D01*
X90927142Y47615000D02*
X90855714Y47543572D01*
X90855714Y47543572D02*
X90712856Y47329286D01*
X90712856Y47329286D02*
X90641428Y47043572D01*
X90641428Y47043572D02*
X90641428Y46472143D01*
X90641428Y46472143D02*
X90712856Y46329286D01*
X90712856Y46329286D02*
X90784285Y46257858D01*
X90784285Y46257858D02*
X90927142Y46186429D01*
X90927142Y46186429D02*
X91212856Y46186429D01*
X91212856Y46186429D02*
X91355714Y46257858D01*
X91355714Y46257858D02*
X91427142Y46329286D01*
X91427142Y46329286D02*
X91498571Y46472143D01*
X91498571Y46472143D02*
X91498571Y46829286D01*
X91498571Y46829286D02*
X91427142Y46972143D01*
X91427142Y46972143D02*
X91355714Y47043572D01*
X91355714Y47043572D02*
X91212856Y47115000D01*
X91212856Y47115000D02*
X90927142Y47115000D01*
X90927142Y47115000D02*
X90784285Y47043572D01*
X90784285Y47043572D02*
X90712856Y46972143D01*
X90712856Y46972143D02*
X90641428Y46829286D01*
D12*
X26670000Y83008096D02*
X26717619Y83103334D01*
X26717619Y83103334D02*
X26717619Y83246191D01*
X26717619Y83246191D02*
X26670000Y83389048D01*
X26670000Y83389048D02*
X26574761Y83484286D01*
X26574761Y83484286D02*
X26479523Y83531905D01*
X26479523Y83531905D02*
X26289047Y83579524D01*
X26289047Y83579524D02*
X26146190Y83579524D01*
X26146190Y83579524D02*
X25955714Y83531905D01*
X25955714Y83531905D02*
X25860476Y83484286D01*
X25860476Y83484286D02*
X25765238Y83389048D01*
X25765238Y83389048D02*
X25717619Y83246191D01*
X25717619Y83246191D02*
X25717619Y83150953D01*
X25717619Y83150953D02*
X25765238Y83008096D01*
X25765238Y83008096D02*
X25812857Y82960477D01*
X25812857Y82960477D02*
X26146190Y82960477D01*
X26146190Y82960477D02*
X26146190Y83150953D01*
X25717619Y82531905D02*
X26717619Y82531905D01*
X26717619Y82531905D02*
X25717619Y81960477D01*
X25717619Y81960477D02*
X26717619Y81960477D01*
X25717619Y81484286D02*
X26717619Y81484286D01*
X26717619Y81484286D02*
X26717619Y81246191D01*
X26717619Y81246191D02*
X26670000Y81103334D01*
X26670000Y81103334D02*
X26574761Y81008096D01*
X26574761Y81008096D02*
X26479523Y80960477D01*
X26479523Y80960477D02*
X26289047Y80912858D01*
X26289047Y80912858D02*
X26146190Y80912858D01*
X26146190Y80912858D02*
X25955714Y80960477D01*
X25955714Y80960477D02*
X25860476Y81008096D01*
X25860476Y81008096D02*
X25765238Y81103334D01*
X25765238Y81103334D02*
X25717619Y81246191D01*
X25717619Y81246191D02*
X25717619Y81484286D01*
D11*
X89355714Y36455000D02*
X90070000Y36455000D01*
X89212857Y36026429D02*
X89712857Y37526429D01*
X89712857Y37526429D02*
X90212857Y36026429D01*
X90641428Y37383572D02*
X90712856Y37455000D01*
X90712856Y37455000D02*
X90855714Y37526429D01*
X90855714Y37526429D02*
X91212856Y37526429D01*
X91212856Y37526429D02*
X91355714Y37455000D01*
X91355714Y37455000D02*
X91427142Y37383572D01*
X91427142Y37383572D02*
X91498571Y37240715D01*
X91498571Y37240715D02*
X91498571Y37097858D01*
X91498571Y37097858D02*
X91427142Y36883572D01*
X91427142Y36883572D02*
X90569999Y36026429D01*
X90569999Y36026429D02*
X91498571Y36026429D01*
X89355714Y54235000D02*
X90070000Y54235000D01*
X89212857Y53806429D02*
X89712857Y55306429D01*
X89712857Y55306429D02*
X90212857Y53806429D01*
X90784285Y53806429D02*
X91069999Y53806429D01*
X91069999Y53806429D02*
X91212856Y53877858D01*
X91212856Y53877858D02*
X91284285Y53949286D01*
X91284285Y53949286D02*
X91427142Y54163572D01*
X91427142Y54163572D02*
X91498571Y54449286D01*
X91498571Y54449286D02*
X91498571Y55020715D01*
X91498571Y55020715D02*
X91427142Y55163572D01*
X91427142Y55163572D02*
X91355714Y55235000D01*
X91355714Y55235000D02*
X91212856Y55306429D01*
X91212856Y55306429D02*
X90927142Y55306429D01*
X90927142Y55306429D02*
X90784285Y55235000D01*
X90784285Y55235000D02*
X90712856Y55163572D01*
X90712856Y55163572D02*
X90641428Y55020715D01*
X90641428Y55020715D02*
X90641428Y54663572D01*
X90641428Y54663572D02*
X90712856Y54520715D01*
X90712856Y54520715D02*
X90784285Y54449286D01*
X90784285Y54449286D02*
X90927142Y54377858D01*
X90927142Y54377858D02*
X91212856Y54377858D01*
X91212856Y54377858D02*
X91355714Y54449286D01*
X91355714Y54449286D02*
X91427142Y54520715D01*
X91427142Y54520715D02*
X91498571Y54663572D01*
X57884284Y10626429D02*
X57884284Y12126429D01*
X57884284Y12126429D02*
X58384284Y11055000D01*
X58384284Y11055000D02*
X58884284Y12126429D01*
X58884284Y12126429D02*
X58884284Y10626429D01*
X60455713Y10626429D02*
X59955713Y11340715D01*
X59598570Y10626429D02*
X59598570Y12126429D01*
X59598570Y12126429D02*
X60169999Y12126429D01*
X60169999Y12126429D02*
X60312856Y12055000D01*
X60312856Y12055000D02*
X60384285Y11983572D01*
X60384285Y11983572D02*
X60455713Y11840715D01*
X60455713Y11840715D02*
X60455713Y11626429D01*
X60455713Y11626429D02*
X60384285Y11483572D01*
X60384285Y11483572D02*
X60312856Y11412143D01*
X60312856Y11412143D02*
X60169999Y11340715D01*
X60169999Y11340715D02*
X59598570Y11340715D01*
X61098570Y11412143D02*
X61598570Y11412143D01*
X61812856Y10626429D02*
X61098570Y10626429D01*
X61098570Y10626429D02*
X61098570Y12126429D01*
X61098570Y12126429D02*
X61812856Y12126429D01*
X63455713Y10483572D02*
X63312856Y10555000D01*
X63312856Y10555000D02*
X63169999Y10697858D01*
X63169999Y10697858D02*
X62955713Y10912143D01*
X62955713Y10912143D02*
X62812856Y10983572D01*
X62812856Y10983572D02*
X62669999Y10983572D01*
X62741428Y10626429D02*
X62598571Y10697858D01*
X62598571Y10697858D02*
X62455713Y10840715D01*
X62455713Y10840715D02*
X62384285Y11126429D01*
X62384285Y11126429D02*
X62384285Y11626429D01*
X62384285Y11626429D02*
X62455713Y11912143D01*
X62455713Y11912143D02*
X62598571Y12055000D01*
X62598571Y12055000D02*
X62741428Y12126429D01*
X62741428Y12126429D02*
X63027142Y12126429D01*
X63027142Y12126429D02*
X63169999Y12055000D01*
X63169999Y12055000D02*
X63312856Y11912143D01*
X63312856Y11912143D02*
X63384285Y11626429D01*
X63384285Y11626429D02*
X63384285Y11126429D01*
X63384285Y11126429D02*
X63312856Y10840715D01*
X63312856Y10840715D02*
X63169999Y10697858D01*
X63169999Y10697858D02*
X63027142Y10626429D01*
X63027142Y10626429D02*
X62741428Y10626429D01*
X57677142Y12655000D02*
X63520000Y12655000D01*
X41610000Y51131143D02*
X41381428Y51131143D01*
X41381428Y51131143D02*
X41267142Y51074000D01*
X41267142Y51074000D02*
X41210000Y51016858D01*
X41210000Y51016858D02*
X41095714Y50845429D01*
X41095714Y50845429D02*
X41038571Y50616858D01*
X41038571Y50616858D02*
X41038571Y50159715D01*
X41038571Y50159715D02*
X41095714Y50045429D01*
X41095714Y50045429D02*
X41152857Y49988286D01*
X41152857Y49988286D02*
X41267142Y49931143D01*
X41267142Y49931143D02*
X41495714Y49931143D01*
X41495714Y49931143D02*
X41610000Y49988286D01*
X41610000Y49988286D02*
X41667142Y50045429D01*
X41667142Y50045429D02*
X41724285Y50159715D01*
X41724285Y50159715D02*
X41724285Y50445429D01*
X41724285Y50445429D02*
X41667142Y50559715D01*
X41667142Y50559715D02*
X41610000Y50616858D01*
X41610000Y50616858D02*
X41495714Y50674000D01*
X41495714Y50674000D02*
X41267142Y50674000D01*
X41267142Y50674000D02*
X41152857Y50616858D01*
X41152857Y50616858D02*
X41095714Y50559715D01*
X41095714Y50559715D02*
X41038571Y50445429D01*
X42181428Y51016858D02*
X42238571Y51074000D01*
X42238571Y51074000D02*
X42352857Y51131143D01*
X42352857Y51131143D02*
X42638571Y51131143D01*
X42638571Y51131143D02*
X42752857Y51074000D01*
X42752857Y51074000D02*
X42809999Y51016858D01*
X42809999Y51016858D02*
X42867142Y50902572D01*
X42867142Y50902572D02*
X42867142Y50788286D01*
X42867142Y50788286D02*
X42809999Y50616858D01*
X42809999Y50616858D02*
X42124285Y49931143D01*
X42124285Y49931143D02*
X42867142Y49931143D01*
X43552856Y50616858D02*
X43438571Y50674000D01*
X43438571Y50674000D02*
X43381428Y50731143D01*
X43381428Y50731143D02*
X43324285Y50845429D01*
X43324285Y50845429D02*
X43324285Y50902572D01*
X43324285Y50902572D02*
X43381428Y51016858D01*
X43381428Y51016858D02*
X43438571Y51074000D01*
X43438571Y51074000D02*
X43552856Y51131143D01*
X43552856Y51131143D02*
X43781428Y51131143D01*
X43781428Y51131143D02*
X43895714Y51074000D01*
X43895714Y51074000D02*
X43952856Y51016858D01*
X43952856Y51016858D02*
X44009999Y50902572D01*
X44009999Y50902572D02*
X44009999Y50845429D01*
X44009999Y50845429D02*
X43952856Y50731143D01*
X43952856Y50731143D02*
X43895714Y50674000D01*
X43895714Y50674000D02*
X43781428Y50616858D01*
X43781428Y50616858D02*
X43552856Y50616858D01*
X43552856Y50616858D02*
X43438571Y50559715D01*
X43438571Y50559715D02*
X43381428Y50502572D01*
X43381428Y50502572D02*
X43324285Y50388286D01*
X43324285Y50388286D02*
X43324285Y50159715D01*
X43324285Y50159715D02*
X43381428Y50045429D01*
X43381428Y50045429D02*
X43438571Y49988286D01*
X43438571Y49988286D02*
X43552856Y49931143D01*
X43552856Y49931143D02*
X43781428Y49931143D01*
X43781428Y49931143D02*
X43895714Y49988286D01*
X43895714Y49988286D02*
X43952856Y50045429D01*
X43952856Y50045429D02*
X44009999Y50159715D01*
X44009999Y50159715D02*
X44009999Y50388286D01*
X44009999Y50388286D02*
X43952856Y50502572D01*
X43952856Y50502572D02*
X43895714Y50559715D01*
X43895714Y50559715D02*
X43781428Y50616858D01*
X45152856Y49931143D02*
X44467142Y49931143D01*
X44809999Y49931143D02*
X44809999Y51131143D01*
X44809999Y51131143D02*
X44695713Y50959715D01*
X44695713Y50959715D02*
X44581428Y50845429D01*
X44581428Y50845429D02*
X44467142Y50788286D01*
X45609999Y51016858D02*
X45667142Y51074000D01*
X45667142Y51074000D02*
X45781428Y51131143D01*
X45781428Y51131143D02*
X46067142Y51131143D01*
X46067142Y51131143D02*
X46181428Y51074000D01*
X46181428Y51074000D02*
X46238570Y51016858D01*
X46238570Y51016858D02*
X46295713Y50902572D01*
X46295713Y50902572D02*
X46295713Y50788286D01*
X46295713Y50788286D02*
X46238570Y50616858D01*
X46238570Y50616858D02*
X45552856Y49931143D01*
X45552856Y49931143D02*
X46295713Y49931143D01*
X46981427Y50616858D02*
X46867142Y50674000D01*
X46867142Y50674000D02*
X46809999Y50731143D01*
X46809999Y50731143D02*
X46752856Y50845429D01*
X46752856Y50845429D02*
X46752856Y50902572D01*
X46752856Y50902572D02*
X46809999Y51016858D01*
X46809999Y51016858D02*
X46867142Y51074000D01*
X46867142Y51074000D02*
X46981427Y51131143D01*
X46981427Y51131143D02*
X47209999Y51131143D01*
X47209999Y51131143D02*
X47324285Y51074000D01*
X47324285Y51074000D02*
X47381427Y51016858D01*
X47381427Y51016858D02*
X47438570Y50902572D01*
X47438570Y50902572D02*
X47438570Y50845429D01*
X47438570Y50845429D02*
X47381427Y50731143D01*
X47381427Y50731143D02*
X47324285Y50674000D01*
X47324285Y50674000D02*
X47209999Y50616858D01*
X47209999Y50616858D02*
X46981427Y50616858D01*
X46981427Y50616858D02*
X46867142Y50559715D01*
X46867142Y50559715D02*
X46809999Y50502572D01*
X46809999Y50502572D02*
X46752856Y50388286D01*
X46752856Y50388286D02*
X46752856Y50159715D01*
X46752856Y50159715D02*
X46809999Y50045429D01*
X46809999Y50045429D02*
X46867142Y49988286D01*
X46867142Y49988286D02*
X46981427Y49931143D01*
X46981427Y49931143D02*
X47209999Y49931143D01*
X47209999Y49931143D02*
X47324285Y49988286D01*
X47324285Y49988286D02*
X47381427Y50045429D01*
X47381427Y50045429D02*
X47438570Y50159715D01*
X47438570Y50159715D02*
X47438570Y50388286D01*
X47438570Y50388286D02*
X47381427Y50502572D01*
X47381427Y50502572D02*
X47324285Y50559715D01*
X47324285Y50559715D02*
X47209999Y50616858D01*
X48615713Y49988286D02*
X48787142Y49931143D01*
X48787142Y49931143D02*
X49072856Y49931143D01*
X49072856Y49931143D02*
X49187142Y49988286D01*
X49187142Y49988286D02*
X49244284Y50045429D01*
X49244284Y50045429D02*
X49301427Y50159715D01*
X49301427Y50159715D02*
X49301427Y50274000D01*
X49301427Y50274000D02*
X49244284Y50388286D01*
X49244284Y50388286D02*
X49187142Y50445429D01*
X49187142Y50445429D02*
X49072856Y50502572D01*
X49072856Y50502572D02*
X48844284Y50559715D01*
X48844284Y50559715D02*
X48729999Y50616858D01*
X48729999Y50616858D02*
X48672856Y50674000D01*
X48672856Y50674000D02*
X48615713Y50788286D01*
X48615713Y50788286D02*
X48615713Y50902572D01*
X48615713Y50902572D02*
X48672856Y51016858D01*
X48672856Y51016858D02*
X48729999Y51074000D01*
X48729999Y51074000D02*
X48844284Y51131143D01*
X48844284Y51131143D02*
X49129999Y51131143D01*
X49129999Y51131143D02*
X49301427Y51074000D01*
X50501427Y49931143D02*
X50101427Y50502572D01*
X49815713Y49931143D02*
X49815713Y51131143D01*
X49815713Y51131143D02*
X50272856Y51131143D01*
X50272856Y51131143D02*
X50387141Y51074000D01*
X50387141Y51074000D02*
X50444284Y51016858D01*
X50444284Y51016858D02*
X50501427Y50902572D01*
X50501427Y50902572D02*
X50501427Y50731143D01*
X50501427Y50731143D02*
X50444284Y50616858D01*
X50444284Y50616858D02*
X50387141Y50559715D01*
X50387141Y50559715D02*
X50272856Y50502572D01*
X50272856Y50502572D02*
X49815713Y50502572D01*
X50958570Y50274000D02*
X51529999Y50274000D01*
X50844284Y49931143D02*
X51244284Y51131143D01*
X51244284Y51131143D02*
X51644284Y49931143D01*
X52044284Y49931143D02*
X52044284Y51131143D01*
X52044284Y51131143D02*
X52444284Y50274000D01*
X52444284Y50274000D02*
X52844284Y51131143D01*
X52844284Y51131143D02*
X52844284Y49931143D01*
X89355714Y56775000D02*
X90070000Y56775000D01*
X89212857Y56346429D02*
X89712857Y57846429D01*
X89712857Y57846429D02*
X90212857Y56346429D01*
X91498571Y56346429D02*
X90641428Y56346429D01*
X91069999Y56346429D02*
X91069999Y57846429D01*
X91069999Y57846429D02*
X90927142Y57632143D01*
X90927142Y57632143D02*
X90784285Y57489286D01*
X90784285Y57489286D02*
X90641428Y57417858D01*
X92427142Y57846429D02*
X92569999Y57846429D01*
X92569999Y57846429D02*
X92712856Y57775000D01*
X92712856Y57775000D02*
X92784285Y57703572D01*
X92784285Y57703572D02*
X92855713Y57560715D01*
X92855713Y57560715D02*
X92927142Y57275000D01*
X92927142Y57275000D02*
X92927142Y56917858D01*
X92927142Y56917858D02*
X92855713Y56632143D01*
X92855713Y56632143D02*
X92784285Y56489286D01*
X92784285Y56489286D02*
X92712856Y56417858D01*
X92712856Y56417858D02*
X92569999Y56346429D01*
X92569999Y56346429D02*
X92427142Y56346429D01*
X92427142Y56346429D02*
X92284285Y56417858D01*
X92284285Y56417858D02*
X92212856Y56489286D01*
X92212856Y56489286D02*
X92141427Y56632143D01*
X92141427Y56632143D02*
X92069999Y56917858D01*
X92069999Y56917858D02*
X92069999Y57275000D01*
X92069999Y57275000D02*
X92141427Y57560715D01*
X92141427Y57560715D02*
X92212856Y57703572D01*
X92212856Y57703572D02*
X92284285Y57775000D01*
X92284285Y57775000D02*
X92427142Y57846429D01*
X90212857Y29835000D02*
X90070000Y29906429D01*
X90070000Y29906429D02*
X89855714Y29906429D01*
X89855714Y29906429D02*
X89641428Y29835000D01*
X89641428Y29835000D02*
X89498571Y29692143D01*
X89498571Y29692143D02*
X89427142Y29549286D01*
X89427142Y29549286D02*
X89355714Y29263572D01*
X89355714Y29263572D02*
X89355714Y29049286D01*
X89355714Y29049286D02*
X89427142Y28763572D01*
X89427142Y28763572D02*
X89498571Y28620715D01*
X89498571Y28620715D02*
X89641428Y28477858D01*
X89641428Y28477858D02*
X89855714Y28406429D01*
X89855714Y28406429D02*
X89998571Y28406429D01*
X89998571Y28406429D02*
X90212857Y28477858D01*
X90212857Y28477858D02*
X90284285Y28549286D01*
X90284285Y28549286D02*
X90284285Y29049286D01*
X90284285Y29049286D02*
X89998571Y29049286D01*
X90927142Y28406429D02*
X90927142Y29906429D01*
X90927142Y29906429D02*
X91784285Y28406429D01*
X91784285Y28406429D02*
X91784285Y29906429D01*
X92498571Y28406429D02*
X92498571Y29906429D01*
X92498571Y29906429D02*
X92855714Y29906429D01*
X92855714Y29906429D02*
X93070000Y29835000D01*
X93070000Y29835000D02*
X93212857Y29692143D01*
X93212857Y29692143D02*
X93284286Y29549286D01*
X93284286Y29549286D02*
X93355714Y29263572D01*
X93355714Y29263572D02*
X93355714Y29049286D01*
X93355714Y29049286D02*
X93284286Y28763572D01*
X93284286Y28763572D02*
X93212857Y28620715D01*
X93212857Y28620715D02*
X93070000Y28477858D01*
X93070000Y28477858D02*
X92855714Y28406429D01*
X92855714Y28406429D02*
X92498571Y28406429D01*
X61098571Y20786429D02*
X61098571Y22286429D01*
X61098571Y22286429D02*
X61455714Y22286429D01*
X61455714Y22286429D02*
X61670000Y22215000D01*
X61670000Y22215000D02*
X61812857Y22072143D01*
X61812857Y22072143D02*
X61884286Y21929286D01*
X61884286Y21929286D02*
X61955714Y21643572D01*
X61955714Y21643572D02*
X61955714Y21429286D01*
X61955714Y21429286D02*
X61884286Y21143572D01*
X61884286Y21143572D02*
X61812857Y21000715D01*
X61812857Y21000715D02*
X61670000Y20857858D01*
X61670000Y20857858D02*
X61455714Y20786429D01*
X61455714Y20786429D02*
X61098571Y20786429D01*
X63384286Y20786429D02*
X62527143Y20786429D01*
X62955714Y20786429D02*
X62955714Y22286429D01*
X62955714Y22286429D02*
X62812857Y22072143D01*
X62812857Y22072143D02*
X62670000Y21929286D01*
X62670000Y21929286D02*
X62527143Y21857858D01*
X90284285Y8086429D02*
X89784285Y8800715D01*
X89427142Y8086429D02*
X89427142Y9586429D01*
X89427142Y9586429D02*
X89998571Y9586429D01*
X89998571Y9586429D02*
X90141428Y9515000D01*
X90141428Y9515000D02*
X90212857Y9443572D01*
X90212857Y9443572D02*
X90284285Y9300715D01*
X90284285Y9300715D02*
X90284285Y9086429D01*
X90284285Y9086429D02*
X90212857Y8943572D01*
X90212857Y8943572D02*
X90141428Y8872143D01*
X90141428Y8872143D02*
X89998571Y8800715D01*
X89998571Y8800715D02*
X89427142Y8800715D01*
X90927142Y8086429D02*
X90927142Y9586429D01*
X90927142Y9586429D02*
X91284285Y9586429D01*
X91284285Y9586429D02*
X91498571Y9515000D01*
X91498571Y9515000D02*
X91641428Y9372143D01*
X91641428Y9372143D02*
X91712857Y9229286D01*
X91712857Y9229286D02*
X91784285Y8943572D01*
X91784285Y8943572D02*
X91784285Y8729286D01*
X91784285Y8729286D02*
X91712857Y8443572D01*
X91712857Y8443572D02*
X91641428Y8300715D01*
X91641428Y8300715D02*
X91498571Y8157858D01*
X91498571Y8157858D02*
X91284285Y8086429D01*
X91284285Y8086429D02*
X90927142Y8086429D01*
X89220000Y10115000D02*
X91920000Y10115000D01*
D12*
X9717619Y82031905D02*
X10717619Y82031905D01*
X10717619Y82031905D02*
X10003333Y81698572D01*
X10003333Y81698572D02*
X10717619Y81365239D01*
X10717619Y81365239D02*
X9717619Y81365239D01*
X9717619Y80889048D02*
X10717619Y80889048D01*
X10717619Y80889048D02*
X10717619Y80508096D01*
X10717619Y80508096D02*
X10670000Y80412858D01*
X10670000Y80412858D02*
X10622380Y80365239D01*
X10622380Y80365239D02*
X10527142Y80317620D01*
X10527142Y80317620D02*
X10384285Y80317620D01*
X10384285Y80317620D02*
X10289047Y80365239D01*
X10289047Y80365239D02*
X10241428Y80412858D01*
X10241428Y80412858D02*
X10193809Y80508096D01*
X10193809Y80508096D02*
X10193809Y80889048D01*
X9717619Y79412858D02*
X9717619Y79889048D01*
X9717619Y79889048D02*
X10717619Y79889048D01*
X10003333Y79127143D02*
X10003333Y78650953D01*
X9717619Y79222381D02*
X10717619Y78889048D01*
X10717619Y78889048D02*
X9717619Y78555715D01*
X10241428Y77889048D02*
X10193809Y77746191D01*
X10193809Y77746191D02*
X10146190Y77698572D01*
X10146190Y77698572D02*
X10050952Y77650953D01*
X10050952Y77650953D02*
X9908095Y77650953D01*
X9908095Y77650953D02*
X9812857Y77698572D01*
X9812857Y77698572D02*
X9765238Y77746191D01*
X9765238Y77746191D02*
X9717619Y77841429D01*
X9717619Y77841429D02*
X9717619Y78222381D01*
X9717619Y78222381D02*
X10717619Y78222381D01*
X10717619Y78222381D02*
X10717619Y77889048D01*
X10717619Y77889048D02*
X10670000Y77793810D01*
X10670000Y77793810D02*
X10622380Y77746191D01*
X10622380Y77746191D02*
X10527142Y77698572D01*
X10527142Y77698572D02*
X10431904Y77698572D01*
X10431904Y77698572D02*
X10336666Y77746191D01*
X10336666Y77746191D02*
X10289047Y77793810D01*
X10289047Y77793810D02*
X10241428Y77889048D01*
X10241428Y77889048D02*
X10241428Y78222381D01*
X9765238Y76670000D02*
X9717619Y76527143D01*
X9717619Y76527143D02*
X9717619Y76289048D01*
X9717619Y76289048D02*
X9765238Y76193810D01*
X9765238Y76193810D02*
X9812857Y76146191D01*
X9812857Y76146191D02*
X9908095Y76098572D01*
X9908095Y76098572D02*
X10003333Y76098572D01*
X10003333Y76098572D02*
X10098571Y76146191D01*
X10098571Y76146191D02*
X10146190Y76193810D01*
X10146190Y76193810D02*
X10193809Y76289048D01*
X10193809Y76289048D02*
X10241428Y76479524D01*
X10241428Y76479524D02*
X10289047Y76574762D01*
X10289047Y76574762D02*
X10336666Y76622381D01*
X10336666Y76622381D02*
X10431904Y76670000D01*
X10431904Y76670000D02*
X10527142Y76670000D01*
X10527142Y76670000D02*
X10622380Y76622381D01*
X10622380Y76622381D02*
X10670000Y76574762D01*
X10670000Y76574762D02*
X10717619Y76479524D01*
X10717619Y76479524D02*
X10717619Y76241429D01*
X10717619Y76241429D02*
X10670000Y76098572D01*
X9717619Y75670000D02*
X10717619Y75670000D01*
X10717619Y75670000D02*
X9717619Y75098572D01*
X9717619Y75098572D02*
X10717619Y75098572D01*
X10003333Y74670000D02*
X10003333Y74193810D01*
X9717619Y74765238D02*
X10717619Y74431905D01*
X10717619Y74431905D02*
X9717619Y74098572D01*
X9717619Y73765238D02*
X10717619Y73765238D01*
X10717619Y73765238D02*
X10717619Y73384286D01*
X10717619Y73384286D02*
X10670000Y73289048D01*
X10670000Y73289048D02*
X10622380Y73241429D01*
X10622380Y73241429D02*
X10527142Y73193810D01*
X10527142Y73193810D02*
X10384285Y73193810D01*
X10384285Y73193810D02*
X10289047Y73241429D01*
X10289047Y73241429D02*
X10241428Y73289048D01*
X10241428Y73289048D02*
X10193809Y73384286D01*
X10193809Y73384286D02*
X10193809Y73765238D01*
D11*
X61098571Y33486429D02*
X61098571Y34986429D01*
X61098571Y34986429D02*
X61455714Y34986429D01*
X61455714Y34986429D02*
X61670000Y34915000D01*
X61670000Y34915000D02*
X61812857Y34772143D01*
X61812857Y34772143D02*
X61884286Y34629286D01*
X61884286Y34629286D02*
X61955714Y34343572D01*
X61955714Y34343572D02*
X61955714Y34129286D01*
X61955714Y34129286D02*
X61884286Y33843572D01*
X61884286Y33843572D02*
X61812857Y33700715D01*
X61812857Y33700715D02*
X61670000Y33557858D01*
X61670000Y33557858D02*
X61455714Y33486429D01*
X61455714Y33486429D02*
X61098571Y33486429D01*
X63241429Y34986429D02*
X62955714Y34986429D01*
X62955714Y34986429D02*
X62812857Y34915000D01*
X62812857Y34915000D02*
X62741429Y34843572D01*
X62741429Y34843572D02*
X62598571Y34629286D01*
X62598571Y34629286D02*
X62527143Y34343572D01*
X62527143Y34343572D02*
X62527143Y33772143D01*
X62527143Y33772143D02*
X62598571Y33629286D01*
X62598571Y33629286D02*
X62670000Y33557858D01*
X62670000Y33557858D02*
X62812857Y33486429D01*
X62812857Y33486429D02*
X63098571Y33486429D01*
X63098571Y33486429D02*
X63241429Y33557858D01*
X63241429Y33557858D02*
X63312857Y33629286D01*
X63312857Y33629286D02*
X63384286Y33772143D01*
X63384286Y33772143D02*
X63384286Y34129286D01*
X63384286Y34129286D02*
X63312857Y34272143D01*
X63312857Y34272143D02*
X63241429Y34343572D01*
X63241429Y34343572D02*
X63098571Y34415000D01*
X63098571Y34415000D02*
X62812857Y34415000D01*
X62812857Y34415000D02*
X62670000Y34343572D01*
X62670000Y34343572D02*
X62598571Y34272143D01*
X62598571Y34272143D02*
X62527143Y34129286D01*
D12*
X30717619Y83531905D02*
X31717619Y83531905D01*
X31717619Y83531905D02*
X31003333Y83198572D01*
X31003333Y83198572D02*
X31717619Y82865239D01*
X31717619Y82865239D02*
X30717619Y82865239D01*
X30812857Y81817620D02*
X30765238Y81865239D01*
X30765238Y81865239D02*
X30717619Y82008096D01*
X30717619Y82008096D02*
X30717619Y82103334D01*
X30717619Y82103334D02*
X30765238Y82246191D01*
X30765238Y82246191D02*
X30860476Y82341429D01*
X30860476Y82341429D02*
X30955714Y82389048D01*
X30955714Y82389048D02*
X31146190Y82436667D01*
X31146190Y82436667D02*
X31289047Y82436667D01*
X31289047Y82436667D02*
X31479523Y82389048D01*
X31479523Y82389048D02*
X31574761Y82341429D01*
X31574761Y82341429D02*
X31670000Y82246191D01*
X31670000Y82246191D02*
X31717619Y82103334D01*
X31717619Y82103334D02*
X31717619Y82008096D01*
X31717619Y82008096D02*
X31670000Y81865239D01*
X31670000Y81865239D02*
X31622380Y81817620D01*
X30717619Y80912858D02*
X30717619Y81389048D01*
X30717619Y81389048D02*
X31717619Y81389048D01*
X30717619Y80008096D02*
X31193809Y80341429D01*
X30717619Y80579524D02*
X31717619Y80579524D01*
X31717619Y80579524D02*
X31717619Y80198572D01*
X31717619Y80198572D02*
X31670000Y80103334D01*
X31670000Y80103334D02*
X31622380Y80055715D01*
X31622380Y80055715D02*
X31527142Y80008096D01*
X31527142Y80008096D02*
X31384285Y80008096D01*
X31384285Y80008096D02*
X31289047Y80055715D01*
X31289047Y80055715D02*
X31241428Y80103334D01*
X31241428Y80103334D02*
X31193809Y80198572D01*
X31193809Y80198572D02*
X31193809Y80579524D01*
X32070000Y83670000D02*
X32070000Y79917619D01*
X75217619Y83674762D02*
X75217619Y83103334D01*
X74217619Y83389048D02*
X75217619Y83389048D01*
X75217619Y82865238D02*
X74217619Y82198572D01*
X75217619Y82198572D02*
X74217619Y82865238D01*
X74217619Y81817619D02*
X75217619Y81817619D01*
X75217619Y81817619D02*
X75217619Y81579524D01*
X75217619Y81579524D02*
X75170000Y81436667D01*
X75170000Y81436667D02*
X75074761Y81341429D01*
X75074761Y81341429D02*
X74979523Y81293810D01*
X74979523Y81293810D02*
X74789047Y81246191D01*
X74789047Y81246191D02*
X74646190Y81246191D01*
X74646190Y81246191D02*
X74455714Y81293810D01*
X74455714Y81293810D02*
X74360476Y81341429D01*
X74360476Y81341429D02*
X74265238Y81436667D01*
X74265238Y81436667D02*
X74217619Y81579524D01*
X74217619Y81579524D02*
X74217619Y81817619D01*
D11*
X90284285Y20786429D02*
X89784285Y21500715D01*
X89427142Y20786429D02*
X89427142Y22286429D01*
X89427142Y22286429D02*
X89998571Y22286429D01*
X89998571Y22286429D02*
X90141428Y22215000D01*
X90141428Y22215000D02*
X90212857Y22143572D01*
X90212857Y22143572D02*
X90284285Y22000715D01*
X90284285Y22000715D02*
X90284285Y21786429D01*
X90284285Y21786429D02*
X90212857Y21643572D01*
X90212857Y21643572D02*
X90141428Y21572143D01*
X90141428Y21572143D02*
X89998571Y21500715D01*
X89998571Y21500715D02*
X89427142Y21500715D01*
X90927142Y21572143D02*
X91427142Y21572143D01*
X91641428Y20786429D02*
X90927142Y20786429D01*
X90927142Y20786429D02*
X90927142Y22286429D01*
X90927142Y22286429D02*
X91641428Y22286429D01*
X92212857Y20857858D02*
X92427143Y20786429D01*
X92427143Y20786429D02*
X92784285Y20786429D01*
X92784285Y20786429D02*
X92927143Y20857858D01*
X92927143Y20857858D02*
X92998571Y20929286D01*
X92998571Y20929286D02*
X93070000Y21072143D01*
X93070000Y21072143D02*
X93070000Y21215000D01*
X93070000Y21215000D02*
X92998571Y21357858D01*
X92998571Y21357858D02*
X92927143Y21429286D01*
X92927143Y21429286D02*
X92784285Y21500715D01*
X92784285Y21500715D02*
X92498571Y21572143D01*
X92498571Y21572143D02*
X92355714Y21643572D01*
X92355714Y21643572D02*
X92284285Y21715000D01*
X92284285Y21715000D02*
X92212857Y21857858D01*
X92212857Y21857858D02*
X92212857Y22000715D01*
X92212857Y22000715D02*
X92284285Y22143572D01*
X92284285Y22143572D02*
X92355714Y22215000D01*
X92355714Y22215000D02*
X92498571Y22286429D01*
X92498571Y22286429D02*
X92855714Y22286429D01*
X92855714Y22286429D02*
X93070000Y22215000D01*
X93712856Y21572143D02*
X94212856Y21572143D01*
X94427142Y20786429D02*
X93712856Y20786429D01*
X93712856Y20786429D02*
X93712856Y22286429D01*
X93712856Y22286429D02*
X94427142Y22286429D01*
X94855714Y22286429D02*
X95712857Y22286429D01*
X95284285Y20786429D02*
X95284285Y22286429D01*
X89220000Y22815000D02*
X95705714Y22815000D01*
X14425714Y59456143D02*
X14425714Y60656143D01*
X14425714Y60656143D02*
X14882857Y60656143D01*
X14882857Y60656143D02*
X14997142Y60599000D01*
X14997142Y60599000D02*
X15054285Y60541858D01*
X15054285Y60541858D02*
X15111428Y60427572D01*
X15111428Y60427572D02*
X15111428Y60256143D01*
X15111428Y60256143D02*
X15054285Y60141858D01*
X15054285Y60141858D02*
X14997142Y60084715D01*
X14997142Y60084715D02*
X14882857Y60027572D01*
X14882857Y60027572D02*
X14425714Y60027572D01*
X15625714Y59456143D02*
X15625714Y60656143D01*
X16882857Y59570429D02*
X16825714Y59513286D01*
X16825714Y59513286D02*
X16654286Y59456143D01*
X16654286Y59456143D02*
X16540000Y59456143D01*
X16540000Y59456143D02*
X16368571Y59513286D01*
X16368571Y59513286D02*
X16254286Y59627572D01*
X16254286Y59627572D02*
X16197143Y59741858D01*
X16197143Y59741858D02*
X16140000Y59970429D01*
X16140000Y59970429D02*
X16140000Y60141858D01*
X16140000Y60141858D02*
X16197143Y60370429D01*
X16197143Y60370429D02*
X16254286Y60484715D01*
X16254286Y60484715D02*
X16368571Y60599000D01*
X16368571Y60599000D02*
X16540000Y60656143D01*
X16540000Y60656143D02*
X16654286Y60656143D01*
X16654286Y60656143D02*
X16825714Y60599000D01*
X16825714Y60599000D02*
X16882857Y60541858D01*
X18025714Y59456143D02*
X17340000Y59456143D01*
X17682857Y59456143D02*
X17682857Y60656143D01*
X17682857Y60656143D02*
X17568571Y60484715D01*
X17568571Y60484715D02*
X17454286Y60370429D01*
X17454286Y60370429D02*
X17340000Y60313286D01*
X18711428Y60141858D02*
X18597143Y60199000D01*
X18597143Y60199000D02*
X18540000Y60256143D01*
X18540000Y60256143D02*
X18482857Y60370429D01*
X18482857Y60370429D02*
X18482857Y60427572D01*
X18482857Y60427572D02*
X18540000Y60541858D01*
X18540000Y60541858D02*
X18597143Y60599000D01*
X18597143Y60599000D02*
X18711428Y60656143D01*
X18711428Y60656143D02*
X18940000Y60656143D01*
X18940000Y60656143D02*
X19054286Y60599000D01*
X19054286Y60599000D02*
X19111428Y60541858D01*
X19111428Y60541858D02*
X19168571Y60427572D01*
X19168571Y60427572D02*
X19168571Y60370429D01*
X19168571Y60370429D02*
X19111428Y60256143D01*
X19111428Y60256143D02*
X19054286Y60199000D01*
X19054286Y60199000D02*
X18940000Y60141858D01*
X18940000Y60141858D02*
X18711428Y60141858D01*
X18711428Y60141858D02*
X18597143Y60084715D01*
X18597143Y60084715D02*
X18540000Y60027572D01*
X18540000Y60027572D02*
X18482857Y59913286D01*
X18482857Y59913286D02*
X18482857Y59684715D01*
X18482857Y59684715D02*
X18540000Y59570429D01*
X18540000Y59570429D02*
X18597143Y59513286D01*
X18597143Y59513286D02*
X18711428Y59456143D01*
X18711428Y59456143D02*
X18940000Y59456143D01*
X18940000Y59456143D02*
X19054286Y59513286D01*
X19054286Y59513286D02*
X19111428Y59570429D01*
X19111428Y59570429D02*
X19168571Y59684715D01*
X19168571Y59684715D02*
X19168571Y59913286D01*
X19168571Y59913286D02*
X19111428Y60027572D01*
X19111428Y60027572D02*
X19054286Y60084715D01*
X19054286Y60084715D02*
X18940000Y60141858D01*
X20082857Y60084715D02*
X19682857Y60084715D01*
X19682857Y59456143D02*
X19682857Y60656143D01*
X19682857Y60656143D02*
X20254285Y60656143D01*
X21225714Y60256143D02*
X21225714Y59456143D01*
X20939999Y60713286D02*
X20654285Y59856143D01*
X20654285Y59856143D02*
X21397142Y59856143D01*
X21739999Y60656143D02*
X22539999Y60656143D01*
X22539999Y60656143D02*
X22025713Y59456143D01*
X23797142Y59341858D02*
X23682856Y59399000D01*
X23682856Y59399000D02*
X23568570Y59513286D01*
X23568570Y59513286D02*
X23397142Y59684715D01*
X23397142Y59684715D02*
X23282856Y59741858D01*
X23282856Y59741858D02*
X23168570Y59741858D01*
X23225713Y59456143D02*
X23111428Y59513286D01*
X23111428Y59513286D02*
X22997142Y59627572D01*
X22997142Y59627572D02*
X22939999Y59856143D01*
X22939999Y59856143D02*
X22939999Y60256143D01*
X22939999Y60256143D02*
X22997142Y60484715D01*
X22997142Y60484715D02*
X23111428Y60599000D01*
X23111428Y60599000D02*
X23225713Y60656143D01*
X23225713Y60656143D02*
X23454285Y60656143D01*
X23454285Y60656143D02*
X23568570Y60599000D01*
X23568570Y60599000D02*
X23682856Y60484715D01*
X23682856Y60484715D02*
X23739999Y60256143D01*
X23739999Y60256143D02*
X23739999Y59856143D01*
X23739999Y59856143D02*
X23682856Y59627572D01*
X23682856Y59627572D02*
X23568570Y59513286D01*
X23568570Y59513286D02*
X23454285Y59456143D01*
X23454285Y59456143D02*
X23225713Y59456143D01*
X24768571Y60256143D02*
X24768571Y59456143D01*
X24482856Y60713286D02*
X24197142Y59856143D01*
X24197142Y59856143D02*
X24939999Y59856143D01*
X25282856Y60656143D02*
X26025713Y60656143D01*
X26025713Y60656143D02*
X25625713Y60199000D01*
X25625713Y60199000D02*
X25797142Y60199000D01*
X25797142Y60199000D02*
X25911428Y60141858D01*
X25911428Y60141858D02*
X25968570Y60084715D01*
X25968570Y60084715D02*
X26025713Y59970429D01*
X26025713Y59970429D02*
X26025713Y59684715D01*
X26025713Y59684715D02*
X25968570Y59570429D01*
X25968570Y59570429D02*
X25911428Y59513286D01*
X25911428Y59513286D02*
X25797142Y59456143D01*
X25797142Y59456143D02*
X25454285Y59456143D01*
X25454285Y59456143D02*
X25339999Y59513286D01*
X25339999Y59513286D02*
X25282856Y59570429D01*
D12*
X20717619Y83531905D02*
X21717619Y83531905D01*
X21717619Y83531905D02*
X21717619Y83150953D01*
X21717619Y83150953D02*
X21670000Y83055715D01*
X21670000Y83055715D02*
X21622380Y83008096D01*
X21622380Y83008096D02*
X21527142Y82960477D01*
X21527142Y82960477D02*
X21384285Y82960477D01*
X21384285Y82960477D02*
X21289047Y83008096D01*
X21289047Y83008096D02*
X21241428Y83055715D01*
X21241428Y83055715D02*
X21193809Y83150953D01*
X21193809Y83150953D02*
X21193809Y83531905D01*
X21670000Y82008096D02*
X21717619Y82103334D01*
X21717619Y82103334D02*
X21717619Y82246191D01*
X21717619Y82246191D02*
X21670000Y82389048D01*
X21670000Y82389048D02*
X21574761Y82484286D01*
X21574761Y82484286D02*
X21479523Y82531905D01*
X21479523Y82531905D02*
X21289047Y82579524D01*
X21289047Y82579524D02*
X21146190Y82579524D01*
X21146190Y82579524D02*
X20955714Y82531905D01*
X20955714Y82531905D02*
X20860476Y82484286D01*
X20860476Y82484286D02*
X20765238Y82389048D01*
X20765238Y82389048D02*
X20717619Y82246191D01*
X20717619Y82246191D02*
X20717619Y82150953D01*
X20717619Y82150953D02*
X20765238Y82008096D01*
X20765238Y82008096D02*
X20812857Y81960477D01*
X20812857Y81960477D02*
X21146190Y81960477D01*
X21146190Y81960477D02*
X21146190Y82150953D01*
X20812857Y80960477D02*
X20765238Y81008096D01*
X20765238Y81008096D02*
X20717619Y81150953D01*
X20717619Y81150953D02*
X20717619Y81246191D01*
X20717619Y81246191D02*
X20765238Y81389048D01*
X20765238Y81389048D02*
X20860476Y81484286D01*
X20860476Y81484286D02*
X20955714Y81531905D01*
X20955714Y81531905D02*
X21146190Y81579524D01*
X21146190Y81579524D02*
X21289047Y81579524D01*
X21289047Y81579524D02*
X21479523Y81531905D01*
X21479523Y81531905D02*
X21574761Y81484286D01*
X21574761Y81484286D02*
X21670000Y81389048D01*
X21670000Y81389048D02*
X21717619Y81246191D01*
X21717619Y81246191D02*
X21717619Y81150953D01*
X21717619Y81150953D02*
X21670000Y81008096D01*
X21670000Y81008096D02*
X21622380Y80960477D01*
D11*
X89355714Y44075000D02*
X90070000Y44075000D01*
X89212857Y43646429D02*
X89712857Y45146429D01*
X89712857Y45146429D02*
X90212857Y43646429D01*
X91427142Y45146429D02*
X90712856Y45146429D01*
X90712856Y45146429D02*
X90641428Y44432143D01*
X90641428Y44432143D02*
X90712856Y44503572D01*
X90712856Y44503572D02*
X90855714Y44575000D01*
X90855714Y44575000D02*
X91212856Y44575000D01*
X91212856Y44575000D02*
X91355714Y44503572D01*
X91355714Y44503572D02*
X91427142Y44432143D01*
X91427142Y44432143D02*
X91498571Y44289286D01*
X91498571Y44289286D02*
X91498571Y43932143D01*
X91498571Y43932143D02*
X91427142Y43789286D01*
X91427142Y43789286D02*
X91355714Y43717858D01*
X91355714Y43717858D02*
X91212856Y43646429D01*
X91212856Y43646429D02*
X90855714Y43646429D01*
X90855714Y43646429D02*
X90712856Y43717858D01*
X90712856Y43717858D02*
X90641428Y43789286D01*
D12*
X13217619Y83531905D02*
X14217619Y83531905D01*
X14217619Y83531905D02*
X13217619Y82960477D01*
X13217619Y82960477D02*
X14217619Y82960477D01*
X13312857Y81912858D02*
X13265238Y81960477D01*
X13265238Y81960477D02*
X13217619Y82103334D01*
X13217619Y82103334D02*
X13217619Y82198572D01*
X13217619Y82198572D02*
X13265238Y82341429D01*
X13265238Y82341429D02*
X13360476Y82436667D01*
X13360476Y82436667D02*
X13455714Y82484286D01*
X13455714Y82484286D02*
X13646190Y82531905D01*
X13646190Y82531905D02*
X13789047Y82531905D01*
X13789047Y82531905D02*
X13979523Y82484286D01*
X13979523Y82484286D02*
X14074761Y82436667D01*
X14074761Y82436667D02*
X14170000Y82341429D01*
X14170000Y82341429D02*
X14217619Y82198572D01*
X14217619Y82198572D02*
X14217619Y82103334D01*
X14217619Y82103334D02*
X14170000Y81960477D01*
X14170000Y81960477D02*
X14122380Y81912858D01*
X71217619Y83531905D02*
X72217619Y83531905D01*
X72217619Y83531905D02*
X71217619Y82960477D01*
X71217619Y82960477D02*
X72217619Y82960477D01*
X71312857Y81912858D02*
X71265238Y81960477D01*
X71265238Y81960477D02*
X71217619Y82103334D01*
X71217619Y82103334D02*
X71217619Y82198572D01*
X71217619Y82198572D02*
X71265238Y82341429D01*
X71265238Y82341429D02*
X71360476Y82436667D01*
X71360476Y82436667D02*
X71455714Y82484286D01*
X71455714Y82484286D02*
X71646190Y82531905D01*
X71646190Y82531905D02*
X71789047Y82531905D01*
X71789047Y82531905D02*
X71979523Y82484286D01*
X71979523Y82484286D02*
X72074761Y82436667D01*
X72074761Y82436667D02*
X72170000Y82341429D01*
X72170000Y82341429D02*
X72217619Y82198572D01*
X72217619Y82198572D02*
X72217619Y82103334D01*
X72217619Y82103334D02*
X72170000Y81960477D01*
X72170000Y81960477D02*
X72122380Y81912858D01*
D11*
X60669999Y43789286D02*
X60598571Y43717858D01*
X60598571Y43717858D02*
X60384285Y43646429D01*
X60384285Y43646429D02*
X60241428Y43646429D01*
X60241428Y43646429D02*
X60027142Y43717858D01*
X60027142Y43717858D02*
X59884285Y43860715D01*
X59884285Y43860715D02*
X59812856Y44003572D01*
X59812856Y44003572D02*
X59741428Y44289286D01*
X59741428Y44289286D02*
X59741428Y44503572D01*
X59741428Y44503572D02*
X59812856Y44789286D01*
X59812856Y44789286D02*
X59884285Y44932143D01*
X59884285Y44932143D02*
X60027142Y45075000D01*
X60027142Y45075000D02*
X60241428Y45146429D01*
X60241428Y45146429D02*
X60384285Y45146429D01*
X60384285Y45146429D02*
X60598571Y45075000D01*
X60598571Y45075000D02*
X60669999Y45003572D01*
X62027142Y43646429D02*
X61312856Y43646429D01*
X61312856Y43646429D02*
X61312856Y45146429D01*
X62527142Y43646429D02*
X62527142Y45146429D01*
X63384285Y43646429D02*
X62741428Y44503572D01*
X63384285Y45146429D02*
X62527142Y44289286D01*
X58669998Y8086429D02*
X58669998Y9586429D01*
X59669999Y9586429D02*
X59955713Y9586429D01*
X59955713Y9586429D02*
X60098570Y9515000D01*
X60098570Y9515000D02*
X60241427Y9372143D01*
X60241427Y9372143D02*
X60312856Y9086429D01*
X60312856Y9086429D02*
X60312856Y8586429D01*
X60312856Y8586429D02*
X60241427Y8300715D01*
X60241427Y8300715D02*
X60098570Y8157858D01*
X60098570Y8157858D02*
X59955713Y8086429D01*
X59955713Y8086429D02*
X59669999Y8086429D01*
X59669999Y8086429D02*
X59527142Y8157858D01*
X59527142Y8157858D02*
X59384284Y8300715D01*
X59384284Y8300715D02*
X59312856Y8586429D01*
X59312856Y8586429D02*
X59312856Y9086429D01*
X59312856Y9086429D02*
X59384284Y9372143D01*
X59384284Y9372143D02*
X59527142Y9515000D01*
X59527142Y9515000D02*
X59669999Y9586429D01*
X61812856Y8086429D02*
X61312856Y8800715D01*
X60955713Y8086429D02*
X60955713Y9586429D01*
X60955713Y9586429D02*
X61527142Y9586429D01*
X61527142Y9586429D02*
X61669999Y9515000D01*
X61669999Y9515000D02*
X61741428Y9443572D01*
X61741428Y9443572D02*
X61812856Y9300715D01*
X61812856Y9300715D02*
X61812856Y9086429D01*
X61812856Y9086429D02*
X61741428Y8943572D01*
X61741428Y8943572D02*
X61669999Y8872143D01*
X61669999Y8872143D02*
X61527142Y8800715D01*
X61527142Y8800715D02*
X60955713Y8800715D01*
X63455713Y7943572D02*
X63312856Y8015000D01*
X63312856Y8015000D02*
X63169999Y8157858D01*
X63169999Y8157858D02*
X62955713Y8372143D01*
X62955713Y8372143D02*
X62812856Y8443572D01*
X62812856Y8443572D02*
X62669999Y8443572D01*
X62741428Y8086429D02*
X62598571Y8157858D01*
X62598571Y8157858D02*
X62455713Y8300715D01*
X62455713Y8300715D02*
X62384285Y8586429D01*
X62384285Y8586429D02*
X62384285Y9086429D01*
X62384285Y9086429D02*
X62455713Y9372143D01*
X62455713Y9372143D02*
X62598571Y9515000D01*
X62598571Y9515000D02*
X62741428Y9586429D01*
X62741428Y9586429D02*
X63027142Y9586429D01*
X63027142Y9586429D02*
X63169999Y9515000D01*
X63169999Y9515000D02*
X63312856Y9372143D01*
X63312856Y9372143D02*
X63384285Y9086429D01*
X63384285Y9086429D02*
X63384285Y8586429D01*
X63384285Y8586429D02*
X63312856Y8300715D01*
X63312856Y8300715D02*
X63169999Y8157858D01*
X63169999Y8157858D02*
X63027142Y8086429D01*
X63027142Y8086429D02*
X62741428Y8086429D01*
X58462856Y10115000D02*
X63520000Y10115000D01*
X89355714Y33915000D02*
X90070000Y33915000D01*
X89212857Y33486429D02*
X89712857Y34986429D01*
X89712857Y34986429D02*
X90212857Y33486429D01*
X91498571Y33486429D02*
X90641428Y33486429D01*
X91069999Y33486429D02*
X91069999Y34986429D01*
X91069999Y34986429D02*
X90927142Y34772143D01*
X90927142Y34772143D02*
X90784285Y34629286D01*
X90784285Y34629286D02*
X90641428Y34557858D01*
X89355714Y38995000D02*
X90070000Y38995000D01*
X89212857Y38566429D02*
X89712857Y40066429D01*
X89712857Y40066429D02*
X90212857Y38566429D01*
X90569999Y40066429D02*
X91498571Y40066429D01*
X91498571Y40066429D02*
X90998571Y39495000D01*
X90998571Y39495000D02*
X91212856Y39495000D01*
X91212856Y39495000D02*
X91355714Y39423572D01*
X91355714Y39423572D02*
X91427142Y39352143D01*
X91427142Y39352143D02*
X91498571Y39209286D01*
X91498571Y39209286D02*
X91498571Y38852143D01*
X91498571Y38852143D02*
X91427142Y38709286D01*
X91427142Y38709286D02*
X91355714Y38637858D01*
X91355714Y38637858D02*
X91212856Y38566429D01*
X91212856Y38566429D02*
X90784285Y38566429D01*
X90784285Y38566429D02*
X90641428Y38637858D01*
X90641428Y38637858D02*
X90569999Y38709286D01*
X61098571Y38566429D02*
X61098571Y40066429D01*
X61098571Y40066429D02*
X61455714Y40066429D01*
X61455714Y40066429D02*
X61670000Y39995000D01*
X61670000Y39995000D02*
X61812857Y39852143D01*
X61812857Y39852143D02*
X61884286Y39709286D01*
X61884286Y39709286D02*
X61955714Y39423572D01*
X61955714Y39423572D02*
X61955714Y39209286D01*
X61955714Y39209286D02*
X61884286Y38923572D01*
X61884286Y38923572D02*
X61812857Y38780715D01*
X61812857Y38780715D02*
X61670000Y38637858D01*
X61670000Y38637858D02*
X61455714Y38566429D01*
X61455714Y38566429D02*
X61098571Y38566429D01*
X62455714Y40066429D02*
X63384286Y40066429D01*
X63384286Y40066429D02*
X62884286Y39495000D01*
X62884286Y39495000D02*
X63098571Y39495000D01*
X63098571Y39495000D02*
X63241429Y39423572D01*
X63241429Y39423572D02*
X63312857Y39352143D01*
X63312857Y39352143D02*
X63384286Y39209286D01*
X63384286Y39209286D02*
X63384286Y38852143D01*
X63384286Y38852143D02*
X63312857Y38709286D01*
X63312857Y38709286D02*
X63241429Y38637858D01*
X63241429Y38637858D02*
X63098571Y38566429D01*
X63098571Y38566429D02*
X62670000Y38566429D01*
X62670000Y38566429D02*
X62527143Y38637858D01*
X62527143Y38637858D02*
X62455714Y38709286D01*
D12*
X29217619Y83674762D02*
X28217619Y83341429D01*
X28217619Y83341429D02*
X29217619Y83008096D01*
X28217619Y82674762D02*
X29217619Y82674762D01*
X29217619Y82674762D02*
X29217619Y82436667D01*
X29217619Y82436667D02*
X29170000Y82293810D01*
X29170000Y82293810D02*
X29074761Y82198572D01*
X29074761Y82198572D02*
X28979523Y82150953D01*
X28979523Y82150953D02*
X28789047Y82103334D01*
X28789047Y82103334D02*
X28646190Y82103334D01*
X28646190Y82103334D02*
X28455714Y82150953D01*
X28455714Y82150953D02*
X28360476Y82198572D01*
X28360476Y82198572D02*
X28265238Y82293810D01*
X28265238Y82293810D02*
X28217619Y82436667D01*
X28217619Y82436667D02*
X28217619Y82674762D01*
X28217619Y81674762D02*
X29217619Y81674762D01*
X29217619Y81674762D02*
X29217619Y81436667D01*
X29217619Y81436667D02*
X29170000Y81293810D01*
X29170000Y81293810D02*
X29074761Y81198572D01*
X29074761Y81198572D02*
X28979523Y81150953D01*
X28979523Y81150953D02*
X28789047Y81103334D01*
X28789047Y81103334D02*
X28646190Y81103334D01*
X28646190Y81103334D02*
X28455714Y81150953D01*
X28455714Y81150953D02*
X28360476Y81198572D01*
X28360476Y81198572D02*
X28265238Y81293810D01*
X28265238Y81293810D02*
X28217619Y81436667D01*
X28217619Y81436667D02*
X28217619Y81674762D01*
D11*
X59812858Y46615000D02*
X60527144Y46615000D01*
X59670001Y46186429D02*
X60170001Y47686429D01*
X60170001Y47686429D02*
X60670001Y46186429D01*
X61955715Y46186429D02*
X61098572Y46186429D01*
X61527143Y46186429D02*
X61527143Y47686429D01*
X61527143Y47686429D02*
X61384286Y47472143D01*
X61384286Y47472143D02*
X61241429Y47329286D01*
X61241429Y47329286D02*
X61098572Y47257858D01*
X63312857Y47686429D02*
X62598571Y47686429D01*
X62598571Y47686429D02*
X62527143Y46972143D01*
X62527143Y46972143D02*
X62598571Y47043572D01*
X62598571Y47043572D02*
X62741429Y47115000D01*
X62741429Y47115000D02*
X63098571Y47115000D01*
X63098571Y47115000D02*
X63241429Y47043572D01*
X63241429Y47043572D02*
X63312857Y46972143D01*
X63312857Y46972143D02*
X63384286Y46829286D01*
X63384286Y46829286D02*
X63384286Y46472143D01*
X63384286Y46472143D02*
X63312857Y46329286D01*
X63312857Y46329286D02*
X63241429Y46257858D01*
X63241429Y46257858D02*
X63098571Y46186429D01*
X63098571Y46186429D02*
X62741429Y46186429D01*
X62741429Y46186429D02*
X62598571Y46257858D01*
X62598571Y46257858D02*
X62527143Y46329286D01*
D12*
X76717619Y82960477D02*
X77193809Y83293810D01*
X76717619Y83531905D02*
X77717619Y83531905D01*
X77717619Y83531905D02*
X77717619Y83150953D01*
X77717619Y83150953D02*
X77670000Y83055715D01*
X77670000Y83055715D02*
X77622380Y83008096D01*
X77622380Y83008096D02*
X77527142Y82960477D01*
X77527142Y82960477D02*
X77384285Y82960477D01*
X77384285Y82960477D02*
X77289047Y83008096D01*
X77289047Y83008096D02*
X77241428Y83055715D01*
X77241428Y83055715D02*
X77193809Y83150953D01*
X77193809Y83150953D02*
X77193809Y83531905D01*
X77717619Y82627143D02*
X76717619Y81960477D01*
X77717619Y81960477D02*
X76717619Y82627143D01*
X76717619Y81579524D02*
X77717619Y81579524D01*
X77717619Y81579524D02*
X77717619Y81341429D01*
X77717619Y81341429D02*
X77670000Y81198572D01*
X77670000Y81198572D02*
X77574761Y81103334D01*
X77574761Y81103334D02*
X77479523Y81055715D01*
X77479523Y81055715D02*
X77289047Y81008096D01*
X77289047Y81008096D02*
X77146190Y81008096D01*
X77146190Y81008096D02*
X76955714Y81055715D01*
X76955714Y81055715D02*
X76860476Y81103334D01*
X76860476Y81103334D02*
X76765238Y81198572D01*
X76765238Y81198572D02*
X76717619Y81341429D01*
X76717619Y81341429D02*
X76717619Y81579524D01*
D11*
X61098571Y41106429D02*
X61098571Y42606429D01*
X61098571Y42606429D02*
X61455714Y42606429D01*
X61455714Y42606429D02*
X61670000Y42535000D01*
X61670000Y42535000D02*
X61812857Y42392143D01*
X61812857Y42392143D02*
X61884286Y42249286D01*
X61884286Y42249286D02*
X61955714Y41963572D01*
X61955714Y41963572D02*
X61955714Y41749286D01*
X61955714Y41749286D02*
X61884286Y41463572D01*
X61884286Y41463572D02*
X61812857Y41320715D01*
X61812857Y41320715D02*
X61670000Y41177858D01*
X61670000Y41177858D02*
X61455714Y41106429D01*
X61455714Y41106429D02*
X61098571Y41106429D01*
X63241429Y42106429D02*
X63241429Y41106429D01*
X62884286Y42677858D02*
X62527143Y41606429D01*
X62527143Y41606429D02*
X63455714Y41606429D01*
D12*
X61598333Y65812620D02*
X61265000Y66288810D01*
X61026905Y65812620D02*
X61026905Y66812620D01*
X61026905Y66812620D02*
X61407857Y66812620D01*
X61407857Y66812620D02*
X61503095Y66765000D01*
X61503095Y66765000D02*
X61550714Y66717381D01*
X61550714Y66717381D02*
X61598333Y66622143D01*
X61598333Y66622143D02*
X61598333Y66479286D01*
X61598333Y66479286D02*
X61550714Y66384048D01*
X61550714Y66384048D02*
X61503095Y66336429D01*
X61503095Y66336429D02*
X61407857Y66288810D01*
X61407857Y66288810D02*
X61026905Y66288810D01*
X62503095Y66812620D02*
X62026905Y66812620D01*
X62026905Y66812620D02*
X61979286Y66336429D01*
X61979286Y66336429D02*
X62026905Y66384048D01*
X62026905Y66384048D02*
X62122143Y66431667D01*
X62122143Y66431667D02*
X62360238Y66431667D01*
X62360238Y66431667D02*
X62455476Y66384048D01*
X62455476Y66384048D02*
X62503095Y66336429D01*
X62503095Y66336429D02*
X62550714Y66241191D01*
X62550714Y66241191D02*
X62550714Y66003096D01*
X62550714Y66003096D02*
X62503095Y65907858D01*
X62503095Y65907858D02*
X62455476Y65860239D01*
X62455476Y65860239D02*
X62360238Y65812620D01*
X62360238Y65812620D02*
X62122143Y65812620D01*
X62122143Y65812620D02*
X62026905Y65860239D01*
X62026905Y65860239D02*
X61979286Y65907858D01*
X6306666Y36862620D02*
X6306666Y36148334D01*
X6306666Y36148334D02*
X6259047Y36005477D01*
X6259047Y36005477D02*
X6163809Y35910239D01*
X6163809Y35910239D02*
X6020952Y35862620D01*
X6020952Y35862620D02*
X5925714Y35862620D01*
X6782857Y35862620D02*
X6782857Y36862620D01*
X6782857Y36862620D02*
X7163809Y36862620D01*
X7163809Y36862620D02*
X7259047Y36815000D01*
X7259047Y36815000D02*
X7306666Y36767381D01*
X7306666Y36767381D02*
X7354285Y36672143D01*
X7354285Y36672143D02*
X7354285Y36529286D01*
X7354285Y36529286D02*
X7306666Y36434048D01*
X7306666Y36434048D02*
X7259047Y36386429D01*
X7259047Y36386429D02*
X7163809Y36338810D01*
X7163809Y36338810D02*
X6782857Y36338810D01*
X8306666Y35862620D02*
X7735238Y35862620D01*
X8020952Y35862620D02*
X8020952Y36862620D01*
X8020952Y36862620D02*
X7925714Y36719762D01*
X7925714Y36719762D02*
X7830476Y36624524D01*
X7830476Y36624524D02*
X7735238Y36576905D01*
X9568095Y60462620D02*
X9568095Y59653096D01*
X9568095Y59653096D02*
X9615714Y59557858D01*
X9615714Y59557858D02*
X9663333Y59510239D01*
X9663333Y59510239D02*
X9758571Y59462620D01*
X9758571Y59462620D02*
X9949047Y59462620D01*
X9949047Y59462620D02*
X10044285Y59510239D01*
X10044285Y59510239D02*
X10091904Y59557858D01*
X10091904Y59557858D02*
X10139523Y59653096D01*
X10139523Y59653096D02*
X10139523Y60462620D01*
X11139523Y59462620D02*
X10568095Y59462620D01*
X10853809Y59462620D02*
X10853809Y60462620D01*
X10853809Y60462620D02*
X10758571Y60319762D01*
X10758571Y60319762D02*
X10663333Y60224524D01*
X10663333Y60224524D02*
X10568095Y60176905D01*
X2376666Y60252620D02*
X2376666Y59538334D01*
X2376666Y59538334D02*
X2329047Y59395477D01*
X2329047Y59395477D02*
X2233809Y59300239D01*
X2233809Y59300239D02*
X2090952Y59252620D01*
X2090952Y59252620D02*
X1995714Y59252620D01*
X2757619Y60252620D02*
X3424285Y60252620D01*
X3424285Y60252620D02*
X2995714Y59252620D01*
X86196666Y60692620D02*
X86196666Y59978334D01*
X86196666Y59978334D02*
X86149047Y59835477D01*
X86149047Y59835477D02*
X86053809Y59740239D01*
X86053809Y59740239D02*
X85910952Y59692620D01*
X85910952Y59692620D02*
X85815714Y59692620D01*
X87196666Y59692620D02*
X86625238Y59692620D01*
X86910952Y59692620D02*
X86910952Y60692620D01*
X86910952Y60692620D02*
X86815714Y60549762D01*
X86815714Y60549762D02*
X86720476Y60454524D01*
X86720476Y60454524D02*
X86625238Y60406905D01*
X43666667Y82450239D02*
X43809524Y82402620D01*
X43809524Y82402620D02*
X44047619Y82402620D01*
X44047619Y82402620D02*
X44142857Y82450239D01*
X44142857Y82450239D02*
X44190476Y82497858D01*
X44190476Y82497858D02*
X44238095Y82593096D01*
X44238095Y82593096D02*
X44238095Y82688334D01*
X44238095Y82688334D02*
X44190476Y82783572D01*
X44190476Y82783572D02*
X44142857Y82831191D01*
X44142857Y82831191D02*
X44047619Y82878810D01*
X44047619Y82878810D02*
X43857143Y82926429D01*
X43857143Y82926429D02*
X43761905Y82974048D01*
X43761905Y82974048D02*
X43714286Y83021667D01*
X43714286Y83021667D02*
X43666667Y83116905D01*
X43666667Y83116905D02*
X43666667Y83212143D01*
X43666667Y83212143D02*
X43714286Y83307381D01*
X43714286Y83307381D02*
X43761905Y83355000D01*
X43761905Y83355000D02*
X43857143Y83402620D01*
X43857143Y83402620D02*
X44095238Y83402620D01*
X44095238Y83402620D02*
X44238095Y83355000D01*
X44571429Y83402620D02*
X44809524Y82402620D01*
X44809524Y82402620D02*
X45000000Y83116905D01*
X45000000Y83116905D02*
X45190476Y82402620D01*
X45190476Y82402620D02*
X45428572Y83402620D01*
X46333333Y82402620D02*
X45761905Y82402620D01*
X46047619Y82402620D02*
X46047619Y83402620D01*
X46047619Y83402620D02*
X45952381Y83259762D01*
X45952381Y83259762D02*
X45857143Y83164524D01*
X45857143Y83164524D02*
X45761905Y83116905D01*
X48898333Y61367620D02*
X48565000Y61843810D01*
X48326905Y61367620D02*
X48326905Y62367620D01*
X48326905Y62367620D02*
X48707857Y62367620D01*
X48707857Y62367620D02*
X48803095Y62320000D01*
X48803095Y62320000D02*
X48850714Y62272381D01*
X48850714Y62272381D02*
X48898333Y62177143D01*
X48898333Y62177143D02*
X48898333Y62034286D01*
X48898333Y62034286D02*
X48850714Y61939048D01*
X48850714Y61939048D02*
X48803095Y61891429D01*
X48803095Y61891429D02*
X48707857Y61843810D01*
X48707857Y61843810D02*
X48326905Y61843810D01*
X49231667Y62367620D02*
X49850714Y62367620D01*
X49850714Y62367620D02*
X49517381Y61986667D01*
X49517381Y61986667D02*
X49660238Y61986667D01*
X49660238Y61986667D02*
X49755476Y61939048D01*
X49755476Y61939048D02*
X49803095Y61891429D01*
X49803095Y61891429D02*
X49850714Y61796191D01*
X49850714Y61796191D02*
X49850714Y61558096D01*
X49850714Y61558096D02*
X49803095Y61462858D01*
X49803095Y61462858D02*
X49755476Y61415239D01*
X49755476Y61415239D02*
X49660238Y61367620D01*
X49660238Y61367620D02*
X49374524Y61367620D01*
X49374524Y61367620D02*
X49279286Y61415239D01*
X49279286Y61415239D02*
X49231667Y61462858D01*
X61598333Y63272620D02*
X61265000Y63748810D01*
X61026905Y63272620D02*
X61026905Y64272620D01*
X61026905Y64272620D02*
X61407857Y64272620D01*
X61407857Y64272620D02*
X61503095Y64225000D01*
X61503095Y64225000D02*
X61550714Y64177381D01*
X61550714Y64177381D02*
X61598333Y64082143D01*
X61598333Y64082143D02*
X61598333Y63939286D01*
X61598333Y63939286D02*
X61550714Y63844048D01*
X61550714Y63844048D02*
X61503095Y63796429D01*
X61503095Y63796429D02*
X61407857Y63748810D01*
X61407857Y63748810D02*
X61026905Y63748810D01*
X62455476Y64272620D02*
X62265000Y64272620D01*
X62265000Y64272620D02*
X62169762Y64225000D01*
X62169762Y64225000D02*
X62122143Y64177381D01*
X62122143Y64177381D02*
X62026905Y64034524D01*
X62026905Y64034524D02*
X61979286Y63844048D01*
X61979286Y63844048D02*
X61979286Y63463096D01*
X61979286Y63463096D02*
X62026905Y63367858D01*
X62026905Y63367858D02*
X62074524Y63320239D01*
X62074524Y63320239D02*
X62169762Y63272620D01*
X62169762Y63272620D02*
X62360238Y63272620D01*
X62360238Y63272620D02*
X62455476Y63320239D01*
X62455476Y63320239D02*
X62503095Y63367858D01*
X62503095Y63367858D02*
X62550714Y63463096D01*
X62550714Y63463096D02*
X62550714Y63701191D01*
X62550714Y63701191D02*
X62503095Y63796429D01*
X62503095Y63796429D02*
X62455476Y63844048D01*
X62455476Y63844048D02*
X62360238Y63891667D01*
X62360238Y63891667D02*
X62169762Y63891667D01*
X62169762Y63891667D02*
X62074524Y63844048D01*
X62074524Y63844048D02*
X62026905Y63796429D01*
X62026905Y63796429D02*
X61979286Y63701191D01*
X65876666Y60692620D02*
X65876666Y59978334D01*
X65876666Y59978334D02*
X65829047Y59835477D01*
X65829047Y59835477D02*
X65733809Y59740239D01*
X65733809Y59740239D02*
X65590952Y59692620D01*
X65590952Y59692620D02*
X65495714Y59692620D01*
X66305238Y60597381D02*
X66352857Y60645000D01*
X66352857Y60645000D02*
X66448095Y60692620D01*
X66448095Y60692620D02*
X66686190Y60692620D01*
X66686190Y60692620D02*
X66781428Y60645000D01*
X66781428Y60645000D02*
X66829047Y60597381D01*
X66829047Y60597381D02*
X66876666Y60502143D01*
X66876666Y60502143D02*
X66876666Y60406905D01*
X66876666Y60406905D02*
X66829047Y60264048D01*
X66829047Y60264048D02*
X66257619Y59692620D01*
X66257619Y59692620D02*
X66876666Y59692620D01*
X8157380Y16546906D02*
X7157380Y16546906D01*
X7157380Y16546906D02*
X7157380Y16785001D01*
X7157380Y16785001D02*
X7205000Y16927858D01*
X7205000Y16927858D02*
X7300238Y17023096D01*
X7300238Y17023096D02*
X7395476Y17070715D01*
X7395476Y17070715D02*
X7585952Y17118334D01*
X7585952Y17118334D02*
X7728809Y17118334D01*
X7728809Y17118334D02*
X7919285Y17070715D01*
X7919285Y17070715D02*
X8014523Y17023096D01*
X8014523Y17023096D02*
X8109761Y16927858D01*
X8109761Y16927858D02*
X8157380Y16785001D01*
X8157380Y16785001D02*
X8157380Y16546906D01*
X8157380Y18070715D02*
X8157380Y17499287D01*
X8157380Y17785001D02*
X7157380Y17785001D01*
X7157380Y17785001D02*
X7300238Y17689763D01*
X7300238Y17689763D02*
X7395476Y17594525D01*
X7395476Y17594525D02*
X7443095Y17499287D01*
X6357380Y17047143D02*
X6357380Y16475715D01*
X6357380Y16761429D02*
X5357380Y16761429D01*
X5357380Y16761429D02*
X5500238Y16666191D01*
X5500238Y16666191D02*
X5595476Y16570953D01*
X5595476Y16570953D02*
X5643095Y16475715D01*
X6357380Y17475715D02*
X5357380Y17475715D01*
X5357380Y17475715D02*
X6357380Y18047143D01*
X6357380Y18047143D02*
X5357380Y18047143D01*
X5690714Y18951905D02*
X6357380Y18951905D01*
X5309761Y18713810D02*
X6024047Y18475715D01*
X6024047Y18475715D02*
X6024047Y19094762D01*
X5357380Y19951905D02*
X5357380Y19475715D01*
X5357380Y19475715D02*
X5833571Y19428096D01*
X5833571Y19428096D02*
X5785952Y19475715D01*
X5785952Y19475715D02*
X5738333Y19570953D01*
X5738333Y19570953D02*
X5738333Y19809048D01*
X5738333Y19809048D02*
X5785952Y19904286D01*
X5785952Y19904286D02*
X5833571Y19951905D01*
X5833571Y19951905D02*
X5928809Y19999524D01*
X5928809Y19999524D02*
X6166904Y19999524D01*
X6166904Y19999524D02*
X6262142Y19951905D01*
X6262142Y19951905D02*
X6309761Y19904286D01*
X6309761Y19904286D02*
X6357380Y19809048D01*
X6357380Y19809048D02*
X6357380Y19570953D01*
X6357380Y19570953D02*
X6309761Y19475715D01*
X6309761Y19475715D02*
X6262142Y19428096D01*
X5690714Y20856667D02*
X6357380Y20856667D01*
X5309761Y20618572D02*
X6024047Y20380477D01*
X6024047Y20380477D02*
X6024047Y20999524D01*
X5785952Y21523334D02*
X5738333Y21428096D01*
X5738333Y21428096D02*
X5690714Y21380477D01*
X5690714Y21380477D02*
X5595476Y21332858D01*
X5595476Y21332858D02*
X5547857Y21332858D01*
X5547857Y21332858D02*
X5452619Y21380477D01*
X5452619Y21380477D02*
X5405000Y21428096D01*
X5405000Y21428096D02*
X5357380Y21523334D01*
X5357380Y21523334D02*
X5357380Y21713810D01*
X5357380Y21713810D02*
X5405000Y21809048D01*
X5405000Y21809048D02*
X5452619Y21856667D01*
X5452619Y21856667D02*
X5547857Y21904286D01*
X5547857Y21904286D02*
X5595476Y21904286D01*
X5595476Y21904286D02*
X5690714Y21856667D01*
X5690714Y21856667D02*
X5738333Y21809048D01*
X5738333Y21809048D02*
X5785952Y21713810D01*
X5785952Y21713810D02*
X5785952Y21523334D01*
X5785952Y21523334D02*
X5833571Y21428096D01*
X5833571Y21428096D02*
X5881190Y21380477D01*
X5881190Y21380477D02*
X5976428Y21332858D01*
X5976428Y21332858D02*
X6166904Y21332858D01*
X6166904Y21332858D02*
X6262142Y21380477D01*
X6262142Y21380477D02*
X6309761Y21428096D01*
X6309761Y21428096D02*
X6357380Y21523334D01*
X6357380Y21523334D02*
X6357380Y21713810D01*
X6357380Y21713810D02*
X6309761Y21809048D01*
X6309761Y21809048D02*
X6262142Y21856667D01*
X6262142Y21856667D02*
X6166904Y21904286D01*
X6166904Y21904286D02*
X5976428Y21904286D01*
X5976428Y21904286D02*
X5881190Y21856667D01*
X5881190Y21856667D02*
X5833571Y21809048D01*
X5833571Y21809048D02*
X5785952Y21713810D01*
X33686667Y63170239D02*
X33829524Y63122620D01*
X33829524Y63122620D02*
X34067619Y63122620D01*
X34067619Y63122620D02*
X34162857Y63170239D01*
X34162857Y63170239D02*
X34210476Y63217858D01*
X34210476Y63217858D02*
X34258095Y63313096D01*
X34258095Y63313096D02*
X34258095Y63408334D01*
X34258095Y63408334D02*
X34210476Y63503572D01*
X34210476Y63503572D02*
X34162857Y63551191D01*
X34162857Y63551191D02*
X34067619Y63598810D01*
X34067619Y63598810D02*
X33877143Y63646429D01*
X33877143Y63646429D02*
X33781905Y63694048D01*
X33781905Y63694048D02*
X33734286Y63741667D01*
X33734286Y63741667D02*
X33686667Y63836905D01*
X33686667Y63836905D02*
X33686667Y63932143D01*
X33686667Y63932143D02*
X33734286Y64027381D01*
X33734286Y64027381D02*
X33781905Y64075000D01*
X33781905Y64075000D02*
X33877143Y64122620D01*
X33877143Y64122620D02*
X34115238Y64122620D01*
X34115238Y64122620D02*
X34258095Y64075000D01*
X34591429Y64122620D02*
X34829524Y63122620D01*
X34829524Y63122620D02*
X35020000Y63836905D01*
X35020000Y63836905D02*
X35210476Y63122620D01*
X35210476Y63122620D02*
X35448572Y64122620D01*
X35781905Y64027381D02*
X35829524Y64075000D01*
X35829524Y64075000D02*
X35924762Y64122620D01*
X35924762Y64122620D02*
X36162857Y64122620D01*
X36162857Y64122620D02*
X36258095Y64075000D01*
X36258095Y64075000D02*
X36305714Y64027381D01*
X36305714Y64027381D02*
X36353333Y63932143D01*
X36353333Y63932143D02*
X36353333Y63836905D01*
X36353333Y63836905D02*
X36305714Y63694048D01*
X36305714Y63694048D02*
X35734286Y63122620D01*
X35734286Y63122620D02*
X36353333Y63122620D01*
X67666666Y83902620D02*
X67666666Y83188334D01*
X67666666Y83188334D02*
X67619047Y83045477D01*
X67619047Y83045477D02*
X67523809Y82950239D01*
X67523809Y82950239D02*
X67380952Y82902620D01*
X67380952Y82902620D02*
X67285714Y82902620D01*
X68571428Y83569286D02*
X68571428Y82902620D01*
X68333333Y83950239D02*
X68095238Y83235953D01*
X68095238Y83235953D02*
X68714285Y83235953D01*
X9361666Y83957620D02*
X9361666Y83243334D01*
X9361666Y83243334D02*
X9314047Y83100477D01*
X9314047Y83100477D02*
X9218809Y83005239D01*
X9218809Y83005239D02*
X9075952Y82957620D01*
X9075952Y82957620D02*
X8980714Y82957620D01*
X10314047Y83957620D02*
X9837857Y83957620D01*
X9837857Y83957620D02*
X9790238Y83481429D01*
X9790238Y83481429D02*
X9837857Y83529048D01*
X9837857Y83529048D02*
X9933095Y83576667D01*
X9933095Y83576667D02*
X10171190Y83576667D01*
X10171190Y83576667D02*
X10266428Y83529048D01*
X10266428Y83529048D02*
X10314047Y83481429D01*
X10314047Y83481429D02*
X10361666Y83386191D01*
X10361666Y83386191D02*
X10361666Y83148096D01*
X10361666Y83148096D02*
X10314047Y83052858D01*
X10314047Y83052858D02*
X10266428Y83005239D01*
X10266428Y83005239D02*
X10171190Y82957620D01*
X10171190Y82957620D02*
X9933095Y82957620D01*
X9933095Y82957620D02*
X9837857Y83005239D01*
X9837857Y83005239D02*
X9790238Y83052858D01*
X76223333Y21747858D02*
X76175714Y21700239D01*
X76175714Y21700239D02*
X76032857Y21652620D01*
X76032857Y21652620D02*
X75937619Y21652620D01*
X75937619Y21652620D02*
X75794762Y21700239D01*
X75794762Y21700239D02*
X75699524Y21795477D01*
X75699524Y21795477D02*
X75651905Y21890715D01*
X75651905Y21890715D02*
X75604286Y22081191D01*
X75604286Y22081191D02*
X75604286Y22224048D01*
X75604286Y22224048D02*
X75651905Y22414524D01*
X75651905Y22414524D02*
X75699524Y22509762D01*
X75699524Y22509762D02*
X75794762Y22605000D01*
X75794762Y22605000D02*
X75937619Y22652620D01*
X75937619Y22652620D02*
X76032857Y22652620D01*
X76032857Y22652620D02*
X76175714Y22605000D01*
X76175714Y22605000D02*
X76223333Y22557381D01*
X77080476Y22319286D02*
X77080476Y21652620D01*
X76842381Y22700239D02*
X76604286Y21985953D01*
X76604286Y21985953D02*
X77223333Y21985953D01*
X36873095Y50937620D02*
X36873095Y50128096D01*
X36873095Y50128096D02*
X36920714Y50032858D01*
X36920714Y50032858D02*
X36968333Y49985239D01*
X36968333Y49985239D02*
X37063571Y49937620D01*
X37063571Y49937620D02*
X37254047Y49937620D01*
X37254047Y49937620D02*
X37349285Y49985239D01*
X37349285Y49985239D02*
X37396904Y50032858D01*
X37396904Y50032858D02*
X37444523Y50128096D01*
X37444523Y50128096D02*
X37444523Y50937620D01*
X37873095Y50842381D02*
X37920714Y50890000D01*
X37920714Y50890000D02*
X38015952Y50937620D01*
X38015952Y50937620D02*
X38254047Y50937620D01*
X38254047Y50937620D02*
X38349285Y50890000D01*
X38349285Y50890000D02*
X38396904Y50842381D01*
X38396904Y50842381D02*
X38444523Y50747143D01*
X38444523Y50747143D02*
X38444523Y50651905D01*
X38444523Y50651905D02*
X38396904Y50509048D01*
X38396904Y50509048D02*
X37825476Y49937620D01*
X37825476Y49937620D02*
X38444523Y49937620D01*
X10312142Y30453334D02*
X10359761Y30405715D01*
X10359761Y30405715D02*
X10407380Y30262858D01*
X10407380Y30262858D02*
X10407380Y30167620D01*
X10407380Y30167620D02*
X10359761Y30024763D01*
X10359761Y30024763D02*
X10264523Y29929525D01*
X10264523Y29929525D02*
X10169285Y29881906D01*
X10169285Y29881906D02*
X9978809Y29834287D01*
X9978809Y29834287D02*
X9835952Y29834287D01*
X9835952Y29834287D02*
X9645476Y29881906D01*
X9645476Y29881906D02*
X9550238Y29929525D01*
X9550238Y29929525D02*
X9455000Y30024763D01*
X9455000Y30024763D02*
X9407380Y30167620D01*
X9407380Y30167620D02*
X9407380Y30262858D01*
X9407380Y30262858D02*
X9455000Y30405715D01*
X9455000Y30405715D02*
X9502619Y30453334D01*
X9502619Y30834287D02*
X9455000Y30881906D01*
X9455000Y30881906D02*
X9407380Y30977144D01*
X9407380Y30977144D02*
X9407380Y31215239D01*
X9407380Y31215239D02*
X9455000Y31310477D01*
X9455000Y31310477D02*
X9502619Y31358096D01*
X9502619Y31358096D02*
X9597857Y31405715D01*
X9597857Y31405715D02*
X9693095Y31405715D01*
X9693095Y31405715D02*
X9835952Y31358096D01*
X9835952Y31358096D02*
X10407380Y30786668D01*
X10407380Y30786668D02*
X10407380Y31405715D01*
X30632142Y35513334D02*
X30679761Y35465715D01*
X30679761Y35465715D02*
X30727380Y35322858D01*
X30727380Y35322858D02*
X30727380Y35227620D01*
X30727380Y35227620D02*
X30679761Y35084763D01*
X30679761Y35084763D02*
X30584523Y34989525D01*
X30584523Y34989525D02*
X30489285Y34941906D01*
X30489285Y34941906D02*
X30298809Y34894287D01*
X30298809Y34894287D02*
X30155952Y34894287D01*
X30155952Y34894287D02*
X29965476Y34941906D01*
X29965476Y34941906D02*
X29870238Y34989525D01*
X29870238Y34989525D02*
X29775000Y35084763D01*
X29775000Y35084763D02*
X29727380Y35227620D01*
X29727380Y35227620D02*
X29727380Y35322858D01*
X29727380Y35322858D02*
X29775000Y35465715D01*
X29775000Y35465715D02*
X29822619Y35513334D01*
X29727380Y36370477D02*
X29727380Y36180001D01*
X29727380Y36180001D02*
X29775000Y36084763D01*
X29775000Y36084763D02*
X29822619Y36037144D01*
X29822619Y36037144D02*
X29965476Y35941906D01*
X29965476Y35941906D02*
X30155952Y35894287D01*
X30155952Y35894287D02*
X30536904Y35894287D01*
X30536904Y35894287D02*
X30632142Y35941906D01*
X30632142Y35941906D02*
X30679761Y35989525D01*
X30679761Y35989525D02*
X30727380Y36084763D01*
X30727380Y36084763D02*
X30727380Y36275239D01*
X30727380Y36275239D02*
X30679761Y36370477D01*
X30679761Y36370477D02*
X30632142Y36418096D01*
X30632142Y36418096D02*
X30536904Y36465715D01*
X30536904Y36465715D02*
X30298809Y36465715D01*
X30298809Y36465715D02*
X30203571Y36418096D01*
X30203571Y36418096D02*
X30155952Y36370477D01*
X30155952Y36370477D02*
X30108333Y36275239D01*
X30108333Y36275239D02*
X30108333Y36084763D01*
X30108333Y36084763D02*
X30155952Y35989525D01*
X30155952Y35989525D02*
X30203571Y35941906D01*
X30203571Y35941906D02*
X30298809Y35894287D01*
X37833333Y79497858D02*
X37785714Y79450239D01*
X37785714Y79450239D02*
X37642857Y79402620D01*
X37642857Y79402620D02*
X37547619Y79402620D01*
X37547619Y79402620D02*
X37404762Y79450239D01*
X37404762Y79450239D02*
X37309524Y79545477D01*
X37309524Y79545477D02*
X37261905Y79640715D01*
X37261905Y79640715D02*
X37214286Y79831191D01*
X37214286Y79831191D02*
X37214286Y79974048D01*
X37214286Y79974048D02*
X37261905Y80164524D01*
X37261905Y80164524D02*
X37309524Y80259762D01*
X37309524Y80259762D02*
X37404762Y80355000D01*
X37404762Y80355000D02*
X37547619Y80402620D01*
X37547619Y80402620D02*
X37642857Y80402620D01*
X37642857Y80402620D02*
X37785714Y80355000D01*
X37785714Y80355000D02*
X37833333Y80307381D01*
X38166667Y80402620D02*
X38785714Y80402620D01*
X38785714Y80402620D02*
X38452381Y80021667D01*
X38452381Y80021667D02*
X38595238Y80021667D01*
X38595238Y80021667D02*
X38690476Y79974048D01*
X38690476Y79974048D02*
X38738095Y79926429D01*
X38738095Y79926429D02*
X38785714Y79831191D01*
X38785714Y79831191D02*
X38785714Y79593096D01*
X38785714Y79593096D02*
X38738095Y79497858D01*
X38738095Y79497858D02*
X38690476Y79450239D01*
X38690476Y79450239D02*
X38595238Y79402620D01*
X38595238Y79402620D02*
X38309524Y79402620D01*
X38309524Y79402620D02*
X38214286Y79450239D01*
X38214286Y79450239D02*
X38166667Y79497858D01*
X49217380Y67981906D02*
X48217380Y67981906D01*
X48217380Y67981906D02*
X48217380Y68220001D01*
X48217380Y68220001D02*
X48265000Y68362858D01*
X48265000Y68362858D02*
X48360238Y68458096D01*
X48360238Y68458096D02*
X48455476Y68505715D01*
X48455476Y68505715D02*
X48645952Y68553334D01*
X48645952Y68553334D02*
X48788809Y68553334D01*
X48788809Y68553334D02*
X48979285Y68505715D01*
X48979285Y68505715D02*
X49074523Y68458096D01*
X49074523Y68458096D02*
X49169761Y68362858D01*
X49169761Y68362858D02*
X49217380Y68220001D01*
X49217380Y68220001D02*
X49217380Y67981906D01*
X48312619Y68934287D02*
X48265000Y68981906D01*
X48265000Y68981906D02*
X48217380Y69077144D01*
X48217380Y69077144D02*
X48217380Y69315239D01*
X48217380Y69315239D02*
X48265000Y69410477D01*
X48265000Y69410477D02*
X48312619Y69458096D01*
X48312619Y69458096D02*
X48407857Y69505715D01*
X48407857Y69505715D02*
X48503095Y69505715D01*
X48503095Y69505715D02*
X48645952Y69458096D01*
X48645952Y69458096D02*
X49217380Y68886668D01*
X49217380Y68886668D02*
X49217380Y69505715D01*
X71022381Y58902620D02*
X71022381Y59902620D01*
X71022381Y59902620D02*
X71260476Y59902620D01*
X71260476Y59902620D02*
X71403333Y59855000D01*
X71403333Y59855000D02*
X71498571Y59759762D01*
X71498571Y59759762D02*
X71546190Y59664524D01*
X71546190Y59664524D02*
X71593809Y59474048D01*
X71593809Y59474048D02*
X71593809Y59331191D01*
X71593809Y59331191D02*
X71546190Y59140715D01*
X71546190Y59140715D02*
X71498571Y59045477D01*
X71498571Y59045477D02*
X71403333Y58950239D01*
X71403333Y58950239D02*
X71260476Y58902620D01*
X71260476Y58902620D02*
X71022381Y58902620D01*
X72022381Y58902620D02*
X72022381Y59902620D01*
X72498571Y58902620D02*
X72498571Y59902620D01*
X72498571Y59902620D02*
X72879523Y59902620D01*
X72879523Y59902620D02*
X72974761Y59855000D01*
X72974761Y59855000D02*
X73022380Y59807381D01*
X73022380Y59807381D02*
X73069999Y59712143D01*
X73069999Y59712143D02*
X73069999Y59569286D01*
X73069999Y59569286D02*
X73022380Y59474048D01*
X73022380Y59474048D02*
X72974761Y59426429D01*
X72974761Y59426429D02*
X72879523Y59378810D01*
X72879523Y59378810D02*
X72498571Y59378810D01*
X73927142Y59569286D02*
X73927142Y58902620D01*
X73689047Y59950239D02*
X73450952Y59235953D01*
X73450952Y59235953D02*
X74069999Y59235953D01*
X74641428Y59902620D02*
X74736666Y59902620D01*
X74736666Y59902620D02*
X74831904Y59855000D01*
X74831904Y59855000D02*
X74879523Y59807381D01*
X74879523Y59807381D02*
X74927142Y59712143D01*
X74927142Y59712143D02*
X74974761Y59521667D01*
X74974761Y59521667D02*
X74974761Y59283572D01*
X74974761Y59283572D02*
X74927142Y59093096D01*
X74927142Y59093096D02*
X74879523Y58997858D01*
X74879523Y58997858D02*
X74831904Y58950239D01*
X74831904Y58950239D02*
X74736666Y58902620D01*
X74736666Y58902620D02*
X74641428Y58902620D01*
X74641428Y58902620D02*
X74546190Y58950239D01*
X74546190Y58950239D02*
X74498571Y58997858D01*
X74498571Y58997858D02*
X74450952Y59093096D01*
X74450952Y59093096D02*
X74403333Y59283572D01*
X74403333Y59283572D02*
X74403333Y59521667D01*
X74403333Y59521667D02*
X74450952Y59712143D01*
X74450952Y59712143D02*
X74498571Y59807381D01*
X74498571Y59807381D02*
X74546190Y59855000D01*
X74546190Y59855000D02*
X74641428Y59902620D01*
X75403333Y59283572D02*
X76165238Y59283572D01*
X77069999Y59569286D02*
X77069999Y58902620D01*
X76831904Y59950239D02*
X76593809Y59235953D01*
X76593809Y59235953D02*
X77212856Y59235953D01*
X77736666Y59474048D02*
X77641428Y59521667D01*
X77641428Y59521667D02*
X77593809Y59569286D01*
X77593809Y59569286D02*
X77546190Y59664524D01*
X77546190Y59664524D02*
X77546190Y59712143D01*
X77546190Y59712143D02*
X77593809Y59807381D01*
X77593809Y59807381D02*
X77641428Y59855000D01*
X77641428Y59855000D02*
X77736666Y59902620D01*
X77736666Y59902620D02*
X77927142Y59902620D01*
X77927142Y59902620D02*
X78022380Y59855000D01*
X78022380Y59855000D02*
X78069999Y59807381D01*
X78069999Y59807381D02*
X78117618Y59712143D01*
X78117618Y59712143D02*
X78117618Y59664524D01*
X78117618Y59664524D02*
X78069999Y59569286D01*
X78069999Y59569286D02*
X78022380Y59521667D01*
X78022380Y59521667D02*
X77927142Y59474048D01*
X77927142Y59474048D02*
X77736666Y59474048D01*
X77736666Y59474048D02*
X77641428Y59426429D01*
X77641428Y59426429D02*
X77593809Y59378810D01*
X77593809Y59378810D02*
X77546190Y59283572D01*
X77546190Y59283572D02*
X77546190Y59093096D01*
X77546190Y59093096D02*
X77593809Y58997858D01*
X77593809Y58997858D02*
X77641428Y58950239D01*
X77641428Y58950239D02*
X77736666Y58902620D01*
X77736666Y58902620D02*
X77927142Y58902620D01*
X77927142Y58902620D02*
X78022380Y58950239D01*
X78022380Y58950239D02*
X78069999Y58997858D01*
X78069999Y58997858D02*
X78117618Y59093096D01*
X78117618Y59093096D02*
X78117618Y59283572D01*
X78117618Y59283572D02*
X78069999Y59378810D01*
X78069999Y59378810D02*
X78022380Y59426429D01*
X78022380Y59426429D02*
X77927142Y59474048D01*
X79717618Y58997858D02*
X79669999Y58950239D01*
X79669999Y58950239D02*
X79527142Y58902620D01*
X79527142Y58902620D02*
X79431904Y58902620D01*
X79431904Y58902620D02*
X79289047Y58950239D01*
X79289047Y58950239D02*
X79193809Y59045477D01*
X79193809Y59045477D02*
X79146190Y59140715D01*
X79146190Y59140715D02*
X79098571Y59331191D01*
X79098571Y59331191D02*
X79098571Y59474048D01*
X79098571Y59474048D02*
X79146190Y59664524D01*
X79146190Y59664524D02*
X79193809Y59759762D01*
X79193809Y59759762D02*
X79289047Y59855000D01*
X79289047Y59855000D02*
X79431904Y59902620D01*
X79431904Y59902620D02*
X79527142Y59902620D01*
X79527142Y59902620D02*
X79669999Y59855000D01*
X79669999Y59855000D02*
X79717618Y59807381D01*
X80146190Y58902620D02*
X80146190Y59902620D01*
X80146190Y59902620D02*
X80527142Y59902620D01*
X80527142Y59902620D02*
X80622380Y59855000D01*
X80622380Y59855000D02*
X80669999Y59807381D01*
X80669999Y59807381D02*
X80717618Y59712143D01*
X80717618Y59712143D02*
X80717618Y59569286D01*
X80717618Y59569286D02*
X80669999Y59474048D01*
X80669999Y59474048D02*
X80622380Y59426429D01*
X80622380Y59426429D02*
X80527142Y59378810D01*
X80527142Y59378810D02*
X80146190Y59378810D01*
X81146190Y59902620D02*
X81146190Y59093096D01*
X81146190Y59093096D02*
X81193809Y58997858D01*
X81193809Y58997858D02*
X81241428Y58950239D01*
X81241428Y58950239D02*
X81336666Y58902620D01*
X81336666Y58902620D02*
X81527142Y58902620D01*
X81527142Y58902620D02*
X81622380Y58950239D01*
X81622380Y58950239D02*
X81669999Y58997858D01*
X81669999Y58997858D02*
X81717618Y59093096D01*
X81717618Y59093096D02*
X81717618Y59902620D01*
X6237380Y53313334D02*
X5761190Y52980001D01*
X6237380Y52741906D02*
X5237380Y52741906D01*
X5237380Y52741906D02*
X5237380Y53122858D01*
X5237380Y53122858D02*
X5285000Y53218096D01*
X5285000Y53218096D02*
X5332619Y53265715D01*
X5332619Y53265715D02*
X5427857Y53313334D01*
X5427857Y53313334D02*
X5570714Y53313334D01*
X5570714Y53313334D02*
X5665952Y53265715D01*
X5665952Y53265715D02*
X5713571Y53218096D01*
X5713571Y53218096D02*
X5761190Y53122858D01*
X5761190Y53122858D02*
X5761190Y52741906D01*
X5332619Y53694287D02*
X5285000Y53741906D01*
X5285000Y53741906D02*
X5237380Y53837144D01*
X5237380Y53837144D02*
X5237380Y54075239D01*
X5237380Y54075239D02*
X5285000Y54170477D01*
X5285000Y54170477D02*
X5332619Y54218096D01*
X5332619Y54218096D02*
X5427857Y54265715D01*
X5427857Y54265715D02*
X5523095Y54265715D01*
X5523095Y54265715D02*
X5665952Y54218096D01*
X5665952Y54218096D02*
X6237380Y53646668D01*
X6237380Y53646668D02*
X6237380Y54265715D01*
X3712380Y24103334D02*
X3236190Y23770001D01*
X3712380Y23531906D02*
X2712380Y23531906D01*
X2712380Y23531906D02*
X2712380Y23912858D01*
X2712380Y23912858D02*
X2760000Y24008096D01*
X2760000Y24008096D02*
X2807619Y24055715D01*
X2807619Y24055715D02*
X2902857Y24103334D01*
X2902857Y24103334D02*
X3045714Y24103334D01*
X3045714Y24103334D02*
X3140952Y24055715D01*
X3140952Y24055715D02*
X3188571Y24008096D01*
X3188571Y24008096D02*
X3236190Y23912858D01*
X3236190Y23912858D02*
X3236190Y23531906D01*
X3712380Y25055715D02*
X3712380Y24484287D01*
X3712380Y24770001D02*
X2712380Y24770001D01*
X2712380Y24770001D02*
X2855238Y24674763D01*
X2855238Y24674763D02*
X2950476Y24579525D01*
X2950476Y24579525D02*
X2998095Y24484287D01*
X76223333Y42067858D02*
X76175714Y42020239D01*
X76175714Y42020239D02*
X76032857Y41972620D01*
X76032857Y41972620D02*
X75937619Y41972620D01*
X75937619Y41972620D02*
X75794762Y42020239D01*
X75794762Y42020239D02*
X75699524Y42115477D01*
X75699524Y42115477D02*
X75651905Y42210715D01*
X75651905Y42210715D02*
X75604286Y42401191D01*
X75604286Y42401191D02*
X75604286Y42544048D01*
X75604286Y42544048D02*
X75651905Y42734524D01*
X75651905Y42734524D02*
X75699524Y42829762D01*
X75699524Y42829762D02*
X75794762Y42925000D01*
X75794762Y42925000D02*
X75937619Y42972620D01*
X75937619Y42972620D02*
X76032857Y42972620D01*
X76032857Y42972620D02*
X76175714Y42925000D01*
X76175714Y42925000D02*
X76223333Y42877381D01*
X77128095Y42972620D02*
X76651905Y42972620D01*
X76651905Y42972620D02*
X76604286Y42496429D01*
X76604286Y42496429D02*
X76651905Y42544048D01*
X76651905Y42544048D02*
X76747143Y42591667D01*
X76747143Y42591667D02*
X76985238Y42591667D01*
X76985238Y42591667D02*
X77080476Y42544048D01*
X77080476Y42544048D02*
X77128095Y42496429D01*
X77128095Y42496429D02*
X77175714Y42401191D01*
X77175714Y42401191D02*
X77175714Y42163096D01*
X77175714Y42163096D02*
X77128095Y42067858D01*
X77128095Y42067858D02*
X77080476Y42020239D01*
X77080476Y42020239D02*
X76985238Y41972620D01*
X76985238Y41972620D02*
X76747143Y41972620D01*
X76747143Y41972620D02*
X76651905Y42020239D01*
X76651905Y42020239D02*
X76604286Y42067858D01*
X49682142Y4438334D02*
X49729761Y4390715D01*
X49729761Y4390715D02*
X49777380Y4247858D01*
X49777380Y4247858D02*
X49777380Y4152620D01*
X49777380Y4152620D02*
X49729761Y4009763D01*
X49729761Y4009763D02*
X49634523Y3914525D01*
X49634523Y3914525D02*
X49539285Y3866906D01*
X49539285Y3866906D02*
X49348809Y3819287D01*
X49348809Y3819287D02*
X49205952Y3819287D01*
X49205952Y3819287D02*
X49015476Y3866906D01*
X49015476Y3866906D02*
X48920238Y3914525D01*
X48920238Y3914525D02*
X48825000Y4009763D01*
X48825000Y4009763D02*
X48777380Y4152620D01*
X48777380Y4152620D02*
X48777380Y4247858D01*
X48777380Y4247858D02*
X48825000Y4390715D01*
X48825000Y4390715D02*
X48872619Y4438334D01*
X49777380Y5390715D02*
X49777380Y4819287D01*
X49777380Y5105001D02*
X48777380Y5105001D01*
X48777380Y5105001D02*
X48920238Y5009763D01*
X48920238Y5009763D02*
X49015476Y4914525D01*
X49015476Y4914525D02*
X49063095Y4819287D01*
X49666666Y83902620D02*
X49666666Y83188334D01*
X49666666Y83188334D02*
X49619047Y83045477D01*
X49619047Y83045477D02*
X49523809Y82950239D01*
X49523809Y82950239D02*
X49380952Y82902620D01*
X49380952Y82902620D02*
X49285714Y82902620D01*
X50047619Y83902620D02*
X50666666Y83902620D01*
X50666666Y83902620D02*
X50333333Y83521667D01*
X50333333Y83521667D02*
X50476190Y83521667D01*
X50476190Y83521667D02*
X50571428Y83474048D01*
X50571428Y83474048D02*
X50619047Y83426429D01*
X50619047Y83426429D02*
X50666666Y83331191D01*
X50666666Y83331191D02*
X50666666Y83093096D01*
X50666666Y83093096D02*
X50619047Y82997858D01*
X50619047Y82997858D02*
X50571428Y82950239D01*
X50571428Y82950239D02*
X50476190Y82902620D01*
X50476190Y82902620D02*
X50190476Y82902620D01*
X50190476Y82902620D02*
X50095238Y82950239D01*
X50095238Y82950239D02*
X50047619Y82997858D01*
D14*
X58920000Y66180000D02*
X57970000Y66180000D01*
X57970000Y65260000D02*
X57970000Y67100000D01*
X57970000Y67100000D02*
X54130000Y67100000D01*
X54130000Y65260000D02*
X57970000Y65260000D01*
X54130000Y67100000D02*
X54130000Y65260000D01*
X53180000Y66180000D02*
X54130000Y66180000D01*
X5740000Y34130000D02*
X5740000Y34730000D01*
X6440000Y35430000D02*
X7840000Y35430000D01*
X7840000Y33430000D02*
X6440000Y33430000D01*
X8540000Y34730000D02*
X8540000Y34130000D01*
X6440000Y35430000D02*
G75*
G03*
X5740000Y34730000I-1J-699999D01*
G01*
X5740000Y34130000D02*
G75*
G03*
X6440000Y33430000I699999J-1D01*
G01*
X8540000Y34730000D02*
G75*
G03*
X7840000Y35430000I-700000J0D01*
G01*
X7840000Y33430000D02*
G75*
G03*
X8540000Y34130000I0J700000D01*
G01*
X11320000Y58620000D02*
X11320000Y7700000D01*
X11320000Y7700000D02*
X24240000Y7700000D01*
X16780000Y58620000D02*
X11320000Y58620000D01*
X24240000Y58620000D02*
X18780000Y58620000D01*
X24240000Y7700000D02*
X24240000Y58620000D01*
X16780000Y58620000D02*
G75*
G03*
X18780000Y58620000I1000000J0D01*
G01*
X1380000Y58620000D02*
X2710000Y58620000D01*
X1380000Y57290000D02*
X1380000Y58620000D01*
X1380000Y56020000D02*
X1380000Y43260000D01*
X1380000Y56020000D02*
X4040000Y56020000D01*
X1380000Y43260000D02*
X4040000Y43260000D01*
X4040000Y56020000D02*
X4040000Y43260000D01*
X85200000Y56020000D02*
X85200000Y7700000D01*
X85200000Y56020000D02*
X87860000Y56020000D01*
X85200000Y7700000D02*
X87860000Y7700000D01*
X86530000Y58620000D02*
X87860000Y58620000D01*
X87860000Y58620000D02*
X87860000Y57290000D01*
X87860000Y56020000D02*
X87860000Y7700000D01*
X47720000Y82010000D02*
X47720000Y73210000D01*
X43720000Y82010000D02*
X47720000Y82010000D01*
X47720000Y73210000D02*
X43720000Y73210000D01*
X43720000Y73210000D02*
X43720000Y82010000D01*
X43020000Y63640000D02*
X43970000Y63640000D01*
X43970000Y64560000D02*
X43970000Y62720000D01*
X43970000Y62720000D02*
X47810000Y62720000D01*
X47810000Y64560000D02*
X43970000Y64560000D01*
X47810000Y62720000D02*
X47810000Y64560000D01*
X48760000Y63640000D02*
X47810000Y63640000D01*
X58920000Y63640000D02*
X57970000Y63640000D01*
X57970000Y62720000D02*
X57970000Y64560000D01*
X57970000Y64560000D02*
X54130000Y64560000D01*
X54130000Y62720000D02*
X57970000Y62720000D01*
X54130000Y64560000D02*
X54130000Y62720000D01*
X53180000Y63640000D02*
X54130000Y63640000D01*
X64880000Y56020000D02*
X64880000Y7700000D01*
X64880000Y56020000D02*
X67540000Y56020000D01*
X64880000Y7700000D02*
X67540000Y7700000D01*
X66210000Y58620000D02*
X67540000Y58620000D01*
X67540000Y58620000D02*
X67540000Y57290000D01*
X67540000Y56020000D02*
X67540000Y7700000D01*
X7790000Y20230000D02*
X7790000Y20880000D01*
X6670000Y20880000D02*
X8910000Y20880000D01*
X8910000Y20880000D02*
X8910000Y25120000D01*
X6670000Y21480000D02*
X8910000Y21480000D01*
X6670000Y21600000D02*
X8910000Y21600000D01*
X6670000Y21720000D02*
X8910000Y21720000D01*
X6670000Y25120000D02*
X6670000Y20880000D01*
X8910000Y25120000D02*
X6670000Y25120000D01*
X7790000Y25770000D02*
X7790000Y25120000D01*
X38520000Y66990000D02*
X38520000Y68490000D01*
X37270000Y70990000D02*
X32770000Y70990000D01*
X32770000Y64490000D02*
X37270000Y64490000D01*
X31520000Y68490000D02*
X31520000Y66990000D01*
X70020000Y72530000D02*
X70020000Y73800000D01*
X71290000Y72530000D02*
X70020000Y72530000D01*
X73450000Y74842929D02*
X73450000Y75240000D01*
X74210000Y74842929D02*
X74210000Y75240000D01*
X75990000Y74842929D02*
X75990000Y75240000D01*
X76750000Y74842929D02*
X76750000Y75240000D01*
X78530000Y74842929D02*
X78530000Y75240000D01*
X79290000Y74842929D02*
X79290000Y75240000D01*
X81070000Y74842929D02*
X81070000Y75240000D01*
X81830000Y74842929D02*
X81830000Y75240000D01*
X83610000Y74842929D02*
X83610000Y75240000D01*
X84370000Y74842929D02*
X84370000Y75240000D01*
X70910000Y74910000D02*
X70910000Y75240000D01*
X71670000Y74910000D02*
X71670000Y75240000D01*
X69960000Y75240000D02*
X85320000Y75240000D01*
X72560000Y75240000D02*
X72560000Y77900000D01*
X75100000Y75240000D02*
X75100000Y77900000D01*
X77640000Y75240000D02*
X77640000Y77900000D01*
X80180000Y75240000D02*
X80180000Y77900000D01*
X82720000Y75240000D02*
X82720000Y77900000D01*
X85320000Y75240000D02*
X85320000Y77900000D01*
X69960000Y77900000D02*
X69960000Y75240000D01*
X70910000Y77900000D02*
X70910000Y78880000D01*
X70970000Y77900000D02*
X70970000Y78880000D01*
X71090000Y77900000D02*
X71090000Y78880000D01*
X71210000Y77900000D02*
X71210000Y78880000D01*
X71340800Y77900000D02*
X71340800Y78880000D01*
X71450000Y77900000D02*
X71450000Y78880000D01*
X71570000Y77900000D02*
X71569400Y78880000D01*
X73450000Y77900000D02*
X73450000Y78905400D01*
X75990000Y77900000D02*
X75990000Y78880000D01*
X78530000Y77900000D02*
X78530000Y78880000D01*
X81070000Y77900000D02*
X81070000Y78880000D01*
X83610000Y77900000D02*
X83610000Y78880000D01*
X85320000Y77900000D02*
X69960000Y77900000D01*
X71290000Y77914800D02*
X71290000Y78880000D01*
X70910000Y78880000D02*
X71670000Y78880000D01*
X71670000Y78880000D02*
X71670000Y77900000D01*
X75990000Y78880000D02*
X76750000Y78880000D01*
X76750000Y78880000D02*
X76750000Y77900000D01*
X78530000Y78880000D02*
X79290000Y78880000D01*
X79290000Y78880000D02*
X79290000Y77900000D01*
X81070000Y78880000D02*
X81830000Y78880000D01*
X81830000Y78880000D02*
X81830000Y77900000D01*
X83610000Y78880000D02*
X84370000Y78880000D01*
X84370000Y78880000D02*
X84370000Y77900000D01*
X73450000Y78905400D02*
X74210000Y78905400D01*
X74210000Y78905400D02*
X74210000Y77900000D01*
X30650000Y72530000D02*
X31920000Y72530000D01*
X31920000Y72530000D02*
X31920000Y73800000D01*
X12490000Y74842929D02*
X12490000Y75240000D01*
X13250000Y74842929D02*
X13250000Y75240000D01*
X15030000Y74842929D02*
X15030000Y75240000D01*
X15790000Y74842929D02*
X15790000Y75240000D01*
X17570000Y74842929D02*
X17570000Y75240000D01*
X18330000Y74842929D02*
X18330000Y75240000D01*
X20110000Y74842929D02*
X20110000Y75240000D01*
X20870000Y74842929D02*
X20870000Y75240000D01*
X22650000Y74842929D02*
X22650000Y75240000D01*
X23410000Y74842929D02*
X23410000Y75240000D01*
X25190000Y74842929D02*
X25190000Y75240000D01*
X25950000Y74842929D02*
X25950000Y75240000D01*
X27730000Y74842929D02*
X27730000Y75240000D01*
X28490000Y74842929D02*
X28490000Y75240000D01*
X30270000Y74910000D02*
X30270000Y75240000D01*
X31030000Y74910000D02*
X31030000Y75240000D01*
X11540000Y75240000D02*
X11540000Y77900000D01*
X14140000Y75240000D02*
X14140000Y77900000D01*
X16680000Y75240000D02*
X16680000Y77900000D01*
X19220000Y75240000D02*
X19220000Y77900000D01*
X21760000Y75240000D02*
X21760000Y77900000D01*
X24300000Y75240000D02*
X24300000Y77900000D01*
X26840000Y75240000D02*
X26840000Y77900000D01*
X29380000Y75240000D02*
X29380000Y77900000D01*
X31980000Y75240000D02*
X11540000Y75240000D01*
X11540000Y77900000D02*
X31980000Y77900000D01*
X13250000Y77900000D02*
X13250000Y78860400D01*
X15806200Y77900000D02*
X15805200Y78860400D01*
X18330000Y77900000D02*
X18330000Y78860400D01*
X20886200Y77900000D02*
X20885200Y78860400D01*
X23426200Y77900000D02*
X23425200Y78860400D01*
X25950000Y77900000D02*
X25950000Y78860400D01*
X28490000Y77900000D02*
X28490000Y78860400D01*
X30850000Y77900000D02*
X30850000Y78860400D01*
X31980000Y77900000D02*
X31980000Y75240000D01*
X30258800Y77946000D02*
X30258800Y78860400D01*
X30360400Y77946000D02*
X30360400Y78860400D01*
X30462000Y77946000D02*
X30462000Y78860400D01*
X30563600Y77946000D02*
X30563600Y78860400D01*
X30665200Y77946000D02*
X30665200Y78860400D01*
X30766800Y77946000D02*
X30766800Y78860400D01*
X30919200Y77946000D02*
X30919200Y78860400D01*
X31020800Y77946000D02*
X31020800Y78860400D01*
X31071600Y77946000D02*
X31071600Y78860400D01*
X12490000Y78860400D02*
X12490000Y77900000D01*
X13250000Y78860400D02*
X12490000Y78860400D01*
X15045200Y78860400D02*
X15044200Y77900000D01*
X15805200Y78860400D02*
X15045200Y78860400D01*
X17570000Y78860400D02*
X17570000Y77900000D01*
X18330000Y78860400D02*
X17570000Y78860400D01*
X20125200Y78860400D02*
X20124200Y77900000D01*
X20885200Y78860400D02*
X20125200Y78860400D01*
X22665200Y78860400D02*
X22664200Y77971400D01*
X23425200Y78860400D02*
X22665200Y78860400D01*
X25190000Y78860400D02*
X25190000Y77900000D01*
X25950000Y78860400D02*
X25190000Y78860400D01*
X27730000Y78860400D02*
X27730000Y77900000D01*
X28490000Y78860400D02*
X27730000Y78860400D01*
X30285200Y78860400D02*
X30258800Y77895200D01*
X31045200Y78860400D02*
X30285200Y78860400D01*
X78010000Y23150000D02*
X78010000Y23215000D01*
X78010000Y23150000D02*
X74770000Y23150000D01*
X78010000Y25325000D02*
X78010000Y25390000D01*
X78010000Y25390000D02*
X74770000Y25390000D01*
X74770000Y23150000D02*
X74770000Y23215000D01*
X74770000Y25325000D02*
X74770000Y25390000D01*
X36770000Y48520000D02*
X36770000Y7640000D01*
X36770000Y7640000D02*
X54670000Y7640000D01*
X39260000Y48460000D02*
X39260000Y7700000D01*
X39260000Y7700000D02*
X52180000Y7700000D01*
X44720000Y48460000D02*
X39260000Y48460000D01*
X52180000Y48460000D02*
X46720000Y48460000D01*
X52180000Y7700000D02*
X52180000Y48460000D01*
X54670000Y48520000D02*
X36770000Y48520000D01*
X54670000Y7640000D02*
X54670000Y48520000D01*
X44720000Y48460000D02*
G75*
G03*
X46720000Y48460000I1000000J0D01*
G01*
X8910000Y32240000D02*
X8845000Y32240000D01*
X8910000Y32240000D02*
X8910000Y29000000D01*
X6735000Y32240000D02*
X6670000Y32240000D01*
X6670000Y32240000D02*
X6670000Y29000000D01*
X8910000Y29000000D02*
X8845000Y29000000D01*
X6735000Y29000000D02*
X6670000Y29000000D01*
X29230000Y37300000D02*
X29165000Y37300000D01*
X29230000Y37300000D02*
X29230000Y34060000D01*
X27055000Y37300000D02*
X26990000Y37300000D01*
X26990000Y37300000D02*
X26990000Y34060000D01*
X29230000Y34060000D02*
X29165000Y34060000D01*
X27055000Y34060000D02*
X26990000Y34060000D01*
X39745000Y79124775D02*
X39745000Y78624775D01*
X39995000Y78874775D02*
X39495000Y78874775D01*
X40850000Y76320000D02*
X35690000Y76320000D01*
X40850000Y76280000D02*
X35690000Y76280000D01*
X40849000Y76240000D02*
X35691000Y76240000D01*
X40848000Y76200000D02*
X35692000Y76200000D01*
X40846000Y76160000D02*
X35694000Y76160000D01*
X40843000Y76120000D02*
X35697000Y76120000D01*
X40839000Y76080000D02*
X39310000Y76080000D01*
X37230000Y76080000D02*
X35701000Y76080000D01*
X40835000Y76040000D02*
X39310000Y76040000D01*
X37230000Y76040000D02*
X35705000Y76040000D01*
X40831000Y76000000D02*
X39310000Y76000000D01*
X37230000Y76000000D02*
X35709000Y76000000D01*
X40826000Y75960000D02*
X39310000Y75960000D01*
X37230000Y75960000D02*
X35714000Y75960000D01*
X40820000Y75920000D02*
X39310000Y75920000D01*
X37230000Y75920000D02*
X35720000Y75920000D01*
X40813000Y75880000D02*
X39310000Y75880000D01*
X37230000Y75880000D02*
X35727000Y75880000D01*
X40806000Y75840000D02*
X39310000Y75840000D01*
X37230000Y75840000D02*
X35734000Y75840000D01*
X40798000Y75800000D02*
X39310000Y75800000D01*
X37230000Y75800000D02*
X35742000Y75800000D01*
X40790000Y75760000D02*
X39310000Y75760000D01*
X37230000Y75760000D02*
X35750000Y75760000D01*
X40781000Y75720000D02*
X39310000Y75720000D01*
X37230000Y75720000D02*
X35759000Y75720000D01*
X40771000Y75680000D02*
X39310000Y75680000D01*
X37230000Y75680000D02*
X35769000Y75680000D01*
X40761000Y75640000D02*
X39310000Y75640000D01*
X37230000Y75640000D02*
X35779000Y75640000D01*
X40750000Y75599000D02*
X39310000Y75599000D01*
X37230000Y75599000D02*
X35790000Y75599000D01*
X40738000Y75559000D02*
X39310000Y75559000D01*
X37230000Y75559000D02*
X35802000Y75559000D01*
X40725000Y75519000D02*
X39310000Y75519000D01*
X37230000Y75519000D02*
X35815000Y75519000D01*
X40712000Y75479000D02*
X39310000Y75479000D01*
X37230000Y75479000D02*
X35828000Y75479000D01*
X40698000Y75439000D02*
X39310000Y75439000D01*
X37230000Y75439000D02*
X35842000Y75439000D01*
X40684000Y75399000D02*
X39310000Y75399000D01*
X37230000Y75399000D02*
X35856000Y75399000D01*
X40668000Y75359000D02*
X39310000Y75359000D01*
X37230000Y75359000D02*
X35872000Y75359000D01*
X40652000Y75319000D02*
X39310000Y75319000D01*
X37230000Y75319000D02*
X35888000Y75319000D01*
X40635000Y75279000D02*
X39310000Y75279000D01*
X37230000Y75279000D02*
X35905000Y75279000D01*
X40618000Y75239000D02*
X39310000Y75239000D01*
X37230000Y75239000D02*
X35922000Y75239000D01*
X40599000Y75199000D02*
X39310000Y75199000D01*
X37230000Y75199000D02*
X35941000Y75199000D01*
X40580000Y75159000D02*
X39310000Y75159000D01*
X37230000Y75159000D02*
X35960000Y75159000D01*
X40560000Y75119000D02*
X39310000Y75119000D01*
X37230000Y75119000D02*
X35980000Y75119000D01*
X40538000Y75079000D02*
X39310000Y75079000D01*
X37230000Y75079000D02*
X36002000Y75079000D01*
X40517000Y75039000D02*
X39310000Y75039000D01*
X37230000Y75039000D02*
X36023000Y75039000D01*
X40494000Y74999000D02*
X39310000Y74999000D01*
X37230000Y74999000D02*
X36046000Y74999000D01*
X40470000Y74959000D02*
X39310000Y74959000D01*
X37230000Y74959000D02*
X36070000Y74959000D01*
X40445000Y74919000D02*
X39310000Y74919000D01*
X37230000Y74919000D02*
X36095000Y74919000D01*
X40419000Y74879000D02*
X39310000Y74879000D01*
X37230000Y74879000D02*
X36121000Y74879000D01*
X40392000Y74839000D02*
X39310000Y74839000D01*
X37230000Y74839000D02*
X36148000Y74839000D01*
X40365000Y74799000D02*
X39310000Y74799000D01*
X37230000Y74799000D02*
X36175000Y74799000D01*
X40335000Y74759000D02*
X39310000Y74759000D01*
X37230000Y74759000D02*
X36205000Y74759000D01*
X40305000Y74719000D02*
X39310000Y74719000D01*
X37230000Y74719000D02*
X36235000Y74719000D01*
X40274000Y74679000D02*
X39310000Y74679000D01*
X37230000Y74679000D02*
X36266000Y74679000D01*
X40241000Y74639000D02*
X39310000Y74639000D01*
X37230000Y74639000D02*
X36299000Y74639000D01*
X40207000Y74599000D02*
X39310000Y74599000D01*
X37230000Y74599000D02*
X36333000Y74599000D01*
X40171000Y74559000D02*
X39310000Y74559000D01*
X37230000Y74559000D02*
X36369000Y74559000D01*
X40134000Y74519000D02*
X39310000Y74519000D01*
X37230000Y74519000D02*
X36406000Y74519000D01*
X40096000Y74479000D02*
X39310000Y74479000D01*
X37230000Y74479000D02*
X36444000Y74479000D01*
X40055000Y74439000D02*
X39310000Y74439000D01*
X37230000Y74439000D02*
X36485000Y74439000D01*
X40013000Y74399000D02*
X39310000Y74399000D01*
X37230000Y74399000D02*
X36527000Y74399000D01*
X39969000Y74359000D02*
X39310000Y74359000D01*
X37230000Y74359000D02*
X36571000Y74359000D01*
X39923000Y74319000D02*
X39310000Y74319000D01*
X37230000Y74319000D02*
X36617000Y74319000D01*
X39875000Y74279000D02*
X39310000Y74279000D01*
X37230000Y74279000D02*
X36665000Y74279000D01*
X39824000Y74239000D02*
X39310000Y74239000D01*
X37230000Y74239000D02*
X36716000Y74239000D01*
X39770000Y74199000D02*
X39310000Y74199000D01*
X37230000Y74199000D02*
X36770000Y74199000D01*
X39713000Y74159000D02*
X39310000Y74159000D01*
X37230000Y74159000D02*
X36827000Y74159000D01*
X39653000Y74119000D02*
X39310000Y74119000D01*
X37230000Y74119000D02*
X36887000Y74119000D01*
X39589000Y74079000D02*
X39310000Y74079000D01*
X37230000Y74079000D02*
X36951000Y74079000D01*
X39521000Y74039000D02*
X39310000Y74039000D01*
X37230000Y74039000D02*
X37019000Y74039000D01*
X39448000Y73999000D02*
X37092000Y73999000D01*
X39368000Y73959000D02*
X37172000Y73959000D01*
X39281000Y73919000D02*
X37259000Y73919000D01*
X39185000Y73879000D02*
X37355000Y73879000D01*
X39075000Y73839000D02*
X37465000Y73839000D01*
X38947000Y73799000D02*
X37593000Y73799000D01*
X38788000Y73759000D02*
X37752000Y73759000D01*
X38554000Y73719000D02*
X37986000Y73719000D01*
X40890000Y76320000D02*
G75*
G03*
X40890000Y76320000I-2620000J0D01*
G01*
X47126000Y70280000D02*
X46970000Y70280000D01*
X44810000Y70280000D02*
X44654000Y70280000D01*
X46968608Y67047666D02*
G75*
G03*
X47125515Y70279999I-1078608J1672334D01*
G01*
X46969836Y67678871D02*
G75*
G03*
X46969999Y69760960I-1079836J1041129D01*
G01*
X44810001Y69760960D02*
G75*
G03*
X44810164Y67678871I1079999J-1040960D01*
G01*
X44654485Y70279999D02*
G75*
G03*
X44811392Y67047666I1235515J-1559999D01*
G01*
X67480000Y68780000D02*
X67480000Y67390000D01*
X68115000Y58560000D02*
X84625000Y58560000D01*
X68115000Y7760000D02*
X84625000Y7760000D01*
X70310000Y68780000D02*
X70310000Y7760000D01*
X70310000Y7870000D02*
X82430000Y7870000D01*
X75370000Y68780000D02*
X70310000Y68780000D01*
X82430000Y68780000D02*
X77370000Y68780000D01*
X82430000Y7870000D02*
X82430000Y68780000D01*
X85260000Y68840000D02*
X67480000Y68840000D01*
X85260000Y68840000D02*
X85260000Y67450000D01*
X75370000Y68780000D02*
G75*
G03*
X77370000Y68780000I1000000J0D01*
G01*
X75370000Y58544000D02*
G75*
G03*
X77370000Y58544000I1000000J0D01*
G01*
X7790000Y50610000D02*
X7790000Y51560000D01*
X6870000Y51560000D02*
X8710000Y51560000D01*
X8710000Y51560000D02*
X8710000Y55400000D01*
X6870000Y55400000D02*
X6870000Y51560000D01*
X8710000Y55400000D02*
X6870000Y55400000D01*
X7790000Y56350000D02*
X7790000Y55400000D01*
X5250000Y30950000D02*
X5250000Y30000000D01*
X6170000Y30000000D02*
X4330000Y30000000D01*
X4330000Y30000000D02*
X4330000Y26160000D01*
X6170000Y26160000D02*
X6170000Y30000000D01*
X4330000Y26160000D02*
X6170000Y26160000D01*
X5250000Y25210000D02*
X5250000Y26160000D01*
X78010000Y43470000D02*
X78010000Y43535000D01*
X78010000Y43470000D02*
X74770000Y43470000D01*
X78010000Y45645000D02*
X78010000Y45710000D01*
X78010000Y45710000D02*
X74770000Y45710000D01*
X74770000Y43470000D02*
X74770000Y43535000D01*
X74770000Y45645000D02*
X74770000Y45710000D01*
X48280000Y6225000D02*
X48215000Y6225000D01*
X48280000Y6225000D02*
X48280000Y2985000D01*
X46105000Y6225000D02*
X46040000Y6225000D01*
X46040000Y6225000D02*
X46040000Y2985000D01*
X48280000Y2985000D02*
X48215000Y2985000D01*
X46105000Y2985000D02*
X46040000Y2985000D01*
X60550000Y84040000D02*
X51550000Y84040000D01*
X51550000Y84040000D02*
X51550000Y69540000D01*
X51550000Y80540000D02*
X60550000Y80540000D01*
X55050000Y76840000D02*
X57050000Y76840000D01*
X57050000Y75840000D02*
X55050000Y75840000D01*
X51650000Y74340000D02*
X51650000Y72340000D01*
X50650000Y74340000D02*
X50650000Y72340000D01*
X54750000Y70840000D02*
X57350000Y70840000D01*
X57350000Y69840000D02*
X54750000Y69840000D01*
X60550000Y69540000D02*
X60550000Y84040000D01*
X51550000Y69540000D02*
X60550000Y69540000D01*
X57050000Y75840000D02*
G75*
G03*
X57050000Y76840000I0J500000D01*
G01*
X55050000Y76840000D02*
G75*
G03*
X55050000Y75840000I0J-500000D01*
G01*
X51650000Y74340000D02*
G75*
G03*
X50650000Y74340000I-500000J0D01*
G01*
X50650000Y72340000D02*
G75*
G03*
X51650000Y72340000I500000J0D01*
G01*
X57350000Y69840000D02*
G75*
G03*
X57350000Y70840000I0J500000D01*
G01*
X54750000Y70840000D02*
G75*
G03*
X54750000Y69840000I0J-500000D01*
G01*
M02*
